<svg id="Calque_1" data-name="Calque 1" xmlns="http://www.w3.org/2000/svg" viewBox="0 0 900 300"><path d="M852,64.37a172.47,172.47,0,0,1,41.07,167.57l-165.65-48.2Z" style="fill:#feb41c"/><path d="M769.35,39.7a149.48,149.48,0,0,1,66.43,40.23L727.44,183.74,691.7,38A149.36,149.36,0,0,1,769.35,39.7Z" style="fill:#5e7c88"/><path d="M697.07,59.89l30.37,123.85L605,148.12A127.43,127.43,0,0,1,697.07,59.89Z" style="fill:#4b5f6d"/><path d="M626.61,154.41l100.83,29.33-75.83,72.65A104.91,104.91,0,0,1,626.61,154.41Z" style="fill:#363f45"/><path d="M727.44,183.74l19.64,80.15c-27,7.32-60.35-2.38-79.22-23Z" style="fill:#24221f"/><polygon points="450 237.72 367.16 158.23 450 78.74 532.84 158.23 450 237.72" style="fill:#d81c36"/><ellipse cx="408.58" cy="118.49" rx="58.58" ry="56.21" style="fill:#d81c36"/><ellipse cx="491.42" cy="118.49" rx="58.58" ry="56.21" style="fill:#d81c36"/><circle cx="150.05" cy="150.09" r="150" style="fill:#b5d1cc"/><path d="M45.05,197v30H101.3v-52.5H67.55C56.3,174.47,45.05,183.84,45.05,197Z" style="fill:#371722"/><path d="M234.43,198.84c-5.63,0-9.38-1.87-13.13-5.62l-11.25-16.88a35.22,35.22,0,0,0-13.12-11.25c28.12-5.62,45-20.62,45-45,0-31.87-24.38-48.75-65.63-48.75H45.05v46.88a59.73,59.73,0,0,0,60,56.25h30c9.38,0,18.75,3.75,26.25,13.12l9.38,16.88c9.37,13.12,20.62,26.25,43.12,26.25,15,0,31.88-5.63,39.38-13.13l-9.38-22.5C241.93,197,236.3,198.84,234.43,198.84Zm-75-56.25H103.18v-37.5h56.25c16.87,0,26.25,7.5,26.25,18.75C183.8,135.09,174.43,142.59,159.43,142.59Z" style="fill:#371722"/></svg>