<?xml version="1.0" encoding="utf-8"?>
<!-- Generator: Adobe Illustrator 24.3.0, SVG Export Plug-In . SVG Version: 6.00 Build 0)  -->
<svg version="1.1" id="Layer_1" xmlns="http://www.w3.org/2000/svg" xmlns:xlink="http://www.w3.org/1999/xlink" x="0px" y="0px"
	 viewBox="0 0 16 16" style="enable-background:new 0 0 16 16;" xml:space="preserve">
<style type="text/css">
	.st0{fill:#D81C36;}
	.st1{fill:#FFFFFF;}
	.st2{fill:#B5D1CC;}
	.st3{fill:#371722;}
	.st4{fill:#F5B111;}
</style>
<circle class="st4" cx="8" cy="8" r="8"/>
<g>
	<path class="st3" d="M2.4,10.5v1.6h3V9.3H3.6C3,9.3,2.4,9.8,2.4,10.5z"/>
	<path class="st3" d="M12.5,10.6c-0.3,0-0.5-0.1-0.7-0.3l-0.6-0.9c-0.2-0.3-0.5-0.5-0.7-0.6v0c1.5-0.3,2.4-1.1,2.4-2.4
		c0-1.7-1.3-2.6-3.5-2.6H2.4v2.5c0.1,1.7,1.5,3,3.2,3l0,0h1.6c0.5,0,1,0.2,1.4,0.7l0.5,0.9c0.5,0.7,1.1,1.4,2.3,1.4
		c0.8,0,1.7-0.3,2.1-0.7l-0.5-1.2C12.9,10.5,12.6,10.6,12.5,10.6z M8.5,7.6h-3v-2h3c0.9,0,1.4,0.4,1.4,1C9.8,7.2,9.3,7.6,8.5,7.6z"
		/>
</g>
</svg>
