<?xml version="1.0" encoding="utf-8"?>
<!-- Generator: Adobe Illustrator 24.3.0, SVG Export Plug-In . SVG Version: 6.00 Build 0)  -->
<svg version="1.1" id="Layer_1" xmlns="http://www.w3.org/2000/svg" xmlns:xlink="http://www.w3.org/1999/xlink" x="0px" y="0px"
	 viewBox="0 0 481.9 100.8" style="enable-background:new 0 0 481.9 100.8;" xml:space="preserve">
<style type="text/css">
	.st0{fill:#F5B111;}
	.st1{fill:#371722;}
</style>
<g>
	<polygon class="st0" points="219.2,10.4 209.3,9 204.9,0 200.5,9 190.5,10.4 197.7,17.4 196.1,27.3 204.9,22.6 221.7,35.2 
		212.1,17.4 	"/>
	<g>
		<path class="st1" d="M124.9,31.4c-21.8,0-37.1,10.3-37.1,25c0,15.3,16.4,25.1,40.7,25.1c12.6,0,24.7-2.8,31.1-6.9l-5.9-10.2
			c-4.8,2.7-14.2,4.8-23.6,4.8c-8.9,0-17.1-2.2-19.5-7.7h49.3c0.5-1.6,0.6-3.6,0.6-4.9C160.5,41.4,146.3,31.4,124.9,31.4z
			 M110.2,52.3c0.8-5.3,6.8-9,14.5-9c7.6,0,13.8,3.7,14.1,9H110.2z"/>
		<path class="st1" d="M178.9,12h-12.2v68.5h21.6v-59C188.3,16.2,184.1,12,178.9,12z"/>
		<path class="st1" d="M395.1,12H383v68.5h21.6v-59C404.6,16.2,400.4,12,395.1,12z"/>
		<path class="st1" d="M0,68v12.5h23.8V58.5H9.5C4.2,58.5,0,62.8,0,68z"/>
		<path class="st1" d="M79.4,69.2c-2.6,0-4.1-1.1-5.3-2.7l-4.7-7c-1.6-2.4-3.6-4.1-5.8-4.9v-0.1c12-2.3,18.9-9.1,18.9-18.9
			c0-13.2-10-20.7-27.6-20.7H0v19.9c0.8,13.3,11.9,23.8,25.3,23.8c0,0,0,0,0,0l12.5,0c4.3,0,8.3,1.8,11.1,5.7l4.1,6.8
			C56.7,76.3,61.7,82,71.5,82c6,0,13.2-2.2,16.7-5.3l-4-9.6C83.1,68.3,80.9,69.2,79.4,69.2z M47.9,45h-24V28.8h24
			c6.8,0,10.9,3,10.9,8.1C58.7,41.9,54.7,45,47.9,45z"/>
		<path class="st1" d="M349.7,31.4c-11.8,0-21.8,5.4-25.5,13.6h-0.1V21.5c0-5.2-4.2-9.5-9.5-9.5h-12.2v68.5h11.1
			c4.4,0,8.2-3.4,9.2-7.7l0.1-1c0.2-2.1,0.3-4.3,0.3-6.4c0-3.2,0-8,0-8.8c0-6.5,6.5-10.8,16.3-10.8c9.9,0,16.3,4.3,16.3,10.8
			c0,6.5-6.4,10.7-16.3,10.7c-9.5,0-15.9-3.9-16.3-10.1c0,1,0.1,2.1,0.2,3.1c0.1,1.2,0.2,2.5,0.4,3.7c0.2,1.2,0.4,2.4,0.7,3.6
			c0,0,0,0,0,0c0.5,2.2,1.6,4.2,3.2,5.8c4.9,5.1,12.9,8.2,22,8.2c16.8,0,27.8-9.9,27.8-25C377.5,41.4,366.5,31.4,349.7,31.4z"/>
		<path class="st1" d="M437,80.1c5.2,0,9.9-1.1,13.8-3.1c5.3-2.8,8.8-8.2,9.3-14.2c0,0,0-0.6,0-0.6c0.2-2.8,0.2-5,0.2-7.8
			c-0.7,8-6.3,13.1-14.5,13.1c-7.6,0-12.6-5.3-12.6-13.3V32.9h-21.6l-0.1,23.4C411.4,70.1,421.5,80.1,437,80.1z"/>
		<path class="st1" d="M460.3,33v37.2c0,9.2-9.1,15.3-23.1,15.3c-8.6,0-18.5-3.1-25.5-6.9l-6.7,14c7.4,4.6,20.8,8.3,33.6,8.3
			c26.1,0,43.2-11.7,43.2-29.6V33H460.3z"/>
		<path class="st1" d="M261.9,31.4c-12.8,0-25.6,3-34.7,7.8l11.5,8.7c7.3-2.8,15.6-4.5,23.2-4.5c7.9,0,13.2,1.7,13.2,4
			c0,0.9-1.2,1.6-3.2,1.8l-18,1.6c-19.5,1.8-31,8.2-31,17.6c0,8.2,8.8,13,23.7,13c5,0,9.7-0.7,13.7-1.9c8.3-2.5,14.2-10.3,14.3-20.2
			l0.1,7.7c0,2.1,0.3,4.1,0.9,6.1c1.2,4.1,4.9,6.9,9.1,6.9h11.6V49.6C296.3,38,282.6,31.4,261.9,31.4z M274.6,59.1
			c0,5.8-8.1,9.7-20.4,9.7c-6.4,0-9.8-1.4-9.8-3.7c0-2.5,3.7-3.8,10.8-4.4l19.4-1.7V59.1z"/>
		<path class="st1" d="M207.8,33h-12.1v47.5h21.6v-38C217.3,37.2,213,33,207.8,33z"/>
	</g>
</g>
</svg>
