<?xml version="1.0" encoding="utf-8"?>
<!-- Generator: Adobe Illustrator 24.3.0, SVG Export Plug-In . SVG Version: 6.00 Build 0)  -->
<svg version="1.1" id="Layer_1" xmlns="http://www.w3.org/2000/svg" xmlns:xlink="http://www.w3.org/1999/xlink" x="0px" y="0px"
	 viewBox="0 0 481.9 100.8" style="enable-background:new 0 0 481.9 100.8;" xml:space="preserve">
<style type="text/css">
	.st0{fill:#F5B111;}
	.st1{fill:#FFFFFF;}
</style>
<g>
	<polygon class="st0" points="219.3,10.4 209.4,8.9 205,0 200.6,8.9 190.6,10.4 197.8,17.4 196.2,27.3 205,22.6 221.8,35.2 
		212.2,17.4 	"/>
	<g>
		<path class="st1" d="M125,31.4c-21.8,0-37.1,10.3-37.1,25c0,15.3,16.4,25.1,40.7,25.1c12.6,0,24.7-2.8,31.1-6.9l-5.9-10.2
			c-4.8,2.7-14.2,4.8-23.6,4.8c-8.9,0-17.1-2.2-19.5-7.7H160c0.5-1.6,0.6-3.6,0.6-4.9C160.6,41.4,146.4,31.4,125,31.4z M110.3,52.2
			c0.8-5.3,6.8-9,14.5-9c7.6,0,13.8,3.7,14.1,9H110.3z"/>
		<path class="st1" d="M179,11.9h-12.2v68.5h21.6v-59C188.4,16.2,184.2,11.9,179,11.9z"/>
		<path class="st1" d="M395.2,11.9h-12.1v68.5h21.6v-59C404.7,16.2,400.5,11.9,395.2,11.9z"/>
		<path class="st1" d="M0.1,68v12.5h23.8V58.6H9.5C4.3,58.5,0.1,62.7,0.1,68z"/>
		<path class="st1" d="M79.5,69.1c-2.6,0-4.1-1.1-5.3-2.7l-4.7-7c-1.6-2.4-3.6-4.1-5.8-4.9v-0.1c12-2.3,18.9-9.1,18.9-18.9
			c0-13.2-10-20.7-27.6-20.7H0v19.9C0.8,48,11.9,58.5,25.3,58.5l0,0h12.5c4.3,0,8.3,1.8,11.1,5.7L53,71c3.7,5.4,8.7,11.1,18.5,11.1
			c6,0,13.2-2.2,16.7-5.3l-4-9.6C83.2,68.3,81,69.1,79.5,69.1z M48,44.9H24V28.7h24c6.8,0,10.9,3,10.9,8.1
			C58.8,41.9,54.8,44.9,48,44.9z"/>
		<path class="st1" d="M349.8,31.4c-11.8,0-21.8,5.4-25.5,13.6h-0.1V21.4c0-5.2-4.2-9.5-9.5-9.5h-12.2v68.5h11.1
			c4.4,0,8.2-3.4,9.2-7.7l0.1-1c0.2-2.1,0.3-4.3,0.3-6.4c0-3.2,0-8,0-8.8c0-6.5,6.5-10.8,16.3-10.8c9.9,0,16.3,4.3,16.3,10.8
			s-6.4,10.7-16.3,10.7c-9.5,0-15.9-3.9-16.3-10.1c0,1,0.1,2.1,0.2,3.1c0.1,1.2,0.2,2.5,0.4,3.7c0.2,1.2,0.4,2.4,0.7,3.6l0,0
			c0.5,2.2,1.6,4.2,3.2,5.8c4.9,5.1,12.9,8.2,22,8.2c16.8,0,27.8-9.9,27.8-25S366.6,31.4,349.8,31.4z"/>
		<path class="st1" d="M437.1,80c5.2,0,9.9-1.1,13.8-3.1c5.3-2.8,8.8-8.2,9.3-14.2v-0.6c0.2-2.8,0.2-5,0.2-7.8
			c-0.7,8-6.3,13.1-14.5,13.1c-7.6,0-12.6-5.3-12.6-13.3V33h-21.6l-0.1,23.4C411.5,70.1,421.6,80,437.1,80z"/>
		<path class="st1" d="M460.4,32.9v37.2c0,9.2-9.1,15.3-23.1,15.3c-8.6,0-18.5-3.1-25.5-6.9l-6.7,14c7.4,4.6,20.8,8.3,33.6,8.3
			c26.1,0,43.2-11.7,43.2-29.6V33L460.4,32.9L460.4,32.9z"/>
		<path class="st1" d="M262,31.4c-12.8,0-25.6,3-34.7,7.8l11.5,8.7c7.3-2.8,15.6-4.5,23.2-4.5c7.9,0,13.2,1.7,13.2,4
			c0,0.9-1.2,1.6-3.2,1.8l-18,1.6c-19.5,1.8-31,8.2-31,17.6c0,8.2,8.8,13,23.7,13c5,0,9.7-0.7,13.7-1.9c8.3-2.5,14.2-10.3,14.3-20.2
			l0.1,7.7c0,2.1,0.3,4.1,0.9,6.1c1.2,4.1,4.9,6.9,9.1,6.9h11.6V49.5C296.4,38,282.7,31.4,262,31.4z M274.7,59.1
			c0,5.8-8.1,9.7-20.4,9.7c-6.4,0-9.8-1.4-9.8-3.7c0-2.5,3.7-3.8,10.8-4.4l19.4-1.7V59.1z"/>
		<path class="st1" d="M207.9,32.9h-12.1v47.5h21.6v-38C217.4,37.2,213.1,32.9,207.9,32.9z"/>
	</g>
</g>
</svg>
