<svg xmlns="http://www.w3.org/2000/svg" xmlns:xlink="http://www.w3.org/1999/xlink" viewBox="0 0 1607.83 1518.692"><defs><radialGradient id="radial-gradient" cx="423.025" cy="660.546" fx="266.3831921938501" r="255.027" gradientUnits="userSpaceOnUse"><stop offset="0.083" stop-color="#5b6966"/><stop offset="0.139" stop-color="#677774"/><stop offset="0.283" stop-color="#819591"/><stop offset="0.434" stop-color="#95aca8"/><stop offset="0.595" stop-color="#a3bdb8"/><stop offset="0.773" stop-color="#abc7c2"/><stop offset="1" stop-color="#aecac5"/></radialGradient><linearGradient id="linear-gradient" x1="188.882" y1="996.785" x2="1013.505" y2="996.785" gradientUnits="userSpaceOnUse"><stop offset="0" stop-color="#aecac5"/><stop offset="0.165" stop-color="#abc7c2"/><stop offset="0.295" stop-color="#a3bdb8"/><stop offset="0.413" stop-color="#95aca8"/><stop offset="0.523" stop-color="#819591"/><stop offset="0.628" stop-color="#677774"/><stop offset="0.669" stop-color="#5b6966"/></linearGradient><linearGradient id="linear-gradient-2" x1="1130.184" y1="1463.402" x2="1032.985" y2="1196.349" gradientUnits="userSpaceOnUse"><stop offset="0" stop-color="#5b6966"/><stop offset="0.024" stop-color="#647471"/><stop offset="0.094" stop-color="#7b8f8b"/><stop offset="0.174" stop-color="#8ea5a0"/><stop offset="0.268" stop-color="#9cb6b1"/><stop offset="0.385" stop-color="#a7c1bd"/><stop offset="0.548" stop-color="#acc8c3"/><stop offset="1" stop-color="#aecac5"/></linearGradient><linearGradient id="New_Gradient_Swatch_6" x1="685.414" y1="405.442" x2="1136.031" y2="405.442" gradientUnits="userSpaceOnUse"><stop offset="0" stop-color="#d11c36"/><stop offset="0.201" stop-color="#ce1c35"/><stop offset="0.358" stop-color="#c41a33"/><stop offset="0.5" stop-color="#b3182f"/><stop offset="0.633" stop-color="#9c1529"/><stop offset="0.639" stop-color="#9b1529"/></linearGradient><linearGradient id="New_Gradient_Swatch_6-2" x1="853.287" y1="929.695" x2="1209.899" y2="929.695" xlink:href="#New_Gradient_Swatch_6"/><linearGradient id="linear-gradient-3" x1="923.249" y1="504.009" x2="1197.28" y2="504.009" gradientUnits="userSpaceOnUse"><stop offset="0.044" stop-color="#7b5909"/><stop offset="0.078" stop-color="#91680b"/><stop offset="0.142" stop-color="#b2800d"/><stop offset="0.206" stop-color="#cd920f"/><stop offset="0.273" stop-color="#dfa010"/><stop offset="0.341" stop-color="#eaa711"/><stop offset="0.416" stop-color="#ea1"/><stop offset="0.461" stop-color="#ea1"/><stop offset="0.957" stop-color="#ea1"/></linearGradient><pattern id="Unnamed_Pattern_4" data-name="Unnamed Pattern 4" width="43.107" height="43.107" patternTransform="translate(129.877 -75.962) scale(1.274)" patternUnits="userSpaceOnUse" viewBox="0 0 43.107 43.107"><rect width="43.107" height="43.107" style="fill:none"/><path d="M10.176,44.634a.779.779,0,0,1-.55-1.329.81.81,0,0,1,1.1,0,.781.781,0,0,1,0,1.1A.777.777,0,0,1,10.176,44.634Z" style="fill:#1d1d1b"/><path d="M16.612,44.634a.779.779,0,0,1-.55-1.329.81.81,0,0,1,1.1,0,.779.779,0,0,1-.551,1.329Z" style="fill:#1d1d1b"/><path d="M13.918,4.221a.8.8,0,0,1-.551-.228.781.781,0,0,1,0-1.1.811.811,0,0,1,1.1,0,.788.788,0,0,1,.227.551.8.8,0,0,1-.227.55A.787.787,0,0,1,13.918,4.221Z" style="fill:#1d1d1b"/><path d="M8.68,5.418a.779.779,0,0,1-.551-1.329.812.812,0,0,1,1.1,0,.8.8,0,0,1,.228.551.791.791,0,0,1-.228.551A.775.775,0,0,1,8.68,5.418Z" style="fill:#1d1d1b"/><path d="M8.829,2.874a.8.8,0,0,1-.551-.228.781.781,0,0,1,0-1.1.8.8,0,0,1,1.1,0,.8.8,0,0,1,.227.55.777.777,0,0,1-.778.779Z" style="fill:#1d1d1b"/><path d="M10.625,5.269a.779.779,0,0,1-.55-1.329.809.809,0,0,1,1.1,0,.779.779,0,0,1-.551,1.329Z" style="fill:#1d1d1b"/><path d="M11.972,3.173a.8.8,0,0,1-.55-.227.78.78,0,0,1,0-1.1.809.809,0,0,1,1.1,0,.778.778,0,0,1-.551,1.329Z" style="fill:#1d1d1b"/><path d="M17.361,3.772a.8.8,0,0,1-.551-.228.781.781,0,0,1,0-1.1.811.811,0,0,1,1.1,0,.779.779,0,0,1-.551,1.329Z" style="fill:#1d1d1b"/><path d="M14.966,2.724a.805.805,0,0,1-.551-.227.782.782,0,0,1,0-1.1.806.806,0,0,1,1.1,0,.778.778,0,0,1-.551,1.329Z" style="fill:#1d1d1b"/><path d="M10.176,1.527A.778.778,0,0,1,9.4.748.787.787,0,0,1,9.626.2a.81.81,0,0,1,1.1,0,.781.781,0,0,1,0,1.1A.777.777,0,0,1,10.176,1.527Z" style="fill:#1d1d1b"/><path d="M16.612,1.527a.8.8,0,0,1-.55-.228.8.8,0,0,1-.228-.551A.8.8,0,0,1,16.062.2a.81.81,0,0,1,1.1,0,.787.787,0,0,1,.228.55.778.778,0,0,1-.779.779Z" style="fill:#1d1d1b"/><path d="M19.007,2.125a.8.8,0,0,1-.551-.227.782.782,0,0,1,0-1.1.813.813,0,0,1,1.1,0,.778.778,0,0,1-.551,1.329Z" style="fill:#1d1d1b"/><path d="M17.361,3.772a.8.8,0,0,1-.551-.228.781.781,0,0,1,0-1.1.811.811,0,0,1,1.1,0,.779.779,0,0,1-.551,1.329Z" style="fill:#1d1d1b"/><path d="M16.912,5.418a.779.779,0,0,1-.551-1.329.807.807,0,0,1,1.1,0,.778.778,0,0,1-.551,1.329Z" style="fill:#1d1d1b"/><path d="M15.714,7.214a.779.779,0,0,1-.55-1.329.812.812,0,0,1,1.1,0,.78.78,0,0,1,0,1.1A.786.786,0,0,1,15.714,7.214Z" style="fill:#1d1d1b"/><path d="M13.32,6.167a.8.8,0,0,1-.551-.228.779.779,0,0,1,0-1.1.809.809,0,0,1,1.1,0,.779.779,0,0,1-.55,1.329Z" style="fill:#1d1d1b"/><path d="M13.17,8.262a.8.8,0,0,1-.551-.227.782.782,0,0,1,0-1.1.811.811,0,0,1,1.1,0,.778.778,0,0,1-.551,1.329Z" style="fill:#1d1d1b"/><path d="M10.176,7.663a.779.779,0,0,1-.55-1.329.812.812,0,0,1,1.1,0,.778.778,0,0,1-.551,1.329Z" style="fill:#1d1d1b"/><path d="M12.122,9.609a.8.8,0,0,1-.551-.227.782.782,0,0,1,0-1.1.813.813,0,0,1,1.1,0,.778.778,0,0,1-.551,1.329Z" style="fill:#1d1d1b"/><path d="M13.619,11.854a.8.8,0,0,1-.551-.227.782.782,0,0,1,0-1.1.813.813,0,0,1,1.1,0,.778.778,0,0,1-.551,1.329Z" style="fill:#1d1d1b"/><path d="M15.265,12.3a.777.777,0,0,1-.778-.778.8.8,0,0,1,.228-.551.812.812,0,0,1,1.1,0,.8.8,0,0,1,.228.551.777.777,0,0,1-.779.778Z" style="fill:#1d1d1b"/><path d="M17.061,11.256a.779.779,0,0,1-.55-1.329.81.81,0,0,1,1.1,0,.779.779,0,0,1,0,1.1A.777.777,0,0,1,17.061,11.256Z" style="fill:#1d1d1b"/><path d="M16.762,9.31a.779.779,0,0,1-.551-1.329.811.811,0,0,1,1.1,0,.779.779,0,0,1-.551,1.329Z" style="fill:#1d1d1b"/><path d="M17.96,7.963a.779.779,0,0,1-.551-1.329.809.809,0,0,1,1.1,0,.779.779,0,0,1,0,1.1A.776.776,0,0,1,17.96,7.963Z" style="fill:#1d1d1b"/><path d="M20.5,7.963a.779.779,0,0,1-.551-1.329.811.811,0,0,1,1.1,0A.779.779,0,0,1,20.5,7.963Z" style="fill:#1d1d1b"/><path d="M19.456,10.807a.8.8,0,0,1-.55-.228.779.779,0,0,1,0-1.1.8.8,0,0,1,1.1,0,.779.779,0,0,1-.551,1.329Z" style="fill:#1d1d1b"/><path d="M20.8,12.9a.779.779,0,0,1-.55-1.329.809.809,0,0,1,1.1,0,.8.8,0,0,1,.228.551.777.777,0,0,1-.779.778Z" style="fill:#1d1d1b"/><path d="M18.708,13.052a.779.779,0,0,1-.551-1.329.811.811,0,0,1,1.1,0,.781.781,0,0,1,0,1.1A.778.778,0,0,1,18.708,13.052Z" style="fill:#1d1d1b"/><path d="M16.612,13.5a.8.8,0,0,1-.55-.228.787.787,0,0,1-.228-.55.8.8,0,0,1,.228-.551.809.809,0,0,1,1.1,0,.779.779,0,0,1-.551,1.329Z" style="fill:#1d1d1b"/><path d="M22.3,10.208a.779.779,0,0,1-.551-1.329.811.811,0,0,1,1.1,0,.781.781,0,0,1,0,1.1A.787.787,0,0,1,22.3,10.208Z" style="fill:#1d1d1b"/><path d="M19.157,5.867a.779.779,0,0,1-.551-1.329.813.813,0,0,1,1.1,0,.782.782,0,0,1,0,1.1A.778.778,0,0,1,19.157,5.867Z" style="fill:#1d1d1b"/><path d="M20.354,4.071a.779.779,0,0,1-.55-1.329.81.81,0,0,1,1.1,0,.78.78,0,0,1,0,1.1A.776.776,0,0,1,20.354,4.071Z" style="fill:#1d1d1b"/><path d="M22,1.976a.777.777,0,0,1-.778-.779.786.786,0,0,1,.227-.55.811.811,0,0,1,1.1,0,.781.781,0,0,1,0,1.1A.791.791,0,0,1,22,1.976Z" style="fill:#1d1d1b"/><path d="M22.45,3.921A.779.779,0,0,1,21.9,2.592a.807.807,0,0,1,1.1,0,.782.782,0,0,1,0,1.1A.79.79,0,0,1,22.45,3.921Z" style="fill:#1d1d1b"/><path d="M22.3,5.718a.8.8,0,0,1-.551-.228.781.781,0,0,1,0-1.1.811.811,0,0,1,1.1,0,.781.781,0,0,1,0,1.1A.787.787,0,0,1,22.3,5.718Z" style="fill:#1d1d1b"/><path d="M22.45,7.963A.779.779,0,0,1,21.9,6.634a.811.811,0,0,1,1.1,0,.781.781,0,0,1,0,1.1A.791.791,0,0,1,22.45,7.963Z" style="fill:#1d1d1b"/><path d="M24.545,3.023a.777.777,0,0,1-.778-.778A.791.791,0,0,1,24,1.694a.812.812,0,0,1,1.1,0,.778.778,0,0,1-.551,1.329Z" style="fill:#1d1d1b"/><path d="M24.994,5.269a.8.8,0,0,1-.55-.228.779.779,0,0,1,0-1.1.809.809,0,0,1,1.1,0,.779.779,0,0,1-.551,1.329Z" style="fill:#1d1d1b"/><path d="M24.7,7.663a.8.8,0,0,1-.551-.227.782.782,0,0,1,0-1.1.807.807,0,0,1,1.1,0,.79.79,0,0,1,.227.551.8.8,0,0,1-.227.551A.788.788,0,0,1,24.7,7.663Z" style="fill:#1d1d1b"/><path d="M24.845,10.358a.8.8,0,0,1-.551-.228.779.779,0,0,1,0-1.1.81.81,0,0,1,1.1,0,.779.779,0,0,1-.55,1.329Z" style="fill:#1d1d1b"/><path d="M25.743,12.453a.8.8,0,0,1-.551-.227.782.782,0,0,1,0-1.1.8.8,0,0,1,1.1,0,.778.778,0,0,1-.55,1.329Z" style="fill:#1d1d1b"/><path d="M22.9,12.3a.8.8,0,0,1-.551-.227.782.782,0,0,1,0-1.1.813.813,0,0,1,1.1,0A.778.778,0,0,1,22.9,12.3Z" style="fill:#1d1d1b"/><path d="M23.647,15a.8.8,0,0,1-.551-.228.781.781,0,0,1,0-1.1.811.811,0,0,1,1.1,0A.779.779,0,0,1,23.647,15Z" style="fill:#1d1d1b"/><path d="M21.1,14.848a.8.8,0,0,1-.551-.228.781.781,0,0,1,0-1.1.809.809,0,0,1,1.1,0,.779.779,0,0,1-.55,1.329Z" style="fill:#1d1d1b"/><path d="M28.138,13.351a.779.779,0,0,1-.551-1.329.809.809,0,0,1,1.1,0,.78.78,0,0,1,0,1.1A.775.775,0,0,1,28.138,13.351Z" style="fill:#1d1d1b"/><path d="M27.539,11.256a.8.8,0,0,1-.551-.228.781.781,0,0,1,0-1.1.811.811,0,0,1,1.1,0,.779.779,0,0,1-.551,1.329Z" style="fill:#1d1d1b"/><path d="M26.94,9.16a.779.779,0,0,1-.551-1.329.811.811,0,0,1,1.1,0,.782.782,0,0,1,0,1.1A.776.776,0,0,1,26.94,9.16Z" style="fill:#1d1d1b"/><path d="M27.09,6.765a.779.779,0,0,1-.551-1.329.813.813,0,0,1,1.1,0,.778.778,0,0,1-.551,1.329Z" style="fill:#1d1d1b"/><path d="M26.94,4.221a.8.8,0,0,1-.551-.228.781.781,0,0,1,0-1.1.811.811,0,0,1,1.1,0,.779.779,0,0,1-.551,1.329Z" style="fill:#1d1d1b"/><path d="M26.79,2.275a.777.777,0,0,1-.778-.778A.789.789,0,0,1,26.24.946a.809.809,0,0,1,1.1,0,.78.78,0,0,1,0,1.1A.78.78,0,0,1,26.79,2.275Z" style="fill:#1d1d1b"/><path d="M29.784,1.676a.8.8,0,0,1-.551-.227.782.782,0,0,1,0-1.1.813.813,0,0,1,1.1,0,.782.782,0,0,1,0,1.1A.788.788,0,0,1,29.784,1.676Z" style="fill:#1d1d1b"/><path d="M29.335,4.221a.779.779,0,0,1-.551-1.329.811.811,0,0,1,1.1,0,.779.779,0,0,1-.551,1.329Z" style="fill:#1d1d1b"/><path d="M31.43,4.221a.8.8,0,0,1-.55-.228.787.787,0,0,1-.228-.55.8.8,0,0,1,.228-.551.809.809,0,0,1,1.1,0,.779.779,0,0,1-.551,1.329Z" style="fill:#1d1d1b"/><path d="M31.281,6.316a.8.8,0,0,1-.551-.227.79.79,0,0,1-.227-.551.8.8,0,0,1,.227-.551.813.813,0,0,1,1.1,0,.782.782,0,0,1,0,1.1A.79.79,0,0,1,31.281,6.316Z" style="fill:#1d1d1b"/><path d="M29.036,6.167a.8.8,0,0,1-.551-.228.779.779,0,0,1,0-1.1.81.81,0,0,1,1.1,0,.787.787,0,0,1,.228.55.778.778,0,0,1-.228.551A.787.787,0,0,1,29.036,6.167Z" style="fill:#1d1d1b"/><path d="M29.185,8.861a.8.8,0,0,1-.55-.228.779.779,0,0,1,0-1.1.81.81,0,0,1,1.1,0,.779.779,0,0,1-.551,1.329Z" style="fill:#1d1d1b"/><path d="M31.281,8.861a.8.8,0,0,1-.551-.228.781.781,0,0,1,0-1.1.811.811,0,0,1,1.1,0,.767.767,0,0,1,.227.551.777.777,0,0,1-.778.778Z" style="fill:#1d1d1b"/><path d="M29.634,10.956a.779.779,0,0,1-.55-1.329.812.812,0,0,1,1.1,0,.778.778,0,0,1-.551,1.329Z" style="fill:#1d1d1b"/><path d="M30.532,13.5a.8.8,0,0,1-.55-.228.787.787,0,0,1-.228-.55.8.8,0,0,1,.228-.551.81.81,0,0,1,1.1,0,.779.779,0,0,1-.551,1.329Z" style="fill:#1d1d1b"/><path d="M31.58,15.447a.8.8,0,0,1-.551-.228.781.781,0,0,1,0-1.1.811.811,0,0,1,1.1,0,.779.779,0,0,1-.551,1.329Z" style="fill:#1d1d1b"/><path d="M33.077,13.8a.779.779,0,0,1-.551-1.329.811.811,0,0,1,1.1,0,.782.782,0,0,1,0,1.1A.778.778,0,0,1,33.077,13.8Z" style="fill:#1d1d1b"/><path d="M32.179,11.705a.8.8,0,0,1-.551-.228.781.781,0,0,1,0-1.1.811.811,0,0,1,1.1,0,.779.779,0,0,1-.551,1.329Z" style="fill:#1d1d1b"/><path d="M33.526,9.909a.8.8,0,0,1-.551-.228.781.781,0,0,1,0-1.1.811.811,0,0,1,1.1,0,.779.779,0,0,1-.551,1.329Z" style="fill:#1d1d1b"/><path d="M33.676,7.364a.779.779,0,0,1-.551-1.329.81.81,0,0,1,1.1,0,.778.778,0,0,1-.55,1.329Z" style="fill:#1d1d1b"/><path d="M33.825,4.37a.779.779,0,0,1-.55-1.329.812.812,0,0,1,1.1,0,.778.778,0,0,1-.551,1.329Z" style="fill:#1d1d1b"/><path d="M35.771,4.969A.779.779,0,0,1,35.22,3.64a.813.813,0,0,1,1.1,0,.778.778,0,0,1-.551,1.329Z" style="fill:#1d1d1b"/><path d="M34.723,2.275a.777.777,0,0,1-.778-.778.789.789,0,0,1,.228-.551.809.809,0,0,1,1.1,0,.78.78,0,0,1,0,1.1A.78.78,0,0,1,34.723,2.275Z" style="fill:#1d1d1b"/><path d="M36.969,2.874a.8.8,0,0,1-.551-.228.779.779,0,0,1,0-1.1.809.809,0,0,1,1.1,0,.779.779,0,0,1-.55,1.329Z" style="fill:#1d1d1b"/><path d="M38.914,1.826a.8.8,0,0,1-.55-.228.779.779,0,0,1,0-1.1.81.81,0,0,1,1.1,0,.779.779,0,0,1,0,1.1A.787.787,0,0,1,38.914,1.826Z" style="fill:#1d1d1b"/><path d="M40.112,3.023a.779.779,0,0,1-.551-1.329.805.805,0,0,1,1.1,0,.778.778,0,0,1-.55,1.329Z" style="fill:#1d1d1b"/><path d="M38.016,4.819a.8.8,0,0,1-.551-.227.781.781,0,0,1,0-1.1.811.811,0,0,1,1.1,0,.778.778,0,0,1-.551,1.328Z" style="fill:#1d1d1b"/><path d="M37.567,7.065a.8.8,0,0,1-.551-.228.792.792,0,0,1-.227-.551.8.8,0,0,1,.227-.55.811.811,0,0,1,1.1,0,.779.779,0,0,1-.551,1.329Z" style="fill:#1d1d1b"/><path d="M35.921,8.412a.8.8,0,0,1-.551-.228.781.781,0,0,1,0-1.1.811.811,0,0,1,1.1,0,.779.779,0,0,1-.551,1.329Z" style="fill:#1d1d1b"/><path d="M37.418,10.058a.779.779,0,0,1-.551-1.329.812.812,0,0,1,1.1,0,.778.778,0,0,1-.55,1.329Z" style="fill:#1d1d1b"/><path d="M39.663,10.657a.8.8,0,0,1-.551-.228.779.779,0,0,1,0-1.1.809.809,0,0,1,1.1,0,.779.779,0,0,1-.55,1.329Z" style="fill:#1d1d1b"/><path d="M38.465,12a.8.8,0,0,1-.55-.227.78.78,0,0,1,0-1.1.809.809,0,0,1,1.1,0A.778.778,0,0,1,38.465,12Z" style="fill:#1d1d1b"/><path d="M36.37,12.3a.8.8,0,0,1-.551-.227.782.782,0,0,1,0-1.1.813.813,0,0,1,1.1,0A.778.778,0,0,1,36.37,12.3Z" style="fill:#1d1d1b"/><path d="M34.723,12a.8.8,0,0,1-.55-.227.78.78,0,0,1,0-1.1.809.809,0,0,1,1.1,0A.778.778,0,0,1,34.723,12Z" style="fill:#1d1d1b"/><path d="M35.771,14.549a.791.791,0,0,1-.551-.228.781.781,0,0,1,0-1.1.811.811,0,0,1,1.1,0,.781.781,0,0,1,0,1.1A.777.777,0,0,1,35.771,14.549Z" style="fill:#1d1d1b"/><path d="M38.465,13.8a.779.779,0,0,1-.55-1.329.809.809,0,0,1,1.1,0,.778.778,0,0,1-.551,1.329Z" style="fill:#1d1d1b"/><path d="M41.01,14.4a.777.777,0,0,1-.778-.778.778.778,0,1,1,1.556,0,.777.777,0,0,1-.778.778Z" style="fill:#1d1d1b"/><path d="M41.01,12.3a.779.779,0,0,1-.551-1.329.807.807,0,0,1,1.1,0A.778.778,0,0,1,41.01,12.3Z" style="fill:#1d1d1b"/><path d="M39.214,8.262a.8.8,0,0,1-.551-.227.78.78,0,0,1,0-1.1.809.809,0,0,1,1.1,0,.778.778,0,0,1-.55,1.329Z" style="fill:#1d1d1b"/><path d="M39.663,6.017a.8.8,0,0,1-.551-.228.779.779,0,0,1,0-1.1.8.8,0,0,1,1.1,0,.779.779,0,0,1-.55,1.329Z" style="fill:#1d1d1b"/><path d="M41.758,4.819a.8.8,0,0,1-.551-.227.792.792,0,0,1-.227-.551.778.778,0,0,1,1.329-.55.778.778,0,0,1-.551,1.328Z" style="fill:#1d1d1b"/><path d="M42.357,1.976a.8.8,0,0,1-.551-.228.8.8,0,0,1-.227-.551.786.786,0,0,1,.227-.55.811.811,0,0,1,1.1,0,.781.781,0,0,1,0,1.1A.791.791,0,0,1,42.357,1.976Z" style="fill:#1d1d1b"/><path d="M41.758,8.711a.779.779,0,0,1-.551-1.329.811.811,0,0,1,1.1,0,.778.778,0,0,1-.551,1.329Z" style="fill:#1d1d1b"/><path d="M42.806,10.807a.8.8,0,0,1-.551-.228.781.781,0,0,1,0-1.1.811.811,0,0,1,1.1,0,.779.779,0,0,1-.551,1.329Z" style="fill:#1d1d1b"/><path d="M33.825,4.37a.779.779,0,0,1-.55-1.329.812.812,0,0,1,1.1,0,.778.778,0,0,1-.551,1.329Z" style="fill:#1d1d1b"/><path d="M34.723,2.275a.777.777,0,0,1-.778-.778.789.789,0,0,1,.228-.551.809.809,0,0,1,1.1,0,.78.78,0,0,1,0,1.1A.78.78,0,0,1,34.723,2.275Z" style="fill:#1d1d1b"/><path d="M32.329,2.724A.779.779,0,0,1,31.778,1.4a.809.809,0,0,1,1.1,0,.778.778,0,0,1-.55,1.329Z" style="fill:#1d1d1b"/><path d="M14.367,14.4a.8.8,0,0,1-.55-.228.779.779,0,0,1,0-1.1.809.809,0,0,1,1.1,0,.779.779,0,0,1-.551,1.329Z" style="fill:#1d1d1b"/><path d="M11.972,12.752a.779.779,0,0,1-.55-1.329.812.812,0,0,1,1.1,0,.8.8,0,0,1,.228.551.789.789,0,0,1-.228.551A.776.776,0,0,1,11.972,12.752Z" style="fill:#1d1d1b"/><path d="M9.578,13.351a.777.777,0,0,1-.779-.778.8.8,0,0,1,.228-.551.809.809,0,0,1,1.1,0,.8.8,0,0,1,.228.551.777.777,0,0,1-.778.778Z" style="fill:#1d1d1b"/><path d="M10.176,10.956a.779.779,0,0,1-.55-1.329.812.812,0,0,1,1.1,0,.778.778,0,0,1-.551,1.329Z" style="fill:#1d1d1b"/><path d="M8.829,9.16a.775.775,0,1,1,.551-.227A.786.786,0,0,1,8.829,9.16Z" style="fill:#1d1d1b"/><path d="M7.482,7.514a.8.8,0,0,1-.551-.228A.788.788,0,0,1,6.7,6.735a.8.8,0,0,1,.227-.55.811.811,0,0,1,1.1,0,.779.779,0,0,1-.551,1.329Z" style="fill:#1d1d1b"/><path d="M7.482,11.256a.779.779,0,0,1-.551-1.329.811.811,0,0,1,1.1,0,.781.781,0,0,1,0,1.1A.777.777,0,0,1,7.482,11.256Z" style="fill:#1d1d1b"/><path d="M9.578,13.351a.777.777,0,0,1-.779-.778.8.8,0,0,1,.228-.551.809.809,0,0,1,1.1,0,.8.8,0,0,1,.228.551.777.777,0,0,1-.778.778Z" style="fill:#1d1d1b"/><path d="M11.074,14.7a.779.779,0,0,1-.55-1.329.805.805,0,0,1,1.1,0,.791.791,0,0,1,.228.551.8.8,0,0,1-.228.551A.786.786,0,0,1,11.074,14.7Z" style="fill:#1d1d1b"/><path d="M8.38,15.6a.779.779,0,0,1-.551-1.329.807.807,0,0,1,1.1,0A.778.778,0,0,1,8.38,15.6Z" style="fill:#1d1d1b"/><path d="M6.883,13.8a.779.779,0,0,1-.55-1.329.81.81,0,0,1,1.1,0,.8.8,0,0,1,.228.551.777.777,0,0,1-.779.778Z" style="fill:#1d1d1b"/><path d="M14.367,9.909a.779.779,0,0,1-.55-1.329.809.809,0,0,1,1.1,0,.781.781,0,0,1,0,1.1A.777.777,0,0,1,14.367,9.909Z" style="fill:#1d1d1b"/><path d="M1.2,4.221a.778.778,0,0,1-.779-.778.8.8,0,0,1,.228-.551.8.8,0,0,1,1.1,0,.8.8,0,0,1,.228.551.778.778,0,0,1-.778.778Z" style="fill:#1d1d1b"/><path d="M1.944,9.909A.779.779,0,0,1,1.393,8.58a.8.8,0,0,1,1.1,0,.779.779,0,0,1-.551,1.329Z" style="fill:#1d1d1b"/><path d="M3.141,11.854a.779.779,0,0,1-.55-1.329.805.805,0,0,1,1.1,0,.776.776,0,0,1,.228.551.764.764,0,0,1-.228.551A.786.786,0,0,1,3.141,11.854Z" style="fill:#1d1d1b"/><path d="M2.243,7.813a.8.8,0,0,1-.55-.227.78.78,0,0,1,0-1.1.81.81,0,0,1,1.1,0,.778.778,0,0,1-.551,1.329Z" style="fill:#1d1d1b"/><path d="M5.387,3.472a.8.8,0,0,1-.551-.227.78.78,0,0,1,0-1.1.812.812,0,0,1,1.1,0,.778.778,0,0,1-.55,1.329Z" style="fill:#1d1d1b"/><path d="M3.441,3.772a.8.8,0,0,1-.551-.228.781.781,0,0,1,0-1.1.811.811,0,0,1,1.1,0,.792.792,0,0,1,.227.551.8.8,0,0,1-.227.55A.791.791,0,0,1,3.441,3.772Z" style="fill:#1d1d1b"/><path d="M3.59,5.718a.8.8,0,0,1-.55-.228.779.779,0,0,1,0-1.1.779.779,0,0,1,1.329.55.778.778,0,0,1-.779.779Z" style="fill:#1d1d1b"/><path d="M6.434,5.269a.8.8,0,0,1-.55-.228.789.789,0,0,1-.228-.551.8.8,0,0,1,.228-.55.809.809,0,0,1,1.1,0,.8.8,0,0,1,.228.55.778.778,0,0,1-.779.779Z" style="fill:#1d1d1b"/><path d="M2.243,2.125A.779.779,0,0,1,1.693.8a.812.812,0,0,1,1.1,0,.778.778,0,0,1-.551,1.329Z" style="fill:#1d1d1b"/><path d="M4.189,8.561a.8.8,0,0,1-.551-.227.782.782,0,0,1,0-1.1.813.813,0,0,1,1.1,0,.782.782,0,0,1,0,1.1A.786.786,0,0,1,4.189,8.561Z" style="fill:#1d1d1b"/><path d="M5.836,7.214a.777.777,0,0,1-.779-.778.791.791,0,0,1,.228-.551.812.812,0,0,1,1.1,0,.778.778,0,0,1-.55,1.329Z" style="fill:#1d1d1b"/><path d="M5.836,9.609a.777.777,0,0,1-.779-.778.791.791,0,0,1,.228-.551.812.812,0,0,1,1.1,0,.791.791,0,0,1,.228.551.8.8,0,0,1-.228.551A.786.786,0,0,1,5.836,9.609Z" style="fill:#1d1d1b"/><path d="M7.482,11.256a.779.779,0,0,1-.551-1.329.811.811,0,0,1,1.1,0,.781.781,0,0,1,0,1.1A.777.777,0,0,1,7.482,11.256Z" style="fill:#1d1d1b"/><path d="M4.938,12.3a.8.8,0,0,1-.551-.227.789.789,0,0,1-.228-.551.8.8,0,0,1,.228-.551.812.812,0,0,1,1.1,0,.8.8,0,0,1,.228.551.777.777,0,0,1-.778.778Z" style="fill:#1d1d1b"/><path d="M3.441,15.6a.8.8,0,0,1-.551-.227.782.782,0,0,1,0-1.1.813.813,0,0,1,1.1,0,.794.794,0,0,1,.227.551.805.805,0,0,1-.227.551A.79.79,0,0,1,3.441,15.6Z" style="fill:#1d1d1b"/><path d="M2.992,13.8a.779.779,0,0,1-.551-1.329.779.779,0,0,1,1.1,1.1A.79.79,0,0,1,2.992,13.8Z" style="fill:#1d1d1b"/><path d="M8.979,42.987a.8.8,0,0,1-.551-.227.782.782,0,0,1,0-1.1.813.813,0,0,1,1.1,0,.8.8,0,0,1,.227.551.775.775,0,0,1-.778.778Z" style="fill:#1d1d1b"/><path d="M8.979,42.987a.8.8,0,0,1-.551-.227.782.782,0,0,1,0-1.1.813.813,0,0,1,1.1,0,.8.8,0,0,1,.227.551.775.775,0,0,1-.778.778Z" style="fill:#1d1d1b"/><path d="M11.074,42.388a.779.779,0,0,1-.55-1.329.812.812,0,0,1,1.1,0,.778.778,0,0,1-.551,1.329Z" style="fill:#1d1d1b"/><path d="M14.367,42.987a.779.779,0,0,1-.55-1.329.812.812,0,0,1,1.1,0,.782.782,0,0,1,0,1.1A.776.776,0,0,1,14.367,42.987Z" style="fill:#1d1d1b"/><path d="M17.51,42.688a.779.779,0,0,1-.55-1.329.809.809,0,0,1,1.1,0,.779.779,0,0,1,0,1.1A.777.777,0,0,1,17.51,42.688Z" style="fill:#1d1d1b"/><path d="M19.606,42.987a.8.8,0,0,1-.551-.227.782.782,0,0,1,0-1.1.813.813,0,0,1,1.1,0,.788.788,0,0,1,.227.551.8.8,0,0,1-.227.551A.79.79,0,0,1,19.606,42.987Z" style="fill:#1d1d1b"/><path d="M22.6,42.688a.8.8,0,0,1-.55-.228.779.779,0,0,1,0-1.1.809.809,0,0,1,1.1,0,.779.779,0,0,1-.551,1.329Z" style="fill:#1d1d1b"/><path d="M26.94,41.041a.779.779,0,0,1-.551-1.329.813.813,0,0,1,1.1,0,.778.778,0,0,1-.551,1.329Z" style="fill:#1d1d1b"/><path d="M29.784,42.089a.805.805,0,0,1-.551-.227.782.782,0,0,1,0-1.1.811.811,0,0,1,1.1,0,.778.778,0,0,1-.551,1.329Z" style="fill:#1d1d1b"/><path d="M35.771,42.987a.779.779,0,1,1,.551-1.329.778.778,0,0,1-.551,1.329Z" style="fill:#1d1d1b"/><path d="M40.561,43.436a.779.779,0,0,1-.551-1.329.813.813,0,0,1,1.1,0,.782.782,0,0,1,0,1.1A.778.778,0,0,1,40.561,43.436Z" style="fill:#1d1d1b"/><path d="M32.927,44.035a.779.779,0,0,1-.551-1.329.811.811,0,0,1,1.1,0,.779.779,0,0,1-.551,1.329Z" style="fill:#1d1d1b"/><path d="M32.179,41.79a.779.779,0,0,1-.551-1.329.811.811,0,0,1,1.1,0,.779.779,0,0,1-.551,1.329Z" style="fill:#1d1d1b"/><path d="M6.135,42.388a.8.8,0,0,1-.551-.227.782.782,0,0,1,0-1.1.813.813,0,0,1,1.1,0,.778.778,0,0,1-.551,1.329Z" style="fill:#1d1d1b"/><path d="M3.441,42.538a.779.779,0,0,1-.551-1.329.778.778,0,0,1,1.329.551.775.775,0,0,1-.778.778Z" style="fill:#1d1d1b"/><path d="M13.17,16.045a.8.8,0,0,1-.551-.227.782.782,0,0,1,0-1.1.813.813,0,0,1,1.1,0,.782.782,0,0,1,0,1.1A.778.778,0,0,1,13.17,16.045Z" style="fill:#1d1d1b"/><path d="M15.864,16.644a.805.805,0,0,1-.551-.227.782.782,0,0,1,0-1.1.811.811,0,0,1,1.1,0,.8.8,0,0,1,.227.551.775.775,0,0,1-.778.778Z" style="fill:#1d1d1b"/><path d="M18.109,15.447a.8.8,0,0,1-.551-.228.781.781,0,0,1,0-1.1.811.811,0,0,1,1.1,0,.779.779,0,0,1-.551,1.329Z" style="fill:#1d1d1b"/><path d="M17.361,17.841a.779.779,0,0,1-.551-1.329.813.813,0,0,1,1.1,0,.782.782,0,0,1,0,1.1A.778.778,0,0,1,17.361,17.841Z" style="fill:#1d1d1b"/><path d="M15.714,19.039a.8.8,0,0,1-.55-.228.779.779,0,0,1,0-1.1.8.8,0,0,1,1.1,0,.779.779,0,0,1-.551,1.329Z" style="fill:#1d1d1b"/><path d="M13.619,18.59a.779.779,0,0,1-.551-1.329.8.8,0,0,1,1.1,0,.781.781,0,0,1,0,1.1A.778.778,0,0,1,13.619,18.59Z" style="fill:#1d1d1b"/><path d="M11.673,19.039a.8.8,0,0,1-.551-.228.781.781,0,0,1,0-1.1.8.8,0,0,1,1.1,0,.779.779,0,0,1-.551,1.329Z" style="fill:#1d1d1b"/><path d="M10.775,16.794a.779.779,0,0,1-.551-1.329.811.811,0,0,1,1.1,0,.779.779,0,0,1-.551,1.329Z" style="fill:#1d1d1b"/><path d="M9.578,18.29a.779.779,0,0,1-.551-1.329.812.812,0,0,1,1.1,0,.78.78,0,0,1,0,1.1A.775.775,0,0,1,9.578,18.29Z" style="fill:#1d1d1b"/><path d="M7.632,17.542a.8.8,0,0,1-.551-.227.782.782,0,0,1,0-1.1.778.778,0,0,1,1.329.551.775.775,0,0,1-.778.778Z" style="fill:#1d1d1b"/><path d="M5.686,18.44a.8.8,0,0,1-.551-.227.79.79,0,0,1-.227-.551.8.8,0,0,1,.227-.551.811.811,0,0,1,1.1,0,.777.777,0,0,1,.227.551.769.769,0,0,1-.227.551A.788.788,0,0,1,5.686,18.44Z" style="fill:#1d1d1b"/><path d="M5.087,20.386a.8.8,0,0,1-.55-.228.779.779,0,0,1,0-1.1.81.81,0,0,1,1.1,0,.779.779,0,0,1-.551,1.329Z" style="fill:#1d1d1b"/><path d="M5.985,22.93a.779.779,0,0,1-.55-1.329.812.812,0,0,1,1.1,0,.778.778,0,0,1-.551,1.329Z" style="fill:#1d1d1b"/><path d="M7.482,21.434a.8.8,0,0,1-.551-.228.781.781,0,0,1,0-1.1.811.811,0,0,1,1.1,0,.779.779,0,0,1-.551,1.329Z" style="fill:#1d1d1b"/><path d="M9.129,19.937a.779.779,0,0,1-.551-1.329.81.81,0,0,1,1.1,0,.779.779,0,0,1-.55,1.329Z" style="fill:#1d1d1b"/><path d="M11.374,21.284a.8.8,0,0,1-.551-.227.782.782,0,0,1,0-1.1.81.81,0,0,1,1.1,0,.778.778,0,0,1-.55,1.329Z" style="fill:#1d1d1b"/><path d="M9.578,22.781a.8.8,0,0,1-.551-.228.779.779,0,0,1,0-1.1.81.81,0,0,1,1.1,0,.779.779,0,0,1-.55,1.329Z" style="fill:#1d1d1b"/><path d="M7.781,24.427a.779.779,0,0,1-.55-1.329.812.812,0,0,1,1.1,0,.778.778,0,0,1-.551,1.329Z" style="fill:#1d1d1b"/><path d="M5.836,25.475a.778.778,0,0,1-.779-.778.789.789,0,0,1,.228-.551.809.809,0,0,1,1.1,0,.789.789,0,0,1,.228.551.8.8,0,0,1-.228.55A.787.787,0,0,1,5.836,25.475Z" style="fill:#1d1d1b"/><path d="M5.985,22.93a.779.779,0,0,1-.55-1.329.812.812,0,0,1,1.1,0,.778.778,0,0,1-.551,1.329Z" style="fill:#1d1d1b"/><path d="M4.04,23.828a.8.8,0,0,1-.551-.227.779.779,0,0,1,0-1.1.81.81,0,0,1,1.1,0,.778.778,0,0,1-.55,1.328Z" style="fill:#1d1d1b"/><path d="M3.441,21.134a.779.779,0,0,1-.551-1.329.778.778,0,0,1,1.329.551.775.775,0,0,1-.778.778Z" style="fill:#1d1d1b"/><path d="M3.291,17.991a.805.805,0,0,1-.551-.227.782.782,0,0,1,0-1.1.811.811,0,0,1,1.1,0,.778.778,0,0,1-.551,1.329Z" style="fill:#1d1d1b"/><path d="M1.5,19.188a.8.8,0,0,1-.551-.227.781.781,0,0,1,0-1.1.811.811,0,0,1,1.1,0,.781.781,0,0,1,0,1.1A.788.788,0,0,1,1.5,19.188Z" style="fill:#1d1d1b"/><path d="M1.046,21.583A.8.8,0,0,1,.5,21.356a.782.782,0,0,1,0-1.1.813.813,0,0,1,1.1,0,.778.778,0,0,1-.551,1.329Z" style="fill:#1d1d1b"/><path d="M1.046,16.494A.8.8,0,0,1,.5,16.267a.782.782,0,0,1,0-1.1.813.813,0,0,1,1.1,0,.778.778,0,0,1-.551,1.329Z" style="fill:#1d1d1b"/><path d="M1.794,23.679a.779.779,0,0,1-.55-1.329.8.8,0,0,1,1.1,0,.779.779,0,0,1-.551,1.329Z" style="fill:#1d1d1b"/><path d="M2.094,25.924a.8.8,0,0,1-.551-.227.782.782,0,0,1,0-1.1.809.809,0,0,1,1.1,0,.778.778,0,0,1-.55,1.329Z" style="fill:#1d1d1b"/><path d="M1.645,29.516a.8.8,0,0,1-.551-.227.791.791,0,0,1-.228-.551.8.8,0,0,1,.228-.551.812.812,0,0,1,1.1,0,.778.778,0,0,1-.55,1.329Z" style="fill:#1d1d1b"/><path d="M2.243,31.312a.779.779,0,0,1-.55-1.329.812.812,0,0,1,1.1,0,.8.8,0,0,1,.228.551.777.777,0,0,1-.779.778Z" style="fill:#1d1d1b"/><path d="M4.339,30.115a.8.8,0,0,1-.551-.228.781.781,0,0,1,0-1.1.811.811,0,0,1,1.1,0,.779.779,0,0,1-.551,1.329Z" style="fill:#1d1d1b"/><path d="M3.291,27.72a.779.779,0,0,1-.551-1.329.811.811,0,0,1,1.1,0,.8.8,0,0,1,.227.551.775.775,0,0,1-.778.778Z" style="fill:#1d1d1b"/><path d="M5.686,28.019a.8.8,0,0,1-.551-.227.782.782,0,0,1,0-1.1.813.813,0,0,1,1.1,0,.779.779,0,0,1,.227.551.775.775,0,0,1-.778.778Z" style="fill:#1d1d1b"/><path d="M7.183,29.816a.8.8,0,0,1-.551-.228.788.788,0,0,1-.227-.551.8.8,0,0,1,.227-.55.811.811,0,0,1,1.1,0,.8.8,0,0,1,.227.55.777.777,0,0,1-.778.779Z" style="fill:#1d1d1b"/><path d="M8.979,30.414a.779.779,0,0,1-.551-1.329.813.813,0,0,1,1.1,0,.778.778,0,0,1-.551,1.329Z" style="fill:#1d1d1b"/><path d="M10.625,31.312a.779.779,0,0,1-.55-1.329.812.812,0,0,1,1.1,0,.778.778,0,0,1-.551,1.329Z" style="fill:#1d1d1b"/><path d="M7.482,27.271a.805.805,0,0,1-.551-.227.782.782,0,0,1,0-1.1.811.811,0,0,1,1.1,0,.778.778,0,0,1-.551,1.329Z" style="fill:#1d1d1b"/><path d="M9.578,28.019a.8.8,0,0,1-.551-.227.78.78,0,0,1,0-1.1.812.812,0,0,1,1.1,0,.778.778,0,0,1-.55,1.329Z" style="fill:#1d1d1b"/><path d="M11.523,28.618a.777.777,0,0,1-.778-.778.8.8,0,0,1,.228-.551.812.812,0,0,1,1.1,0,.8.8,0,0,1,.228.551.791.791,0,0,1-.228.551A.776.776,0,0,1,11.523,28.618Z" style="fill:#1d1d1b"/><path d="M9.727,25.325A.779.779,0,0,1,9.177,24a.812.812,0,0,1,1.1,0,.778.778,0,0,1-.551,1.329Z" style="fill:#1d1d1b"/><path d="M12.122,25.924a.805.805,0,0,1-.551-.227.79.79,0,0,1-.227-.551.8.8,0,0,1,.227-.551.811.811,0,0,1,1.1,0,.8.8,0,0,1,.227.551.775.775,0,0,1-.778.778Z" style="fill:#1d1d1b"/><path d="M12.571,23.379a.8.8,0,0,1-.551-.227.781.781,0,0,1,0-1.1.811.811,0,0,1,1.1,0,.778.778,0,0,1-.551,1.328Z" style="fill:#1d1d1b"/><path d="M14.068,25.176a.779.779,0,0,1-.551-1.329.8.8,0,0,1,1.1,0,.779.779,0,0,1-.551,1.329Z" style="fill:#1d1d1b"/><path d="M15.714,23.679a.778.778,0,0,1-.778-.778.8.8,0,0,1,.228-.551.809.809,0,0,1,1.1,0,.8.8,0,0,1,.228.551.778.778,0,0,1-.779.778Z" style="fill:#1d1d1b"/><path d="M13.469,27.57a.8.8,0,0,1-.551-.227.782.782,0,0,1,0-1.1.813.813,0,0,1,1.1,0,.778.778,0,0,1-.551,1.329Z" style="fill:#1d1d1b"/><path d="M15.565,28.768a.8.8,0,0,1-.551-.228.779.779,0,0,1,0-1.1.809.809,0,0,1,1.1,0,.779.779,0,0,1-.55,1.329Z" style="fill:#1d1d1b"/><path d="M15.565,31.163a.779.779,0,0,1-.551-1.329.809.809,0,0,1,1.1,0,.779.779,0,0,1-.55,1.329Z" style="fill:#1d1d1b"/><path d="M13.17,30.115a.779.779,0,0,1-.551-1.329.778.778,0,0,1,1.329.551.79.79,0,0,1-.227.55A.778.778,0,0,1,13.17,30.115Z" style="fill:#1d1d1b"/><path d="M17.66,29.367a.8.8,0,0,1-.551-.228.781.781,0,0,1,0-1.1.811.811,0,0,1,1.1,0,.781.781,0,0,1,0,1.1A.777.777,0,0,1,17.66,29.367Z" style="fill:#1d1d1b"/><path d="M18.858,27.421a.779.779,0,0,1-.551-1.329.81.81,0,0,1,1.1,0,.772.772,0,0,1,.228.551.778.778,0,0,1-.778.778Z" style="fill:#1d1d1b"/><path d="M18.109,25.026a.779.779,0,0,1-.551-1.329.811.811,0,0,1,1.1,0,.779.779,0,0,1-.551,1.329Z" style="fill:#1d1d1b"/><path d="M18.109,22.631a.805.805,0,0,1-.551-.227.782.782,0,0,1,0-1.1.811.811,0,0,1,1.1,0,.778.778,0,0,1-.551,1.329Z" style="fill:#1d1d1b"/><path d="M16.163,21.583a.779.779,0,0,1-.55-1.329.812.812,0,0,1,1.1,0,.778.778,0,0,1-.551,1.329Z" style="fill:#1d1d1b"/><path d="M14.068,21.583a.779.779,0,0,1-.551-1.329.813.813,0,0,1,1.1,0,.782.782,0,0,1,0,1.1A.778.778,0,0,1,14.068,21.583Z" style="fill:#1d1d1b"/><path d="M17.96,19.488a.8.8,0,0,1-.551-.228.779.779,0,0,1,0-1.1.809.809,0,0,1,1.1,0,.8.8,0,0,1,.228.551.778.778,0,0,1-.778.778Z" style="fill:#1d1d1b"/><path d="M19.756,21.134a.8.8,0,0,1-.551-.227.789.789,0,0,1-.228-.551.8.8,0,0,1,.228-.551.812.812,0,0,1,1.1,0,.778.778,0,0,1-.55,1.329Z" style="fill:#1d1d1b"/><path d="M21.552,21.434A.8.8,0,0,1,21,21.206a.781.781,0,0,1,0-1.1.811.811,0,0,1,1.1,0,.779.779,0,0,1-.551,1.329Z" style="fill:#1d1d1b"/><path d="M20.055,23.828A.8.8,0,0,1,19.5,23.6a.788.788,0,0,1-.227-.551.8.8,0,0,1,.227-.55.811.811,0,0,1,1.1,0,.778.778,0,0,1-.551,1.328Z" style="fill:#1d1d1b"/><path d="M20.654,26.074a.779.779,0,0,1-.551-1.329.809.809,0,0,1,1.1,0,.779.779,0,0,1,0,1.1A.774.774,0,0,1,20.654,26.074Z" style="fill:#1d1d1b"/><path d="M18.858,27.421a.779.779,0,0,1-.551-1.329.81.81,0,0,1,1.1,0,.772.772,0,0,1,.228.551.778.778,0,0,1-.778.778Z" style="fill:#1d1d1b"/><path d="M20.8,28.319a.8.8,0,0,1-.55-.228.779.779,0,0,1,0-1.1.8.8,0,0,1,1.1,0,.774.774,0,0,1,.228.551.8.8,0,0,1-.228.55A.787.787,0,0,1,20.8,28.319Z" style="fill:#1d1d1b"/><path d="M22.6,30.863a.779.779,0,0,1-.55-1.329.805.805,0,0,1,1.1,0,.778.778,0,0,1-.551,1.329Z" style="fill:#1d1d1b"/><path d="M19.606,30.265a.8.8,0,0,1-.551-.228.781.781,0,0,1,0-1.1.811.811,0,0,1,1.1,0,.786.786,0,0,1,.227.55.8.8,0,0,1-.227.551A.791.791,0,0,1,19.606,30.265Z" style="fill:#1d1d1b"/><path d="M23.049,28.468a.8.8,0,0,1-.551-.227.779.779,0,0,1,0-1.1.81.81,0,0,1,1.1,0,.779.779,0,0,1,0,1.1A.775.775,0,0,1,23.049,28.468Z" style="fill:#1d1d1b"/><path d="M22.9,25.774a.779.779,0,0,1-.551-1.329.813.813,0,0,1,1.1,0,.782.782,0,0,1,0,1.1A.778.778,0,0,1,22.9,25.774Z" style="fill:#1d1d1b"/><path d="M22.45,23.679a.8.8,0,0,1-.551-.228.781.781,0,0,1,0-1.1.811.811,0,0,1,1.1,0,.781.781,0,0,1,0,1.1A.791.791,0,0,1,22.45,23.679Z" style="fill:#1d1d1b"/><path d="M19.756,21.134a.8.8,0,0,1-.551-.227.789.789,0,0,1-.228-.551.8.8,0,0,1,.228-.551.812.812,0,0,1,1.1,0,.778.778,0,0,1-.55,1.329Z" style="fill:#1d1d1b"/><path d="M21.552,21.434A.8.8,0,0,1,21,21.206a.781.781,0,0,1,0-1.1.811.811,0,0,1,1.1,0,.779.779,0,0,1-.551,1.329Z" style="fill:#1d1d1b"/><path d="M20.2,19.188a.8.8,0,0,1-.551-.227.779.779,0,0,1,0-1.1.81.81,0,0,1,1.1,0,.778.778,0,0,1-.55,1.328Z" style="fill:#1d1d1b"/><path d="M19.905,16.794a.779.779,0,0,1-.55-1.329.809.809,0,0,1,1.1,0,.779.779,0,0,1,0,1.1A.777.777,0,0,1,19.905,16.794Z" style="fill:#1d1d1b"/><path d="M22.15,16.943a.779.779,0,0,1-.55-1.329.812.812,0,0,1,1.1,0,.778.778,0,0,1-.551,1.329Z" style="fill:#1d1d1b"/><path d="M22.6,19.638a.8.8,0,0,1-.55-.228.779.779,0,0,1,0-1.1.8.8,0,0,1,1.1,0,.779.779,0,0,1-.551,1.329Z" style="fill:#1d1d1b"/><path d="M23.947,21.583a.779.779,0,0,1-.551-1.329.812.812,0,0,1,1.1,0,.778.778,0,0,1-.55,1.329Z" style="fill:#1d1d1b"/><path d="M25.743,23.08a.779.779,0,0,1-.551-1.329.81.81,0,0,1,1.1,0,.778.778,0,0,1-.55,1.329Z" style="fill:#1d1d1b"/><path d="M25.443,25.325A.779.779,0,0,1,24.893,24a.805.805,0,0,1,1.1,0,.778.778,0,0,1-.551,1.329Z" style="fill:#1d1d1b"/><path d="M24.994,27.57a.779.779,0,0,1-.55-1.329.805.805,0,0,1,1.1,0,.778.778,0,0,1-.551,1.329Z" style="fill:#1d1d1b"/><path d="M26.192,29.666a.8.8,0,0,1-.551-.228.781.781,0,0,1,0-1.1.8.8,0,0,1,1.1,0,.779.779,0,0,1-.551,1.329Z" style="fill:#1d1d1b"/><path d="M27.988,27.87a.779.779,0,0,1-.551-1.329.811.811,0,0,1,1.1,0,.779.779,0,0,1-.551,1.329Z" style="fill:#1d1d1b"/><path d="M27.988,30.564a.8.8,0,0,1-.551-.227.782.782,0,0,1,0-1.1.811.811,0,0,1,1.1,0,.778.778,0,0,1-.551,1.329Z" style="fill:#1d1d1b"/><path d="M27.838,25.026a.779.779,0,0,1-.551-1.329.811.811,0,0,1,1.1,0,.779.779,0,0,1-.551,1.329Z" style="fill:#1d1d1b"/><path d="M28.587,23.23A.8.8,0,0,1,28.036,23a.779.779,0,0,1,0-1.1.809.809,0,0,1,1.1,0,.779.779,0,0,1,0,1.1A.776.776,0,0,1,28.587,23.23Z" style="fill:#1d1d1b"/><path d="M26.641,20.835a.779.779,0,0,1-.551-1.329.811.811,0,0,1,1.1,0,.779.779,0,0,1-.551,1.329Z" style="fill:#1d1d1b"/><path d="M25.593,19.338a.8.8,0,0,1-.551-.227.79.79,0,0,1-.227-.551.778.778,0,1,1,1.556,0,.775.775,0,0,1-.778.778Z" style="fill:#1d1d1b"/><path d="M24.4,17.991a.8.8,0,0,1-.551-.227.78.78,0,0,1,0-1.1.8.8,0,0,1,1.1,0,.78.78,0,0,1,0,1.1A.778.778,0,0,1,24.4,17.991Z" style="fill:#1d1d1b"/><path d="M26.341,16.794a.779.779,0,0,1-.55-1.329.809.809,0,0,1,1.1,0,.779.779,0,0,1-.551,1.329Z" style="fill:#1d1d1b"/><path d="M25.743,14.4a.8.8,0,0,1-.551-.228.781.781,0,0,1,0-1.1.81.81,0,0,1,1.1,0,.779.779,0,0,1-.55,1.329Z" style="fill:#1d1d1b"/><path d="M28.587,16.045a.8.8,0,0,1-.551-.227.78.78,0,0,1,0-1.1.812.812,0,0,1,1.1,0,.778.778,0,0,1-.55,1.329Z" style="fill:#1d1d1b"/><path d="M27.838,18.59a.8.8,0,0,1-.551-.228.781.781,0,0,1,0-1.1.811.811,0,0,1,1.1,0,.779.779,0,0,1-.551,1.329Z" style="fill:#1d1d1b"/><path d="M29.036,20.536a.8.8,0,0,1-.551-.228.779.779,0,0,1,0-1.1.81.81,0,0,1,1.1,0,.779.779,0,0,1-.55,1.329Z" style="fill:#1d1d1b"/><path d="M30.981,22.032a.779.779,0,0,1-.55-1.329.812.812,0,0,1,1.1,0,.778.778,0,0,1-.551,1.329Z" style="fill:#1d1d1b"/><path d="M30.832,24.427a.779.779,0,0,1-.551-1.329.812.812,0,0,1,1.1,0,.778.778,0,0,1-.55,1.329Z" style="fill:#1d1d1b"/><path d="M30.233,26.822a.805.805,0,0,1-.551-.227.79.79,0,0,1-.227-.551.778.778,0,1,1,1.556,0,.775.775,0,0,1-.778.778Z" style="fill:#1d1d1b"/><path d="M32.478,26.373a.779.779,0,0,1-.551-1.329.811.811,0,0,1,1.1,0,.778.778,0,0,1-.551,1.329Z" style="fill:#1d1d1b"/><path d="M32.329,29.067a.779.779,0,0,1-.551-1.329.812.812,0,0,1,1.1,0,.778.778,0,0,1-.55,1.329Z" style="fill:#1d1d1b"/><path d="M33.975,30.863a.8.8,0,0,1-.551-.227.782.782,0,0,1,0-1.1.807.807,0,0,1,1.1,0,.782.782,0,0,1,0,1.1A.776.776,0,0,1,33.975,30.863Z" style="fill:#1d1d1b"/><path d="M34.424,28.019a.8.8,0,0,1-.551-.227.782.782,0,0,1,0-1.1.813.813,0,0,1,1.1,0,.778.778,0,0,1-.551,1.329Z" style="fill:#1d1d1b"/><path d="M34.424,25.774a.779.779,0,0,1-.551-1.329.813.813,0,0,1,1.1,0,.782.782,0,0,1,0,1.1A.776.776,0,0,1,34.424,25.774Z" style="fill:#1d1d1b"/><path d="M33.825,23.379a.777.777,0,0,1-.778-.778.787.787,0,0,1,.228-.55.81.81,0,0,1,1.1,0,.778.778,0,0,1-.551,1.328Z" style="fill:#1d1d1b"/><path d="M16.313,26.373a.805.805,0,0,1-.551-.227.782.782,0,0,1,0-1.1.8.8,0,0,1,1.1,0,.778.778,0,0,1-.551,1.329Z" style="fill:#1d1d1b"/><path d="M42.058,19.937a.779.779,0,0,1-.551-1.329.8.8,0,0,1,1.1,0,.779.779,0,0,1-.55,1.329Z" style="fill:#1d1d1b"/><path d="M42.656,17.392a.8.8,0,0,1-.551-.227.782.782,0,0,1,0-1.1.813.813,0,0,1,1.1,0,.778.778,0,0,1-.551,1.329Z" style="fill:#1d1d1b"/><path d="M40.71,16.345a.8.8,0,0,1-.55-.228.789.789,0,0,1-.228-.551.779.779,0,0,1,1.329-.55.779.779,0,0,1-.551,1.329Z" style="fill:#1d1d1b"/><path d="M40.86,21.883a.779.779,0,0,1-.551-1.329.811.811,0,0,1,1.1,0,.781.781,0,0,1,0,1.1A.777.777,0,0,1,40.86,21.883Z" style="fill:#1d1d1b"/><path d="M40.71,24.128a.8.8,0,0,1-.55-.228.779.779,0,0,1,0-1.1.8.8,0,0,1,1.1,0,.779.779,0,0,1-.551,1.329Z" style="fill:#1d1d1b"/><path d="M42.806,23.379a.779.779,0,0,1-.551-1.328.811.811,0,0,1,1.1,0,.778.778,0,0,1-.551,1.328Z" style="fill:#1d1d1b"/><path d="M42.357,25.774a.8.8,0,0,1-.551-.227A.788.788,0,0,1,41.579,25a.8.8,0,0,1,.227-.551.813.813,0,0,1,1.1,0,.778.778,0,0,1-.551,1.329Z" style="fill:#1d1d1b"/><path d="M41.908,30.265a.8.8,0,0,1-.551-.228.781.781,0,0,1,0-1.1.8.8,0,0,1,1.1,0,.779.779,0,0,1-.551,1.329Z" style="fill:#1d1d1b"/><path d="M41.309,28.169a.775.775,0,0,1-.778-.778.792.792,0,0,1,.227-.551.811.811,0,0,1,1.1,0,.778.778,0,0,1-.551,1.329Z" style="fill:#1d1d1b"/><path d="M39.812,18.59a.779.779,0,0,1-.55-1.329.81.81,0,0,1,1.1,0,.779.779,0,0,1-.551,1.329Z" style="fill:#1d1d1b"/><path d="M37.717,18.739a.8.8,0,0,1-.551-.227.781.781,0,0,1,0-1.1.811.811,0,0,1,1.1,0,.781.781,0,0,1,0,1.1A.778.778,0,0,1,37.717,18.739Z" style="fill:#1d1d1b"/><path d="M38.316,15.9a.8.8,0,0,1-.551-.228.779.779,0,0,1,0-1.1.81.81,0,0,1,1.1,0,.779.779,0,0,1-.55,1.329Z" style="fill:#1d1d1b"/><path d="M36.22,16.794a.8.8,0,0,1-.551-.228.781.781,0,0,1,0-1.1.811.811,0,0,1,1.1,0,.781.781,0,0,1,0,1.1A.777.777,0,0,1,36.22,16.794Z" style="fill:#1d1d1b"/><path d="M33.975,16.2a.805.805,0,0,1-.551-.227.782.782,0,0,1,0-1.1.811.811,0,0,1,1.1,0,.788.788,0,0,1,.227.551.779.779,0,0,1-.227.551A.792.792,0,0,1,33.975,16.2Z" style="fill:#1d1d1b"/><path d="M31.879,17.243a.8.8,0,0,1-.55-.228.779.779,0,0,1,0-1.1.8.8,0,0,1,1.1,0,.779.779,0,0,1,0,1.1A.777.777,0,0,1,31.879,17.243Z" style="fill:#1d1d1b"/><path d="M30.083,17.841a.779.779,0,0,1-.55-1.329.812.812,0,0,1,1.1,0,.778.778,0,0,1-.551,1.329Z" style="fill:#1d1d1b"/><path d="M31.43,20.087a.8.8,0,0,1-.55-.228.779.779,0,0,1,0-1.1.81.81,0,0,1,1.1,0,.779.779,0,0,1-.551,1.329Z" style="fill:#1d1d1b"/><path d="M33.975,18.59a.8.8,0,0,1-.551-.228.781.781,0,0,1,0-1.1.811.811,0,0,1,1.1,0,.788.788,0,0,1,.227.551.775.775,0,0,1-.227.55A.789.789,0,0,1,33.975,18.59Z" style="fill:#1d1d1b"/><path d="M35.771,20.386a.777.777,0,0,1-.778-.778.8.8,0,0,1,.227-.551.811.811,0,0,1,1.1,0,.779.779,0,0,1-.551,1.329Z" style="fill:#1d1d1b"/><path d="M33.526,21.284a.779.779,0,0,1-.551-1.329.8.8,0,0,1,1.1,0,.778.778,0,0,1-.551,1.329Z" style="fill:#1d1d1b"/><path d="M35.921,22.93a.8.8,0,0,1-.551-.227.782.782,0,0,1,0-1.1.813.813,0,0,1,1.1,0,.778.778,0,0,1-.551,1.329Z" style="fill:#1d1d1b"/><path d="M38.615,20.835a.777.777,0,0,1-.545-.228.767.767,0,0,1-.233-.55.788.788,0,0,1,.227-.551.8.8,0,0,1,1.1,0,.779.779,0,0,1-.551,1.329Z" style="fill:#1d1d1b"/><path d="M38.465,22.781a.8.8,0,0,1-.55-.228.779.779,0,0,1,0-1.1.809.809,0,0,1,1.1,0,.779.779,0,0,1-.551,1.329Z" style="fill:#1d1d1b"/><path d="M36.819,25.325a.8.8,0,0,1-.551-.227.782.782,0,0,1,0-1.1.813.813,0,0,1,1.1,0,.782.782,0,0,1,0,1.1A.778.778,0,0,1,36.819,25.325Z" style="fill:#1d1d1b"/><path d="M37.567,27.72a.775.775,0,0,1-.778-.778.792.792,0,0,1,.227-.551.811.811,0,0,1,1.1,0,.782.782,0,0,1,0,1.1A.776.776,0,0,1,37.567,27.72Z" style="fill:#1d1d1b"/><path d="M34.424,28.019a.8.8,0,0,1-.551-.227.782.782,0,0,1,0-1.1.813.813,0,0,1,1.1,0,.778.778,0,0,1-.551,1.329Z" style="fill:#1d1d1b"/><path d="M36.07,29.367a.788.788,0,0,1-.55-.228.8.8,0,0,1-.228-.551.787.787,0,0,1,.228-.55.81.81,0,0,1,1.1,0,.787.787,0,0,1,.228.55.764.764,0,0,1-.228.551A.787.787,0,0,1,36.07,29.367Z" style="fill:#1d1d1b"/><path d="M39.363,29.516a.779.779,0,0,1-.55-1.329.805.805,0,0,1,1.1,0,.78.78,0,0,1,0,1.1A.776.776,0,0,1,39.363,29.516Z" style="fill:#1d1d1b"/><path d="M39.214,26.074a.8.8,0,0,1-.551-.228.779.779,0,0,1,0-1.1.809.809,0,0,1,1.1,0,.779.779,0,0,1-.55,1.329Z" style="fill:#1d1d1b"/><path d="M29.934,29.367a.8.8,0,0,1-.551-.228.789.789,0,0,1-.228-.551.8.8,0,0,1,.228-.55.809.809,0,0,1,1.1,0,.779.779,0,0,1,0,1.1A.787.787,0,0,1,29.934,29.367Z" style="fill:#1d1d1b"/><path d="M36.969,31.612a.8.8,0,0,1-.551-.228.789.789,0,0,1-.228-.551.8.8,0,0,1,.228-.55.809.809,0,0,1,1.1,0,.779.779,0,0,1-.55,1.329Z" style="fill:#1d1d1b"/><path d="M4.04,35.2a.8.8,0,0,1-.551-.227.78.78,0,0,1,0-1.1.81.81,0,0,1,1.1,0,.8.8,0,0,1,.228.551.777.777,0,0,1-.778.778Z" style="fill:#1d1d1b"/><path d="M4.638,32.51a.8.8,0,0,1-.551-.228.781.781,0,0,1,0-1.1.811.811,0,0,1,1.1,0,.779.779,0,0,1-.551,1.329Z" style="fill:#1d1d1b"/><path d="M6.584,31.761a.8.8,0,0,1-.551-.227.782.782,0,0,1,0-1.1.813.813,0,0,1,1.1,0,.778.778,0,0,1-.551,1.329Z" style="fill:#1d1d1b"/><path d="M5.985,34.156a.779.779,0,0,1-.55-1.329.812.812,0,0,1,1.1,0,.778.778,0,0,1-.551,1.329Z" style="fill:#1d1d1b"/><path d="M8.081,35.354a.8.8,0,0,1-.551-.228.781.781,0,0,1,0-1.1.811.811,0,0,1,1.1,0,.779.779,0,0,1-.551,1.329Z" style="fill:#1d1d1b"/><path d="M8.081,37.748a.8.8,0,0,1-.551-.227.781.781,0,0,1,0-1.1.811.811,0,0,1,1.1,0,.778.778,0,0,1-.551,1.328Z" style="fill:#1d1d1b"/><path d="M5.686,36.7a.8.8,0,0,1-.551-.228.781.781,0,0,1,0-1.1.811.811,0,0,1,1.1,0,.781.781,0,0,1,0,1.1A.789.789,0,0,1,5.686,36.7Z" style="fill:#1d1d1b"/><path d="M10.176,35.952a.779.779,0,0,1-.55-1.329.812.812,0,0,1,1.1,0,.782.782,0,0,1,0,1.1A.776.776,0,0,1,10.176,35.952Z" style="fill:#1d1d1b"/><path d="M10.326,37.748a.779.779,0,0,1-.551-1.328.811.811,0,0,1,1.1,0,.8.8,0,0,1,.227.55.788.788,0,0,1-.227.551A.776.776,0,0,1,10.326,37.748Z" style="fill:#1d1d1b"/><path d="M11.374,34.007a.8.8,0,0,1-.551-.228.781.781,0,0,1,0-1.1.8.8,0,0,1,1.1,0,.779.779,0,0,1-.55,1.329Z" style="fill:#1d1d1b"/><path d="M13.17,32.659a.8.8,0,0,1-.551-.227.782.782,0,0,1,0-1.1.813.813,0,0,1,1.1,0,.778.778,0,0,1-.551,1.329Z" style="fill:#1d1d1b"/><path d="M11.374,34.007a.8.8,0,0,1-.551-.228.781.781,0,0,1,0-1.1.8.8,0,0,1,1.1,0,.779.779,0,0,1-.55,1.329Z" style="fill:#1d1d1b"/><path d="M13.32,34.905a.8.8,0,0,1-.551-.228.779.779,0,0,1,0-1.1.809.809,0,0,1,1.1,0,.779.779,0,0,1-.55,1.329Z" style="fill:#1d1d1b"/><path d="M15.116,37.449a.8.8,0,0,1-.551-.227.78.78,0,0,1,0-1.1.81.81,0,0,1,1.1,0,.774.774,0,0,1,.228.551.777.777,0,0,1-.778.778Z" style="fill:#1d1d1b"/><path d="M12.122,36.85a.8.8,0,0,1-.551-.227.782.782,0,0,1,0-1.1.813.813,0,0,1,1.1,0,.782.782,0,0,1,0,1.1A.776.776,0,0,1,12.122,36.85Z" style="fill:#1d1d1b"/><path d="M15.565,35.653a.779.779,0,0,1-.551-1.329.809.809,0,0,1,1.1,0,.78.78,0,0,1,0,1.1A.778.778,0,0,1,15.565,35.653Z" style="fill:#1d1d1b"/><path d="M15.415,32.959a.8.8,0,0,1-.551-.228.781.781,0,0,1,0-1.1.811.811,0,0,1,1.1,0,.779.779,0,0,1-.551,1.329Z" style="fill:#1d1d1b"/><path d="M17.96,31.911a.8.8,0,0,1-.551-.227.78.78,0,0,1,0-1.1.81.81,0,0,1,1.1,0,.78.78,0,0,1,0,1.1A.779.779,0,0,1,17.96,31.911Z" style="fill:#1d1d1b"/><path d="M17.51,33.707a.779.779,0,0,1-.55-1.329.812.812,0,0,1,1.1,0,.78.78,0,0,1,0,1.1A.776.776,0,0,1,17.51,33.707Z" style="fill:#1d1d1b"/><path d="M18.259,35.952a.775.775,0,0,1-.778-.778.778.778,0,1,1,1.556,0,.775.775,0,0,1-.778.778Z" style="fill:#1d1d1b"/><path d="M20.5,34.456a.8.8,0,0,1-.551-.228.781.781,0,0,1,0-1.1.8.8,0,0,1,1.1,0,.779.779,0,0,1-.551,1.329Z" style="fill:#1d1d1b"/><path d="M20.354,37.748a.778.778,0,0,1-.55-1.328.809.809,0,0,1,1.1,0,.778.778,0,0,1-.551,1.328Z" style="fill:#1d1d1b"/><path d="M20.654,32.36a.8.8,0,0,1-.551-.227.78.78,0,0,1,0-1.1.809.809,0,0,1,1.1,0,.778.778,0,0,1-.55,1.329Z" style="fill:#1d1d1b"/><path d="M22.749,33.408a.8.8,0,0,1-.551-.228.781.781,0,0,1,0-1.1.8.8,0,0,1,1.1,0,.779.779,0,0,1-.551,1.329Z" style="fill:#1d1d1b"/><path d="M8.829,32.959a.777.777,0,0,1-.778-.778.778.778,0,1,1,1.556,0,.777.777,0,0,1-.778.778Z" style="fill:#1d1d1b"/><path d="M22.15,35.8a.8.8,0,0,1-.55-.228.779.779,0,0,1,0-1.1.8.8,0,0,1,1.1,0,.763.763,0,0,1,.228.55.778.778,0,0,1-.779.779Z" style="fill:#1d1d1b"/><path d="M2.094,39.1a.779.779,0,0,1-.551-1.329.809.809,0,0,1,1.1,0,.779.779,0,0,1-.55,1.329Z" style="fill:#1d1d1b"/><path d="M1.5,41.49a.779.779,0,0,1-.551-1.329.813.813,0,0,1,1.1,0,.79.79,0,0,1,.227.551.767.767,0,0,1-.227.551A.788.788,0,0,1,1.5,41.49Z" style="fill:#1d1d1b"/><path d="M6.883,41.341a.8.8,0,0,1-.55-.228.788.788,0,0,1-.228-.55.8.8,0,0,1,.228-.551.81.81,0,0,1,1.1,0,.8.8,0,0,1,.228.551.778.778,0,0,1-.779.778Z" style="fill:#1d1d1b"/><path d="M6.135,38.946a.8.8,0,0,1-.551-.228.781.781,0,0,1,0-1.1.811.811,0,0,1,1.1,0,.779.779,0,0,1-.551,1.329Z" style="fill:#1d1d1b"/><path d="M8.68,39.994a.779.779,0,0,1-.551-1.329.809.809,0,0,1,1.1,0,.8.8,0,0,1,.228.55.789.789,0,0,1-.228.551A.776.776,0,0,1,8.68,39.994Z" style="fill:#1d1d1b"/><path d="M6.883,41.341a.8.8,0,0,1-.55-.228.788.788,0,0,1-.228-.55.8.8,0,0,1,.228-.551.81.81,0,0,1,1.1,0,.8.8,0,0,1,.228.551.778.778,0,0,1-.779.778Z" style="fill:#1d1d1b"/><path d="M10.925,39.694a.8.8,0,0,1-.551-.227.789.789,0,0,1-.228-.551.779.779,0,0,1,1.329-.551.778.778,0,0,1-.55,1.329Z" style="fill:#1d1d1b"/><path d="M13.469,39.245a.779.779,0,1,1,.778-.778.775.775,0,0,1-.778.778Z" style="fill:#1d1d1b"/><path d="M13.02,41.041a.8.8,0,0,1-.551-.227.782.782,0,0,1,0-1.1.778.778,0,0,1,1.329.551.788.788,0,0,1-.227.551A.776.776,0,0,1,13.02,41.041Z" style="fill:#1d1d1b"/><path d="M16.014,41.79a.8.8,0,0,1-.551-.228.781.781,0,0,1,0-1.1.809.809,0,0,1,1.1,0,.779.779,0,0,1-.55,1.329Z" style="fill:#1d1d1b"/><path d="M16.163,39.694a.779.779,0,0,1-.55-1.329.805.805,0,0,1,1.1,0,.778.778,0,0,1-.551,1.329Z" style="fill:#1d1d1b"/><path d="M18.558,41.191a.805.805,0,0,1-.551-.227.782.782,0,0,1,0-1.1.806.806,0,0,1,1.1,0,.778.778,0,0,1-.551,1.329Z" style="fill:#1d1d1b"/><path d="M20.5,40.293a.805.805,0,0,1-.551-.227.782.782,0,0,1,0-1.1.8.8,0,0,1,1.1,0,.778.778,0,0,1-.551,1.329Z" style="fill:#1d1d1b"/><path d="M4.339,40.293a.8.8,0,0,1-.551-.227.782.782,0,0,1,0-1.1.8.8,0,0,1,1.1,0,.778.778,0,0,1-.551,1.329Z" style="fill:#1d1d1b"/><path d="M24.845,31.312a.8.8,0,0,1-.551-.227.78.78,0,0,1,0-1.1.812.812,0,0,1,1.1,0,.778.778,0,0,1-.55,1.329Z" style="fill:#1d1d1b"/><path d="M26.341,35.054a.779.779,0,0,1-.55-1.329.812.812,0,0,1,1.1,0,.778.778,0,0,1-.551,1.329Z" style="fill:#1d1d1b"/><path d="M26.641,32.659a.779.779,0,0,1-.551-1.329.813.813,0,0,1,1.1,0,.778.778,0,0,1-.551,1.329Z" style="fill:#1d1d1b"/><path d="M29.485,32.061a.778.778,0,0,1-.779-.778.8.8,0,0,1,.228-.551.809.809,0,0,1,1.1,0,.779.779,0,0,1,0,1.1A.774.774,0,0,1,29.485,32.061Z" style="fill:#1d1d1b"/><path d="M29.934,34.905a.779.779,0,0,1-.551-1.329.809.809,0,0,1,1.1,0,.779.779,0,0,1-.55,1.329Z" style="fill:#1d1d1b"/><path d="M28.138,36.551a.8.8,0,0,1-.551-.227.78.78,0,0,1,0-1.1.809.809,0,0,1,1.1,0,.778.778,0,0,1-.55,1.329Z" style="fill:#1d1d1b"/><path d="M26.192,37.6a.8.8,0,0,1-.551-.228.781.781,0,0,1,0-1.1.8.8,0,0,1,1.1,0,.779.779,0,0,1-.551,1.329Z" style="fill:#1d1d1b"/><path d="M26.341,35.054a.779.779,0,0,1-.55-1.329.812.812,0,0,1,1.1,0,.778.778,0,0,1-.551,1.329Z" style="fill:#1d1d1b"/><path d="M24.994,39.545a.8.8,0,0,1-.55-.228.779.779,0,0,1,0-1.1.81.81,0,0,1,1.1,0,.779.779,0,0,1-.551,1.329Z" style="fill:#1d1d1b"/><path d="M27.838,39.4a.8.8,0,0,1-.551-.228.781.781,0,0,1,0-1.1.811.811,0,0,1,1.1,0,.779.779,0,0,1-.551,1.329Z" style="fill:#1d1d1b"/><path d="M29.934,40.143a.8.8,0,0,1-.551-.227.78.78,0,0,1,0-1.1.779.779,0,0,1,1.1,1.1A.786.786,0,0,1,29.934,40.143Z" style="fill:#1d1d1b"/><path d="M30.083,37.449a.779.779,0,0,1-.55-1.329.809.809,0,0,1,1.1,0,.778.778,0,0,1-.551,1.329Z" style="fill:#1d1d1b"/><path d="M1.944,36.551a.779.779,0,0,1-.551-1.329.806.806,0,0,1,1.1,0,.8.8,0,0,1,.227.551.775.775,0,0,1-.778.778Z" style="fill:#1d1d1b"/><path d="M2.243,33.707a.779.779,0,0,1-.55-1.329.812.812,0,0,1,1.1,0,.778.778,0,0,1-.551,1.329Z" style="fill:#1d1d1b"/><path d="M41.908,41.341a.8.8,0,0,1-.551-.228.781.781,0,0,1,0-1.1.811.811,0,0,1,1.1,0,.779.779,0,0,1-.551,1.329Z" style="fill:#1d1d1b"/><path d="M39.962,40.443a.779.779,0,0,1-.551-1.329.8.8,0,0,1,1.1,0,.781.781,0,0,1,0,1.1A.777.777,0,0,1,39.962,40.443Z" style="fill:#1d1d1b"/><path d="M43.554,39.844a.8.8,0,0,1-.55-.227.78.78,0,0,1,0-1.1.81.81,0,0,1,1.1,0,.778.778,0,0,1-.551,1.329Z" style="fill:#1d1d1b"/><path d="M41.608,32.21a.779.779,0,0,1-.55-1.329.812.812,0,0,1,1.1,0,.778.778,0,0,1-.551,1.329Z" style="fill:#1d1d1b"/><path d="M41.459,35.354a.779.779,0,0,1-.551-1.329.811.811,0,0,1,1.1,0,.779.779,0,0,1-.551,1.329Z" style="fill:#1d1d1b"/><path d="M41.608,32.21a.779.779,0,0,1-.55-1.329.812.812,0,0,1,1.1,0,.778.778,0,0,1-.551,1.329Z" style="fill:#1d1d1b"/><path d="M42.507,37.6a.779.779,0,0,1-.551-1.329.809.809,0,0,1,1.1,0,.779.779,0,0,1-.55,1.329Z" style="fill:#1d1d1b"/><path d="M23.5,37.9a.779.779,0,0,1-.551-1.329.805.805,0,0,1,1.1,0,.78.78,0,0,1,0,1.1A.775.775,0,0,1,23.5,37.9Z" style="fill:#1d1d1b"/><path d="M22.6,39.694a.779.779,0,0,1-.55-1.329.805.805,0,0,1,1.1,0,.78.78,0,0,1,0,1.1A.776.776,0,0,1,22.6,39.694Z" style="fill:#1d1d1b"/><path d="M31.73,36.252a.8.8,0,0,1-.551-.228.788.788,0,0,1-.227-.551.8.8,0,0,1,.227-.55.811.811,0,0,1,1.1,0,.8.8,0,0,1,.227.55.792.792,0,0,1-.227.551A.778.778,0,0,1,31.73,36.252Z" style="fill:#1d1d1b"/><path d="M33.526,36.551a.779.779,0,0,1-.551-1.329.811.811,0,0,1,1.1,0,.778.778,0,0,1-.551,1.329Z" style="fill:#1d1d1b"/><path d="M32.029,38.946a.8.8,0,0,1-.551-.228.781.781,0,0,1,0-1.1.811.811,0,0,1,1.1,0,.779.779,0,0,1-.551,1.329Z" style="fill:#1d1d1b"/><path d="M34.424,38.8a.8.8,0,0,1-.551-.227.782.782,0,0,1,0-1.1.813.813,0,0,1,1.1,0,.778.778,0,0,1-.551,1.329Z" style="fill:#1d1d1b"/><path d="M31.73,36.252a.8.8,0,0,1-.551-.228.788.788,0,0,1-.227-.551.8.8,0,0,1,.227-.55.811.811,0,0,1,1.1,0,.8.8,0,0,1,.227.55.792.792,0,0,1-.227.551A.778.778,0,0,1,31.73,36.252Z" style="fill:#1d1d1b"/><path d="M33.526,36.551a.779.779,0,0,1-.551-1.329.811.811,0,0,1,1.1,0,.778.778,0,0,1-.551,1.329Z" style="fill:#1d1d1b"/><path d="M32.179,33.857a.779.779,0,0,1-.551-1.329.811.811,0,0,1,1.1,0,.781.781,0,0,1,0,1.1A.778.778,0,0,1,32.179,33.857Z" style="fill:#1d1d1b"/><path d="M34.574,34.755a.8.8,0,0,1-.551-.228.779.779,0,0,1,0-1.1.81.81,0,0,1,1.1,0,.779.779,0,0,1-.55,1.329Z" style="fill:#1d1d1b"/><path d="M35.921,36.7a.8.8,0,0,1-.551-.228.781.781,0,0,1,0-1.1.811.811,0,0,1,1.1,0,.779.779,0,0,1-.551,1.329Z" style="fill:#1d1d1b"/><path d="M37.118,38.048a.777.777,0,0,1-.778-.778.778.778,0,0,1,1.329-.551.781.781,0,0,1,0,1.1A.777.777,0,0,1,37.118,38.048Z" style="fill:#1d1d1b"/><path d="M37.418,40.443a.8.8,0,0,1-.551-.228.779.779,0,0,1,0-1.1.81.81,0,0,1,1.1,0,.779.779,0,0,1-.55,1.329Z" style="fill:#1d1d1b"/><path d="M38.615,35.952a.779.779,0,0,1-.551-1.329.807.807,0,0,1,1.1,0,.782.782,0,0,1,0,1.1A.778.778,0,0,1,38.615,35.952Z" style="fill:#1d1d1b"/><path d="M37.567,34.456a.777.777,0,0,1-.778-.779.79.79,0,0,1,.227-.55.811.811,0,0,1,1.1,0,.779.779,0,0,1-.551,1.329Z" style="fill:#1d1d1b"/><path d="M35.023,32.659a.8.8,0,0,1-.551-.227.782.782,0,0,1,0-1.1.812.812,0,0,1,1.1,0,.778.778,0,0,1-.55,1.329Z" style="fill:#1d1d1b"/><path d="M39.812,33.707a.779.779,0,0,1-.55-1.329.812.812,0,0,1,1.1,0,.778.778,0,0,1-.551,1.329Z" style="fill:#1d1d1b"/><path d="M39.962,38.048a.779.779,0,0,1-.551-1.329.8.8,0,0,1,1.1,0,.781.781,0,0,1,0,1.1A.777.777,0,0,1,39.962,38.048Z" style="fill:#1d1d1b"/><path d="M32.029,31.761a.8.8,0,0,1-.551-.227.782.782,0,0,1,0-1.1.813.813,0,0,1,1.1,0,.778.778,0,0,1-.551,1.329Z" style="fill:#1d1d1b"/><path d="M34.873,40.892a.779.779,0,0,1-.551-1.329.811.811,0,0,1,1.1,0,.781.781,0,0,1,0,1.1A.777.777,0,0,1,34.873,40.892Z" style="fill:#1d1d1b"/><path d="M38.465,42.089a.8.8,0,0,1-.55-.227.78.78,0,0,1,0-1.1.81.81,0,0,1,1.1,0,.778.778,0,0,1-.551,1.329Z" style="fill:#1d1d1b"/><path d="M39.064,31.612a.779.779,0,0,1-.551-1.329.811.811,0,0,1,1.1,0,.779.779,0,0,1-.551,1.329Z" style="fill:#1d1d1b"/><path d="M5.686,15.746a.8.8,0,0,1-.551-.228.781.781,0,0,1,0-1.1.811.811,0,0,1,1.1,0,.767.767,0,0,1,.227.551.775.775,0,0,1-.227.55A.789.789,0,0,1,5.686,15.746Z" style="fill:#1d1d1b"/><path d="M3.441,37.6a.8.8,0,0,1-.551-.228.781.781,0,0,1,0-1.1.778.778,0,0,1,1.329.551.8.8,0,0,1-.227.55A.791.791,0,0,1,3.441,37.6Z" style="fill:#1d1d1b"/><path d="M18.109,38.2a.8.8,0,0,1-.551-.227.781.781,0,0,1,0-1.1.811.811,0,0,1,1.1,0,.778.778,0,0,1-.551,1.328Z" style="fill:#1d1d1b"/><path d="M24.246,34.905a.8.8,0,0,1-.551-.228.781.781,0,0,1,0-1.1.811.811,0,0,1,1.1,0,.779.779,0,0,1-.551,1.329Z" style="fill:#1d1d1b"/><path d="M28.287,34.007a.779.779,0,0,1-.551-1.329.8.8,0,0,1,1.1,0,.779.779,0,0,1-.551,1.329Z" style="fill:#1d1d1b"/><path d="M24.545,43.586a.8.8,0,0,1-.55-.228.779.779,0,0,1,0-1.1.81.81,0,0,1,1.1,0,.779.779,0,0,1-.551,1.329Z" style="fill:#1d1d1b"/><path d="M6.883,44.334a.779.779,0,0,1-.55-1.329.812.812,0,0,1,1.1,0,.778.778,0,0,1-.551,1.329Z" style="fill:#1d1d1b"/><path d="M12.721,44.185a.8.8,0,0,1-.551-.228.788.788,0,0,1-.227-.551.8.8,0,0,1,.227-.55.811.811,0,0,1,1.1,0,.779.779,0,0,1-.551,1.329Z" style="fill:#1d1d1b"/><path d="M10.176,44.634a.779.779,0,0,1-.55-1.329.809.809,0,0,1,1.1,0,.781.781,0,0,1,0,1.1A.777.777,0,0,1,10.176,44.634Z" style="fill:#1d1d1b"/><path d="M16.612,44.634a.779.779,0,0,1-.55-1.329.809.809,0,0,1,1.1,0,.779.779,0,0,1,0,1.1A.777.777,0,0,1,16.612,44.634Z" style="fill:#1d1d1b"/><path d="M32.927,44.035a.779.779,0,0,1-.551-1.329.811.811,0,0,1,1.1,0,.779.779,0,0,1-.551,1.329Z" style="fill:#1d1d1b"/><path d="M4.638,44.334a.8.8,0,0,1-.551-.227.782.782,0,0,1,0-1.1.813.813,0,0,1,1.1,0,.79.79,0,0,1,.227.551.8.8,0,0,1-.227.551A.786.786,0,0,1,4.638,44.334Z" style="fill:#1d1d1b"/><path d="M32.927,44.035a.779.779,0,0,1-.551-1.329.811.811,0,0,1,1.1,0,.779.779,0,0,1-.551,1.329Z" style="fill:#1d1d1b"/><path d="M43.405,6.167a.778.778,0,0,1-.779-.779.779.779,0,0,1,1.329-.55.787.787,0,0,1,.228.55.778.778,0,0,1-.228.551A.787.787,0,0,1,43.405,6.167Z" style="fill:#1d1d1b"/><path d="M43.554,8.112A.779.779,0,0,1,43,6.783a.805.805,0,0,1,1.1,0,.778.778,0,0,1-.551,1.329Z" style="fill:#1d1d1b"/><path d="M43.7,12.453a.779.779,0,0,1-.551-1.329.811.811,0,0,1,1.1,0,.778.778,0,0,1-.551,1.329Z" style="fill:#1d1d1b"/><path d="M43.255,14.4A.779.779,0,0,1,42.7,13.07a.811.811,0,0,1,1.1,0,.779.779,0,0,1-.551,1.329Z" style="fill:#1d1d1b"/><path d="M43.554,43.137a.8.8,0,0,1-.55-.228.779.779,0,0,1,0-1.1.8.8,0,0,1,1.1,0,.779.779,0,0,1-.551,1.329Z" style="fill:#1d1d1b"/><path d="M43.854,27.87a.8.8,0,0,1-.551-.228.779.779,0,0,1,0-1.1.8.8,0,0,1,1.1,0,.779.779,0,0,1-.55,1.329Z" style="fill:#1d1d1b"/><path d="M43.255,34.306a.779.779,0,0,1-.551-1.329.811.811,0,0,1,1.1,0,.779.779,0,0,1-.551,1.329Z" style="fill:#1d1d1b"/><path d="M43.854,31.911a.779.779,0,0,1-.551-1.329.809.809,0,0,1,1.1,0,.778.778,0,0,1-.55,1.329Z" style="fill:#1d1d1b"/><path d="M27.689,42.987a.779.779,0,0,1-.551-1.329.812.812,0,0,1,1.1,0,.8.8,0,0,1,.228.551.777.777,0,0,1-.778.778Z" style="fill:#1d1d1b"/><path d="M24.246,41.49a.8.8,0,0,1-.551-.227.782.782,0,0,1,0-1.1.813.813,0,0,1,1.1,0,.778.778,0,0,1-.551,1.329Z" style="fill:#1d1d1b"/><path d="M-.75,1.976A.8.8,0,0,1-1.3,1.748.8.8,0,0,1-1.528,1.2.786.786,0,0,1-1.3.647a.811.811,0,0,1,1.1,0,.79.79,0,0,1,.227.55A.792.792,0,0,1-.2,1.748.791.791,0,0,1-.75,1.976Z" style="fill:#1d1d1b"/><path d="M-.3,10.807a.8.8,0,0,1-.551-.228.788.788,0,0,1-.227-.551.786.786,0,0,1,.227-.55.811.811,0,0,1,1.1,0,.79.79,0,0,1,.227.55.792.792,0,0,1-.227.551A.791.791,0,0,1-.3,10.807Z" style="fill:#1d1d1b"/><path d="M-.451,17.392A.8.8,0,0,1-1,17.165a.792.792,0,0,1-.227-.551A.794.794,0,0,1-1,16.063a.813.813,0,0,1,1.1,0,.79.79,0,0,1,.227.551.788.788,0,0,1-.227.551A.786.786,0,0,1-.451,17.392Z" style="fill:#1d1d1b"/><path d="M-.3,23.379a.788.788,0,0,1-.551-.227.788.788,0,0,1-.227-.551.786.786,0,0,1,.227-.55.811.811,0,0,1,1.1,0,.79.79,0,0,1,.227.55.792.792,0,0,1-.227.551A.79.79,0,0,1-.3,23.379Z" style="fill:#1d1d1b"/><path d="M-.75,25.774a.8.8,0,0,1-.551-.227A.788.788,0,0,1-1.528,25a.8.8,0,0,1,.227-.551.813.813,0,0,1,1.1,0A.794.794,0,0,1,.028,25a.792.792,0,0,1-.227.551A.79.79,0,0,1-.75,25.774Z" style="fill:#1d1d1b"/><path d="M.447,39.844a.8.8,0,0,1-.55-.227.78.78,0,0,1,0-1.1.81.81,0,0,1,1.1,0,.782.782,0,0,1,0,1.1A.791.791,0,0,1,.447,39.844Z" style="fill:#1d1d1b"/><path d="M-.6,37.6a.789.789,0,0,1-.551-.228.787.787,0,0,1-.228-.55.789.789,0,0,1,.228-.551.809.809,0,0,1,1.1,0,.789.789,0,0,1,.228.551.787.787,0,0,1-.228.55A.787.787,0,0,1-.6,37.6Z" style="fill:#1d1d1b"/><path d="M.3,6.167a.789.789,0,0,1-.551-.228.789.789,0,0,1-.228-.551.8.8,0,0,1,.228-.55.8.8,0,0,1,1.1,0,.787.787,0,0,1,.228.55.778.778,0,0,1-.228.551A.787.787,0,0,1,.3,6.167Z" style="fill:#1d1d1b"/><path d="M.447,8.112a.777.777,0,0,1-.778-.778A.791.791,0,0,1-.1,6.783a.805.805,0,0,1,1.1,0,.782.782,0,0,1,0,1.1A.786.786,0,0,1,.447,8.112Z" style="fill:#1d1d1b"/><path d="M.6,12.453a.792.792,0,0,1-.551-.227.782.782,0,0,1,0-1.1.811.811,0,0,1,1.1,0A.778.778,0,0,1,.6,12.453Z" style="fill:#1d1d1b"/><path d="M.148,14.4A.789.789,0,0,1-.4,14.171a.786.786,0,0,1-.227-.55A.788.788,0,0,1-.4,13.07a.811.811,0,0,1,1.1,0,.788.788,0,0,1,.227.551.786.786,0,0,1-.227.55A.791.791,0,0,1,.148,14.4Z" style="fill:#1d1d1b"/><path d="M.447,43.137a.8.8,0,0,1-.55-.228.779.779,0,0,1,0-1.1.8.8,0,0,1,1.1,0,.781.781,0,0,1,0,1.1A.787.787,0,0,1,.447,43.137Z" style="fill:#1d1d1b"/><path d="M.747,27.87A.8.8,0,0,1,.2,27.642a.779.779,0,0,1,0-1.1.8.8,0,0,1,1.1,0,.779.779,0,0,1-.55,1.329Z" style="fill:#1d1d1b"/><path d="M.148,34.306A.789.789,0,0,1-.4,34.078a.786.786,0,0,1-.227-.55A.788.788,0,0,1-.4,32.977a.811.811,0,0,1,1.1,0,.788.788,0,0,1,.227.551.786.786,0,0,1-.227.55A.791.791,0,0,1,.148,34.306Z" style="fill:#1d1d1b"/><path d="M.747,31.911A.792.792,0,0,1,.2,31.684a.78.78,0,0,1,0-1.1.809.809,0,0,1,1.1,0,.778.778,0,0,1-.55,1.329Z" style="fill:#1d1d1b"/><path d="M40.561.329A.788.788,0,0,1,40.01.1a.79.79,0,0,1-.227-.551A.79.79,0,0,1,40.01-1a.813.813,0,0,1,1.1,0,.794.794,0,0,1,.227.551A.794.794,0,0,1,41.112.1.778.778,0,0,1,40.561.329Z" style="fill:#1d1d1b"/><path d="M32.927.928A.791.791,0,0,1,32.376.7a.79.79,0,0,1-.227-.55A.792.792,0,0,1,32.376-.4a.811.811,0,0,1,1.1,0,.788.788,0,0,1,.227.551.786.786,0,0,1-.227.55A.787.787,0,0,1,32.927.928Z" style="fill:#1d1d1b"/><path d="M24.545.479A.8.8,0,0,1,24,.251a.787.787,0,0,1-.228-.55A.789.789,0,0,1,24-.85a.81.81,0,0,1,1.1,0,.789.789,0,0,1,.228.551.787.787,0,0,1-.228.55A.787.787,0,0,1,24.545.479Z" style="fill:#1d1d1b"/><path d="M6.883,1.227A.8.8,0,0,1,6.333,1,.791.791,0,0,1,6.105.449.791.791,0,0,1,6.333-.1a.812.812,0,0,1,1.1,0,.791.791,0,0,1,.228.551.777.777,0,0,1-.779.778Z" style="fill:#1d1d1b"/><path d="M12.721,1.078A.8.8,0,0,1,12.17.85.788.788,0,0,1,11.943.3a.8.8,0,0,1,.227-.55.811.811,0,0,1,1.1,0A.79.79,0,0,1,13.5.3a.792.792,0,0,1-.227.551A.791.791,0,0,1,12.721,1.078Z" style="fill:#1d1d1b"/><path d="M10.176,1.527A.778.778,0,0,1,9.4.748.787.787,0,0,1,9.626.2a.809.809,0,0,1,1.1,0,.781.781,0,0,1,0,1.1A.777.777,0,0,1,10.176,1.527Z" style="fill:#1d1d1b"/><path d="M16.612,1.527a.778.778,0,0,1-.778-.779A.787.787,0,0,1,16.062.2a.809.809,0,0,1,1.1,0,.787.787,0,0,1,.228.55.789.789,0,0,1-.228.551A.777.777,0,0,1,16.612,1.527Z" style="fill:#1d1d1b"/><path d="M32.927.928A.791.791,0,0,1,32.376.7a.79.79,0,0,1-.227-.55A.792.792,0,0,1,32.376-.4a.811.811,0,0,1,1.1,0,.788.788,0,0,1,.227.551.786.786,0,0,1-.227.55A.787.787,0,0,1,32.927.928Z" style="fill:#1d1d1b"/><path d="M4.638,1.227A.8.8,0,0,1,4.087,1,.794.794,0,0,1,3.86.449.794.794,0,0,1,4.087-.1a.813.813,0,0,1,1.1,0,.79.79,0,0,1,.227.551A.8.8,0,0,1,5.189,1,.786.786,0,0,1,4.638,1.227Z" style="fill:#1d1d1b"/><path d="M32.927.928A.791.791,0,0,1,32.376.7a.79.79,0,0,1-.227-.55A.792.792,0,0,1,32.376-.4a.811.811,0,0,1,1.1,0,.788.788,0,0,1,.227.551.786.786,0,0,1-.227.55A.787.787,0,0,1,32.927.928Z" style="fill:#1d1d1b"/><path d="M43.554.03A.8.8,0,0,1,43-.2a.787.787,0,0,1-.228-.55A.789.789,0,0,1,43-1.3a.8.8,0,0,1,1.1,0,.789.789,0,0,1,.228.551.787.787,0,0,1-.228.55A.787.787,0,0,1,43.554.03Z" style="fill:#1d1d1b"/><path d="M.447.03A.8.8,0,0,1-.1-.2a.787.787,0,0,1-.228-.55A.789.789,0,0,1-.1-1.3.8.8,0,0,1,1-1.3a.788.788,0,0,1,.227.551A.786.786,0,0,1,1-.2.787.787,0,0,1,.447.03Z" style="fill:#1d1d1b"/></pattern><linearGradient id="linear-gradient-4" x1="1101.328" y1="976.561" x2="1101.328" y2="716.07" gradientUnits="userSpaceOnUse"><stop offset="0" stop-color="#1d1d1b"/><stop offset="0.033" stop-color="#2f2f2d"/><stop offset="0.128" stop-color="#60605e"/><stop offset="0.229" stop-color="#8a8a89"/><stop offset="0.333" stop-color="#aeaeae"/><stop offset="0.441" stop-color="#cccccb"/><stop offset="0.556" stop-color="#e2e2e2"/><stop offset="0.679" stop-color="#f2f2f2"/><stop offset="0.817" stop-color="#fcfcfc"/><stop offset="1" stop-color="#fff"/></linearGradient><linearGradient id="linear-gradient-5" x1="1187.708" y1="462.852" x2="1165.493" y2="395.717" gradientUnits="userSpaceOnUse"><stop offset="0" stop-color="#3c1522" stop-opacity="0"/><stop offset="1"/></linearGradient><linearGradient id="linear-gradient-6" x1="435.462" y1="585.187" x2="591.065" y2="315.675" gradientTransform="translate(155.084 553.652) rotate(4.315)" gradientUnits="userSpaceOnUse"><stop offset="0" stop-color="#5b6966"/><stop offset="0.107" stop-color="#798c89"/><stop offset="0.229" stop-color="#96aea9"/><stop offset="0.33" stop-color="#a8c3be"/><stop offset="0.397" stop-color="#aecac5"/></linearGradient><linearGradient id="linear-gradient-7" x1="397.453" y1="518.001" x2="436.471" y2="557.019" gradientTransform="translate(155.084 553.652) rotate(4.315)" gradientUnits="userSpaceOnUse"><stop offset="0" stop-color="#ea1"/><stop offset="0.421" stop-color="#eca911"/><stop offset="0.573" stop-color="#e5a410"/><stop offset="0.681" stop-color="#da9c10"/><stop offset="0.768" stop-color="#c9900e"/><stop offset="0.843" stop-color="#b3800d"/><stop offset="0.908" stop-color="#986d0b"/><stop offset="0.963" stop-color="#7b5909"/></linearGradient><linearGradient id="linear-gradient-8" x1="353.382" y1="529.433" x2="388.872" y2="529.433" gradientTransform="translate(160.778 553.401) rotate(4.342)" xlink:href="#linear-gradient-4"/></defs><g style="isolation:isolate"><g id="Layer_1" data-name="Layer 1"><path d="M1417.2-725.908c19.691-3.47,45.835.753,53.611,10.558,12.193,15.377,1.906,34.276-13.3,43.958-26.878,17.111-71.943-5.269-89.749,21.153-14.274,21.18,6.26,53.551-8.653,74.286-14.156,19.681-45.061,10.8-68.208,18-13.112,4.083-23.73,13.569-33.9,22.795l-60.652,55.008c-22.878,20.75-51.507,43.049-81.372,35.174-28.135-7.42-42.9-38.886-46.269-67.787s.736-58.781-7.112-86.8c-11.238-40.117-48.525-71.568-89.962-75.881s-84.4,18.784-103.662,55.727c-21.036,40.351-14.776,91.96-40.556,129.459-19.5,28.358-56.659,43.346-90.373,36.448-19.3-3.949-37.1-14.309-56.707-16.173s-43.206,9.91-43.3,29.609c-.1,22.17,28.683,33.066,50.4,28.614s41.438-17.641,63.584-18.686,47.424,20.5,37.391,40.272C781.726-377,764.106-374.1,749.43-375.74s-29.835-6.094-43.853-1.45c-23.9,7.921-32.169,37.477-33,62.647s1.366,52.855-13.944,72.85c-13.381,17.476-37,24-59.013,24.011s-43.679-5.349-65.649-6.668c-60.572-3.639-122.113,25.882-157.185,75.4s-42.5,117.369-18.965,173.3" style="fill:none;stroke:#000;stroke-miterlimit:10;stroke-width:3px"/><path d="M280.415,568.505c31.5,3.836,62.857-12.786,83.871-36.558s33.263-53.919,43.4-83.985,18.655-60.947,33.748-88.856c39.361-72.786,125.1-117.579,207.328-108.313,19.177,2.161,38.363,7.126,54.719,17.37s29.68,26.223,33.949,45.044c3.359,14.806-.088,32.4-12.622,40.967-17.444,11.927-40.562,1.219-60.87-4.623-42.782-12.307-91.884.865-122.763,32.932-40.724,42.293-46.081,106.527-71.022,159.679C443.71,598.51,392.691,643.226,332.788,660.136c-22.339,6.306-47.619,8.5-67.654-3.224s-30.21-41.5-15.152-59.163" style="fill:#ea1"/><path d="M385.178,944.386c-48.442,5.463-106.784,8.61-154.881.663-18.424-3.043-37.624-7.526-51.431-20.1-17.962-16.356-44.973-40.718-48.3-79.43-2.5-29.118,3.474-62.847,15.3-89.574,11.552-26.115,48.46-56.851,75.819-65.031,35.714-10.678,50.546-19.469,81.088-6.7,2.145-17.386,4.283-35.094,1.13-52.325s-12.481-34.229-28.03-42.3c-21.786-11.3-48.147-2.48-70.95,6.6-56.2,22.377-115.417,48.351-148.507,98.986-20.951,32.059-29.064,70.983-31,109.232-2.265,44.83,3.706,90.912,23.938,130.981,25.467,50.436,72.675,88.358,125.891,107.342,52.289,18.653,70.337,35.092,124.252,21.851,21.717-5.334,89.254,32.64,94.442,10.887" style="fill:#ea1"/><path d="M637.482,461.778a200.927,200.927,0,0,0-8.186-28.9c-.86-2.259-1.711-4.539-2.606-6.77-.92-2.2-1.82-4.434-2.781-6.592-.973-2.139-1.922-4.324-2.937-6.416l-1.525-3.139-.767-1.567c-.118-.245-.248-.51-.473-.938l-.6-1.144c-.8-1.5-1.624-3.1-2.452-4.488-.829-1.411-1.671-2.824-2.524-4.214l-2.578-3.932c-.871-1.322-1.742-2.483-2.626-3.725a150.38,150.38,0,0,0-10.85-13.26l-1.388-1.522-1.4-1.453-.441-.453L507.26,448.861c.591.477,1.168.954,1.709,1.434.8.65,1.455,1.31,2.188,1.948l.98.954.493.469.435.461a39.6,39.6,0,0,1,2.927,3.29c.158.221.4.47.513.652a6.612,6.612,0,0,0,.414.548,2.918,2.918,0,0,0,.267.393c.12.137.083.155.157.225l.042.04c-.006-.037.063.1.14.261l.42.85.848,1.7c.57,1.131,1.043,2.246,1.581,3.364.515,1.116.95,2.217,1.442,3.32l1.3,3.271a88.013,88.013,0,0,1,3.7,12.482,63.247,63.247,0,0,1,1.462,11.525c.1,1.863.02,3.7-.041,5.536-.154,1.835-.271,3.672-.591,5.524a67.015,67.015,0,0,1-2.8,11.435,93.9,93.9,0,0,1-5.217,12.281,159.709,159.709,0,0,1-17.563,26.509,330.749,330.749,0,0,1-24.746,27.341c-9.115,9.125-18.925,18.23-29.128,27.355-20.432,18.259-42.373,36.582-64.547,55.784q-4.481,3.879-8.975,7.811c-19.25,16.838-38.625,34.432-57.472,53.433-11.93,12.039-23.665,24.66-34.939,38.012-9.285,11-18.259,22.486-26.763,34.567a411.577,411.577,0,0,0-26.143,42.248,354.442,354.442,0,0,0-20.758,46.409c-1.272,3.49-2.472,7.01-3.624,10.549l98.581,46.987q2.747-10.3,6.5-20.359a246.113,246.113,0,0,1,14.71-32.063,303.034,303.034,0,0,1,19.483-30.814A417.864,417.864,0,0,1,378.2,823.505q7.989-8.579,16.487-16.983c18.854-18.686,39.381-36.776,60.8-54.982,14.328-12.2,29.078-24.44,44.036-37.137,7.4-6.281,14.848-12.666,22.328-19.228,11.3-9.929,22.663-20.258,33.955-31.36a441.13,441.13,0,0,0,33.327-36.288,270.89,270.89,0,0,0,30.145-45.1,206.279,206.279,0,0,0,11.839-27.254,179.7,179.7,0,0,0,7.713-30.3A174.445,174.445,0,0,0,637.482,461.778Z" style="fill:url(#radial-gradient)"/><path d="M916.467,681.886q-8.44,40.985-18.986,81.258-10.546,40.248-23.658,79.43c-17.511,52.147-38.6,102.718-64.568,149.691-1.644,2.918-3.229,5.881-4.915,8.765l-5.027,8.677-5.168,8.561c-1.712,2.862-3.526,5.638-5.281,8.463q-10.677,16.824-22.313,32.756a470.273,470.273,0,0,1-50.705,58.871,361.969,361.969,0,0,1-58.833,46.886,304.13,304.13,0,0,1-32.159,17.646,273.8,273.8,0,0,1-33.6,13.151,243.855,243.855,0,0,1-69.8,11.263,232.118,232.118,0,0,1-132.591-39.837,224.43,224.43,0,0,1-50.843-47.262,199.467,199.467,0,0,1-32.368-59.541,180.681,180.681,0,0,1-9.35-65.48,222.367,222.367,0,0,1,7.256-47.358L204.97,900.839a329.664,329.664,0,0,0-15.9,90.151,287.864,287.864,0,0,0,15.569,104.1c2.872,8.286,6.044,16.455,9.621,24.421s7.467,15.764,11.659,23.378a314.869,314.869,0,0,0,28.815,43.084c42.887,53.963,102.214,93.019,167.549,112.125a336.341,336.341,0,0,0,100.773,13.524,348.007,348.007,0,0,0,99.669-16.735,377.571,377.571,0,0,0,46.477-18.548,407.33,407.33,0,0,0,43.193-24.084,464.688,464.688,0,0,0,75.371-60.8,572.306,572.306,0,0,0,61.22-71.978q13.692-18.962,25.939-38.641c2.017-3.287,4.1-6.547,6.057-9.86l5.9-9.929,5.708-10.006c1.912-3.332,3.7-6.712,5.556-10.067,29.27-53.854,52.087-110.009,70.766-166.886q13.978-42.682,24.955-85.921,11.049-43.2,19.636-86.719Z" style="fill:url(#linear-gradient)"/><path d="M499.528,714.4c-8.466-.648-16.823-1.523-25.018-2.689-23.951-3.361-46.564-9.124-66.486-17.53a169.48,169.48,0,0,1-33.355-18.563,133.845,133.845,0,0,1-16.987-14.527q-1.237-1.251-2.436-2.533a127.179,127.179,0,0,1-27.463-46.169c-6.449-18.741-9.166-40.045-7.968-61.246a162.377,162.377,0,0,1,4.61-30.7A116.484,116.484,0,0,1,328.6,507.2c.761-1.95,1.54-3.737,2.27-5.263.364-.753.715-1.455,1.032-2.037l.118-.221c.055-.1.042-.1.151-.273l.561-.93,1.119-1.863c.749-1.236,1.476-2.5,2.238-3.718l2.311-3.611,1.15-1.809,1.194-1.743,2.375-3.5c3.255-4.514,6.523-8.988,10-13.051l1.281-1.558c.432-.511.879-.991,1.316-1.489l2.627-2.973c1.807-1.862,3.556-3.831,5.4-5.575,1.8-1.851,3.682-3.492,5.519-5.22,1.894-1.592,3.747-3.267,5.674-4.734a109.324,109.324,0,0,1,23.79-14.58A94.025,94.025,0,0,1,424.3,425.7a102.14,102.14,0,0,1,27.336-.073,115.439,115.439,0,0,1,27.727,7.241,117.6,117.6,0,0,1,13.045,6.107,108.983,108.983,0,0,1,11.628,7.382c1.1.837,2.19,1.671,3.227,2.507l86.094-75.595-2.365-2.424c-1.88-1.824-3.772-3.7-5.683-5.406-3.814-3.527-7.7-6.722-11.626-9.836a224.887,224.887,0,0,0-49.891-29.263,231.328,231.328,0,0,0-55.068-15.9,219.339,219.339,0,0,0-58.586-1.355A211.606,211.606,0,0,0,352.7,323.866a228.017,228.017,0,0,0-50.382,28.847c-3.838,2.822-7.448,5.815-11.091,8.8-3.518,3.058-7.078,6.107-10.4,9.3-3.427,3.136-6.592,6.411-9.831,9.66l-4.65,4.972c-.767.833-1.552,1.66-2.3,2.5l-2.219,2.536c-6,6.739-11.44,13.711-16.731,20.739l-3.825,5.316-1.905,2.663-1.818,2.686-3.624,5.381c-1.188,1.8-2.31,3.614-3.464,5.423l-1.717,2.717-.858,1.359-1.1,1.827c-1.5,2.515-2.862,4.971-4.151,7.407-2.56,4.858-4.786,9.6-6.791,14.28a236.381,236.381,0,0,0-9.718,27.518,284.641,284.641,0,0,0-9.865,54.125,295.829,295.829,0,0,0,.352,54.506,277.233,277.233,0,0,0,10.938,54.492,258.87,258.87,0,0,0,22.643,52.26,252.17,252.17,0,0,0,33.747,45.95c.125.135.245.276.37.411,5.713,6.169,11.728,12,17.954,17.531a273.875,273.875,0,0,0,24.9,19.662,304.985,304.985,0,0,0,47.659,27.127c7.75,3.542,15.554,6.74,23.384,9.65q12.971,4.819,26,8.6a437.65,437.65,0,0,0,49.455,11.282c32.822,5.591,65.145,7.733,96.871,7.894l-1.107-135.668C532.506,716.005,515.8,715.65,499.528,714.4Z" style="fill:#aecac5"/><path d="M582.119,1477.823c-29.528,0-59.39-6.943-87.619-20.505-29.963-14.395-53.728-34.135-70.631-58.672-15.206-22.075-24.594-47.617-27.9-75.918-5.841-49.973,8.494-97.862,21.548-129.236,11.733-28.2,40.9-64.353,61.82-81.288,0,0,21.738,4.322,39.728,33.107,9.113,14.58,18.426,21.134,24.957,24.08a5.486,5.486,0,0,1,1.5,9.073A212.928,212.928,0,0,0,529,1195.634c-10.594,9.932-12.027,14.517-22.64,42.288-11.03,28.864-15.077,56.561-11.394,77.99,4.064,23.653,17.538,40.232,42.4,52.177,19.063,9.159,38.123,12.5,56.649,9.929,17.522-2.429,34.161-9.96,49.456-22.381,21.641-17.576,38.768-43.986,48.223-74.365,10.564-33.939,11.361-71.335,2.305-108.143-7.153-29.074-8.945-56.737-5.326-82.221a163.393,163.393,0,0,1,23.833-65.226c40.327-63.4,111.784-79.22,119.8-80.815l19.325,97.086.449-.092c-.383.084-38.482,8.728-56.368,37.461-10.866,17.455-12.746,41.059-5.587,70.156,13.363,54.315,12.011,110.062-3.911,161.214-15.408,49.5-43.188,91.618-80.335,121.787-29.108,23.64-63.086,38.713-98.263,43.592A185.574,185.574,0,0,1,582.119,1477.823Z" style="fill:#3c1522"/><ellipse cx="1090.371" cy="1378.843" rx="213.01" ry="86.589" transform="translate(-218.328 205.206) rotate(-9.778)"/><path d="M944.946,1034.089v428.923c133.868,29.832,264.953-29.125,264.953-29.125V962.909Z" style="fill:#aecac5"/><path d="M944.946,1463.012l1.295-235.09s241.092,31.375,263.658-54.054v260.019S1077.422,1492.846,944.946,1463.012Z" style="fill:url(#linear-gradient-2)"/><line x1="968.218" y1="1239.98" x2="968.218" y2="1468.479" style="fill:#fff;stroke:#fff;stroke-miterlimit:10;stroke-width:3px"/><path d="M1147.237,1310.677c-22.373,12.421-34.178,12.938-56.023,16.587v137.8" style="fill:none;stroke:#000;stroke-miterlimit:10;stroke-width:3px;opacity:0.25"/><path d="M454.191,648.026c10.2-9.125,20.013-18.23,29.128-27.355a330.749,330.749,0,0,0,24.746-27.341,159.709,159.709,0,0,0,17.563-26.509,93.9,93.9,0,0,0,5.217-12.281,67.015,67.015,0,0,0,2.8-11.435c.32-1.852.437-3.689.591-5.524.061-1.84.144-3.673.041-5.536a63.247,63.247,0,0,0-1.462-11.525,88.013,88.013,0,0,0-3.7-12.482l-1.3-3.271c-.492-1.1-.927-2.2-1.442-3.32-.538-1.118-1.011-2.233-1.581-3.364l-.848-1.7-.42-.85c-.077-.159-.146-.3-.14-.261l-.042-.04c-.074-.07-.037-.088-.157-.225a2.918,2.918,0,0,1-.267-.393,6.612,6.612,0,0,1-.414-.548c-.11-.182-.355-.431-.513-.652a39.6,39.6,0,0,0-2.927-3.29l-.435-.461-.493-.469-.98-.954c-.733-.638-1.388-1.3-2.188-1.948-1.488-1.321-3.211-2.627-4.936-3.941a108.983,108.983,0,0,0-11.628-7.382,117.6,117.6,0,0,0-13.045-6.107,115.439,115.439,0,0,0-27.727-7.241,102.14,102.14,0,0,0-27.336.073,94.025,94.025,0,0,0-25.566,7.356,109.324,109.324,0,0,0-23.79,14.58c-1.927,1.467-3.78,3.142-5.674,4.734-1.837,1.728-3.72,3.369-5.519,5.22-1.848,1.744-3.6,3.713-5.4,5.575l-2.627,2.973c-.437.5-.884.978-1.316,1.489l-1.281,1.558c-3.474,4.063-6.742,8.537-10,13.051l-2.375,3.5-1.194,1.743-1.15,1.809-2.311,3.611c-.762,1.216-1.489,2.482-2.238,3.718l-1.119,1.863-.561.93c-.109.177-.1.177-.151.273l-.118.221c-.317.582-.668,1.284-1.032,2.037-.73,1.526-1.509,3.313-2.27,5.263a116.484,116.484,0,0,0-4.179,13.245,162.377,162.377,0,0,0-4.61,30.7c-1.2,21.2,1.519,42.505,7.968,61.246a126.82,126.82,0,0,0,29.9,48.7,133.845,133.845,0,0,0,16.987,14.527q4.493-3.93,8.975-7.811C411.818,684.608,433.759,666.285,454.191,648.026Z" style="fill:none"/><path d="M582.217,785.518c0,29.752,13.77,66.1-34.9,65.771-16.528-.11-49.216-3.99-38.574-79.145,4.171-29.458,23.9-57.544,40.428-57.544S582.217,755.765,582.217,785.518Z"/><path d="M783.73,417.283s14.843,19.791,36.352,28.261a105.7,105.7,0,0,1,40.307,28.648h0s.458.6,1.32,1.6a112.473,112.473,0,0,1,22.47,41.121,41.88,41.88,0,0,0,14,20.939c21.594,17.275-19.794,26.273-38.869,0,0,0-1.44,2.293-12.237-23.038,0,0-21.594-23.029-26.272,7.563-4.136,27.038,24.833,43,43.548,97.619s1.072,57.582-.736,53.179-23.738,0-23.738,0,13.677-9-34.55-85.3l-2.175.709a40.467,40.467,0,0,1-26.981-.681l-1.619-.619h0a40.468,40.468,0,0,1-27.473-8.165l-.629-.48-7.222-5.366a40.245,40.245,0,0,1-14.441-20.255,237.246,237.246,0,0,1-6.574-28.04c-6.478-35.63-.342-62.348.378-83.222S783.73,417.283,783.73,417.283Z" style="fill:#3c1522"/><path d="M895.519,535.534s-18.225,5.247-22.437-8.5c0,0,9.3-6.836,13.822-3.207" style="fill:#775b65"/><path d="M802.747,583.4c-4.245-15.195-9.425-17.644-14.137-26.465" style="fill:none;stroke:#d11c36;stroke-miterlimit:10;stroke-width:3px"/><path d="M1038.58,705.457l-90.236-40.7c47.984-106.374,76.84-198.4,85.765-273.516,7.07-59.495,1.2-107.607-16.989-139.133-15.54-26.941-40.836-42.36-75.188-45.83-67.379-6.806-113.158,4.494-136.069,33.585-22.272,28.278-23.265,72.284-20.176,104.222a343.648,343.648,0,0,0,15.014,71.8l-.039-.109-93.258,33.2a438.917,438.917,0,0,1-19.975-92.642c-3.2-30.933-2.585-59.926,1.844-86.171,6-35.529,18.971-66.22,38.565-91.223,22.023-28.1,51.858-48.463,88.675-60.522,37.631-12.325,83.176-15.9,135.367-10.63,31.65,3.2,60.391,12.451,85.428,27.5,27.134,16.315,49.192,38.976,65.561,67.355,29.346,50.878,39.285,118.26,29.54,200.274C1122.29,488.076,1090.721,589.865,1038.58,705.457Z" style="fill:url(#New_Gradient_Swatch_6)"/><polyline points="1209.899 1219.188 1292.867 1035.131 1206.885 962.909"/><path d="M658.007,713.91l7.652,60.5a39.422,39.422,0,0,1-14.042,35.371l-2.3,1.893-52.39-14.211,8.271-62.92" style="fill:#ea1"/><path d="M538.872,727.352l106.73-27.06a60.192,60.192,0,0,1,38.2,2.89l78.187,33,42.621,17.987S796.862,777.4,762.9,769.655c0,0-62.561-32.174-91.16-23.833s-53.624,28.6-36.941,48.262c0,0,7.039,8.81,29.2,19.066,0,0,38.384,9.618,40.516,23.942,0,0,1.232,13.2-.6,14.112,0,0-51.829-13.408-82.216-14.112s-59.582-34.667-59.582-34.667Z" style="fill:#ea1"/><path d="M660.716,747.809s-71.177,22.036-14.795,59.659" style="fill:none;stroke:#d11c36;stroke-linecap:round;stroke-miterlimit:10;stroke-width:2px"/><polyline points="636.773 765.187 637.291 782.928 631.229 786.528" style="fill:none;stroke:#d11c36;stroke-linecap:round;stroke-miterlimit:10;stroke-width:2px"/><path d="M770.574,739.8l30.9,13.041s-6.478,4.716-25.41-2.162l-9.479-4.5" style="fill:#d11c36"/><path d="M688.077,847.318s1.3-1.212,1.7-9.156c0,0,23.341-.234,18.9,14.465" style="fill:#d11c36"/><polyline points="787.782 725.85 853.287 755.476 840.621 868.107 806.1 983.494 787.555 975.272" style="fill:#ccc4bf"/><polyline points="803.534 681.786 1040.968 620.187 1006.744 820.71 917.263 1128.975 838.654 1087.042 806.699 999.747" style="fill:#fff"/><polyline points="803.534 681.786 869.266 711.936 870.081 1117.336 830.47 1095.056 803.534 1000.947" style="fill:#ddd4d1"/><polyline points="869.266 711.936 1106.7 650.337 1072.476 850.86 981.111 1089.242 870.081 1117.336 869.266 1034.422" style="fill:#aba6a4"/><path d="M955.039,941.809l1.107,9.689c.414,3.243.921,6.483,1.391,9.726.749,5.688,1.844,11.388,2.866,17.086l.1-29.238.183-54.382q-3.6,1.482-7.306,2.659c-.092,2.1-.13,4.25-.184,6.372A327.737,327.737,0,0,0,955.039,941.809Z" style="fill:none"/><path d="M921.418,1241.036l-.053-.042C921.74,1241.383,921.9,1241.456,921.418,1241.036Z" style="fill:none"/><path d="M957.068,872.856l.015-.279c.006-.112-.011-.022-.016-.043l-.1.062-.1.064c-.034,0-.076.174-.11.253l-.155.433.421.068Z"/><path d="M1002.282,1195.787l3.4-4.105,3.524-4.175,7.088-8.355q7.132-8.348,14.447-16.7,7.292-8.37,14.846-16.79c5.057-5.633,10.158-11.3,15.464-17.081l8.117-8.858,5.361-5.883s3.112-3.523,3.792-4.566l-97.111-55.343c.295-.264-6.5,16.147-6.882,17.674l-1.266,4.608c-1.4,4.765-3.09,9.492-4.916,14.2.894-4.955,1.624-9.937,2.14-14.93a216.488,216.488,0,0,0-.9-50.9c-.568-4.142-1.206-8.268-1.983-12.337-.366-2.045-.792-4.064-1.211-6.087-.2-1.015-.44-2.013-.665-3.018l-.666-2.95-2.059-9.743c-.663-3.245-1.437-6.489-1.978-9.741-.139-.8-.285-1.6-.428-2.4l-.575,170.95,14.39,69.928s3.62.913,9.988,2.214c2.164-3.782,4.572-7.6,7.293-11.453C994.8,1205.257,998.4,1200.521,1002.282,1195.787Z"/><path d="M1105.481,629.166l-40.57,3.325-41.9,9.311L917.928,720.947s-39.9,29.929-51.211,71.829-15.3,63.183-12.637,83.136c.462,3.467,2.62,6.857,6.1,10,15.5,13.97,57.272,22.951,93.2,11.44q3.7-1.185,7.306-2.659l-.183,54.382-.1,29.238-.575,170.95,14.39,69.928s3.62.913,9.988,2.214c38.107,7.785,174.8,29.452,225.693-47.534V701.494Zm-148.4,243.411-.015.279-.042.558-.421-.068.155-.433c.034-.079.076-.252.11-.253l.1-.064.1-.062C957.072,872.555,957.089,872.465,957.083,872.577Z" style="fill:url(#New_Gradient_Swatch_6-2)"/><path d="M981.214,1053.933c.295-.264-6.5,16.147-6.882,17.674l-1.266,4.608c-1.4,4.765-3.09,9.492-4.916,14.2.894-4.955,1.624-9.937,2.14-14.93a216.488,216.488,0,0,0-.9-50.9c-.568-4.142-1.206-8.268-1.983-12.337-.366-2.045-.792-4.064-1.211-6.087-.2-1.015-.44-2.013-.665-3.018l-.666-2.95-2.059-9.743c-.663-3.245-1.437-6.489-1.978-9.741-.139-.8-.285-1.6-.428-2.4-1.022-5.7-2.117-11.4-2.866-17.086-.47-3.243-.977-6.483-1.391-9.726l-1.107-9.689a327.737,327.737,0,0,1-1.845-38.088c.054-2.122.092-4.268.184-6.372-35.923,11.511-77.7,2.53-93.2-11.44.036.338.064.69.105,1.021l.644,6.1.759,5.942c.462,3.987,1.112,7.8,1.651,11.672,2.352,15.358,5.234,30.108,8.338,44.669l2.349,10.874,2.508,10.759,1.245,5.374,1.322,5.329,2.621,10.646,5.475,21.121c.736,2.868,1.406,5.528,1.983,8.3.6,2.742,1.092,5.479,1.546,8.21a137.753,137.753,0,0,1,1.481,32.281,122.6,122.6,0,0,1-6.439,30.91,137.39,137.39,0,0,1-14.494,29.408c-1.552,2.418-3.175,4.836-4.918,7.313s-3.583,5-5.646,7.8l-1.616,2.2-.906,1.245-1.174,1.65q-2.314,3.325-4.375,6.831a110.181,110.181,0,0,0-7.151,14.505,111.417,111.417,0,0,0-7.456,30.508,125.425,125.425,0,0,0,.671,29.953,130,130,0,0,0,7.377,28.492,118.479,118.479,0,0,0,6.36,13.878,103.9,103.9,0,0,0,8.993,13.913,78.232,78.232,0,0,0,14.091,14.269,61.928,61.928,0,0,0,11.271,6.946,54.028,54.028,0,0,0,16.707,4.873,50.392,50.392,0,0,0,10.5.156,49.608,49.608,0,0,0,10.807-2.209,50.327,50.327,0,0,0,9.671-4.3,52.671,52.671,0,0,0,7.712-5.436,55.681,55.681,0,0,0,5.8-5.695c.435-.483.8-.927,1.2-1.4s.766-.933,1.113-1.384l.952-1.248.531-.727,2.115-2.922,2.064-3.055a125.643,125.643,0,0,0,7.554-13.09,137.7,137.7,0,0,0,5.735-13.3c1.566-4.213,2.828-8.009,3.949-11.317s2.1-6.18,3.086-8.806a107.1,107.1,0,0,1,6.516-14.281c.448-.822.923-1.648,1.395-2.475,2.164-3.782,4.572-7.6,7.293-11.453,3.3-4.692,6.9-9.428,10.783-14.162l3.4-4.105,3.524-4.175,7.088-8.355q7.132-8.348,14.447-16.7,7.292-8.37,14.846-16.79c5.057-5.633,10.158-11.3,15.464-17.081l8.117-8.858,5.361-5.883s3.112-3.523,3.792-4.566Zm-59.849,187.061.053.042C921.9,1241.456,921.74,1241.383,921.365,1240.994Z"/><path d="M1182.747,332.837l12.56,45a27.328,27.328,0,0,1-1.244,18.208h0a27.325,27.325,0,0,0-1.671,16.465l4.308,20.555a27.32,27.32,0,0,1-.073,11.542l-21.788,97.879a27.325,27.325,0,0,1-19.612,20.46l-42.209,11.291,3.1,64.024s12.637,96.806-93.111,3.547l-3.959-80.935L956.5,568.2l-5.321-65.621-27.933-3.547,17.292-89.121-8.868-11.085,9.755-73.159" style="fill:url(#linear-gradient-3)"/><path d="M1241.908,290.692s-21.842,66.151-193.876,60.387l10.732,39.9-13.584,26.262,2.152,37.3-19-7.265V428.326s1.876-11.563-18.179-23.057l-28.821-21.282-5.32-35.471s-67.68-28.32-92.288-48.494c0,0,131.306-35.085,158.8-4.491,0,0,22.613-20.174,52.763-14.854"/><polyline points="956.503 568.2 1017.086 530.065 1019.052 560.868"/><circle cx="1106.7" cy="437.232" r="7.301"/><ellipse cx="953.529" cy="419.157" rx="5.672" ry="7.066"/><polyline points="1124.864 1008.263 1031.593 1228.42 974.218 1219.188 1069.567 1008.928" style="opacity:0.45;mix-blend-mode:multiply;fill:url(#Unnamed_Pattern_4)"/><polyline points="1177.241 848.865 993.329 897.592 1202.308 918.001" style="opacity:0.45;mix-blend-mode:multiply;fill:url(#Unnamed_Pattern_4)"/><polygon points="1092.519 716.07 1510.856 605.666 1528.473 613.204 1517.507 956.165 1092.519 1062.578 1092.519 716.07"/><polygon points="1110.137 723.608 1528.473 613.204 1535.124 963.702 1110.137 1070.115 1110.137 723.608"/><polygon points="1128.759 735.062 1511.423 635.37 1517.45 948.926 1128.759 1044.249 1128.759 735.062" style="fill:#fff"/><polyline points="1092.519 716.07 1110.137 724.953 1110.137 976.561 1092.519 947.845" style="opacity:0.39;mix-blend-mode:hard-light;fill:url(#linear-gradient-4)"/><path d="M1092.519,934.6s-27.736-12.8-60.926,17.131-23.546,75.487-23.546,75.487,23.285,70.831,93.281,46.888,91.128,27.235,76.647,4.942l2.129,3.316,16.374,14.343s24.727,15.309,40.689-3.979-5.985-44.779-5.985-44.779-14.632-24.389-51.877-27.05-21.7-3.106-86.714-18.4" style="fill:#ea1"/><path d="M1560.84,793.232s20.246,8.489,19.184,36.458-7.081,38.59-3.54,80.367,2.478,53.461-11.33,66.56c0,0-3.186,4.957-20.534,3.895,0,0-6.727,21.242-40.361,20.18l-8.851.038s-7.789,18.69-39.652,16.407c0,0-32.218,24.624-94.883-4.762l19.868-11.275,47.757-11.958a306.242,306.242,0,0,0,7.431-42.5c1.889-21.007-7.08-21.479,4.249-66.324s24.7-32.1,30.289-33.752c0,0,7.711-68.684,37.451-60.895l4.956.944s14.107-39.678,38-34.46C1571.409,756.64,1556.474,786.978,1560.84,793.232Z" style="fill:#ea1"/><path d="M1077.1,994.3s25.133,1.806,47.76,13.967c0,0,57.767-19.288,82.375-6.984,0,0,11.306-8.978,13.966-21.615s-7.316-17.957,7.316-62.517,15.962-54.759,26.6-68.282,17.957-32.811,47.885-30.816c0,0,31.038-47.442,60.08-16.183,0,0,18.622-1.109,24.386,15.3s1.773,23.056,1.773,23.056,22.392,2.217,17.514,29.263-13.745,41.014-12.858,59.193-1.774,28.82-6.651,47.221-8.646,39.683-24.608,48.551c0,0-12.858,8.2-24.608,6.429,0,0-9.754,26.381-42.343,18.844,0,0-18.4,18.844-38.8,10.2,0,0-17.735,20.174-41.457,12.193" style="fill:#ea1"/><path d="M959.606,799.649l-.063,172.771c-.116,3.138,9.181,34.994,10.641,70.5,1.177,28.63-2.034,47.492-2.034,47.492l13.064-36.478Z" style="fill:#991c36"/><polyline points="803.534 720.655 787.782 725.85 803.534 732.883" style="fill:#fff"/><polyline points="960.534 1141.369 908.409 1219.188 959.777 1058.794 960.534 1141.369" style="opacity:0.45;mix-blend-mode:multiply;fill:url(#Unnamed_Pattern_4)"/><ellipse cx="833.75" cy="993.409" rx="8.217" ry="10.641" style="fill:#ccc4bf"/><path d="M538.872,727.352s-32.486,34.57-16.281,67.592c3.752,7.645,13.148-1.835,39.518,7.481" style="fill:#ea1"/><path d="M1051.549,523.878l18.777,58.565,45.263,44.808,1.876-54.258c-16.752,3.985-65.916-49.115-65.916-49.115"/><path d="M1358.37,815.128S1338.9,803.6,1329.015,833.2s-7.778,24.83-7.778,24.83,14.521-2.772,22.945-1l7.759-14.854,8.425-25.827" style="fill:#fff;opacity:0.45"/><path d="M1299.032,877.8s-17.922-3.151-23.908.507,2.557-46.233,37.245-37.661" style="fill:#fff;opacity:0.45"/><path d="M1303.058,822.111s14.881,6.235,3.99,36.247c-10.608,29.234-18.289,53.539-18.289,53.539s-10.642,30.594-12.97,54.537,1.663,60.522-14.3,81.473" style="fill:none;stroke:#d11c36;stroke-miterlimit:10;stroke-width:2px"/><path d="M1388.188,827.764s-20.285-12.525-23.167,10.753l-4.655,23.832s13.523-3.991,20.506-.776l8.377-21.354.824-11.568" style="fill:#fff;opacity:0.45"/><path d="M1241.205,1064.367s-2.66-30.13-47.775-41.623c-55.743-14.2-28.353,9.533-92.1-16.848" style="fill:none;stroke:#d11c36;stroke-miterlimit:10;stroke-width:2px"/><path d="M1477.642,859.132s-15.962-5.222-15.3,26.5c0,0,9.487-6.679,16.881-3.34l1.546-16.087v-7.068" style="fill:#fff;opacity:0.45"/><path d="M1182.708,1084.715s-.7-19.516,12.606-34.481c0,0,19.454,18.207,1.164,46.473" style="fill:#fff;opacity:0.45"/><path d="M1522.867,800.178s-22.4-4.138-23.943,35.736c0,0,11.538-4.961,19.479-3.421" style="fill:#fff;opacity:0.45"/><path d="M1512.874,786.615s9.328,6.565,8.663,21.862-6.318,37.145-6.983,49.832,2.66,39.166-6.318,71.152c0,0-2.328,22.009,0,38.636s-12.828,32.633-12.828,32.633" style="fill:none;stroke:#d11c36;stroke-miterlimit:10;stroke-width:2px"/><path d="M1559.447,797.171s-6.318,21.947-5.321,33.254-1.995,32.589-3.658,38.574-6.318,29.264-5.32,37.245,6.179,39.9-.139,71.5" style="fill:none;stroke:#d11c36;stroke-miterlimit:10;stroke-width:2px"/><path d="M1473.319,850.71s12.643-.007,5,31.917a145.743,145.743,0,0,0-5,20.957,78.856,78.856,0,0,1,2,33.919c-2.993,18.955-5.7,20.974-4.845,30.44s5.843,28.942-4.466,40.985" style="fill:none;stroke:#d11c36;stroke-miterlimit:10;stroke-width:2px"/><path d="M1561.775,766.909s-23.278-5.653-24.276,40.57c0,0,15.3-8.978,18.955-5.653l.554.166,3.832-8.76Z" style="fill:#fff;opacity:0.45"/><path d="M1578.319,815.211s-16.212-2.245-15.048,25.689c0,0,12.138-3.575,16.045-1.58C1579.316,839.32,1581.311,821.862,1578.319,815.211Z" style="fill:#fff;opacity:0.45"/><path d="M1386.858,843.726s-10.641,25.939-12.969,41.9-4.988,26.148-3.658,43.834-11.306,50.275-16.96,58.588-18.622,27.458-15.3,39.169" style="fill:none;stroke:#d11c36;stroke-miterlimit:10;stroke-width:2px"/><path d="M1406.478,855.587s-15.075-8.04-14.853,22.916c0,0,8.592-1.249,13.274,0C1404.9,878.5,1409.8,865.563,1406.478,855.587Z" style="fill:#fff;opacity:0.45"/><path d="M1360.873,803.932s8.139-1.33-14.252,56.532c0,0-12.415,29.944-11.75,57.537s-2,30.919-9.09,50.65-11.084,23.16-13.412,36.188,2.993,17.24-14.078,40.961" style="fill:none;stroke:#d11c36;stroke-miterlimit:10;stroke-width:2px"/><path d="M1430.6,987.041a45.016,45.016,0,0,1-6.411,18.855" style="fill:none;stroke:#d11c36;stroke-miterlimit:10;stroke-width:2px"/><path d="M1204.316,1003.66s-5.81.271-10.807,10.221" style="fill:none;stroke:#d11c36;stroke-miterlimit:10;stroke-width:2px"/><path d="M1076.289,425.108a39.861,39.861,0,0,1,21.687-15.291c8.691-2.419,20.449-2.011,28.708,1.617" style="fill:none;stroke:#fff;stroke-miterlimit:10;stroke-width:4px"/><path d="M1160.735,515.467a30.96,30.96,0,0,1-39.026,1.127" style="fill:none;stroke:#d11c36;stroke-miterlimit:10;stroke-width:4px"/><polygon points="1147.468 1219.041 1100.131 1228.958 1161.416 1086.519 1147.468 1219.041" style="fill:#aecac5;mix-blend-mode:overlay"/><polygon points="1006.744 674.58 1091.214 763.142 1261.49 797.171 1006.744 674.58" style="fill:#aecac5;opacity:0.87;mix-blend-mode:overlay"/><polyline points="1528.473 613.204 1530.749 733.139 1318.895 668.514" style="fill:#fff;opacity:0.6000000000000001;mix-blend-mode:hard-light"/><path d="M1031.593,1228.42s-37.774,133.491-86.682,139.058V1213.69S980.6,1218.055,1031.593,1228.42Z" style="opacity:0.45;mix-blend-mode:multiply;fill:url(#Unnamed_Pattern_4)"/><ellipse cx="1029.642" cy="1081.893" rx="18.897" ry="55.92" transform="matrix(0.5, -0.866, 0.866, 0.5, -422.126, 1432.643)"/><polygon points="707.404 448.972 1042.781 148.62 1031.302 644.849 707.404 448.972" style="fill:#aecac5;mix-blend-mode:overlay"/><path d="M1008.047,1027.218l-14.718,35.36s6.071,31.692,59.063,38.154l10.621-22.583S1031.593,1078.55,1008.047,1027.218Z" style="fill:#ea1"/><path d="M1063.013,1078.149s-44.81-6.79-54.966-50.931c0,0-7.79,72.862,33.629,91.456Z" style="opacity:0.45;mix-blend-mode:multiply;fill:url(#Unnamed_Pattern_4)"/><circle cx="1178.539" cy="426.223" r="7.301"/><path d="M1153.037,407.929l15.676,83.534,18.667-4.813s10.71-43.013,9.86-49.813c-1.092-8.737-3.321-17.68-4.93-25.842a25.7,25.7,0,0,1,1.753-14.955C1179.4,391.641,1163.4,392.992,1153.037,407.929Z" style="mix-blend-mode:multiply;fill:url(#linear-gradient-5)"/><path d="M1194.063,396.04s-19.7-14.213-41.026,11.889l15.676,83.534-27.491,6.455" style="fill:none;stroke:#fff;stroke-miterlimit:10;stroke-width:4px"/><path d="M479.336,1112.2l29.108-30.687s33.44-23.932,74.27-78.877c0,0,16.517-18.541,30.473-9.039,0,0,25.877-12.943,31.137,2.794,0,0,21.385-3.5,53.168-12.217,0,0,10.517-1.888,23.967-5.306l18.236-5.961s24.68-5.918,37.652-18.724c0,0,24.209,1.088.279,28.7,0,0-15.407,17.513-46.873,24.031,0,0-61.716,33.182-91.873,26.237l38-9.675,13.1,19.115a11.487,11.487,0,0,1,2,7.094h0a11.571,11.571,0,0,1-4.546,8.568c-2.688,2.064-5.758,4.894-6.309,7.389l10.666,3.028,3.931,3.826a9.165,9.165,0,0,1,1.527,3.421,34.413,34.413,0,0,1-15.158,39.018,59.8,59.8,0,0,1-8.032,4.153,95.183,95.183,0,0,1-66.6,2.223c-15.5-5.126-35.219-6.222-52.014,9.993,0,0-11.7,7.818-24.89,28.587,0,0-6.038-10.047-25.535-30.294C494.292,1118.467,479.336,1112.2,479.336,1112.2Z" style="fill:url(#linear-gradient-6)"/><path d="M522.33,1091.582s24.4,9.736,29.095,42.826c0,0-9.812,9.141-15.962,18.651,0,0-10.605-33.107-31.048-42.82" style="fill:url(#linear-gradient-7)"/><polyline points="507.539 1122.716 536.98 1096.239 502.943 1083.95 473 1109.001"/><polyline points="508.511 1109.829 537.952 1083.352 503.915 1071.063 473.972 1096.113 473 1109.001 497.911 1111.236 536.98 1096.239 537.952 1083.352 533.85 1083.686 525.117 1083.027"/><path d="M529.463,1084.711s-41.917,4.653-41.043,4.3,16.244-13.175,16.244-13.175" style="fill:#fff"/><polyline points="473.972 1096.113 508.507 1109.427 507.539 1122.716 472.989 1108.986" style="opacity:0.39;mix-blend-mode:hard-light;fill:url(#linear-gradient-8)"/><path d="M772.876,958.023s15.057.892-2.17,17.39a13.761,13.761,0,0,0-14.624-8.053" style="fill:#fff;opacity:0.45"/><path d="M674.119,1030.278s-52.288,21.249-38.628,47.706c0,0,3.994,22,34.011,13.479a65.167,65.167,0,0,1,8.485-20.272" style="fill:none;stroke:#000;stroke-miterlimit:10;stroke-width:3px;opacity:0.25"/><path d="M654.847,1060.405l1.172-14.257-2.99-.245-1.319,16.046c-4.891,2.688-9.376,12.022-10.525,15.353l2.835.979c1.389-4.023,4.97-10.367,8.054-12.945l1.84-1.121a15.2,15.2,0,0,1,15.73.144l1.607-2.533A18.321,18.321,0,0,0,654.847,1060.405Z" style="opacity:0.25"/><path d="M640.567,996.442A25.354,25.354,0,0,0,620,1008.026" style="fill:none;stroke:#000;stroke-miterlimit:10;stroke-width:3px;opacity:0.25"/><line x1="1185.687" y1="768.722" x2="1283.407" y2="740.802" style="fill:none;stroke:#aecac5;stroke-linecap:round;stroke-linejoin:round;stroke-width:8px"/><line x1="1265.957" y1="775.702" x2="1296.65" y2="767.771" style="fill:none;stroke:#aecac5;stroke-linecap:round;stroke-linejoin:round;stroke-width:8px"/><line x1="1316.022" y1="763.62" x2="1381.058" y2="745.631" style="fill:none;stroke:#aecac5;stroke-linecap:round;stroke-linejoin:round;stroke-width:8px"/><line x1="1396.279" y1="769.155" x2="1470.704" y2="750.109" style="fill:none;stroke:#aecac5;stroke-linecap:round;stroke-linejoin:round;stroke-width:8px"/><polygon points="1123.788 80.481 1066.963 72.323 1041.467 20.887 1016.149 72.411 959.351 80.764 1000.53 120.764 990.923 177.363 1041.69 150.561 1138.114 222.753 1082.748 120.623 1123.788 80.481" style="fill:#ea1"/><polygon points="1029.4 645.609 1227.066 710.157 1027.117 1472.085 1029.4 645.609" style="fill:#aecac5;mix-blend-mode:overlay"/><path d="M282.258,767.066,265.82,787.745s14.82,16.056,49.4,33.346,46.931,19.761,46.931,19.761l16.05-17.347S313.517,800.729,282.258,767.066Z" style="opacity:0.45;mix-blend-mode:multiply;fill:url(#Unnamed_Pattern_4)"/><path d="M196.875,599.164l-21.142,9.03s-5.468,10.5,9.04,46.339c13.362,33.01,26.368,40.74,26.368,40.74l5.921-2.894,6.293-1.967S201.836,649.983,196.875,599.164Z" style="opacity:0.45;mix-blend-mode:multiply;fill:url(#Unnamed_Pattern_4)"/><path d="M496,469.541l8.029-23.187s-9.632-9.824-42.055-18.886a88.808,88.808,0,0,0-47.715.186l-1.862,6.011-4.2,12.863S453.554,430.287,496,469.541Z" style="opacity:0.45;mix-blend-mode:multiply;fill:url(#Unnamed_Pattern_4)"/><path d="M690.888,261.71l-14.127-5.447s-6.987,10.687-9.9,45.889c-2.315,27.979,2.871,49.153,2.871,49.153l9.97,3.162,7.868,2.271S680.763,313.323,690.888,261.71Z" style="opacity:0.45;mix-blend-mode:multiply;fill:url(#Unnamed_Pattern_4)"/><ellipse cx="385.178" cy="1014.311" rx="25.157" ry="69.925" style="fill:#3c1522"/><path d="M384.091,958.126c9.4-6.007,28.184-20.168,34.165-40.525A13.276,13.276,0,0,1,423.95,910l23.37-14.458c.182-.113.367-.22.555-.323a63.613,63.613,0,0,0,15.809-12.72,13.019,13.019,0,0,1,12.271-4.149c9.682,1.926,26.825,2.866,40.763-9.533,20.2-17.975,22.475,22.092-4.655,37.323a15.032,15.032,0,0,0-2.2,1.577c-1.086.9-5.4,2.956-21.82,6.968A13.1,13.1,0,0,0,482.8,917.3c-5.843,4.839-17.7,17.434,5.65,25.19,25.957,8.624,46.565-17.247,103.553-26.509s56.942,8.628,52.3,9.669c-1.857.417-2.867,4.238-3.411,8.676-.8,6.5,5.212,4.21-1.334,4.353-10.777.236-61.252,5.268-79.486,26.145-4.014,4.6-9.039,8.13-8.152,14.169l.232,1.577a13.193,13.193,0,0,1-1.7,8.636l-4.3,7.264a13.187,13.187,0,0,0-1.778,5.456l-.707,7.352a13.2,13.2,0,0,1-4.132,8.384l-8.128,7.586-12.2,11.66a13.109,13.109,0,0,1-5.208,3.065c-4.986,1.532-16.369,3.824-40.239,4.083-36.212.394-61.517-10.149-81.972-14.369-16.273-3.358-14.989-44.616-13.783-61.349A13.236,13.236,0,0,1,384.091,958.126Z" style="fill:#d11c36"/><path d="M513.988,871.045s2.108,18.847-12.15,20.688c0,0-5.176-10.315-.837-14.164" style="fill:#fff;opacity:0.45"/><path d="M545.564,970.545c-15.693,1.629-18.978,6.323-28.466,9.484" style="fill:none;stroke:#fff;stroke-miterlimit:10;stroke-width:3px;opacity:0.45"/><path d="M540.034,1000.473c-6.033.53-7.279,2.22-10.919,3.33" style="fill:none;stroke:#fff;stroke-miterlimit:10;stroke-width:3px;opacity:0.45"/><path d="M630.122,914.812a74.35,74.35,0,0,1,13.229.111,24.884,24.884,0,0,1,12.225,4.678,14.03,14.03,0,0,1,5.645,9.8c.253,3.877-1.907,7.985-5.536,9.373-2.173.832-4.582.66-6.9.515a205.253,205.253,0,0,0-51.06,3.222c-2.766.527-5.6,1.113-8.375.611a11.235,11.235,0,0,1-8.945-10.384" style="fill:#d11c36"/><path d="M633.988,923.422s2.557,4.6.9,15.481a165.13,165.13,0,0,1,17.185.5s4.026-14.855-5.776-15.4S633.988,923.422,633.988,923.422Z" style="fill:#fff;opacity:0.45"/></g></g></svg>