<svg data-name="Layer 1" xmlns="http://www.w3.org/2000/svg" viewBox="0 0 812.162 749.394"><defs><linearGradient id="a" x1="30.079" y1="359.815" x2="329.202" y2="359.815" gradientUnits="userSpaceOnUse"><stop offset="0" stop-color="#d31c36"/><stop offset=".201" stop-color="#d01c35"/><stop offset=".358" stop-color="#c61a33"/><stop offset=".5" stop-color="#b5182f"/><stop offset=".633" stop-color="#9e1529"/><stop offset=".639" stop-color="#9d1529"/></linearGradient></defs><path d="M497.078 457.652s12.735 78.656 101.879 49.441 102.628-8.24 102.628-8.24" fill="none" stroke="#000" stroke-miterlimit="10" stroke-width="7.635"/><path d="M507.3 127.381s175.556 86.06 115.627 256.858-298.895 17.229-235.97-33.71S563.749 379 468.611 507.093s56.933 175.292 96.636 96.635-152.819-217.242-229.228-92.889 252.11 285.879 350.581 40.452c97.387-242.712-240.218-375.758-358.822-185.031-110.868 178.289 26.968 253.2 26.968 253.2" fill="none" stroke="#d31c36" stroke-miterlimit="10" stroke-width="7.635"/><path d="M477.076 452.65s28.733-60.95-8.465-132.835c-38.966-75.3-189.628-61.352-176.79 67.42 10.849 108.821 167.052 39.7 205.257 130.346s-54.6 79.593-54.6 79.593" fill="none" stroke="#000" stroke-miterlimit="10" stroke-width="7.635"/><path d="M442.479 597.174S354 623.205 354 531.814s-146.419-176.626-170.344-79.559c-37.08 150.435 213.481 150.854 296.633-91.109s450.524 83.771 156.123 208.872-152.818 143.83-152.818 143.83" fill="none" stroke="#f0ac11" stroke-miterlimit="10" stroke-width="7.635"/><path d="M508.882 405.219S718.815 381.242 686.6 551.291C671.072 633.278 625.415 685.14 566.089 706.2c-122.655 43.551-247.722-57.9-233.849-187.315 6.1-56.912 28.77-120.266 88.428-170.6 143.83-121.356-157.313-254.7-170.8 62.926S518.8 609.721 564.5 471.136s114.612-201.511 149.071-146.077-17.23 72.664-17.23 72.664" fill="none" stroke="#b0ccc7" stroke-miterlimit="10" stroke-width="7.635"/><path d="M685.854 400.719s-53.187 11.237-74.911 25.47.749 71.166.749 71.166" fill="none" stroke="#b0ccc7" stroke-miterlimit="10" stroke-width="7.635"/><path d="M616.186 506.344s26.219 53.187 17.979 82.4-48.692 80.155-86.148 41.2" fill="none" stroke="#b0ccc7" stroke-miterlimit="10" stroke-width="7.635"/><path d="M543.523 622.456s-65.173-63.674-38.205-131.094" fill="none" stroke="#b0ccc7" stroke-miterlimit="10" stroke-width="7.635"/><path fill="#f0ac11" d="M384.377 77.084l9.794 77.437-17.993 14.826-49.442-13.411 7.805-59.381"/><path d="M271.944 89.769l119.208-30.224L482.507 98.1l40.224 16.975s-7.31 21.93-39.362 14.62c0 0-59.041-30.365-86.032-22.493s-50.607 26.991-34.863 45.547c0 0 8.435 15.745 27.553 17.994 0 0 37.674 6.39 38.237 22.594 0 0 2.811 7.826-11.246 10.047l-30.365 4.471S378.781 194 350.1 193.335s-56.231-32.716-56.231-32.716z" fill="#f0ac11"/><path d="M386.934 109.075s-67.174 20.8-13.963 56.3" fill="none" stroke="#d31c36" stroke-linecap="round" stroke-miterlimit="10" stroke-width="1.909"/><path fill="none" stroke="#d31c36" stroke-linecap="round" stroke-miterlimit="10" stroke-width="1.909" d="M364.337 125.475l.489 16.744-5.721 3.398"/><path d="M490.611 101.518l29.164 12.308s-6.114 4.45-23.98-2.041l-8.946-4.25" fill="#fff" opacity=".45"/><path d="M400.71 205.783a40.256 40.256 0 004.124-14.612s21.128-2.815 16.937 11.057" fill="#fff" opacity=".45"/><path d="M244.611 95.174c2.044 0 27.333-5.405 27.333-5.405l36.833 5.405 9.808 62.939-22.948 4.448-16.46-12.274-48.053-51.026" fill="#f0ac11"/><path d="M262.421 177.666l-5.666 3a265.833 265.833 0 00-7.018 4.023c-4.736 2.827-9.456 5.915-14.121 9.131-4.648 3.252-9.228 6.642-13.681 10.215-4.464 3.555-8.856 7.213-13.068 11.077a277.263 277.263 0 00-23.895 24.5 271.983 271.983 0 00-20.553 27.3c-3.1 4.788-6.107 9.635-8.9 14.622-.7 1.244-1.473 2.445-2.126 3.72l-2.009 3.79-2.021 3.786c-.652 1.274-1.25 2.579-1.88 3.866l-1.877 3.869-.945 1.932-.867 1.974-3.48 7.894-3.186 8.048c-.259.663-.554 1.355-.785 1.993l-.693 1.913c-.457 1.278-.954 2.539-1.365 3.839a206.322 206.322 0 00-10.92 64.727 187.309 187.309 0 009.99 63.715c6.847 19.868 17.4 37.482 31.018 51.021a109.843 109.843 0 0049.664 28.46 140.181 140.181 0 0014.969 3.137c5.139.771 29.682 3.526 35.047 3.814 0 0 3.966 12.528 18.827 31.761 16.346 21.154 39.522 32.048 39.522 32.048-41.678 18.971-88.53 17.59-91.353 17.878-4.093-.14-8.223-.522-12.348-.888a225.942 225.942 0 01-24.841-4.029 214.436 214.436 0 01-24.643-7.112 200.476 200.476 0 01-23.809-10.453 189.46 189.46 0 01-22.326-13.639A193.752 193.752 0 01102.8 572.15a208.447 208.447 0 01-32.88-39.516 234.836 234.836 0 01-12.5-21.926 240.764 240.764 0 01-9.893-22.83c-2.906-7.72-5.371-15.539-7.474-23.41s-3.894-15.794-5.251-23.751q-2.066-11.935-3.154-23.932c-.683-7.993-1.077-15.993-1.105-23.986a299.359 299.359 0 0114.939-94.383c.6-1.919 1.3-3.814 1.961-5.717l1.008-2.851c.337-.951.7-1.812 1.048-2.722l4.247-10.774c3.074-7.1 6.117-14.219 9.642-21.14.863-1.737 1.7-3.488 2.588-5.211l2.758-5.134 2.77-5.128c.909-1.716 1.944-3.369 2.913-5.054 3.894-6.734 8.118-13.283 12.464-19.744a328 328 0 0162.669-68.914c5.981-4.976 12.181-9.688 18.5-14.24 6.354-4.506 12.9-8.757 19.579-12.834s13.607-7.828 20.748-11.4c1.775-.9 3.616-1.755 5.421-2.627 1.862-.845 3.686-1.69 5.6-2.513l2.873-1.231 2.965-1.219 3.154-1.227 1.7-.633 2.364-.854c22.216-8.222 29.371 6.085 38.1 28.108 17.854 45.069-8.109 52.293-8.133 52.309z" fill="url(#a)"/><path d="M490.074 131.545s-5.584 29.268-29.461 10.4c-21.475-16.973 6.162-64.89 24.089-60.059 9.7 2.615 1.825 17.8 1.825 17.8" fill="none" stroke="#d31c36" stroke-miterlimit="10" stroke-width="7.635"/><path d="M470.626 124.421s-12.2 21.136-37.74 8.857c-10.013-4.814-4.236-24.454-4.236-24.454" fill="none" stroke="#d31c36" stroke-miterlimit="10" stroke-width="7.635"/><path d="M441.551 80.712s9-18.3-2.7-24.647C420.148 45.91 426.3 29.409 426.3 29.409" fill="none" stroke="#d31c36" stroke-miterlimit="10" stroke-width="7.635"/></svg>