<svg xmlns="http://www.w3.org/2000/svg" viewBox="0 0 702.817 794.289"><defs><linearGradient id="a" x1="900.731" y1="362.193" x2="543.776" y2="625.77" gradientTransform="rotate(-7.395 -1190.198 2386.3)" gradientUnits="userSpaceOnUse"><stop offset="0" stop-color="#b0ccc7"/><stop offset=".678" stop-color="#738582"/><stop offset="1" stop-color="#5b6966"/></linearGradient><linearGradient id="b" x1="779.237" y1="406.073" x2="379.927" y2="700.925" gradientTransform="rotate(-7.395 -1190.198 2386.3)" gradientUnits="userSpaceOnUse"><stop offset="0" stop-color="#d31c36"/><stop offset=".201" stop-color="#d01c35"/><stop offset=".358" stop-color="#c61a33"/><stop offset=".5" stop-color="#b5182f"/><stop offset=".633" stop-color="#9e1529"/><stop offset=".639" stop-color="#9d1529"/></linearGradient><linearGradient id="d" x1="569.976" y1="578.014" x2="734.491" y2="434.163" gradientTransform="rotate(-7.395 -1190.198 2386.3)" gradientUnits="userSpaceOnUse"><stop offset=".154" stop-color="#3c1522" stop-opacity="0"/><stop offset="1"/></linearGradient><clipPath id="c"><circle cx="374.532" cy="295.335" r="123.148" fill="#fff"/></clipPath></defs><g data-name="Layer 1"><path d="M400.662 284.435C293.107 197.046 238.788 475.959 473.767 404.6c113.438-34.457 179.478-80.572 159.653-195.79-23.22-134.98-246.202-170.577-290.737-6.723" fill="none" stroke-linecap="round" stroke-linejoin="round" stroke-width="77.458" stroke="url(#a)"/><path d="M456.89 302.844c249.968 296.746-211.962 482.4-325.982 51.164C44.445 27 413.036-31.908 433.5 204.9" fill="none" stroke-linecap="round" stroke-linejoin="round" stroke-width="77.458" stroke="url(#b)"/><path d="M370.971 773.19a23.4 23.4 0 01-23.171-24.433l9.157-277.18 33.359.288 4.244 277.295a23.4 23.4 0 01-23.589 24.03z" fill="#d31c36"/><path d="M331.6 306.294a49.9 49.9 0 00-61.66 34.313L268.4 346a62.888 62.888 0 01-5.035 12.158 110.028 110.028 0 01-8.848 13.817 218.169 218.169 0 01-27 29.237c-10.546 9.734-22.277 19.3-34.66 28.7s-25.456 18.676-38.961 28L112 486.576c-7.221 4.993-14.554 10.119-22.093 15.625s-15.264 11.353-23.423 18.165c-4.082 3.416-8.279 7.086-12.7 11.313a173.341 173.341 0 00-14.054 15.007c-1.228 1.46-2.557 3.183-3.831 4.84l-1.989 2.716-.492.684-.514.747-1.022 1.5a113.444 113.444 0 00-8.382 14.67 98.976 98.976 0 00-7.614 22.813c-.478 2.392-.88 5.014-1.2 7.529-.3 2.754-.509 5.5-.59 8.357-.027 1.491-.025 2.987.008 4.48s.084 2.961.22 4.563a88.271 88.271 0 001.217 9.465 90.595 90.595 0 005.57 18.75 89.009 89.009 0 004.114 8.549c.37.678.759 1.392 1.134 2.029l1.142 1.895q1.162 1.885 2.4 3.726l.622.916.6.841 1.216 1.654q1.231 1.646 2.521 3.247c.442.555.838 1.019 1.245 1.494l1.235 1.417q1.245 1.409 2.535 2.778c.443.477.834.87 1.233 1.27l1.211 1.2q1.219 1.191 2.47 2.35c.868.814 1.578 1.417 2.371 2.1l2.355 1.976a118.75 118.75 0 0016.7 11.3c2.361 1.3 4.886 2.642 7.036 3.665l1.682.809a62.24 62.24 0 001.636.76l3.138 1.387c1.082.477 2.019.851 3.009 1.254l2.944 1.173 2.773 1.034c.919.337 1.881.694 2.732.981q5.32 1.849 10.136 3.249c6.434 1.891 12.338 3.352 18 4.626l4.846 1.1c4.091.891 46.554 8.628 50.837 9.193 38.97 5.147 37.981-32.5 40.441-76.469 1.161-20.748-.326-46.244-12.537-61.14l32.188-29.609c12.916-11.991 25.99-24.411 38.941-37.586s25.795-27.111 38.157-42.439c12.329-15.346 24.278-32.089 34.573-51.666a206.82 206.82 0 0013.514-31.861 157.937 157.937 0 007.428-37.086 49.933 49.933 0 00-36.089-51.623z" fill="#f0ac11"/><path d="M360.794 438.343h25.3v33.031h-25.3z"/><circle cx="374.532" cy="295.335" r="143.018"/><circle cx="374.532" cy="295.335" r="123.148" fill="#fff"/><g clip-path="url(#c)"><path d="M721.7 217.172l3.3 25.409c8.252 63.583 4.06 129.471-8.206 186.793A290.2 290.2 0 01672.7 531.491a238.71 238.71 0 01-120.322 51.88l-5.147.668a238.7 238.7 0 01-137.254-23.107l-8.67-8.328a295.765 295.765 0 01-57.074-75.971c-25.79-49.186-53.4-118.03-61.962-184.022l-2.957-22.789C252.107 94.378 335.4-32.276 473.867-50.246S732.633 50.725 721.7 217.172z" fill="#f0ac11"/><path d="M492.69 371.646l-16.6-127.884s-19.705-72.728-118.174-66.793c0 0-49.674 12.873-70.611 36.123 0 0-41.5 22.914-25.289 68.719s46.449 120.588 66.77 145.327 163.904-55.492 163.904-55.492z" style="mix-blend-mode:multiply" fill="url(#d)"/><circle cx="389.92" cy="278.734" r="33.795" fill="#fff"/><circle cx="380.942" cy="295.601" r="10.541"/><path style="mix-blend-mode:overlay" fill="#b0ccc7" d="M540.248 220.492L289.016 23.173l79.81 285.32 171.422-88.001z"/><path style="mix-blend-mode:overlay" fill="#b0ccc7" d="M548.156 295.894L725.755-63.334 59.622 291.353l488.534 4.541z"/><path d="M272.3 229.146s58.572-76.042 152.186-40.283c5.885 2.248 12.706 6.608 19.768 12.213 31.569 25.06 34.634 64.186 39.822 104.158l12.55 96.7 74.038-9.609" fill="none" stroke="#fff" stroke-miterlimit="10" stroke-width="5.832"/></g><path d="M202.164 588.572l-.035-.063-.149-.174-.306-.359-.741-.771c-.5-.518-1.089-1.029-1.631-1.55l-1.785-1.5c-.609-.494-1.259-.957-1.888-1.441s-1.284-.946-1.958-1.389l-2.007-1.354c-1.395-.832-2.782-1.691-4.207-2.5a110.947 110.947 0 00-18.264-8 167.759 167.759 0 00-19.576-5.39c-3.338-.656-6.7-1.249-10.066-1.861l-10.181-1.383.051-1 10.346.112c3.446.189 6.905.364 10.366.606a172.791 172.791 0 0120.692 3.011 118.245 118.245 0 0120.366 6.058c1.661.685 3.306 1.435 4.963 2.168l2.441 1.233c.818.4 1.63.826 2.425 1.3s1.608.906 2.4 1.4l2.368 1.534c.78.571 1.56 1.1 2.341 1.719a24.865 24.865 0 012.5 2.179z"/><path d="M170.571 582.4s-24.107 17.96-15.44 116.175c2.205 25 27.646 34.033 41.911 22.794 24.264-19.118 17.935-106.864 5.882-127.2S170.571 582.4 170.571 582.4z"/><path d="M195.124 597.588s26.656-6.116 44.97-27.475a123.138 123.138 0 0130.812-26.013 103.923 103.923 0 0036.652-37.017 46.475 46.475 0 0122.454-19.525c11.154-4.511 27.168-13.692 27.168-13.692l-2.291 43.548A69.464 69.464 0 00343.705 533l-.063.121a11.551 11.551 0 006.612 16.094l25.586 8.885c36.124 11.918 57.553 19.5 68.752 23.59a17.693 17.693 0 0111.77 17.331 12.024 12.024 0 01-3.472 8.2l-8.871 8.871s.47 6.252 8.222 13.1c2.037 1.8 3.426 4.765 4.31 8.034l.044.164a27.19 27.19 0 01-4.232 22.493l-8.008 11.405a14.869 14.869 0 011.695 2.068 24.866 24.866 0 01-2.582 31.578c-2.555 2.652-4.61 4.951-4.739 5.607-4.065 20.625-21.3 20.883-42.695 21.547l-20.592-4.018-18.38-3.249s-38.244-1.493-75.321-18.746c-17.928-8.342-87.189-16.059-87.189-16.059z" fill="#3c1522"/><path d="M392.217 595.414c24.49 10.96 51.8 20.682 51.8 20.682" fill="none" stroke="#000" stroke-miterlimit="10" stroke-width="3" opacity=".25"/><path d="M389.438 637.074c16.041 14.661 54.917 34.213 54.917 34.213" fill="none" stroke="#000" stroke-miterlimit="10" stroke-width="3" opacity=".25"/><path d="M397.716 688.1c2 5.1 41.013 22.441 41.013 22.441" fill="none" stroke="#000" stroke-miterlimit="10" stroke-width="3" opacity=".25"/><path d="M213.588 590.622c-13.645 8.813-33.931-3.695-33.931-3.695s-31.879 24.144-15.7 90.32c1.356 5.546 26.144 8.868 30.6 12.768l47.168-21s-14.492-87.206-28.137-78.393z" fill="#3c1522"/><path style="mix-blend-mode:overlay" fill="#b0ccc7" d="M74.933 701.016l302.638-408.485 1.404 408.485H74.933z"/></g></svg>