<svg xmlns="http://www.w3.org/2000/svg" viewBox="0 0 1608.354 1225.533"><defs><linearGradient id="a" x1="368.586" y1="485.454" x2="779.163" y2="485.454" gradientUnits="userSpaceOnUse"><stop offset=".361" stop-color="#7b5909"/><stop offset=".444" stop-color="#9d710b"/><stop offset=".537" stop-color="#bb860d"/><stop offset=".634" stop-color="#d2970f"/><stop offset=".739" stop-color="#e3a310"/><stop offset=".854" stop-color="#edaa11"/><stop offset="1" stop-color="#f0ac11"/></linearGradient><linearGradient id="b" x1="256.409" y1="737.89" x2="739.258" y2="737.89" gradientUnits="userSpaceOnUse"><stop offset="0" stop-color="#d31c36"/><stop offset=".201" stop-color="#d01c35"/><stop offset=".358" stop-color="#c61a33"/><stop offset=".5" stop-color="#b5182f"/><stop offset=".633" stop-color="#9e1529"/><stop offset=".639" stop-color="#9d1529"/></linearGradient><clipPath id="d"><path d="M544.168 768.705L495.4 811.27s-2.217 75.487 68.282 96.049l47-43.064s3.547-4.655 0-12.193l-3.265-5.093-5.825 2.654s-40.57-16.183-50.546-75.154l3.527-5.764s-1.981-2.217-10.405 0z" fill="none"/></clipPath><pattern id="c" data-name="Unnamed Pattern 4" width="43.107" height="43.107" patternTransform="translate(.74 189.014) scale(1.274)" patternUnits="userSpaceOnUse" viewBox="0 0 43.107 43.107"><path fill="none" d="M0 0h43.107v43.107H0z"/><path d="M10.176 44.634a.779.779 0 01-.55-1.329.81.81 0 011.1 0 .781.781 0 010 1.1.777.777 0 01-.55.229z" fill="#1d1d1b"/><path d="M16.612 44.634a.779.779 0 01-.55-1.329.81.81 0 011.1 0 .779.779 0 01-.551 1.329z" fill="#1d1d1b"/><path d="M13.918 4.221a.8.8 0 01-.551-.228.781.781 0 010-1.1.811.811 0 011.1 0 .788.788 0 01.227.551.8.8 0 01-.227.55.787.787 0 01-.549.227z" fill="#1d1d1b"/><path d="M8.68 5.418a.779.779 0 01-.551-1.329.812.812 0 011.1 0 .8.8 0 01.228.551.791.791 0 01-.228.551.775.775 0 01-.549.227z" fill="#1d1d1b"/><path d="M8.829 2.874a.8.8 0 01-.551-.228.781.781 0 010-1.1.8.8 0 011.1 0 .8.8 0 01.227.55.777.777 0 01-.778.779z" fill="#1d1d1b"/><path d="M10.625 5.269a.779.779 0 01-.55-1.329.809.809 0 011.1 0 .779.779 0 01-.551 1.329z" fill="#1d1d1b"/><path d="M11.972 3.173a.8.8 0 01-.55-.227.78.78 0 010-1.1.809.809 0 011.1 0 .778.778 0 01-.551 1.329z" fill="#1d1d1b"/><path d="M17.361 3.772a.8.8 0 01-.551-.228.781.781 0 010-1.1.811.811 0 011.1 0 .779.779 0 01-.551 1.329z" fill="#1d1d1b"/><path d="M14.966 2.724a.805.805 0 01-.551-.227.782.782 0 010-1.1.806.806 0 011.1 0 .778.778 0 01-.551 1.329z" fill="#1d1d1b"/><path d="M10.176 1.527A.778.778 0 019.4.748.787.787 0 019.626.2a.81.81 0 011.1 0 .781.781 0 010 1.1.777.777 0 01-.55.227z" fill="#1d1d1b"/><path d="M16.612 1.527a.8.8 0 01-.55-.228.8.8 0 01-.228-.551.8.8 0 01.228-.548.81.81 0 011.1 0 .787.787 0 01.228.55.778.778 0 01-.779.779z" fill="#1d1d1b"/><path d="M19.007 2.125a.8.8 0 01-.551-.227.782.782 0 010-1.1.813.813 0 011.1 0 .778.778 0 01-.551 1.329z" fill="#1d1d1b"/><path d="M17.361 3.772a.8.8 0 01-.551-.228.781.781 0 010-1.1.811.811 0 011.1 0 .779.779 0 01-.551 1.329z" fill="#1d1d1b"/><path d="M16.912 5.418a.779.779 0 01-.551-1.329.807.807 0 011.1 0 .778.778 0 01-.551 1.329z" fill="#1d1d1b"/><path d="M15.714 7.214a.779.779 0 01-.55-1.329.812.812 0 011.1 0 .78.78 0 010 1.1.786.786 0 01-.55.229z" fill="#1d1d1b"/><path d="M13.32 6.167a.8.8 0 01-.551-.228.779.779 0 010-1.1.809.809 0 011.1 0 .779.779 0 01-.55 1.329z" fill="#1d1d1b"/><path d="M13.17 8.262a.8.8 0 01-.551-.227.782.782 0 010-1.1.811.811 0 011.1 0 .778.778 0 01-.551 1.329z" fill="#1d1d1b"/><path d="M10.176 7.663a.779.779 0 01-.55-1.329.812.812 0 011.1 0 .778.778 0 01-.551 1.329z" fill="#1d1d1b"/><path d="M12.122 9.609a.8.8 0 01-.551-.227.782.782 0 010-1.1.813.813 0 011.1 0 .778.778 0 01-.551 1.329z" fill="#1d1d1b"/><path d="M13.619 11.854a.8.8 0 01-.551-.227.782.782 0 010-1.1.813.813 0 011.1 0 .778.778 0 01-.551 1.329z" fill="#1d1d1b"/><path d="M15.265 12.3a.777.777 0 01-.778-.778.8.8 0 01.228-.551.812.812 0 011.1 0 .8.8 0 01.228.551.777.777 0 01-.779.778z" fill="#1d1d1b"/><path d="M17.061 11.256a.779.779 0 01-.55-1.329.81.81 0 011.1 0 .779.779 0 010 1.1.777.777 0 01-.55.229z" fill="#1d1d1b"/><path d="M16.762 9.31a.779.779 0 01-.551-1.329.811.811 0 011.1 0 .779.779 0 01-.551 1.329z" fill="#1d1d1b"/><path d="M17.96 7.963a.779.779 0 01-.551-1.329.809.809 0 011.1 0 .779.779 0 010 1.1.776.776 0 01-.549.229z" fill="#1d1d1b"/><path d="M20.5 7.963a.779.779 0 01-.551-1.329.811.811 0 011.1 0 .779.779 0 01-.549 1.329z" fill="#1d1d1b"/><path d="M19.456 10.807a.8.8 0 01-.55-.228.779.779 0 010-1.1.8.8 0 011.1 0 .779.779 0 01-.551 1.329z" fill="#1d1d1b"/><path d="M20.8 12.9a.779.779 0 01-.55-1.329.809.809 0 011.1 0 .8.8 0 01.228.551.777.777 0 01-.779.778z" fill="#1d1d1b"/><path d="M18.708 13.052a.779.779 0 01-.551-1.329.811.811 0 011.1 0 .781.781 0 010 1.1.778.778 0 01-.549.229z" fill="#1d1d1b"/><path d="M16.612 13.5a.8.8 0 01-.55-.228.787.787 0 01-.228-.55.8.8 0 01.228-.551.809.809 0 011.1 0 .779.779 0 01-.551 1.329z" fill="#1d1d1b"/><path d="M22.3 10.208a.779.779 0 01-.551-1.329.811.811 0 011.1 0 .781.781 0 010 1.1.787.787 0 01-.549.229z" fill="#1d1d1b"/><path d="M19.157 5.867a.779.779 0 01-.551-1.329.813.813 0 011.1 0 .782.782 0 010 1.1.778.778 0 01-.549.229z" fill="#1d1d1b"/><path d="M20.354 4.071a.779.779 0 01-.55-1.329.81.81 0 011.1 0 .78.78 0 010 1.1.776.776 0 01-.55.229z" fill="#1d1d1b"/><path d="M22 1.976a.777.777 0 01-.778-.779.786.786 0 01.227-.55.811.811 0 011.1 0 .781.781 0 010 1.1.791.791 0 01-.549.229z" fill="#1d1d1b"/><path d="M22.45 3.921a.779.779 0 01-.55-1.329.807.807 0 011.1 0 .782.782 0 010 1.1.79.79 0 01-.55.229z" fill="#1d1d1b"/><path d="M22.3 5.718a.8.8 0 01-.551-.228.781.781 0 010-1.1.811.811 0 011.1 0 .781.781 0 010 1.1.787.787 0 01-.549.228z" fill="#1d1d1b"/><path d="M22.45 7.963a.779.779 0 01-.55-1.329.811.811 0 011.1 0 .781.781 0 010 1.1.791.791 0 01-.55.229z" fill="#1d1d1b"/><path d="M24.545 3.023a.777.777 0 01-.778-.778.791.791 0 01.233-.551.812.812 0 011.1 0 .778.778 0 01-.551 1.329z" fill="#1d1d1b"/><path d="M24.994 5.269a.8.8 0 01-.55-.228.779.779 0 010-1.1.809.809 0 011.1 0 .779.779 0 01-.551 1.329z" fill="#1d1d1b"/><path d="M24.7 7.663a.8.8 0 01-.551-.227.782.782 0 010-1.1.807.807 0 011.1 0 .79.79 0 01.227.551.8.8 0 01-.227.551.788.788 0 01-.549.225z" fill="#1d1d1b"/><path d="M24.845 10.358a.8.8 0 01-.551-.228.779.779 0 010-1.1.81.81 0 011.1 0 .779.779 0 01-.55 1.329z" fill="#1d1d1b"/><path d="M25.743 12.453a.8.8 0 01-.551-.227.782.782 0 010-1.1.8.8 0 011.1 0 .778.778 0 01-.55 1.329z" fill="#1d1d1b"/><path d="M22.9 12.3a.8.8 0 01-.551-.227.782.782 0 010-1.1.813.813 0 011.1 0A.778.778 0 0122.9 12.3z" fill="#1d1d1b"/><path d="M23.647 15a.8.8 0 01-.551-.228.781.781 0 010-1.1.811.811 0 011.1 0A.779.779 0 0123.647 15z" fill="#1d1d1b"/><path d="M21.1 14.848a.8.8 0 01-.551-.228.781.781 0 010-1.1.809.809 0 011.1 0 .779.779 0 01-.55 1.329z" fill="#1d1d1b"/><path d="M28.138 13.351a.779.779 0 01-.551-1.329.809.809 0 011.1 0 .78.78 0 010 1.1.775.775 0 01-.549.229z" fill="#1d1d1b"/><path d="M27.539 11.256a.8.8 0 01-.551-.228.781.781 0 010-1.1.811.811 0 011.1 0 .779.779 0 01-.551 1.329z" fill="#1d1d1b"/><path d="M26.94 9.16a.779.779 0 01-.551-1.329.811.811 0 011.1 0 .782.782 0 010 1.1.776.776 0 01-.549.229z" fill="#1d1d1b"/><path d="M27.09 6.765a.779.779 0 01-.551-1.329.813.813 0 011.1 0 .778.778 0 01-.551 1.329z" fill="#1d1d1b"/><path d="M26.94 4.221a.8.8 0 01-.551-.228.781.781 0 010-1.1.811.811 0 011.1 0 .779.779 0 01-.551 1.329z" fill="#1d1d1b"/><path d="M26.79 2.275a.777.777 0 01-.778-.778.789.789 0 01.228-.551.809.809 0 011.1 0 .78.78 0 010 1.1.78.78 0 01-.55.229z" fill="#1d1d1b"/><path d="M29.784 1.676a.8.8 0 01-.551-.227.782.782 0 010-1.1.813.813 0 011.1 0 .782.782 0 010 1.1.788.788 0 01-.549.227z" fill="#1d1d1b"/><path d="M29.335 4.221a.779.779 0 01-.551-1.329.811.811 0 011.1 0 .779.779 0 01-.551 1.329z" fill="#1d1d1b"/><path d="M31.43 4.221a.8.8 0 01-.55-.228.787.787 0 01-.228-.55.8.8 0 01.228-.551.809.809 0 011.1 0 .779.779 0 01-.551 1.329z" fill="#1d1d1b"/><path d="M31.281 6.316a.8.8 0 01-.551-.227.79.79 0 01-.227-.551.8.8 0 01.227-.551.813.813 0 011.1 0 .782.782 0 010 1.1.79.79 0 01-.549.229z" fill="#1d1d1b"/><path d="M29.036 6.167a.8.8 0 01-.551-.228.779.779 0 010-1.1.81.81 0 011.1 0 .787.787 0 01.228.55.778.778 0 01-.228.551.787.787 0 01-.549.227z" fill="#1d1d1b"/><path d="M29.185 8.861a.8.8 0 01-.55-.228.779.779 0 010-1.1.81.81 0 011.1 0 .779.779 0 01-.551 1.329z" fill="#1d1d1b"/><path d="M31.281 8.861a.8.8 0 01-.551-.228.781.781 0 010-1.1.811.811 0 011.1 0 .767.767 0 01.227.551.777.777 0 01-.778.778z" fill="#1d1d1b"/><path d="M29.634 10.956a.779.779 0 01-.55-1.329.812.812 0 011.1 0 .778.778 0 01-.551 1.329z" fill="#1d1d1b"/><path d="M30.532 13.5a.8.8 0 01-.55-.228.787.787 0 01-.228-.55.8.8 0 01.228-.551.81.81 0 011.1 0 .779.779 0 01-.551 1.329z" fill="#1d1d1b"/><path d="M31.58 15.447a.8.8 0 01-.551-.228.781.781 0 010-1.1.811.811 0 011.1 0 .779.779 0 01-.551 1.329z" fill="#1d1d1b"/><path d="M33.077 13.8a.779.779 0 01-.551-1.329.811.811 0 011.1 0 .782.782 0 010 1.1.778.778 0 01-.549.229z" fill="#1d1d1b"/><path d="M32.179 11.705a.8.8 0 01-.551-.228.781.781 0 010-1.1.811.811 0 011.1 0 .779.779 0 01-.551 1.329z" fill="#1d1d1b"/><path d="M33.526 9.909a.8.8 0 01-.551-.228.781.781 0 010-1.1.811.811 0 011.1 0 .779.779 0 01-.551 1.329z" fill="#1d1d1b"/><path d="M33.676 7.364a.779.779 0 01-.551-1.329.81.81 0 011.1 0 .778.778 0 01-.55 1.329z" fill="#1d1d1b"/><path d="M33.825 4.37a.779.779 0 01-.55-1.329.812.812 0 011.1 0 .778.778 0 01-.551 1.329z" fill="#1d1d1b"/><path d="M35.771 4.969a.779.779 0 01-.551-1.329.813.813 0 011.1 0 .778.778 0 01-.551 1.329z" fill="#1d1d1b"/><path d="M34.723 2.275a.777.777 0 01-.778-.778.789.789 0 01.228-.551.809.809 0 011.1 0 .78.78 0 010 1.1.78.78 0 01-.55.229z" fill="#1d1d1b"/><path d="M36.969 2.874a.8.8 0 01-.551-.228.779.779 0 010-1.1.809.809 0 011.1 0 .779.779 0 01-.55 1.329z" fill="#1d1d1b"/><path d="M38.914 1.826a.8.8 0 01-.55-.228.779.779 0 010-1.1.81.81 0 011.1 0 .779.779 0 010 1.1.787.787 0 01-.55.228z" fill="#1d1d1b"/><path d="M40.112 3.023a.779.779 0 01-.551-1.329.805.805 0 011.1 0 .778.778 0 01-.55 1.329z" fill="#1d1d1b"/><path d="M38.016 4.819a.8.8 0 01-.551-.227.781.781 0 010-1.1.811.811 0 011.1 0 .778.778 0 01-.551 1.328z" fill="#1d1d1b"/><path d="M37.567 7.065a.8.8 0 01-.551-.228.792.792 0 01-.227-.551.8.8 0 01.227-.55.811.811 0 011.1 0 .779.779 0 01-.551 1.329z" fill="#1d1d1b"/><path d="M35.921 8.412a.8.8 0 01-.551-.228.781.781 0 010-1.1.811.811 0 011.1 0 .779.779 0 01-.551 1.329z" fill="#1d1d1b"/><path d="M37.418 10.058a.779.779 0 01-.551-1.329.812.812 0 011.1 0 .778.778 0 01-.55 1.329z" fill="#1d1d1b"/><path d="M39.663 10.657a.8.8 0 01-.551-.228.779.779 0 010-1.1.809.809 0 011.1 0 .779.779 0 01-.55 1.329z" fill="#1d1d1b"/><path d="M38.465 12a.8.8 0 01-.55-.227.78.78 0 010-1.1.809.809 0 011.1 0 .778.778 0 01-.55 1.327z" fill="#1d1d1b"/><path d="M36.37 12.3a.8.8 0 01-.551-.227.782.782 0 010-1.1.813.813 0 011.1 0 .778.778 0 01-.549 1.327z" fill="#1d1d1b"/><path d="M34.723 12a.8.8 0 01-.55-.227.78.78 0 010-1.1.809.809 0 011.1 0 .778.778 0 01-.55 1.327z" fill="#1d1d1b"/><path d="M35.771 14.549a.791.791 0 01-.551-.228.781.781 0 010-1.1.811.811 0 011.1 0 .781.781 0 010 1.1.777.777 0 01-.549.228z" fill="#1d1d1b"/><path d="M38.465 13.8a.779.779 0 01-.55-1.329.809.809 0 011.1 0 .778.778 0 01-.551 1.329z" fill="#1d1d1b"/><path d="M41.01 14.4a.777.777 0 01-.778-.778.778.778 0 111.556 0 .777.777 0 01-.778.778z" fill="#1d1d1b"/><path d="M41.01 12.3a.779.779 0 01-.551-1.329.807.807 0 011.1 0 .778.778 0 01-.549 1.329z" fill="#1d1d1b"/><path d="M39.214 8.262a.8.8 0 01-.551-.227.78.78 0 010-1.1.809.809 0 011.1 0 .778.778 0 01-.55 1.329z" fill="#1d1d1b"/><path d="M39.663 6.017a.8.8 0 01-.551-.228.779.779 0 010-1.1.8.8 0 011.1 0 .779.779 0 01-.55 1.329z" fill="#1d1d1b"/><path d="M41.758 4.819a.8.8 0 01-.551-.227.792.792 0 01-.227-.551.778.778 0 011.329-.55.778.778 0 01-.551 1.328z" fill="#1d1d1b"/><path d="M42.357 1.976a.8.8 0 01-.551-.228.8.8 0 01-.227-.551.786.786 0 01.227-.55.811.811 0 011.1 0 .781.781 0 010 1.1.791.791 0 01-.549.229z" fill="#1d1d1b"/><path d="M41.758 8.711a.779.779 0 01-.551-1.329.811.811 0 011.1 0 .778.778 0 01-.551 1.329z" fill="#1d1d1b"/><path d="M42.806 10.807a.8.8 0 01-.551-.228.781.781 0 010-1.1.811.811 0 011.1 0 .779.779 0 01-.551 1.329z" fill="#1d1d1b"/><path d="M33.825 4.37a.779.779 0 01-.55-1.329.812.812 0 011.1 0 .778.778 0 01-.551 1.329z" fill="#1d1d1b"/><path d="M34.723 2.275a.777.777 0 01-.778-.778.789.789 0 01.228-.551.809.809 0 011.1 0 .78.78 0 010 1.1.78.78 0 01-.55.229z" fill="#1d1d1b"/><path d="M32.329 2.724a.779.779 0 01-.551-1.324.809.809 0 011.1 0 .778.778 0 01-.55 1.329z" fill="#1d1d1b"/><path d="M14.367 14.4a.8.8 0 01-.55-.228.779.779 0 010-1.1.809.809 0 011.1 0 .779.779 0 01-.551 1.329z" fill="#1d1d1b"/><path d="M11.972 12.752a.779.779 0 01-.55-1.329.812.812 0 011.1 0 .8.8 0 01.228.551.789.789 0 01-.228.551.776.776 0 01-.55.227z" fill="#1d1d1b"/><path d="M9.578 13.351a.777.777 0 01-.779-.778.8.8 0 01.228-.551.809.809 0 011.1 0 .8.8 0 01.228.551.777.777 0 01-.778.778z" fill="#1d1d1b"/><path d="M10.176 10.956a.779.779 0 01-.55-1.329.812.812 0 011.1 0 .778.778 0 01-.551 1.329z" fill="#1d1d1b"/><path d="M8.829 9.16a.775.775 0 11.551-.227.786.786 0 01-.551.227z" fill="#1d1d1b"/><path d="M7.482 7.514a.8.8 0 01-.551-.228.788.788 0 01-.231-.551.8.8 0 01.227-.55.811.811 0 011.1 0 .779.779 0 01-.551 1.329z" fill="#1d1d1b"/><path d="M7.482 11.256a.779.779 0 01-.551-1.329.811.811 0 011.1 0 .781.781 0 010 1.1.777.777 0 01-.549.229z" fill="#1d1d1b"/><path d="M9.578 13.351a.777.777 0 01-.779-.778.8.8 0 01.228-.551.809.809 0 011.1 0 .8.8 0 01.228.551.777.777 0 01-.778.778z" fill="#1d1d1b"/><path d="M11.074 14.7a.779.779 0 01-.55-1.329.805.805 0 011.1 0 .791.791 0 01.228.551.8.8 0 01-.228.551.786.786 0 01-.55.227z" fill="#1d1d1b"/><path d="M8.38 15.6a.779.779 0 01-.551-1.329.807.807 0 011.1 0A.778.778 0 018.38 15.6z" fill="#1d1d1b"/><path d="M6.883 13.8a.779.779 0 01-.55-1.329.81.81 0 011.1 0 .8.8 0 01.228.551.777.777 0 01-.779.778z" fill="#1d1d1b"/><path d="M14.367 9.909a.779.779 0 01-.55-1.329.809.809 0 011.1 0 .781.781 0 010 1.1.777.777 0 01-.55.229z" fill="#1d1d1b"/><path d="M1.2 4.221a.778.778 0 01-.779-.778.8.8 0 01.228-.551.8.8 0 011.1 0 .8.8 0 01.228.551.778.778 0 01-.778.778z" fill="#1d1d1b"/><path d="M1.944 9.909a.779.779 0 01-.551-1.329.8.8 0 011.1 0 .779.779 0 01-.551 1.329z" fill="#1d1d1b"/><path d="M3.141 11.854a.779.779 0 01-.55-1.329.805.805 0 011.1 0 .776.776 0 01.228.551.764.764 0 01-.228.551.786.786 0 01-.55.227z" fill="#1d1d1b"/><path d="M2.243 7.813a.8.8 0 01-.55-.227.78.78 0 010-1.1.81.81 0 011.1 0 .778.778 0 01-.551 1.329z" fill="#1d1d1b"/><path d="M5.387 3.472a.8.8 0 01-.551-.227.78.78 0 010-1.1.812.812 0 011.1 0 .778.778 0 01-.55 1.329z" fill="#1d1d1b"/><path d="M3.441 3.772a.8.8 0 01-.551-.228.781.781 0 010-1.1.811.811 0 011.1 0 .792.792 0 01.227.551.8.8 0 01-.227.55.791.791 0 01-.549.227z" fill="#1d1d1b"/><path d="M3.59 5.718a.8.8 0 01-.55-.228.779.779 0 010-1.1.779.779 0 011.329.55.778.778 0 01-.779.779z" fill="#1d1d1b"/><path d="M6.434 5.269a.8.8 0 01-.55-.228.789.789 0 01-.228-.551.8.8 0 01.228-.55.809.809 0 011.1 0 .8.8 0 01.228.55.778.778 0 01-.779.779z" fill="#1d1d1b"/><path d="M2.243 2.125A.779.779 0 011.693.8a.812.812 0 011.1 0 .778.778 0 01-.551 1.329z" fill="#1d1d1b"/><path d="M4.189 8.561a.8.8 0 01-.551-.227.782.782 0 010-1.1.813.813 0 011.1 0 .782.782 0 010 1.1.786.786 0 01-.549.227z" fill="#1d1d1b"/><path d="M5.836 7.214a.777.777 0 01-.779-.778.791.791 0 01.228-.551.812.812 0 011.1 0 .778.778 0 01-.55 1.329z" fill="#1d1d1b"/><path d="M5.836 9.609a.777.777 0 01-.779-.778.791.791 0 01.228-.551.812.812 0 011.1 0 .791.791 0 01.228.551.8.8 0 01-.228.551.786.786 0 01-.549.227z" fill="#1d1d1b"/><path d="M7.482 11.256a.779.779 0 01-.551-1.329.811.811 0 011.1 0 .781.781 0 010 1.1.777.777 0 01-.549.229z" fill="#1d1d1b"/><path d="M4.938 12.3a.8.8 0 01-.551-.227.789.789 0 01-.228-.551.8.8 0 01.228-.551.812.812 0 011.1 0 .8.8 0 01.228.551.777.777 0 01-.778.778z" fill="#1d1d1b"/><path d="M3.441 15.6a.8.8 0 01-.551-.227.782.782 0 010-1.1.813.813 0 011.1 0 .794.794 0 01.227.551.805.805 0 01-.227.551.79.79 0 01-.549.225z" fill="#1d1d1b"/><path d="M2.992 13.8a.779.779 0 01-.551-1.329.779.779 0 011.1 1.1.79.79 0 01-.549.229z" fill="#1d1d1b"/><path d="M8.979 42.987a.8.8 0 01-.551-.227.782.782 0 010-1.1.813.813 0 011.1 0 .8.8 0 01.227.551.775.775 0 01-.778.778z" fill="#1d1d1b"/><path d="M8.979 42.987a.8.8 0 01-.551-.227.782.782 0 010-1.1.813.813 0 011.1 0 .8.8 0 01.227.551.775.775 0 01-.778.778z" fill="#1d1d1b"/><path d="M11.074 42.388a.779.779 0 01-.55-1.329.812.812 0 011.1 0 .778.778 0 01-.551 1.329z" fill="#1d1d1b"/><path d="M14.367 42.987a.779.779 0 01-.55-1.329.812.812 0 011.1 0 .782.782 0 010 1.1.776.776 0 01-.55.229z" fill="#1d1d1b"/><path d="M17.51 42.688a.779.779 0 01-.55-1.329.809.809 0 011.1 0 .779.779 0 010 1.1.777.777 0 01-.55.229z" fill="#1d1d1b"/><path d="M19.606 42.987a.8.8 0 01-.551-.227.782.782 0 010-1.1.813.813 0 011.1 0 .788.788 0 01.227.551.8.8 0 01-.227.551.79.79 0 01-.549.225z" fill="#1d1d1b"/><path d="M22.6 42.688a.8.8 0 01-.55-.228.779.779 0 010-1.1.809.809 0 011.1 0 .779.779 0 01-.551 1.329z" fill="#1d1d1b"/><path d="M26.94 41.041a.779.779 0 01-.551-1.329.813.813 0 011.1 0 .778.778 0 01-.551 1.329z" fill="#1d1d1b"/><path d="M29.784 42.089a.805.805 0 01-.551-.227.782.782 0 010-1.1.811.811 0 011.1 0 .778.778 0 01-.551 1.329z" fill="#1d1d1b"/><path d="M35.771 42.987a.779.779 0 11.551-1.329.778.778 0 01-.551 1.329z" fill="#1d1d1b"/><path d="M40.561 43.436a.779.779 0 01-.551-1.329.813.813 0 011.1 0 .782.782 0 010 1.1.778.778 0 01-.549.229z" fill="#1d1d1b"/><path d="M32.927 44.035a.779.779 0 01-.551-1.329.811.811 0 011.1 0 .779.779 0 01-.551 1.329z" fill="#1d1d1b"/><path d="M32.179 41.79a.779.779 0 01-.551-1.329.811.811 0 011.1 0 .779.779 0 01-.551 1.329z" fill="#1d1d1b"/><path d="M6.135 42.388a.8.8 0 01-.551-.227.782.782 0 010-1.1.813.813 0 011.1 0 .778.778 0 01-.551 1.329z" fill="#1d1d1b"/><path d="M3.441 42.538a.779.779 0 01-.551-1.329.778.778 0 011.329.551.775.775 0 01-.778.778z" fill="#1d1d1b"/><path d="M13.17 16.045a.8.8 0 01-.551-.227.782.782 0 010-1.1.813.813 0 011.1 0 .782.782 0 010 1.1.778.778 0 01-.549.227z" fill="#1d1d1b"/><path d="M15.864 16.644a.805.805 0 01-.551-.227.782.782 0 010-1.1.811.811 0 011.1 0 .8.8 0 01.227.551.775.775 0 01-.778.778z" fill="#1d1d1b"/><path d="M18.109 15.447a.8.8 0 01-.551-.228.781.781 0 010-1.1.811.811 0 011.1 0 .779.779 0 01-.551 1.329z" fill="#1d1d1b"/><path d="M17.361 17.841a.779.779 0 01-.551-1.329.813.813 0 011.1 0 .782.782 0 010 1.1.778.778 0 01-.549.229z" fill="#1d1d1b"/><path d="M15.714 19.039a.8.8 0 01-.55-.228.779.779 0 010-1.1.8.8 0 011.1 0 .779.779 0 01-.551 1.329z" fill="#1d1d1b"/><path d="M13.619 18.59a.779.779 0 01-.551-1.329.8.8 0 011.1 0 .781.781 0 010 1.1.778.778 0 01-.549.229z" fill="#1d1d1b"/><path d="M11.673 19.039a.8.8 0 01-.551-.228.781.781 0 010-1.1.8.8 0 011.1 0 .779.779 0 01-.551 1.329z" fill="#1d1d1b"/><path d="M10.775 16.794a.779.779 0 01-.551-1.329.811.811 0 011.1 0 .779.779 0 01-.551 1.329z" fill="#1d1d1b"/><path d="M9.578 18.29a.779.779 0 01-.551-1.329.812.812 0 011.1 0 .78.78 0 010 1.1.775.775 0 01-.549.229z" fill="#1d1d1b"/><path d="M7.632 17.542a.8.8 0 01-.551-.227.782.782 0 010-1.1.778.778 0 011.329.551.775.775 0 01-.778.778z" fill="#1d1d1b"/><path d="M5.686 18.44a.8.8 0 01-.551-.227.79.79 0 01-.227-.551.8.8 0 01.227-.551.811.811 0 011.1 0 .777.777 0 01.227.551.769.769 0 01-.227.551.788.788 0 01-.549.227z" fill="#1d1d1b"/><path d="M5.087 20.386a.8.8 0 01-.55-.228.779.779 0 010-1.1.81.81 0 011.1 0 .779.779 0 01-.551 1.329z" fill="#1d1d1b"/><path d="M5.985 22.93a.779.779 0 01-.55-1.329.812.812 0 011.1 0 .778.778 0 01-.551 1.329z" fill="#1d1d1b"/><path d="M7.482 21.434a.8.8 0 01-.551-.228.781.781 0 010-1.1.811.811 0 011.1 0 .779.779 0 01-.551 1.329z" fill="#1d1d1b"/><path d="M9.129 19.937a.779.779 0 01-.551-1.329.81.81 0 011.1 0 .779.779 0 01-.55 1.329z" fill="#1d1d1b"/><path d="M11.374 21.284a.8.8 0 01-.551-.227.782.782 0 010-1.1.81.81 0 011.1 0 .778.778 0 01-.55 1.329z" fill="#1d1d1b"/><path d="M9.578 22.781a.8.8 0 01-.551-.228.779.779 0 010-1.1.81.81 0 011.1 0 .779.779 0 01-.55 1.329z" fill="#1d1d1b"/><path d="M7.781 24.427a.779.779 0 01-.55-1.329.812.812 0 011.1 0 .778.778 0 01-.551 1.329z" fill="#1d1d1b"/><path d="M5.836 25.475a.778.778 0 01-.779-.778.789.789 0 01.228-.551.809.809 0 011.1 0 .789.789 0 01.228.551.8.8 0 01-.228.55.787.787 0 01-.549.228z" fill="#1d1d1b"/><path d="M5.985 22.93a.779.779 0 01-.55-1.329.812.812 0 011.1 0 .778.778 0 01-.551 1.329z" fill="#1d1d1b"/><path d="M4.04 23.828a.8.8 0 01-.551-.227.779.779 0 010-1.1.81.81 0 011.1 0 .778.778 0 01-.55 1.328z" fill="#1d1d1b"/><path d="M3.441 21.134a.779.779 0 01-.551-1.329.778.778 0 011.329.551.775.775 0 01-.778.778z" fill="#1d1d1b"/><path d="M3.291 17.991a.805.805 0 01-.551-.227.782.782 0 010-1.1.811.811 0 011.1 0 .778.778 0 01-.551 1.329z" fill="#1d1d1b"/><path d="M1.5 19.188a.8.8 0 01-.551-.227.781.781 0 010-1.1.811.811 0 011.1 0 .781.781 0 010 1.1.788.788 0 01-.549.227z" fill="#1d1d1b"/><path d="M1.046 21.583a.8.8 0 01-.546-.227.782.782 0 010-1.1.813.813 0 011.1 0 .778.778 0 01-.551 1.329z" fill="#1d1d1b"/><path d="M1.046 16.494a.8.8 0 01-.546-.227.782.782 0 010-1.1.813.813 0 011.1 0 .778.778 0 01-.551 1.329z" fill="#1d1d1b"/><path d="M1.794 23.679a.779.779 0 01-.55-1.329.8.8 0 011.1 0 .779.779 0 01-.551 1.329z" fill="#1d1d1b"/><path d="M2.094 25.924a.8.8 0 01-.551-.227.782.782 0 010-1.1.809.809 0 011.1 0 .778.778 0 01-.55 1.329z" fill="#1d1d1b"/><path d="M1.645 29.516a.8.8 0 01-.551-.227.791.791 0 01-.228-.551.8.8 0 01.228-.551.812.812 0 011.1 0 .778.778 0 01-.55 1.329z" fill="#1d1d1b"/><path d="M2.243 31.312a.779.779 0 01-.55-1.329.812.812 0 011.1 0 .8.8 0 01.228.551.777.777 0 01-.779.778z" fill="#1d1d1b"/><path d="M4.339 30.115a.8.8 0 01-.551-.228.781.781 0 010-1.1.811.811 0 011.1 0 .779.779 0 01-.551 1.329z" fill="#1d1d1b"/><path d="M3.291 27.72a.779.779 0 01-.551-1.329.811.811 0 011.1 0 .8.8 0 01.227.551.775.775 0 01-.778.778z" fill="#1d1d1b"/><path d="M5.686 28.019a.8.8 0 01-.551-.227.782.782 0 010-1.1.813.813 0 011.1 0 .779.779 0 01.227.551.775.775 0 01-.778.778z" fill="#1d1d1b"/><path d="M7.183 29.816a.8.8 0 01-.551-.228.788.788 0 01-.227-.551.8.8 0 01.227-.55.811.811 0 011.1 0 .8.8 0 01.227.55.777.777 0 01-.778.779z" fill="#1d1d1b"/><path d="M8.979 30.414a.779.779 0 01-.551-1.329.813.813 0 011.1 0 .778.778 0 01-.551 1.329z" fill="#1d1d1b"/><path d="M10.625 31.312a.779.779 0 01-.55-1.329.812.812 0 011.1 0 .778.778 0 01-.551 1.329z" fill="#1d1d1b"/><path d="M7.482 27.271a.805.805 0 01-.551-.227.782.782 0 010-1.1.811.811 0 011.1 0 .778.778 0 01-.551 1.329z" fill="#1d1d1b"/><path d="M9.578 28.019a.8.8 0 01-.551-.227.78.78 0 010-1.1.812.812 0 011.1 0 .778.778 0 01-.55 1.329z" fill="#1d1d1b"/><path d="M11.523 28.618a.777.777 0 01-.778-.778.8.8 0 01.228-.551.812.812 0 011.1 0 .8.8 0 01.228.551.791.791 0 01-.228.551.776.776 0 01-.55.227z" fill="#1d1d1b"/><path d="M9.727 25.325A.779.779 0 019.177 24a.812.812 0 011.1 0 .778.778 0 01-.551 1.329z" fill="#1d1d1b"/><path d="M12.122 25.924a.805.805 0 01-.551-.227.79.79 0 01-.227-.551.8.8 0 01.227-.551.811.811 0 011.1 0 .8.8 0 01.227.551.775.775 0 01-.778.778z" fill="#1d1d1b"/><path d="M12.571 23.379a.8.8 0 01-.551-.227.781.781 0 010-1.1.811.811 0 011.1 0 .778.778 0 01-.551 1.328z" fill="#1d1d1b"/><path d="M14.068 25.176a.779.779 0 01-.551-1.329.8.8 0 011.1 0 .779.779 0 01-.551 1.329z" fill="#1d1d1b"/><path d="M15.714 23.679a.778.778 0 01-.778-.778.8.8 0 01.228-.551.809.809 0 011.1 0 .8.8 0 01.228.551.778.778 0 01-.779.778z" fill="#1d1d1b"/><path d="M13.469 27.57a.8.8 0 01-.551-.227.782.782 0 010-1.1.813.813 0 011.1 0 .778.778 0 01-.551 1.329z" fill="#1d1d1b"/><path d="M15.565 28.768a.8.8 0 01-.551-.228.779.779 0 010-1.1.809.809 0 011.1 0 .779.779 0 01-.55 1.329z" fill="#1d1d1b"/><path d="M15.565 31.163a.779.779 0 01-.551-1.329.809.809 0 011.1 0 .779.779 0 01-.55 1.329z" fill="#1d1d1b"/><path d="M13.17 30.115a.779.779 0 01-.551-1.329.778.778 0 011.329.551.79.79 0 01-.227.55.778.778 0 01-.551.228z" fill="#1d1d1b"/><path d="M17.66 29.367a.8.8 0 01-.551-.228.781.781 0 010-1.1.811.811 0 011.1 0 .781.781 0 010 1.1.777.777 0 01-.549.228z" fill="#1d1d1b"/><path d="M18.858 27.421a.779.779 0 01-.551-1.329.81.81 0 011.1 0 .772.772 0 01.228.551.778.778 0 01-.778.778z" fill="#1d1d1b"/><path d="M18.109 25.026a.779.779 0 01-.551-1.329.811.811 0 011.1 0 .779.779 0 01-.551 1.329z" fill="#1d1d1b"/><path d="M18.109 22.631a.805.805 0 01-.551-.227.782.782 0 010-1.1.811.811 0 011.1 0 .778.778 0 01-.551 1.329z" fill="#1d1d1b"/><path d="M16.163 21.583a.779.779 0 01-.55-1.329.812.812 0 011.1 0 .778.778 0 01-.551 1.329z" fill="#1d1d1b"/><path d="M14.068 21.583a.779.779 0 01-.551-1.329.813.813 0 011.1 0 .782.782 0 010 1.1.778.778 0 01-.549.229z" fill="#1d1d1b"/><path d="M17.96 19.488a.8.8 0 01-.551-.228.779.779 0 010-1.1.809.809 0 011.1 0 .8.8 0 01.228.551.778.778 0 01-.778.778z" fill="#1d1d1b"/><path d="M19.756 21.134a.8.8 0 01-.551-.227.789.789 0 01-.228-.551.8.8 0 01.228-.551.812.812 0 011.1 0 .778.778 0 01-.55 1.329z" fill="#1d1d1b"/><path d="M21.552 21.434a.8.8 0 01-.552-.228.781.781 0 010-1.1.811.811 0 011.1 0 .779.779 0 01-.551 1.329z" fill="#1d1d1b"/><path d="M20.055 23.828a.8.8 0 01-.555-.228.788.788 0 01-.227-.551.8.8 0 01.227-.55.811.811 0 011.1 0 .778.778 0 01-.551 1.328z" fill="#1d1d1b"/><path d="M20.654 26.074a.779.779 0 01-.551-1.329.809.809 0 011.1 0 .779.779 0 010 1.1.774.774 0 01-.549.229z" fill="#1d1d1b"/><path d="M18.858 27.421a.779.779 0 01-.551-1.329.81.81 0 011.1 0 .772.772 0 01.228.551.778.778 0 01-.778.778z" fill="#1d1d1b"/><path d="M20.8 28.319a.8.8 0 01-.55-.228.779.779 0 010-1.1.8.8 0 011.1 0 .774.774 0 01.228.551.8.8 0 01-.228.55.787.787 0 01-.55.227z" fill="#1d1d1b"/><path d="M22.6 30.863a.779.779 0 01-.55-1.329.805.805 0 011.1 0 .778.778 0 01-.551 1.329z" fill="#1d1d1b"/><path d="M19.606 30.265a.8.8 0 01-.551-.228.781.781 0 010-1.1.811.811 0 011.1 0 .786.786 0 01.227.55.8.8 0 01-.227.551.791.791 0 01-.549.227z" fill="#1d1d1b"/><path d="M23.049 28.468a.8.8 0 01-.551-.227.779.779 0 010-1.1.81.81 0 011.1 0 .779.779 0 010 1.1.775.775 0 01-.549.227z" fill="#1d1d1b"/><path d="M22.9 25.774a.779.779 0 01-.551-1.329.813.813 0 011.1 0 .782.782 0 010 1.1.778.778 0 01-.549.229z" fill="#1d1d1b"/><path d="M22.45 23.679a.8.8 0 01-.551-.228.781.781 0 010-1.1.811.811 0 011.1 0 .781.781 0 010 1.1.791.791 0 01-.549.228z" fill="#1d1d1b"/><path d="M19.756 21.134a.8.8 0 01-.551-.227.789.789 0 01-.228-.551.8.8 0 01.228-.551.812.812 0 011.1 0 .778.778 0 01-.55 1.329z" fill="#1d1d1b"/><path d="M21.552 21.434a.8.8 0 01-.552-.228.781.781 0 010-1.1.811.811 0 011.1 0 .779.779 0 01-.551 1.329z" fill="#1d1d1b"/><path d="M20.2 19.188a.8.8 0 01-.551-.227.779.779 0 010-1.1.81.81 0 011.1 0 .778.778 0 01-.55 1.328z" fill="#1d1d1b"/><path d="M19.905 16.794a.779.779 0 01-.55-1.329.809.809 0 011.1 0 .779.779 0 010 1.1.777.777 0 01-.55.229z" fill="#1d1d1b"/><path d="M22.15 16.943a.779.779 0 01-.55-1.329.812.812 0 011.1 0 .778.778 0 01-.551 1.329z" fill="#1d1d1b"/><path d="M22.6 19.638a.8.8 0 01-.55-.228.779.779 0 010-1.1.8.8 0 011.1 0 .779.779 0 01-.551 1.329z" fill="#1d1d1b"/><path d="M23.947 21.583a.779.779 0 01-.551-1.329.812.812 0 011.1 0 .778.778 0 01-.55 1.329z" fill="#1d1d1b"/><path d="M25.743 23.08a.779.779 0 01-.551-1.329.81.81 0 011.1 0 .778.778 0 01-.55 1.329z" fill="#1d1d1b"/><path d="M25.443 25.325a.779.779 0 01-.55-1.325.805.805 0 011.1 0 .778.778 0 01-.551 1.329z" fill="#1d1d1b"/><path d="M24.994 27.57a.779.779 0 01-.55-1.329.805.805 0 011.1 0 .778.778 0 01-.551 1.329z" fill="#1d1d1b"/><path d="M26.192 29.666a.8.8 0 01-.551-.228.781.781 0 010-1.1.8.8 0 011.1 0 .779.779 0 01-.551 1.329z" fill="#1d1d1b"/><path d="M27.988 27.87a.779.779 0 01-.551-1.329.811.811 0 011.1 0 .779.779 0 01-.551 1.329z" fill="#1d1d1b"/><path d="M27.988 30.564a.8.8 0 01-.551-.227.782.782 0 010-1.1.811.811 0 011.1 0 .778.778 0 01-.551 1.329z" fill="#1d1d1b"/><path d="M27.838 25.026a.779.779 0 01-.551-1.329.811.811 0 011.1 0 .779.779 0 01-.551 1.329z" fill="#1d1d1b"/><path d="M28.587 23.23a.8.8 0 01-.551-.23.779.779 0 010-1.1.809.809 0 011.1 0 .779.779 0 010 1.1.776.776 0 01-.549.23z" fill="#1d1d1b"/><path d="M26.641 20.835a.779.779 0 01-.551-1.329.811.811 0 011.1 0 .779.779 0 01-.551 1.329z" fill="#1d1d1b"/><path d="M25.593 19.338a.8.8 0 01-.551-.227.79.79 0 01-.227-.551.778.778 0 111.556 0 .775.775 0 01-.778.778z" fill="#1d1d1b"/><path d="M24.4 17.991a.8.8 0 01-.551-.227.78.78 0 010-1.1.8.8 0 011.1 0 .78.78 0 010 1.1.778.778 0 01-.549.227z" fill="#1d1d1b"/><path d="M26.341 16.794a.779.779 0 01-.55-1.329.809.809 0 011.1 0 .779.779 0 01-.551 1.329z" fill="#1d1d1b"/><path d="M25.743 14.4a.8.8 0 01-.551-.228.781.781 0 010-1.1.81.81 0 011.1 0 .779.779 0 01-.55 1.329z" fill="#1d1d1b"/><path d="M28.587 16.045a.8.8 0 01-.551-.227.78.78 0 010-1.1.812.812 0 011.1 0 .778.778 0 01-.55 1.329z" fill="#1d1d1b"/><path d="M27.838 18.59a.8.8 0 01-.551-.228.781.781 0 010-1.1.811.811 0 011.1 0 .779.779 0 01-.551 1.329z" fill="#1d1d1b"/><path d="M29.036 20.536a.8.8 0 01-.551-.228.779.779 0 010-1.1.81.81 0 011.1 0 .779.779 0 01-.55 1.329z" fill="#1d1d1b"/><path d="M30.981 22.032a.779.779 0 01-.55-1.329.812.812 0 011.1 0 .778.778 0 01-.551 1.329z" fill="#1d1d1b"/><path d="M30.832 24.427a.779.779 0 01-.551-1.329.812.812 0 011.1 0 .778.778 0 01-.55 1.329z" fill="#1d1d1b"/><path d="M30.233 26.822a.805.805 0 01-.551-.227.79.79 0 01-.227-.551.778.778 0 111.556 0 .775.775 0 01-.778.778z" fill="#1d1d1b"/><path d="M32.478 26.373a.779.779 0 01-.551-1.329.811.811 0 011.1 0 .778.778 0 01-.551 1.329z" fill="#1d1d1b"/><path d="M32.329 29.067a.779.779 0 01-.551-1.329.812.812 0 011.1 0 .778.778 0 01-.55 1.329z" fill="#1d1d1b"/><path d="M33.975 30.863a.8.8 0 01-.551-.227.782.782 0 010-1.1.807.807 0 011.1 0 .782.782 0 010 1.1.776.776 0 01-.549.227z" fill="#1d1d1b"/><path d="M34.424 28.019a.8.8 0 01-.551-.227.782.782 0 010-1.1.813.813 0 011.1 0 .778.778 0 01-.551 1.329z" fill="#1d1d1b"/><path d="M34.424 25.774a.779.779 0 01-.551-1.329.813.813 0 011.1 0 .782.782 0 010 1.1.776.776 0 01-.549.229z" fill="#1d1d1b"/><path d="M33.825 23.379a.777.777 0 01-.778-.778.787.787 0 01.228-.55.81.81 0 011.1 0 .778.778 0 01-.551 1.328z" fill="#1d1d1b"/><path d="M16.313 26.373a.805.805 0 01-.551-.227.782.782 0 010-1.1.8.8 0 011.1 0 .778.778 0 01-.551 1.329z" fill="#1d1d1b"/><path d="M42.058 19.937a.779.779 0 01-.551-1.329.8.8 0 011.1 0 .779.779 0 01-.55 1.329z" fill="#1d1d1b"/><path d="M42.656 17.392a.8.8 0 01-.551-.227.782.782 0 010-1.1.813.813 0 011.1 0 .778.778 0 01-.551 1.329z" fill="#1d1d1b"/><path d="M40.71 16.345a.8.8 0 01-.55-.228.789.789 0 01-.228-.551.779.779 0 011.329-.55.779.779 0 01-.551 1.329z" fill="#1d1d1b"/><path d="M40.86 21.883a.779.779 0 01-.551-1.329.811.811 0 011.1 0 .781.781 0 010 1.1.777.777 0 01-.549.229z" fill="#1d1d1b"/><path d="M40.71 24.128a.8.8 0 01-.55-.228.779.779 0 010-1.1.8.8 0 011.1 0 .779.779 0 01-.551 1.329z" fill="#1d1d1b"/><path d="M42.806 23.379a.779.779 0 01-.551-1.328.811.811 0 011.1 0 .778.778 0 01-.551 1.328z" fill="#1d1d1b"/><path d="M42.357 25.774a.8.8 0 01-.551-.227.788.788 0 01-.227-.547.8.8 0 01.227-.551.813.813 0 011.1 0 .778.778 0 01-.551 1.329z" fill="#1d1d1b"/><path d="M41.908 30.265a.8.8 0 01-.551-.228.781.781 0 010-1.1.8.8 0 011.1 0 .779.779 0 01-.551 1.329z" fill="#1d1d1b"/><path d="M41.309 28.169a.775.775 0 01-.778-.778.792.792 0 01.227-.551.811.811 0 011.1 0 .778.778 0 01-.551 1.329z" fill="#1d1d1b"/><path d="M39.812 18.59a.779.779 0 01-.55-1.329.81.81 0 011.1 0 .779.779 0 01-.551 1.329z" fill="#1d1d1b"/><path d="M37.717 18.739a.8.8 0 01-.551-.227.781.781 0 010-1.1.811.811 0 011.1 0 .781.781 0 010 1.1.778.778 0 01-.549.227z" fill="#1d1d1b"/><path d="M38.316 15.9a.8.8 0 01-.551-.228.779.779 0 010-1.1.81.81 0 011.1 0 .779.779 0 01-.55 1.329z" fill="#1d1d1b"/><path d="M36.22 16.794a.8.8 0 01-.551-.228.781.781 0 010-1.1.811.811 0 011.1 0 .781.781 0 010 1.1.777.777 0 01-.549.228z" fill="#1d1d1b"/><path d="M33.975 16.2a.805.805 0 01-.551-.227.782.782 0 010-1.1.811.811 0 011.1 0 .788.788 0 01.227.551.779.779 0 01-.227.551.792.792 0 01-.549.225z" fill="#1d1d1b"/><path d="M31.879 17.243a.8.8 0 01-.55-.228.779.779 0 010-1.1.8.8 0 011.1 0 .779.779 0 010 1.1.777.777 0 01-.55.228z" fill="#1d1d1b"/><path d="M30.083 17.841a.779.779 0 01-.55-1.329.812.812 0 011.1 0 .778.778 0 01-.551 1.329z" fill="#1d1d1b"/><path d="M31.43 20.087a.8.8 0 01-.55-.228.779.779 0 010-1.1.81.81 0 011.1 0 .779.779 0 01-.551 1.329z" fill="#1d1d1b"/><path d="M33.975 18.59a.8.8 0 01-.551-.228.781.781 0 010-1.1.811.811 0 011.1 0 .788.788 0 01.227.551.775.775 0 01-.227.55.789.789 0 01-.549.227z" fill="#1d1d1b"/><path d="M35.771 20.386a.777.777 0 01-.778-.778.8.8 0 01.227-.551.811.811 0 011.1 0 .779.779 0 01-.551 1.329z" fill="#1d1d1b"/><path d="M33.526 21.284a.779.779 0 01-.551-1.329.8.8 0 011.1 0 .778.778 0 01-.551 1.329z" fill="#1d1d1b"/><path d="M35.921 22.93a.8.8 0 01-.551-.227.782.782 0 010-1.1.813.813 0 011.1 0 .778.778 0 01-.551 1.329z" fill="#1d1d1b"/><path d="M38.615 20.835a.777.777 0 01-.545-.228.767.767 0 01-.233-.55.788.788 0 01.227-.551.8.8 0 011.1 0 .779.779 0 01-.551 1.329z" fill="#1d1d1b"/><path d="M38.465 22.781a.8.8 0 01-.55-.228.779.779 0 010-1.1.809.809 0 011.1 0 .779.779 0 01-.551 1.329z" fill="#1d1d1b"/><path d="M36.819 25.325a.8.8 0 01-.551-.227.782.782 0 010-1.1.813.813 0 011.1 0 .782.782 0 010 1.1.778.778 0 01-.549.227z" fill="#1d1d1b"/><path d="M37.567 27.72a.775.775 0 01-.778-.778.792.792 0 01.227-.551.811.811 0 011.1 0 .782.782 0 010 1.1.776.776 0 01-.549.229z" fill="#1d1d1b"/><path d="M34.424 28.019a.8.8 0 01-.551-.227.782.782 0 010-1.1.813.813 0 011.1 0 .778.778 0 01-.551 1.329z" fill="#1d1d1b"/><path d="M36.07 29.367a.788.788 0 01-.55-.228.8.8 0 01-.228-.551.787.787 0 01.228-.55.81.81 0 011.1 0 .787.787 0 01.228.55.764.764 0 01-.228.551.787.787 0 01-.55.228z" fill="#1d1d1b"/><path d="M39.363 29.516a.779.779 0 01-.55-1.329.805.805 0 011.1 0 .78.78 0 010 1.1.776.776 0 01-.55.229z" fill="#1d1d1b"/><path d="M39.214 26.074a.8.8 0 01-.551-.228.779.779 0 010-1.1.809.809 0 011.1 0 .779.779 0 01-.55 1.329z" fill="#1d1d1b"/><path d="M29.934 29.367a.8.8 0 01-.551-.228.789.789 0 01-.228-.551.8.8 0 01.228-.55.809.809 0 011.1 0 .779.779 0 010 1.1.787.787 0 01-.549.229z" fill="#1d1d1b"/><path d="M36.969 31.612a.8.8 0 01-.551-.228.789.789 0 01-.228-.551.8.8 0 01.228-.55.809.809 0 011.1 0 .779.779 0 01-.55 1.329z" fill="#1d1d1b"/><path d="M4.04 35.2a.8.8 0 01-.551-.227.78.78 0 010-1.1.81.81 0 011.1 0 .8.8 0 01.228.551.777.777 0 01-.778.778z" fill="#1d1d1b"/><path d="M4.638 32.51a.8.8 0 01-.551-.228.781.781 0 010-1.1.811.811 0 011.1 0 .779.779 0 01-.551 1.329z" fill="#1d1d1b"/><path d="M6.584 31.761a.8.8 0 01-.551-.227.782.782 0 010-1.1.813.813 0 011.1 0 .778.778 0 01-.551 1.329z" fill="#1d1d1b"/><path d="M5.985 34.156a.779.779 0 01-.55-1.329.812.812 0 011.1 0 .778.778 0 01-.551 1.329z" fill="#1d1d1b"/><path d="M8.081 35.354a.8.8 0 01-.551-.228.781.781 0 010-1.1.811.811 0 011.1 0 .779.779 0 01-.551 1.329z" fill="#1d1d1b"/><path d="M8.081 37.748a.8.8 0 01-.551-.227.781.781 0 010-1.1.811.811 0 011.1 0 .778.778 0 01-.551 1.328z" fill="#1d1d1b"/><path d="M5.686 36.7a.8.8 0 01-.551-.228.781.781 0 010-1.1.811.811 0 011.1 0 .781.781 0 010 1.1.789.789 0 01-.549.228z" fill="#1d1d1b"/><path d="M10.176 35.952a.779.779 0 01-.55-1.329.812.812 0 011.1 0 .782.782 0 010 1.1.776.776 0 01-.55.229z" fill="#1d1d1b"/><path d="M10.326 37.748a.779.779 0 01-.551-1.328.811.811 0 011.1 0 .8.8 0 01.227.55.788.788 0 01-.227.551.776.776 0 01-.549.227z" fill="#1d1d1b"/><path d="M11.374 34.007a.8.8 0 01-.551-.228.781.781 0 010-1.1.8.8 0 011.1 0 .779.779 0 01-.55 1.329z" fill="#1d1d1b"/><path d="M13.17 32.659a.8.8 0 01-.551-.227.782.782 0 010-1.1.813.813 0 011.1 0 .778.778 0 01-.551 1.329z" fill="#1d1d1b"/><path d="M11.374 34.007a.8.8 0 01-.551-.228.781.781 0 010-1.1.8.8 0 011.1 0 .779.779 0 01-.55 1.329z" fill="#1d1d1b"/><path d="M13.32 34.905a.8.8 0 01-.551-.228.779.779 0 010-1.1.809.809 0 011.1 0 .779.779 0 01-.55 1.329z" fill="#1d1d1b"/><path d="M15.116 37.449a.8.8 0 01-.551-.227.78.78 0 010-1.1.81.81 0 011.1 0 .774.774 0 01.228.551.777.777 0 01-.778.778z" fill="#1d1d1b"/><path d="M12.122 36.85a.8.8 0 01-.551-.227.782.782 0 010-1.1.813.813 0 011.1 0 .782.782 0 010 1.1.776.776 0 01-.549.227z" fill="#1d1d1b"/><path d="M15.565 35.653a.779.779 0 01-.551-1.329.809.809 0 011.1 0 .78.78 0 010 1.1.778.778 0 01-.549.229z" fill="#1d1d1b"/><path d="M15.415 32.959a.8.8 0 01-.551-.228.781.781 0 010-1.1.811.811 0 011.1 0 .779.779 0 01-.551 1.329z" fill="#1d1d1b"/><path d="M17.96 31.911a.8.8 0 01-.551-.227.78.78 0 010-1.1.81.81 0 011.1 0 .78.78 0 010 1.1.779.779 0 01-.549.227z" fill="#1d1d1b"/><path d="M17.51 33.707a.779.779 0 01-.55-1.329.812.812 0 011.1 0 .78.78 0 010 1.1.776.776 0 01-.55.229z" fill="#1d1d1b"/><path d="M18.259 35.952a.775.775 0 01-.778-.778.778.778 0 111.556 0 .775.775 0 01-.778.778z" fill="#1d1d1b"/><path d="M20.5 34.456a.8.8 0 01-.551-.228.781.781 0 010-1.1.8.8 0 011.1 0 .779.779 0 01-.551 1.329z" fill="#1d1d1b"/><path d="M20.354 37.748a.778.778 0 01-.55-1.328.809.809 0 011.1 0 .778.778 0 01-.551 1.328z" fill="#1d1d1b"/><path d="M20.654 32.36a.8.8 0 01-.551-.227.78.78 0 010-1.1.809.809 0 011.1 0 .778.778 0 01-.55 1.329z" fill="#1d1d1b"/><path d="M22.749 33.408a.8.8 0 01-.551-.228.781.781 0 010-1.1.8.8 0 011.1 0 .779.779 0 01-.551 1.329z" fill="#1d1d1b"/><path d="M8.829 32.959a.777.777 0 01-.778-.778.778.778 0 111.556 0 .777.777 0 01-.778.778z" fill="#1d1d1b"/><path d="M22.15 35.8a.8.8 0 01-.55-.228.779.779 0 010-1.1.8.8 0 011.1 0 .763.763 0 01.228.55.778.778 0 01-.779.779z" fill="#1d1d1b"/><path d="M2.094 39.1a.779.779 0 01-.551-1.329.809.809 0 011.1 0 .779.779 0 01-.55 1.329z" fill="#1d1d1b"/><path d="M1.5 41.49a.779.779 0 01-.551-1.329.813.813 0 011.1 0 .79.79 0 01.227.551.767.767 0 01-.227.551.788.788 0 01-.549.227z" fill="#1d1d1b"/><path d="M6.883 41.341a.8.8 0 01-.55-.228.788.788 0 01-.228-.55.8.8 0 01.228-.551.81.81 0 011.1 0 .8.8 0 01.228.551.778.778 0 01-.779.778z" fill="#1d1d1b"/><path d="M6.135 38.946a.8.8 0 01-.551-.228.781.781 0 010-1.1.811.811 0 011.1 0 .779.779 0 01-.551 1.329z" fill="#1d1d1b"/><path d="M8.68 39.994a.779.779 0 01-.551-1.329.809.809 0 011.1 0 .8.8 0 01.228.55.789.789 0 01-.228.551.776.776 0 01-.549.228z" fill="#1d1d1b"/><path d="M6.883 41.341a.8.8 0 01-.55-.228.788.788 0 01-.228-.55.8.8 0 01.228-.551.81.81 0 011.1 0 .8.8 0 01.228.551.778.778 0 01-.779.778z" fill="#1d1d1b"/><path d="M10.925 39.694a.8.8 0 01-.551-.227.789.789 0 01-.228-.551.779.779 0 011.329-.551.778.778 0 01-.55 1.329z" fill="#1d1d1b"/><path d="M13.469 39.245a.779.779 0 11.778-.778.775.775 0 01-.778.778z" fill="#1d1d1b"/><path d="M13.02 41.041a.8.8 0 01-.551-.227.782.782 0 010-1.1.778.778 0 011.329.551.788.788 0 01-.227.551.776.776 0 01-.551.225z" fill="#1d1d1b"/><path d="M16.014 41.79a.8.8 0 01-.551-.228.781.781 0 010-1.1.809.809 0 011.1 0 .779.779 0 01-.55 1.329z" fill="#1d1d1b"/><path d="M16.163 39.694a.779.779 0 01-.55-1.329.805.805 0 011.1 0 .778.778 0 01-.551 1.329z" fill="#1d1d1b"/><path d="M18.558 41.191a.805.805 0 01-.551-.227.782.782 0 010-1.1.806.806 0 011.1 0 .778.778 0 01-.551 1.329z" fill="#1d1d1b"/><path d="M20.5 40.293a.805.805 0 01-.551-.227.782.782 0 010-1.1.8.8 0 011.1 0 .778.778 0 01-.551 1.329z" fill="#1d1d1b"/><path d="M4.339 40.293a.8.8 0 01-.551-.227.782.782 0 010-1.1.8.8 0 011.1 0 .778.778 0 01-.551 1.329z" fill="#1d1d1b"/><path d="M24.845 31.312a.8.8 0 01-.551-.227.78.78 0 010-1.1.812.812 0 011.1 0 .778.778 0 01-.55 1.329z" fill="#1d1d1b"/><path d="M26.341 35.054a.779.779 0 01-.55-1.329.812.812 0 011.1 0 .778.778 0 01-.551 1.329z" fill="#1d1d1b"/><path d="M26.641 32.659a.779.779 0 01-.551-1.329.813.813 0 011.1 0 .778.778 0 01-.551 1.329z" fill="#1d1d1b"/><path d="M29.485 32.061a.778.778 0 01-.779-.778.8.8 0 01.228-.551.809.809 0 011.1 0 .779.779 0 010 1.1.774.774 0 01-.549.229z" fill="#1d1d1b"/><path d="M29.934 34.905a.779.779 0 01-.551-1.329.809.809 0 011.1 0 .779.779 0 01-.55 1.329z" fill="#1d1d1b"/><path d="M28.138 36.551a.8.8 0 01-.551-.227.78.78 0 010-1.1.809.809 0 011.1 0 .778.778 0 01-.55 1.329z" fill="#1d1d1b"/><path d="M26.192 37.6a.8.8 0 01-.551-.228.781.781 0 010-1.1.8.8 0 011.1 0 .779.779 0 01-.551 1.329z" fill="#1d1d1b"/><path d="M26.341 35.054a.779.779 0 01-.55-1.329.812.812 0 011.1 0 .778.778 0 01-.551 1.329z" fill="#1d1d1b"/><path d="M24.994 39.545a.8.8 0 01-.55-.228.779.779 0 010-1.1.81.81 0 011.1 0 .779.779 0 01-.551 1.329z" fill="#1d1d1b"/><path d="M27.838 39.4a.8.8 0 01-.551-.228.781.781 0 010-1.1.811.811 0 011.1 0 .779.779 0 01-.551 1.329z" fill="#1d1d1b"/><path d="M29.934 40.143a.8.8 0 01-.551-.227.78.78 0 010-1.1.779.779 0 011.1 1.1.786.786 0 01-.549.227z" fill="#1d1d1b"/><path d="M30.083 37.449a.779.779 0 01-.55-1.329.809.809 0 011.1 0 .778.778 0 01-.551 1.329z" fill="#1d1d1b"/><path d="M1.944 36.551a.779.779 0 01-.551-1.329.806.806 0 011.1 0 .8.8 0 01.227.551.775.775 0 01-.778.778z" fill="#1d1d1b"/><path d="M2.243 33.707a.779.779 0 01-.55-1.329.812.812 0 011.1 0 .778.778 0 01-.551 1.329z" fill="#1d1d1b"/><path d="M41.908 41.341a.8.8 0 01-.551-.228.781.781 0 010-1.1.811.811 0 011.1 0 .779.779 0 01-.551 1.329z" fill="#1d1d1b"/><path d="M39.962 40.443a.779.779 0 01-.551-1.329.8.8 0 011.1 0 .781.781 0 010 1.1.777.777 0 01-.549.229z" fill="#1d1d1b"/><path d="M43.554 39.844a.8.8 0 01-.55-.227.78.78 0 010-1.1.81.81 0 011.1 0 .778.778 0 01-.551 1.329z" fill="#1d1d1b"/><path d="M41.608 32.21a.779.779 0 01-.55-1.329.812.812 0 011.1 0 .778.778 0 01-.551 1.329z" fill="#1d1d1b"/><path d="M41.459 35.354a.779.779 0 01-.551-1.329.811.811 0 011.1 0 .779.779 0 01-.551 1.329z" fill="#1d1d1b"/><path d="M41.608 32.21a.779.779 0 01-.55-1.329.812.812 0 011.1 0 .778.778 0 01-.551 1.329z" fill="#1d1d1b"/><path d="M42.507 37.6a.779.779 0 01-.551-1.329.809.809 0 011.1 0 .779.779 0 01-.55 1.329z" fill="#1d1d1b"/><path d="M23.5 37.9a.779.779 0 01-.551-1.329.805.805 0 011.1 0 .78.78 0 010 1.1.775.775 0 01-.549.229z" fill="#1d1d1b"/><path d="M22.6 39.694a.779.779 0 01-.55-1.329.805.805 0 011.1 0 .78.78 0 010 1.1.776.776 0 01-.55.229z" fill="#1d1d1b"/><path d="M31.73 36.252a.8.8 0 01-.551-.228.788.788 0 01-.227-.551.8.8 0 01.227-.55.811.811 0 011.1 0 .8.8 0 01.227.55.792.792 0 01-.227.551.778.778 0 01-.549.228z" fill="#1d1d1b"/><path d="M33.526 36.551a.779.779 0 01-.551-1.329.811.811 0 011.1 0 .778.778 0 01-.551 1.329z" fill="#1d1d1b"/><path d="M32.029 38.946a.8.8 0 01-.551-.228.781.781 0 010-1.1.811.811 0 011.1 0 .779.779 0 01-.551 1.329z" fill="#1d1d1b"/><path d="M34.424 38.8a.8.8 0 01-.551-.227.782.782 0 010-1.1.813.813 0 011.1 0 .778.778 0 01-.551 1.329z" fill="#1d1d1b"/><path d="M31.73 36.252a.8.8 0 01-.551-.228.788.788 0 01-.227-.551.8.8 0 01.227-.55.811.811 0 011.1 0 .8.8 0 01.227.55.792.792 0 01-.227.551.778.778 0 01-.549.228z" fill="#1d1d1b"/><path d="M33.526 36.551a.779.779 0 01-.551-1.329.811.811 0 011.1 0 .778.778 0 01-.551 1.329z" fill="#1d1d1b"/><path d="M32.179 33.857a.779.779 0 01-.551-1.329.811.811 0 011.1 0 .781.781 0 010 1.1.778.778 0 01-.549.229z" fill="#1d1d1b"/><path d="M34.574 34.755a.8.8 0 01-.551-.228.779.779 0 010-1.1.81.81 0 011.1 0 .779.779 0 01-.55 1.329z" fill="#1d1d1b"/><path d="M35.921 36.7a.8.8 0 01-.551-.228.781.781 0 010-1.1.811.811 0 011.1 0 .779.779 0 01-.551 1.329z" fill="#1d1d1b"/><path d="M37.118 38.048a.777.777 0 01-.778-.778.778.778 0 011.329-.551.781.781 0 010 1.1.777.777 0 01-.551.229z" fill="#1d1d1b"/><path d="M37.418 40.443a.8.8 0 01-.551-.228.779.779 0 010-1.1.81.81 0 011.1 0 .779.779 0 01-.55 1.329z" fill="#1d1d1b"/><path d="M38.615 35.952a.779.779 0 01-.551-1.329.807.807 0 011.1 0 .782.782 0 010 1.1.778.778 0 01-.549.229z" fill="#1d1d1b"/><path d="M37.567 34.456a.777.777 0 01-.778-.779.79.79 0 01.227-.55.811.811 0 011.1 0 .779.779 0 01-.551 1.329z" fill="#1d1d1b"/><path d="M35.023 32.659a.8.8 0 01-.551-.227.782.782 0 010-1.1.812.812 0 011.1 0 .778.778 0 01-.55 1.329z" fill="#1d1d1b"/><path d="M39.812 33.707a.779.779 0 01-.55-1.329.812.812 0 011.1 0 .778.778 0 01-.551 1.329z" fill="#1d1d1b"/><path d="M39.962 38.048a.779.779 0 01-.551-1.329.8.8 0 011.1 0 .781.781 0 010 1.1.777.777 0 01-.549.229z" fill="#1d1d1b"/><path d="M32.029 31.761a.8.8 0 01-.551-.227.782.782 0 010-1.1.813.813 0 011.1 0 .778.778 0 01-.551 1.329z" fill="#1d1d1b"/><path d="M34.873 40.892a.779.779 0 01-.551-1.329.811.811 0 011.1 0 .781.781 0 010 1.1.777.777 0 01-.549.229z" fill="#1d1d1b"/><path d="M38.465 42.089a.8.8 0 01-.55-.227.78.78 0 010-1.1.81.81 0 011.1 0 .778.778 0 01-.551 1.329z" fill="#1d1d1b"/><path d="M39.064 31.612a.779.779 0 01-.551-1.329.811.811 0 011.1 0 .779.779 0 01-.551 1.329z" fill="#1d1d1b"/><path d="M5.686 15.746a.8.8 0 01-.551-.228.781.781 0 010-1.1.811.811 0 011.1 0 .767.767 0 01.227.551.775.775 0 01-.227.55.789.789 0 01-.549.227z" fill="#1d1d1b"/><path d="M3.441 37.6a.8.8 0 01-.551-.228.781.781 0 010-1.1.778.778 0 011.329.551.8.8 0 01-.227.55.791.791 0 01-.551.227z" fill="#1d1d1b"/><path d="M18.109 38.2a.8.8 0 01-.551-.227.781.781 0 010-1.1.811.811 0 011.1 0 .778.778 0 01-.551 1.328z" fill="#1d1d1b"/><path d="M24.246 34.905a.8.8 0 01-.551-.228.781.781 0 010-1.1.811.811 0 011.1 0 .779.779 0 01-.551 1.329z" fill="#1d1d1b"/><path d="M28.287 34.007a.779.779 0 01-.551-1.329.8.8 0 011.1 0 .779.779 0 01-.551 1.329z" fill="#1d1d1b"/><path d="M24.545 43.586a.8.8 0 01-.55-.228.779.779 0 010-1.1.81.81 0 011.1 0 .779.779 0 01-.551 1.329z" fill="#1d1d1b"/><path d="M6.883 44.334a.779.779 0 01-.55-1.329.812.812 0 011.1 0 .778.778 0 01-.551 1.329z" fill="#1d1d1b"/><path d="M12.721 44.185a.8.8 0 01-.551-.228.788.788 0 01-.227-.551.8.8 0 01.227-.55.811.811 0 011.1 0 .779.779 0 01-.551 1.329z" fill="#1d1d1b"/><path d="M10.176 44.634a.779.779 0 01-.55-1.329.809.809 0 011.1 0 .781.781 0 010 1.1.777.777 0 01-.55.229z" fill="#1d1d1b"/><path d="M16.612 44.634a.779.779 0 01-.55-1.329.809.809 0 011.1 0 .779.779 0 010 1.1.777.777 0 01-.55.229z" fill="#1d1d1b"/><path d="M32.927 44.035a.779.779 0 01-.551-1.329.811.811 0 011.1 0 .779.779 0 01-.551 1.329z" fill="#1d1d1b"/><path d="M4.638 44.334a.8.8 0 01-.551-.227.782.782 0 010-1.1.813.813 0 011.1 0 .79.79 0 01.227.551.8.8 0 01-.227.551.786.786 0 01-.549.225z" fill="#1d1d1b"/><path d="M32.927 44.035a.779.779 0 01-.551-1.329.811.811 0 011.1 0 .779.779 0 01-.551 1.329z" fill="#1d1d1b"/><path d="M43.405 6.167a.778.778 0 01-.779-.779.779.779 0 011.329-.55.787.787 0 01.228.55.778.778 0 01-.228.551.787.787 0 01-.55.228z" fill="#1d1d1b"/><path d="M43.554 8.112A.779.779 0 0143 6.783a.805.805 0 011.1 0 .778.778 0 01-.551 1.329z" fill="#1d1d1b"/><path d="M43.7 12.453a.779.779 0 01-.551-1.329.811.811 0 011.1 0 .778.778 0 01-.551 1.329z" fill="#1d1d1b"/><path d="M43.255 14.4a.779.779 0 01-.555-1.33.811.811 0 011.1 0 .779.779 0 01-.551 1.329z" fill="#1d1d1b"/><path d="M43.554 43.137a.8.8 0 01-.55-.228.779.779 0 010-1.1.8.8 0 011.1 0 .779.779 0 01-.551 1.329z" fill="#1d1d1b"/><path d="M43.854 27.87a.8.8 0 01-.551-.228.779.779 0 010-1.1.8.8 0 011.1 0 .779.779 0 01-.55 1.329z" fill="#1d1d1b"/><path d="M43.255 34.306a.779.779 0 01-.551-1.329.811.811 0 011.1 0 .779.779 0 01-.551 1.329z" fill="#1d1d1b"/><path d="M43.854 31.911a.779.779 0 01-.551-1.329.809.809 0 011.1 0 .778.778 0 01-.55 1.329z" fill="#1d1d1b"/><path d="M27.689 42.987a.779.779 0 01-.551-1.329.812.812 0 011.1 0 .8.8 0 01.228.551.777.777 0 01-.778.778z" fill="#1d1d1b"/><path d="M24.246 41.49a.8.8 0 01-.551-.227.782.782 0 010-1.1.813.813 0 011.1 0 .778.778 0 01-.551 1.329z" fill="#1d1d1b"/><path d="M-.75 1.976a.8.8 0 01-.55-.228.8.8 0 01-.228-.548A.786.786 0 01-1.3.647a.811.811 0 011.1 0 .79.79 0 01.227.55.792.792 0 01-.227.551.791.791 0 01-.55.228z" fill="#1d1d1b"/><path d="M-.3 10.807a.8.8 0 01-.551-.228.788.788 0 01-.227-.551.786.786 0 01.227-.55.811.811 0 011.1 0 .79.79 0 01.227.55.792.792 0 01-.227.551.791.791 0 01-.549.228z" fill="#1d1d1b"/><path d="M-.451 17.392A.8.8 0 01-1 17.165a.792.792 0 01-.227-.551.794.794 0 01.227-.551.813.813 0 011.1 0 .79.79 0 01.227.551.788.788 0 01-.227.551.786.786 0 01-.551.227z" fill="#1d1d1b"/><path d="M-.3 23.379a.788.788 0 01-.551-.227.788.788 0 01-.227-.551.786.786 0 01.227-.55.811.811 0 011.1 0 .79.79 0 01.227.55.792.792 0 01-.227.551.79.79 0 01-.549.227z" fill="#1d1d1b"/><path d="M-.75 25.774a.8.8 0 01-.551-.227.788.788 0 01-.227-.547.8.8 0 01.227-.551.813.813 0 011.1 0A.794.794 0 01.028 25a.792.792 0 01-.227.551.79.79 0 01-.551.223z" fill="#1d1d1b"/><path d="M.447 39.844a.8.8 0 01-.55-.227.78.78 0 010-1.1.81.81 0 011.1 0 .782.782 0 010 1.1.791.791 0 01-.55.227z" fill="#1d1d1b"/><path d="M-.6 37.6a.789.789 0 01-.551-.228.787.787 0 01-.228-.55.789.789 0 01.228-.551.809.809 0 011.1 0 .789.789 0 01.228.551.787.787 0 01-.228.55.787.787 0 01-.549.228z" fill="#1d1d1b"/><path d="M.3 6.167a.789.789 0 01-.551-.228.789.789 0 01-.228-.551.8.8 0 01.228-.55.8.8 0 011.1 0 .787.787 0 01.228.55.778.778 0 01-.228.551.787.787 0 01-.549.228z" fill="#1d1d1b"/><path d="M.447 8.112a.777.777 0 01-.778-.778.791.791 0 01.231-.551.805.805 0 011.1 0 .782.782 0 010 1.1.786.786 0 01-.553.229z" fill="#1d1d1b"/><path d="M.6 12.453a.792.792 0 01-.551-.227.782.782 0 010-1.1.811.811 0 011.1 0A.778.778 0 01.6 12.453z" fill="#1d1d1b"/><path d="M.148 14.4a.789.789 0 01-.548-.229.786.786 0 01-.227-.55.788.788 0 01.227-.551.811.811 0 011.1 0 .788.788 0 01.227.551.786.786 0 01-.227.55.791.791 0 01-.552.229z" fill="#1d1d1b"/><path d="M.447 43.137a.8.8 0 01-.55-.228.779.779 0 010-1.1.8.8 0 011.1 0 .781.781 0 010 1.1.787.787 0 01-.55.228z" fill="#1d1d1b"/><path d="M.747 27.87a.8.8 0 01-.547-.228.779.779 0 010-1.1.8.8 0 011.1 0 .779.779 0 01-.55 1.329z" fill="#1d1d1b"/><path d="M.148 34.306a.789.789 0 01-.548-.228.786.786 0 01-.227-.55.788.788 0 01.227-.551.811.811 0 011.1 0 .788.788 0 01.227.551.786.786 0 01-.227.55.791.791 0 01-.552.228z" fill="#1d1d1b"/><path d="M.747 31.911a.792.792 0 01-.547-.227.78.78 0 010-1.1.809.809 0 011.1 0 .778.778 0 01-.55 1.329z" fill="#1d1d1b"/><path d="M40.561.329A.788.788 0 0140.01.1a.79.79 0 01-.227-.551A.79.79 0 0140.01-1a.813.813 0 011.1 0 .794.794 0 01.227.551.794.794 0 01-.225.549.778.778 0 01-.551.229z" fill="#1d1d1b"/><path d="M32.927.928A.791.791 0 0132.376.7a.79.79 0 01-.227-.55.792.792 0 01.227-.55.811.811 0 011.1 0 .788.788 0 01.227.551.786.786 0 01-.227.55.787.787 0 01-.549.227z" fill="#1d1d1b"/><path d="M24.545.479A.8.8 0 0124 .251a.787.787 0 01-.228-.55A.789.789 0 0124-.85a.81.81 0 011.1 0 .789.789 0 01.228.551.787.787 0 01-.228.55.787.787 0 01-.555.228z" fill="#1d1d1b"/><path d="M6.883 1.227A.8.8 0 016.333 1a.791.791 0 01-.228-.551.791.791 0 01.228-.549.812.812 0 011.1 0 .791.791 0 01.228.551.777.777 0 01-.779.778z" fill="#1d1d1b"/><path d="M12.721 1.078A.8.8 0 0112.17.85a.788.788 0 01-.227-.55.8.8 0 01.227-.55.811.811 0 011.1 0 .79.79 0 01.23.55.792.792 0 01-.227.551.791.791 0 01-.552.227z" fill="#1d1d1b"/><path d="M10.176 1.527A.778.778 0 019.4.748.787.787 0 019.626.2a.809.809 0 011.1 0 .781.781 0 010 1.1.777.777 0 01-.55.227z" fill="#1d1d1b"/><path d="M16.612 1.527a.778.778 0 01-.778-.779.787.787 0 01.228-.548.809.809 0 011.1 0 .787.787 0 01.228.55.789.789 0 01-.228.551.777.777 0 01-.55.226z" fill="#1d1d1b"/><path d="M32.927.928A.791.791 0 0132.376.7a.79.79 0 01-.227-.55.792.792 0 01.227-.55.811.811 0 011.1 0 .788.788 0 01.227.551.786.786 0 01-.227.55.787.787 0 01-.549.227z" fill="#1d1d1b"/><path d="M4.638 1.227A.8.8 0 014.087 1 .794.794 0 013.86.449.794.794 0 014.087-.1a.813.813 0 011.1 0 .79.79 0 01.227.551.8.8 0 01-.225.549.786.786 0 01-.551.227z" fill="#1d1d1b"/><path d="M32.927.928A.791.791 0 0132.376.7a.79.79 0 01-.227-.55.792.792 0 01.227-.55.811.811 0 011.1 0 .788.788 0 01.227.551.786.786 0 01-.227.55.787.787 0 01-.549.227z" fill="#1d1d1b"/><path d="M43.554.03A.8.8 0 0143-.2a.787.787 0 01-.228-.55A.789.789 0 0143-1.3a.8.8 0 011.1 0 .789.789 0 01.228.551.787.787 0 01-.228.55.787.787 0 01-.546.229z" fill="#1d1d1b"/><path d="M.447.03A.8.8 0 01-.1-.2a.787.787 0 01-.228-.55A.789.789 0 01-.1-1.3a.8.8 0 011.1 0 .788.788 0 01.227.551A.786.786 0 011-.2a.787.787 0 01-.553.23z" fill="#1d1d1b"/></pattern></defs><g data-name="Layer 1"><path fill="#fff" d="M1270.89 1028.198l-23.29-179.59-44.622 195.476"/><path d="M1156.487 247.948s-22.613-25.089-53.65-5.411c0 0-18.179-24.752-47.443-1.061 0 0-19.509-27.718-58.97-3 0 0-28.821-24.228-57.641 0S881.921 293.7 881.921 293.7l38.24 65.428 28.6 14.021s28.6 18.447 63.183 2.7c0 0 31.924 13.775 50.99-4.919 0 0 17.292 19.186 41.678 1.968 0 0 31.924 24.105 59.414 1.475" fill="#f0ac11"/><path d="M1156.487 247.948s-22.613-25.089-53.65-5.411c0 0-18.179-24.752-47.443-1.061 0 0-19.509-27.718-58.97-3 0 0-28.821-24.228-57.641 0S881.921 293.7 881.921 293.7l38.24 65.428 28.6 14.021s28.6 18.447 63.183 2.7c0 0 31.924 13.775 50.99-4.919 0 0 17.292 19.186 41.678 1.968 0 0 31.924 24.105 59.414 1.475" fill="#c79400"/><path d="M1034.555 537.7c49.881 9.976 357.3 40.072 357.3 40.072l-139.818 205.343-220.808-67.838" fill="#fff"/><path fill="none" stroke="#b0ccc7" stroke-miterlimit="10" stroke-width="4" d="M1361.235 589.953l-79.27 120.003-242.422-54.536-8.314-25.939 34.363-71.829 295.643 32.301z"/><path d="M217.042 402.023l58.831-69.168 25.318 68.281s-19.952 35.915-23.056 35.028-61.05-21.9-61.093-23.5" fill="#3c1522"/><path d="M620.43 404.24s45.589-24.83 71.346 23.056 5.361 72.273 87.387 40.349l-36.8 34.746S713.1 527.5 651.024 524.4c0 0-31 5.321-46.76 21.726 0 0 15.723 7.981 38.336 4.878 0 0-54.537 60.744-124.149 48.329l-149.865-87.35 52.32-111.29 130.8-30.79z" fill="url(#a)"/><path d="M648.475 350.147l-21.6 112.133a3.979 3.979 0 01-5.752 2.773l-37.825-19.8-43.606 51.938a14.564 14.564 0 01-19.541 2.541l-91.818-65.452-46.224 64.513-65.51-35.25-9.311-37.577 20.95-74.156 45.89-48.884 66.172-65.511 119.715 29.929 93.444 68.5" fill="#3c1522"/><circle cx="595.285" cy="375.087" r="8.979" fill="#fff"/><path fill="url(#b)" d="M256.409 511.429l4.988 271.354 142.66-25.938L573.875 964.35l165.383-235.771-146.983-92.447-68.06-58.97-86.731-25.022"/><path d="M472.561 592.237l-67.174-8.646L376.135 601l-121.721-80.259S276.939 670.6 410.165 623.435l4.383 33.247s56.35-6.25 86.944 58.6c0-.005 12.308-59.863-28.931-123.045z"/><circle cx="444.646" cy="321.649" r="7.162" fill="#d31c36"/><path d="M403.614 246.394s73.159-103.309 178.686-38.575l78.48 49.216s51.433 21.726 21.282 75.376-148.092-34.584-148.092-34.584l-42-24.818a72.654 72.654 0 00-31.095-10.043c-12.974-1.037-28.459 1.371-38.5 15.152-22.356 30.685-5.959 49.323 19.373 62.718 10.062 5.32.766 2.832-19.952 8.879-9.2 2.685-51.877 10.186-59.858-15.974 0 0-51.433 58.528 10.2 105.527 0 0-23.943 25.273-50.989 3.547 0 0 22.612 35.028 79.809 49.659s108.187 44.339 123.262 84.688c0 0 6.34 11.2 3.1 54.98 0 0-57.2-41.679-93.112-29.707S322.917 631.7 278.135 570.954s-57.641-81.583-11.972-168.931c0 0 69.612-99.323 137.451-155.629z" fill="#f0ac11"/><path d="M573.5 457.065s-13.2-11.014-32.81-2.327" fill="none" stroke="#d31c36" stroke-miterlimit="10" stroke-width="4"/><path fill="#9b1c36" d="M1444.979 325.2l6.361 40.026-33.924 12.132-13.523-9.767 1.656 14.054-70.823 23.93-82.689-80.375 124.564-25.373"/><path d="M576.092 385.4s3.325 10.863 16.183 10.2" fill="none" stroke="#b0ccc7" stroke-linecap="round" stroke-miterlimit="10" stroke-width="2"/><path fill="#d31c36" d="M1156.487 247.948l259.189 38.794 26.38 19.146 4.85 31.789-81.289 21.116-215.622-5.986"/><path d="M878.926 485.454l43.895 141.7v83.8s1 50.879-28.931 206.508-52.874-446.935-52.874-446.935"/><path d="M898.546 372.76l-61.665 2.327-3.347-74.821h52.708l12.304 43.23"/><path fill="none" stroke="#b0ccc7" stroke-miterlimit="10" stroke-width="4" d="M1164.744 567.937l-56.711 102.89"/><path fill="none" stroke="#b0ccc7" stroke-miterlimit="10" stroke-width="4" d="M1130.887 564.459l-46.333 83.645"/><path d="M1301.928 680.444c-1.773-1.556-300.627-62.269-300.627-62.269" fill="none" stroke="#b0ccc7" stroke-miterlimit="10" stroke-width="4"/><path fill="none" stroke="#b0ccc7" stroke-miterlimit="10" stroke-width="4" d="M1321.577 651.396l-288.058-55.169"/><path fill="none" stroke="#b0ccc7" stroke-miterlimit="10" stroke-width="4" d="M1341.334 619.641l-343.58-51.347"/><path d="M1043.212 348.75s18.611 111.135 20.607 121.777-18.955 74.821-18.955 74.821l346.995 32.424s-22.768-232.613-24.1-234.941z"/><path d="M1061.158 363.005s15.74 90.451 17.736 101.093-13.745 62.517-13.745 62.517l306.824 31.037s-18.9-194.37-20.229-196.7z" fill="#fff"/><path fill="none" stroke="#b0ccc7" stroke-miterlimit="10" stroke-width="4" d="M1185.196 702.694l-116.722-27.322-18.179 28.599 114.449 34.584 20.452-35.861z"/><path d="M1063.955 1018.785l-141.13 26.587 187.805 5.203 2.651-63.145"/><path fill="none" stroke="#b0ccc7" stroke-miterlimit="10" stroke-width="4" d="M1106.927 553.854l-56.711 102.89"/><path fill="#3c1522" d="M1101.696 463.504l11.585 91.591-21.282 17.535-58.48-15.862 9.232-70.234"/><path fill="#9b1c36" d="M968.712 906.488l-22.835 51.1 25.717 19.51 16.405-7.095-3.99 15.962 38.574 24.83 16.96-7.538-4.101 16.406 34.141 19.065 15.962-10.53 2.882 20.95 62.074 3.991 12.747-13.08 2.328 14.188h51.433l9.09-11.971 5.542 11.971h33.697l10.42-12.636 4.212 12.636h33.919l6.651-13.967 8.868 13.967h28.377v-47.997"/><path d="M968.712 478.508l141-35.748 155.629 65.676s-8.646 25.939-46.555 17.293c0 0-69.834-35.915-101.758-26.6s-59.86 31.92-41.238 53.871c0 0 9.976 18.622 32.589 21.283 0 0 44.561 7.558 45.226 26.724 0 0 3.325 9.257-13.3 11.884l-35.914 5.287s-9.312-16.384-43.231-17.171-66.508-38.7-66.508-38.7z" fill="#3c1522"/><path d="M374.239 1033.74s178.353 1.82 175.36 1.331-150.641-32.654-150.641-32.654"/><path d="M371.239 1033.74s178.353 1.82 175.36 1.331-150.641-32.654-150.641-32.654"/><path d="M718.308 614.705c2-1.518 35.915-371.636 35.915-371.636l184.56-5.654 9.976 135.733-50.213-.388-30.594-51.111 26.936 131.364-61.354 39.461-46.39 155.626-68.836-10.97z" fill="#9fb2ae"/><path d="M551.04 774.469s17.858-6.229 7.754-71.139a17.488 17.488 0 012.556-12.106 192.828 192.828 0 0021.28-45.537 41.027 41.027 0 0110.32-17.046l23.268-23.1s26.6-1.33 60.523-24.608c0 0 18.622 24.608-15.3 47.221 0 0-30.594 18.622-29.929 31.259l77.815-46.522L737.263 601l61.188 59.071-123.705 178.246s-36.58-6.651-73.16 11.306c0 0-37.244-9.311-50.546-75.154z" fill="#3c1522"/><path fill="#d31c36" d="M1152.274 811.714l90.784 112.731 95.772 36.912 18.955 35.915v8.978l-231.449 8.979-157.624-108.741 16.959-34.917 74.49-59.857 52.541-12.304"/><path d="M573.875 964.35l267.141-547.7 91.784-32.584 106.746 197.2-116.725 45.888-53.872-124.763 24.941 415.071s-13.206 72.826-63.467 110.736H629.52z" fill="#b0ccc7"/><path d="M816.075 1028.2s89.6-62.114 85.073-226.906l10.716-146.73-27.581-86.625-190.04 460.261" style="mix-blend-mode:multiply" opacity=".45" fill="url(#c)"/><path d="M1047.857 576.275s21.282 12.636 20.617 41.9c0 0 46.556 28.6 33.919 77.149 0 0 34.585 29.929 25.938 71.829 0 0 25.939 11.972 23.943 44.561L994.65 864.255s-15.962-13.3-17.957-46.555c0 0-36.58-9.977-33.254-61.188 0 0-34.881-27.268-23.943-79.81 0 0-27.269-15.962-11.972-44.56" fill="#f0ac11"/><path d="M289.57 777.66s6.079 43.365 22.041 173.056 111.733 69.834 111.733 69.834l142.328-122.376-65.178-79.144-96.437 84.47-15.297-143" fill="#f0ac11"/><path d="M544.168 768.705L495.4 811.27s-2.217 75.487 68.282 96.049l47-43.064s3.547-4.655 0-12.193l-3.265-5.093-5.825 2.654s-40.57-16.183-50.546-75.154l3.527-5.764s-1.981-2.217-10.405 0z" fill="#fff"/><path d="M389.656 759.463l.945 18.247-95.059 45.074-5.972-45.124"/><path d="M418.356 632.142l62.518 146.983-51.418 8.755-25.399-31.035 29.596-5.986-29.596-136.154"/><rect x="564.673" y="230.483" width="45.021" height="12.415" rx="6.207" transform="rotate(30 587.187 236.66)" fill="#fff"/><rect x="1249.848" y="959.647" width="45.021" height="12.415" rx="6.207" transform="rotate(15.42 1272.356 965.854)" fill="#fff"/><rect x="1340.469" y="294.058" width="45.021" height="12.415" rx="6.207" transform="rotate(6.773 1362.903 300.244)" fill="#fff"/><path d="M217.439 189.351v116.235l133.412-29.263-97.615-89.826"/><path fill="#b0b1ad" d="M1407.666 610.194l-155.629 172.921 139.822-205.343"/><path d="M186.576 278.311l25.334-145.976a6.678 6.678 0 0110.858-3.985l113.752 94.927a6.679 6.679 0 01-1.978 11.4l-139.085 51.045a6.678 6.678 0 01-8.881-7.411z" fill="#d31c36"/><path fill="#fff" d="M237.659 158.146l-9.325 2.962-9.34 3.588 3.718 8.336 4.202 8.043 3.969 8.156 3.501 8.378 3.836 8.217 3.706 8.286 4.04 8.303 11.248-4.94-2.791-8.649-2.599-8.539-3.162-8.359-2.442-8.595-2.652-8.525-3.228-8.342-2.681-8.32z"/><path fill="#fff" d="M268.436 240.28l-6.405 2.469-6.369 2.54-3.062-7.773-3.099-7.798 6.421-2.529 6.485-2.62 2.968 7.931 3.061 7.78z"/><path d="M183.013 370.062l52.787-60.351a3.614 3.614 0 016.141 1.213l25.871 75.892a3.613 3.613 0 01-4.121 4.711l-78.66-15.54a3.614 3.614 0 01-2.018-5.925z" fill="#d31c36"/><path fill="#fff" d="M240.446 328.896l-10.514-2.304-.912 8.641-1.007 8.528-.719 8.565-.881 8.448 6.349.973 1.976-8.247 2.04-8.203 1.925-8.236 1.743-8.165z"/><path fill="#fff" d="M231.558 375.52l-7.319-1.28 1.553-8.913 7.332 1.268-1.566 8.925z"/><path fill="#fff" d="M1577.014 371.829l-15.497-39.418-46.86 76.132-17.321-48.65-76.928 118.846 78.241-66.679v60.301l78.365-100.532z"/><path fill="#fff" d="M1439.864-30.732l-65.785 283.061 110.173-167.523"/><path fill="#fff" d="M22.889 1168.338l231.525-181.634-191.809 58.408"/><path fill="#f0ac11" d="M1542.845 430.935l-1.692-57.128-46.859 76.133-6.7-39.492-76.928 118.845 67.62-75.837v60.301l64.559-82.822z"/><path fill="#fff" d="M1461.538 1124.302l68.629-25.435-144.401-184.204 34.183-2.836-57.639-81.052 29.081 65.113-46.854-7.394 117.001 235.808z"/><path fill="#f0ac11" d="M1390.734 950.086l64.986 27.453-70.879-90.417 34.184-2.836-57.64-81.051 29.081 65.112-46.854-7.393 47.122 89.132z"/><path fill="none" stroke="#b0ccc7" stroke-miterlimit="10" stroke-width="4" d="M1320.698 585.524l-71.012 117.17"/><path fill="none" stroke="#b0ccc7" stroke-miterlimit="10" stroke-width="4" d="M1281.535 580.442l-64.969 114.802"/><path fill="none" stroke="#b0ccc7" stroke-miterlimit="10" stroke-width="4" d="M1242.05 576.275l-61.714 110.818"/><path fill="none" stroke="#b0ccc7" stroke-miterlimit="10" stroke-width="4" d="M1203.159 571.527l-61.111 106.953"/><path d="M1104.72 501.342s-79.451 24.6-16.515 66.6" fill="none" stroke="#d31c36" stroke-linecap="round" stroke-miterlimit="10" stroke-width="3"/><circle cx="1375.16" cy="628.733" r="5.903"/><rect x="1360.445" y="637.12" width="5.069" height="11.467" rx="2.535" transform="rotate(38.217 1362.967 642.84)"/><rect x="1350.581" y="649.649" width="5.069" height="11.467" rx="2.535" transform="rotate(38.216 1353.125 655.392)"/><circle cx="1390.658" cy="614.705" r="8.314" fill="#fff"/><path fill="#fff" d="M1389.768 608.866l.89-2.474 27.538 3.609-1.485 16.487-26.053-3.469"/><circle cx="1416.711" cy="618.175" r="8.314" fill="#b0b1ad"/><path d="M670.285 133.625c3.089 5.593 8.664 9.285 14.412 11.745a36.992 36.992 0 0019.715 3.031 22.4 22.4 0 0014.968-8.544 19.3 19.3 0 003.809-15.14c-1.019-5.153-5.716-11.438-11.7-9.631-5.393 1.629-6.652 8.254-7.268 13.055a92.674 92.674 0 003.132 37.7 96.243 96.243 0 0020.9 37.425l.662-2.507a153.068 153.068 0 01-59.447.472c-4.111-.783-8.479-1.5-12.311-3.257-3.257-1.5-6.33-3.991-6.188-7.909.161-4.466 3.778-8.53 6.432-11.838a108.273 108.273 0 019.207-10.1 106.008 106.008 0 0111.7-9.807c1.994-1.438 4.227-3.215 6.771-3.422 1.808-.148 4.491 1.275 3.8 3.42-.594 1.842 2.3 2.63 2.893.8a5.254 5.254 0 00-1.861-5.589 7.164 7.164 0 00-6.258-1.431 17.871 17.871 0 00-6.5 3.38q-3.168 2.263-6.176 4.741a108.8 108.8 0 00-11.034 10.455 75.013 75.013 0 00-9.606 12.246c-2.342 3.981-3.49 8.973-.614 13.012 2.4 3.369 6.406 5.117 10.26 6.237a114.85 114.85 0 0015.717 3.121 159.225 159.225 0 0016.461 1.5 156.164 156.164 0 0037.554-3.145 1.515 1.515 0 00.662-2.507A93.013 93.013 0 01706.52 138q.064-4.352.558-8.682a27.512 27.512 0 011.509-7.15c.761-1.9 2.1-4 4.287-4.331 2.531-.388 4.735 1.689 5.928 3.694 2.486 4.176 2.081 9.44-.049 13.671a18.531 18.531 0 01-11.165 9.421c-6.411 1.99-13.362 1.108-19.582-1.146-5.933-2.15-12-5.691-15.131-11.367-.933-1.69-3.525-.178-2.59 1.515z"/><path d="M697.654 238.219c6.365-9.127 8.335-22.108 3.869-32.48-1.859-4.319-6.28-9.311-11.532-7.662-2.7.846-4.553 3.214-6.131 5.424a31.993 31.993 0 00-4.015 7.731 30 30 0 00-1.773 8.487c-.146 2.708.576 5.475 2.966 7.026 5.091 3.3 10.47-.6 14.125-4.1 7.746-7.413 15.658-17.041 15.147-28.421a22.942 22.942 0 00-4.615-13.059c-2.838-3.643-8.512-7.744-13.346-5.787-2.532 1.025-4.3 3.467-5.9 5.582a25.4 25.4 0 00-4.068 7.483 10.94 10.94 0 005.582 13.533c5.267 2.635 11.658 2.488 17.277 1.231a54.792 54.792 0 0016.985-7.43 71.614 71.614 0 0013.588-11.1c3.843-4.03 8.162-8.836 9.557-14.367 1.387-5.5-1.058-10.922-5.36-14.4-4.7-3.8-10.79-4.963-16.688-5.269-13.528-.7-26.955 2.316-39.894 5.954-3.228.907-6.442 1.86-9.656 2.814l.8 2.893a72.716 72.716 0 0129.649-3.572c4.2.4 8.562 1.513 11.526 4.707a15.218 15.218 0 013.624 9.64c.4 7.639-2.584 15.235-6.452 21.686a45.963 45.963 0 01-16.118 16.3c-6.456 3.732-14.254 5.683-21.656 4.134a19.9 19.9 0 01-9.518-4.585 15.356 15.356 0 01-4.712-10.856 39.9 39.9 0 016.719-22.839c3.952-5.95 10.406-10.926 17.887-10.507 3.744.209 7.526 2.054 8.536 5.92 1 3.822-.306 8.278-2.125 11.661a22.449 22.449 0 01-7.634 8.267c-3.709 2.369-7.811 3.072-12.054 3.921a28.76 28.76 0 00-6.611 2.049 1.521 1.521 0 00-.3 2.356 52.478 52.478 0 0013 11.342 86.5 86.5 0 0015.587 8.025c10.3 3.986 22.6 5.454 32.471-.481 8.184-4.919 14.244-14.473 11.583-24.215-2.785-10.192-13.258-16.918-22.374-20.909-5.414-2.37-11.291-3.816-17.2-2.726-5.23.964-9.887 3.864-13.809 7.356-7.68 6.839-15.937 18.049-10.976 28.727 2.353 5.063 7.556 7.683 12.525 9.568a65.2 65.2 0 0018.484 4.037c4.709.334 9.614.1 13.952-1.944a11.076 11.076 0 006.574-11.377c-.6-5.415-3.8-10.521-6.942-14.839a74.308 74.308 0 00-10.656-11.621c-8.3-7.407-17.754-13.363-27.065-19.387l-8.164-5.282-.358 2.742a85.613 85.613 0 0136.752-1.91 59.1 59.1 0 0111.477 2.825 9.048 9.048 0 016.055 6.9c.6 3.114-.078 6.428-.984 9.413a64.762 64.762 0 01-9.468 19.014c-8.489 11.734-21.65 20.076-36.259 21.168a40.3 40.3 0 01-10.837-.56c-2.836-.565-6.14-1.612-7.822-4.154-1.982-3-.775-7.2-.189-10.462a84.727 84.727 0 012.294-9.833c1.908-6.24 4.969-12.317 10.17-16.447a24.389 24.389 0 0119.406-4.577 25.768 25.768 0 014.823 1.438c1.789.724 2.567-2.177.8-2.893a27.852 27.852 0 00-21.815.59c-6.747 3.078-11.477 9.072-14.335 15.773a60.67 60.67 0 00-3.3 10.48 67.173 67.173 0 00-1.878 11.262 10 10 0 004.6 9.278c3.012 1.958 6.7 2.619 10.21 2.991 16.023 1.7 32-5.573 42.6-17.416a66.553 66.553 0 0012.033-19.66c2.456-6.118 5.23-14.49 1.078-20.527-2.26-3.287-5.958-4.7-9.664-5.7a88.969 88.969 0 00-40.017-1.43c-2.2.427-4.377.947-6.537 1.543a1.519 1.519 0 00-.358 2.742c9 5.824 18.193 11.451 26.8 17.856 7.729 5.75 15.061 12.389 20.208 20.612 2.486 3.972 5.8 9.525 3.889 14.343-1.489 3.762-5.717 5.277-9.4 5.878-4.94.807-10.24.138-15.105-.823a49.716 49.716 0 01-15.372-5.3 12.648 12.648 0 01-6.663-12.036c.279-5.189 3.265-9.814 6.524-13.674a38.963 38.963 0 0111.2-9.571 21.194 21.194 0 0114.779-1.921 47.269 47.269 0 0114.654 6.535 33.493 33.493 0 0110.276 9.368 16.419 16.419 0 012.694 12.511 20.674 20.674 0 01-6.626 10.866c-7.591 6.821-18.091 7.471-27.608 5.019a66.8 66.8 0 01-15.29-6.266 70.487 70.487 0 01-13.1-8.872 42.855 42.855 0 01-5.214-5.51l-.3 2.356c4.673-2.182 10.052-2.028 14.814-3.988a25.028 25.028 0 009.972-7.46c5-6.241 8.889-18.173.851-23.7-7-4.813-16.71-1.548-22.5 3.592-6.173 5.477-9.866 13.62-11.5 21.59-1.007 4.926-1.478 10.273.261 15.1a17.866 17.866 0 007.666 9.2c7.217 4.378 16.4 4.405 24.23 1.817a44.225 44.225 0 0020.492-14.814c5.208-6.594 9.386-14.678 10.6-23.066 1.192-8.24-.776-17.52-9.073-21.256-4.607-2.075-9.843-2.352-14.828-2.359a77.122 77.122 0 00-16.473 1.767 75.822 75.822 0 00-7.887 2.177c-1.817.606-1.069 3.447.8 2.893 11.321-3.361 22.749-6.775 34.518-8.135a76.674 76.674 0 0117.316-.28c5.062.572 10.232 2.245 13.639 6.223 3.338 3.9 3.362 8.683.94 13.068a50.969 50.969 0 01-9.784 11.852c-7.478 7.084-17.013 13.227-27.2 15.373-4.869 1.026-10.718 1.184-15.175-1.372a7.766 7.766 0 01-3.976-5.213 11.044 11.044 0 011.33-6.815 30.781 30.781 0 014.267-6.271 10.608 10.608 0 012.379-2.265 4.651 4.651 0 013.99-.207c3.889 1.246 6.827 4.455 8.556 8.055 4.055 8.441 1.184 17.657-3.985 24.883a63.545 63.545 0 01-10.293 11.1c-1.756 1.5-3.893 2.833-6.3 2.619a3.916 3.916 0 01-3.747-4.037c-.218-4.985 1.835-10.347 4.461-14.492 1.229-1.94 2.847-4.5 5.087-5.363 1.988-.767 3.939.277 5.35 1.666 3.369 3.317 4.5 8.528 4.825 13.083a33.006 33.006 0 01-2.25 14.58 31.619 31.619 0 01-3.466 6.337c-1.107 1.588 1.492 3.089 2.59 1.515z"/><path fill="none" stroke="#d31c36" stroke-miterlimit="10" stroke-width="3" d="M600.921 122.689l-5.636 32.367"/><path fill="none" stroke="#f0ac11" stroke-miterlimit="10" stroke-width="3" d="M564.12 100.519l4.877 58.084"/><path fill="none" stroke="#d31c36" stroke-miterlimit="10" stroke-width="3" d="M533.526 122.689l10.198 30.15"/><circle cx="1416.711" cy="618.175" r="3.697"/><path fill="none" stroke="#c79400" stroke-miterlimit="10" stroke-width="5" d="M1022.972 638.123l-51.007 18.621"/><path fill="none" stroke="#f0ac11" stroke-miterlimit="10" stroke-width="5" d="M1008.424 349.207l-6.555-58.336"/><path fill="none" stroke="#f0ac11" stroke-miterlimit="10" stroke-width="5" d="M1001.301 278.179l-2.03-18.061"/><path fill="none" stroke="#f0ac11" stroke-miterlimit="10" stroke-width="5" d="M1057.946 313.318l-4.093-50.222"/><path fill="none" stroke="#f0ac11" stroke-miterlimit="10" stroke-width="5" d="M1106.767 340.161l-2.047-39.895"/><path fill="none" stroke="#c79400" stroke-miterlimit="10" stroke-width="5" d="M1056.734 626.488l-21.436 7.826"/><path fill="none" stroke="#c79400" stroke-miterlimit="10" stroke-width="5" d="M1007.044 725.922l-44.908 16.452"/><path fill="none" stroke="#c79400" stroke-miterlimit="10" stroke-width="5" d="M1084.338 699.717l-56.497 18.466"/><path fill="none" stroke="#c79400" stroke-miterlimit="10" stroke-width="5" d="M1104.72 769.795l-116.435 42.657"/><path d="M1417.46 618.175c19.691-3.47 45.835.753 53.61 10.558 12.194 15.376 1.907 34.276-13.3 43.958-26.878 17.11-71.943-5.269-89.749 21.153-14.274 21.18 6.26 53.551-8.654 74.286-14.155 19.681-45.06 10.8-68.207 18-13.112 4.082-23.73 13.569-33.9 22.795l-60.66 55.013c-22.878 20.75-51.507 43.049-81.372 35.173-28.135-7.419-42.9-38.885-46.269-67.786s.736-58.781-7.112-86.8c-11.238-40.117-48.525-71.568-89.963-75.882s-84.4 18.785-103.661 55.727c-21.036 40.352-14.776 91.961-40.556 129.46-19.5 28.357-56.659 43.346-90.373 36.448-19.3-3.949-37.1-14.309-56.708-16.173s-43.205 9.91-43.3 29.609c-.1 22.17 28.684 33.066 50.4 28.614s41.438-17.641 63.584-18.686 47.424 20.5 37.391 40.272c-6.684 13.168-24.3 16.067-38.979 14.428s-29.835-6.094-43.853-1.45c-23.906 7.921-32.169 37.477-33.005 62.647s1.366 52.855-13.944 72.85c-13.381 17.476-37 24-59.013 24.011s-43.679-5.349-65.649-6.668c-60.572-3.639-122.113 25.882-157.186 75.4s-42.5 117.368-18.964 173.3" fill="none" stroke="#000" stroke-miterlimit="10" stroke-width="3"/><path d="M911.864 680.946a90.353 90.353 0 00-25.435 18.771" fill="none" stroke="#fff" stroke-miterlimit="10" stroke-width="3"/><path fill="none" stroke="#d31c36" stroke-linecap="round" stroke-miterlimit="10" stroke-width="3" d="M1077.994 520.741l.577 19.803-6.766 4.019"/><path d="M1093.5 545.148s-3.9-5.115-14.929-4.6" fill="none" stroke="#d31c36" stroke-linecap="round" stroke-miterlimit="10" stroke-width="3"/><path d="M461.938 932.094l-70.929 49.672s-39.306 21.026-57.157-16.949c0 0 14.937 42.144 48.358 40.195 0 0 17.723 7.191 41.134-17.582" style="mix-blend-mode:multiply" opacity=".45" fill="url(#c)"/><g clip-path="url(#d)"><path d="M583.6 837.52s-73.354 65.461-62.208 59.9 44.282 27.023 44.282 27.023l38.592-43.463 22.263-24.58-22.263-33.618" style="mix-blend-mode:multiply" opacity=".45" fill="url(#c)"/></g><path style="mix-blend-mode:multiply" opacity=".45" fill="url(#c)" d="M862.283 296.519l-14.751 117.822 36.751-13.049"/><path d="M428.333 434.28l-30.594-21.948 5.376 57.143 25.218-35.195z"/><path style="mix-blend-mode:overlay" fill="#b0ccc7" d="M1249.05 212.591l-18.075 117.515 39.014-56.561-20.939-60.954z"/><path style="mix-blend-mode:overlay" fill="#b0ccc7" d="M1126.209 837.026l-35.899 96.494-7.079-53.187 42.978-43.307z"/><path style="mix-blend-mode:overlay" fill="#b0ccc7" d="M1035.298 864.255l-92.242 161.679-18.987-89.413 111.229-72.266z"/><path style="mix-blend-mode:overlay" fill="#b0ccc7" d="M217.837 488.627l-.398 22.802.398 26.305 173.161-14.687-173.161-34.42z"/><path style="mix-blend-mode:overlay" fill="#d31c36" d="M286.125 915.889l-68.686 16.687v41.039l68.686-57.726z"/><path style="mix-blend-mode:overlay" fill="#b0ccc7" d="M406.492 625.907l-43.227 137.921 68.549-12.941-25.322-124.98z"/><path style="mix-blend-mode:overlay" fill="#b0ccc7" d="M363.737 660.385l-15.021 103.017 27.047-4.988-12.026-98.029z"/><path style="mix-blend-mode:overlay" fill="#b0ccc7" d="M502.366 849.623l-147.359 97.102 140.38-123.941"/><path fill="#b0ccc7" d="M888.578 308.475l55.216-2.889 2.004 27.269-57.22-24.38z"/><path d="M392.225 913.866c.155-3.991-13.413-95.5-13.413-95.5l-4.475 111.294z" style="mix-blend-mode:overlay" fill="#b0ccc7"/><path style="mix-blend-mode:hard-light" fill="#fff" opacity=".5" d="M1177.548 346.3l-120.814 82.95-13.522-80.5"/><path style="mix-blend-mode:overlay" fill="#b0ccc7" d="M843.363 871.22l212.644-318.823-675.398 254.387 462.754 64.436z"/><path style="mix-blend-mode:overlay" fill="#b0ccc7" d="M857.18 734.169L782.1 358.364l-297.7 657.458 372.78-281.653z"/><path style="mix-blend-mode:overlay" fill="#b0ccc7" d="M400.101 413.92l120.049 85.813-102.791-370.172-17.258 284.359z"/><path style="mix-blend-mode:overlay" fill="#b0ccc7" opacity=".61" d="M452.341 421.143l142.944-8.811L349.849 274.54l102.492 146.603z"/><path d="M1464.2 749.933c-2.66-5.966-72.339-34.656-72.339-34.656l72.339 97.175" style="mix-blend-mode:overlay" fill="#d31c36"/><path fill="#fff" d="M357.572 113.305h104.26v76.046h-104.26z"/><path d="M1227.348 492.4l34.5 14.557s-7.231 5.264-28.364-2.414l-10.581-5.026" fill="#775b65"/><path d="M1121.014 615.727s4.435-8.415 4.879-17.283c0 0 24.989-3.329 20.032 13.078" fill="#775b65"/><path d="M667.208 587.138s16.627 4.877-4.541 17.947c0 0-3.449-9.063-11.828-9.808" fill="#775b65"/></g></svg>