<svg xmlns="http://www.w3.org/2000/svg" viewBox="0 0 544.092 677.379"><defs><clipPath id="a"><path fill="none" d="M174.486 475.434l-.703-360.537 188.632-83.984.703 360.537-188.632 83.984z"/></clipPath><clipPath id="b"><path fill="none" d="M220.971 502.713l-.703-360.528L408.9 58.2l.703 360.529-188.632 83.984z"/></clipPath><clipPath id="c"><path fill="none" d="M267.177 526.446l-.703-360.537 188.632-83.984.703 360.537-188.632 83.984z"/></clipPath><clipPath id="d"><path fill="none" d="M307.523 545.305l1.136-359.942 186.012-84.839-1.137 359.942-186.011 84.839z"/></clipPath><clipPath id="f"><circle cx="264.151" cy="307.831" r="85.047" fill="#fff"/></clipPath><linearGradient id="e" x1="15.217" y1="459.747" x2="259.517" y2="459.747" gradientUnits="userSpaceOnUse"><stop offset="0" stop-color="#ea1"/><stop offset=".147" stop-color="#eba811"/><stop offset=".263" stop-color="#e1a110"/><stop offset=".368" stop-color="#d0950f"/><stop offset=".467" stop-color="#b9850d"/><stop offset=".56" stop-color="#9b700b"/><stop offset=".639" stop-color="#7b5909"/></linearGradient><linearGradient id="g" x1="140.656" y1="1094.276" x2="274.703" y2="977.067" gradientTransform="rotate(2.214 19095.768 2700.927)" gradientUnits="userSpaceOnUse"><stop offset=".154" stop-color="#3c1522" stop-opacity="0"/><stop offset="1"/></linearGradient></defs><g data-name="Layer 1"><g clip-path="url(#a)" style="clip-path:url(#clip-path)"><path d="M355.734 33.887l-175.27 78.036c-3.686 1.641-6.673 7.077-6.663 12.146l.667 342.185c.01 5.069 3.012 7.847 6.7 6.206l175.271-78.036c3.686-1.641 6.673-7.085 6.663-12.154l-.667-342.186c-.01-5.068-3.013-7.838-6.7-6.2" fill="#d11c36"/></g><g clip-path="url(#b)" style="clip-path:url(#clip-path-2)"><path d="M402.219 61.175l-175.264 78.033c-3.692 1.643-6.679 7.08-6.669 12.148l.667 342.186c.01 5.069 3.012 7.838 6.7 6.194L402.922 421.7c3.692-1.644 6.673-7.078 6.663-12.146l-.667-342.186c-.01-5.069-3.007-7.841-6.7-6.2" fill="#3c1522"/></g><g clip-path="url(#c)" style="clip-path:url(#clip-path-3)"><path d="M448.425 84.9l-175.27 78.036c-3.692 1.644-6.673 7.077-6.663 12.146l.667 342.194c.01 5.06 3.006 7.841 6.7 6.2L449.13 445.44c3.686-1.641 6.673-7.085 6.663-12.146L455.124 91.1c-.01-5.068-3.013-7.838-6.7-6.2" fill="#839894"/></g><g clip-path="url(#d)" style="clip-path:url(#clip-path-4)"><path d="M343.762 449.418c-1.821.83-3.291-.541-3.283-3.071s1.491-5.256 3.312-6.086L459.475 387.5c1.82-.83 3.284.551 3.276 3.081s-1.485 5.245-3.3 6.075l-115.689 52.762m.111-35.4c-1.82.83-3.29-.548-3.282-3.07s1.491-5.256 3.311-6.086L459.586 352.1c1.821-.831 3.285.551 3.277 3.081s-1.485 5.245-3.305 6.075L343.873 414.02m23.114-45.888c-1.815.827-3.285-.551-3.277-3.082s1.491-5.247 3.306-6.075L459.7 316.7c1.821-.83 3.285.543 3.277 3.073s-1.485 5.253-3.306 6.084l-92.682 42.272m.112-35.406c-1.815.828-3.285-.543-3.277-3.073s1.491-5.256 3.306-6.083l92.68-42.267c1.82-.831 3.285.551 3.277 3.081s-1.485 5.245-3.306 6.075l-92.681 42.27m.111-35.4c-1.814.827-3.284-.552-3.276-3.073s1.491-5.256 3.3-6.084l92.687-42.269c1.82-.83 3.284.551 3.276 3.081s-1.485 5.245-3.305 6.075l-92.683 42.273m18.992-66.3l2.591-21.846-10.787-9.683 14.952-9.865 6.719-21.877 6.653 15.742 14.94-3.834-10.845 19.6 14.446 30.7-25.284-14.828-13.387 15.896m101.881-127.5l-172.836 78.83c-3.641 1.66-6.6 7.1-6.617 12.161l-1.078 341.628c-.016 5.053 2.918 7.813 6.559 6.152l172.835-78.829c3.641-1.661 6.6-7.109 6.617-12.162l1.079-341.628c.016-5.061-2.918-7.813-6.559-6.152" fill="#aecac5"/><path fill="#fff" d="M399.677 167.758l-6.719 21.877-14.952 9.865 10.787 9.688-2.591 21.846 13.385-15.89 25.284 14.828-14.446-30.7 10.845-19.603-14.94 3.834-6.653-15.745"/><path d="M459.922 245.9l-92.683 42.272c-1.814.828-3.3 3.553-3.3 6.084s1.462 3.9 3.276 3.073l92.683-42.273c1.82-.83 3.3-3.553 3.305-6.075s-1.456-3.911-3.276-3.081" fill="#fff"/><path d="M459.81 281.3l-92.682 42.27c-1.815.827-3.3 3.553-3.306 6.083s1.462 3.9 3.277 3.073l92.682-42.272c1.821-.83 3.3-3.545 3.306-6.075s-1.457-3.912-3.277-3.081" fill="#fff"/><path d="M459.7 316.7l-92.682 42.272c-1.815.828-3.3 3.545-3.306 6.075s1.462 3.909 3.277 3.082l92.682-42.272c1.821-.831 3.3-3.554 3.306-6.084s-1.456-3.9-3.277-3.073" fill="#fff"/><path d="M459.586 352.1L343.9 404.864c-1.82.83-3.3 3.556-3.311 6.086s1.462 3.9 3.282 3.07l115.685-52.763c1.82-.83 3.3-3.553 3.305-6.075s-1.456-3.912-3.277-3.081" fill="#fff"/><path d="M459.475 387.5l-115.684 52.761c-1.821.83-3.3 3.556-3.312 6.086s1.462 3.9 3.283 3.071l115.684-52.764c1.82-.83 3.3-3.544 3.3-6.075s-1.456-3.911-3.276-3.081" fill="#fff"/></g><path d="M261.692 637.841a16.157 16.157 0 01-16-16.873l6.324-191.423 23.038.2 2.932 191.5a16.157 16.157 0 01-16.294 16.596z" fill="#d31c36"/><path d="M234.5 315.4a34.459 34.459 0 00-42.583 23.7l-1.062 3.727a43.542 43.542 0 01-3.477 8.4 76.1 76.1 0 01-6.111 9.542 150.7 150.7 0 01-18.648 20.191c-7.284 6.722-15.385 13.326-23.937 19.82s-17.58 12.9-26.906 19.338L82.846 439.9c-4.987 3.447-10.051 6.988-15.257 10.791s-10.542 7.839-16.176 12.544c-2.82 2.359-5.718 4.894-8.77 7.813a119.768 119.768 0 00-9.709 10.364c-.848 1.008-1.766 2.2-2.645 3.343l-1.374 1.876-.339.472-.356.515-.7 1.038a78.3 78.3 0 00-5.792 10.129 68.344 68.344 0 00-5.258 15.756 74.473 74.473 0 00-.827 5.2c-.206 1.9-.352 3.8-.408 5.772q-.029 1.545 0 3.094c.023 1.033.058 2.044.153 3.15a60.727 60.727 0 00.84 6.537 62.537 62.537 0 003.848 12.95 61.608 61.608 0 002.841 5.9c.256.468.524.961.783 1.4l.789 1.309q.8 1.3 1.656 2.573l.429.632.414.581.84 1.143q.851 1.136 1.741 2.242c.3.383.579.7.86 1.032l.853.978q.86.973 1.75 1.919c.307.329.576.6.852.877l.836.828q.843.823 1.706 1.623c.6.562 1.09.978 1.638 1.453l1.626 1.364a82.089 82.089 0 0011.535 7.8c1.63.9 3.374 1.824 4.859 2.531l1.162.559c.391.187.781.37 1.129.524l2.168.958c.747.33 1.394.588 2.078.867l2.033.809 1.915.715c.635.232 1.3.479 1.887.677q3.674 1.276 7 2.244c4.443 1.306 8.521 2.315 12.43 3.195l3.347.76c2.825.616 32.15 5.959 35.108 6.35 26.913 3.554 26.23-22.448 27.929-52.811.8-14.329-.225-31.936-8.658-42.224l22.229-20.448c8.92-8.281 17.949-16.858 26.893-25.957s17.814-18.723 26.352-29.309a220.409 220.409 0 0023.876-35.681 142.781 142.781 0 009.333-22 109.087 109.087 0 005.13-25.612A34.485 34.485 0 00234.5 315.4z" fill="url(#e)"/><path d="M254.664 406.594h17.473v22.812h-17.473z"/><circle cx="264.151" cy="307.831" r="98.769"/><circle cx="264.151" cy="307.831" r="85.047" fill="#fff"/><g clip-path="url(#f)"><path d="M552.462 301.258l-.807 20.861c-2.018 52.2-14.347 104.565-32 148.947a236.447 236.447 0 01-49.31 76.041 194.487 194.487 0 01-103.718 25.315l-4.226-.163a194.5 194.5 0 01-107.123-37.23l-5.832-7.87a241.012 241.012 0 01-35.52-68.8c-14.029-43.022-43.393-101.54-41.3-155.721l.723-18.71C175.36 139.287 276.047 48.322 389.733 52.717s194.152 116.31 162.729 248.541z" fill="#f0ac11"/><path d="M352.829 390.464l4.059-104.995s-5.939-61.107-85.853-69.731c0 0-41.657 3.586-61.64 19.416 0 0-36.455 12.765-29.662 51.768s20.915 103.193 33.876 125.831 139.22-22.289 139.22-22.289z" style="mix-blend-mode:multiply" fill="url(#g)"/><path d="M321.028 312.821s-13.306 33.251-56.642 33.251c-43.922 0-57.305-35.926-57.305-35.926s17.13-33.251 59.98-33.251c36.913.005 53.967 35.926 53.967 35.926z" fill="#fff"/><circle cx="265.724" cy="311.483" r="20.179"/><circle cx="265.724" cy="311.483" r="6.905" fill="#fff"/><path style="mix-blend-mode:overlay" fill="#b0ccc7" d="M406.24 279.248L231.244 86.559l25.622 221.999 149.374-29.31z"/><path style="mix-blend-mode:overlay" fill="#b0ccc7" d="M402.338 340.898L593.871 76.46 10.483 270.808l391.855 70.09z"/></g><path d="M145.112 510.343a9.2 9.2 0 00-.849-.944c-.349-.358-.753-.711-1.127-1.071l-1.233-1.037c-.42-.342-.869-.662-1.3-1-.86-.679-1.825-1.255-2.738-1.894-.963-.575-1.921-1.168-2.905-1.727a76.675 76.675 0 00-12.613-5.524 116.051 116.051 0 00-13.519-3.721c-2.306-.454-4.627-.863-6.952-1.285l-7.031-.956.035-.69 7.145.077c2.379.131 4.768.252 7.159.419a119.321 119.321 0 0114.29 2.08 81.632 81.632 0 0114.065 4.183c1.147.474 2.283.991 3.427 1.5 1.116.584 2.263 1.095 3.361 1.751.552.322 1.11.626 1.658.967l1.636 1.059c.538.395 1.077.762 1.617 1.188a17.185 17.185 0 011.722 1.5z"/><path d="M123.3 506.077s-16.649 12.4-10.664 80.231c1.523 17.265 19.093 23.5 28.944 15.742 16.757-13.2 12.386-73.8 4.063-87.848s-22.343-8.125-22.343-8.125z"/><path d="M140.251 516.57s18.409-4.224 31.056-18.975a85.015 85.015 0 0121.28-17.964 71.779 71.779 0 0025.313-25.565 32.086 32.086 0 0115.507-13.483 196.391 196.391 0 0018.762-9.456l-1.583 30.073a47.97 47.97 0 00-7.724 10.76l-.043.083a7.977 7.977 0 004.566 11.115l17.67 6.14c24.945 8.232 39.745 13.467 47.481 16.293a12.218 12.218 0 018.128 11.968 8.3 8.3 0 01-2.4 5.666l-6.126 6.126s.324 4.318 5.678 9.043a11.366 11.366 0 012.977 5.549l.03.114a18.775 18.775 0 01-2.923 15.533l-5.53 7.877a10.227 10.227 0 011.17 1.428 17.171 17.171 0 01-1.783 21.808c-1.765 1.831-3.183 3.419-3.273 3.872-2.805 14.244-14.709 14.425-29.484 14.88l-14.221-2.774-12.693-2.244s-26.412-1.032-52.018-12.946c-12.381-5.761-60.213-11.091-60.213-11.091z" fill="#3c1522"/><path d="M276.365 515.068c16.913 7.569 35.775 14.283 35.775 14.283" fill="none" stroke="#000" stroke-miterlimit="10" stroke-width="2.072" opacity=".25"/><path d="M274.446 543.839c11.078 10.125 37.926 23.628 37.926 23.628" fill="none" stroke="#000" stroke-miterlimit="10" stroke-width="2.072" opacity=".25"/><path d="M280.163 579.077c1.384 3.525 28.323 15.5 28.323 15.5" fill="none" stroke="#000" stroke-miterlimit="10" stroke-width="2.072" opacity=".25"/><path d="M153 511.759c-9.423 6.086-23.433-2.552-23.433-2.552s-22.016 16.674-10.845 62.375c.937 3.831 18.056 6.125 21.132 8.818l32.574-14.5S162.426 505.672 153 511.759z" fill="#3c1522"/><path style="mix-blend-mode:overlay" fill="#b0ccc7" d="M57.246 587.998L266.25 305.894l.97 282.104H57.246z"/><path style="mix-blend-mode:overlay" fill="#aecac5" d="M444.444 600.813L47.358 396.606l451.552-67.073-54.466 271.28z"/><path style="mix-blend-mode:overlay" fill="#ea1" d="M265.724 311.483L178.593 112.83l313.711-5.179-226.58 203.832z"/></g></svg>