<svg xmlns="http://www.w3.org/2000/svg" xmlns:xlink="http://www.w3.org/1999/xlink" viewBox="0 0 360.621 308"><defs><linearGradient id="a" x1="118.314" y1="260.933" x2="184.177" y2="260.933" gradientUnits="userSpaceOnUse"><stop offset="0" stop-color="#eb002d"/><stop offset=".193" stop-color="#e8002c"/><stop offset=".345" stop-color="#de002b"/><stop offset=".483" stop-color="#cd0028"/><stop offset=".611" stop-color="#b60024"/><stop offset=".639" stop-color="#b00023"/></linearGradient><linearGradient id="b" x1="-9271.277" y1="138.405" x2="-9149.356" y2="138.405" gradientTransform="matrix(-1 0 .24 1 -9063.754 0)" gradientUnits="userSpaceOnUse"><stop offset="0" stop-color="#ffac00"/><stop offset=".142" stop-color="#fcaa00"/><stop offset=".253" stop-color="#f2a300"/><stop offset=".354" stop-color="#e19800"/><stop offset=".448" stop-color="#ca8800"/><stop offset=".539" stop-color="#ac7400"/><stop offset=".625" stop-color="#875c00"/><stop offset=".639" stop-color="#805700"/></linearGradient><linearGradient id="c" x1="81.451" y1="248.56" x2="129.129" y2="248.56" xlink:href="#a"/><linearGradient id="e" x1="105.992" y1="99.063" x2="174.55" y2="99.063" xlink:href="#b"/><clipPath id="d"><path d="M164.389 180.582l-36.077 1.3s-15.178-8.087-27.684-1.684c-23.42 7.413-22.393 48.449-22.393 48.449l11.141.89L83.5 259.6s7.438 11.166 15.012 14.6l17.52 33.654 83.474.577-7.176-93.025 5.881 21.5 38.241-1.482s-22.5-57.446-49.929-57.446c-13.709-.002-22.134 2.604-22.134 2.604z"/></clipPath><pattern id="f" data-name="Unnamed Pattern 4" width="43.107" height="43.107" patternTransform="matrix(.873 0 0 .873 336.905 168.676)" patternUnits="userSpaceOnUse" viewBox="0 0 43.107 43.107"><path fill="none" d="M0 0h43.107v43.107H0z"/><path d="M10.176 44.634a.779.779 0 01-.55-1.329.81.81 0 011.1 0 .781.781 0 010 1.1.777.777 0 01-.55.229z" fill="#1d1d1b"/><path d="M16.612 44.634a.779.779 0 01-.55-1.329.81.81 0 011.1 0 .779.779 0 01-.551 1.329z" fill="#1d1d1b"/><path d="M13.918 4.221a.8.8 0 01-.551-.228.781.781 0 010-1.1.811.811 0 011.1 0 .788.788 0 01.227.551.8.8 0 01-.227.55.787.787 0 01-.549.227z" fill="#1d1d1b"/><path d="M8.68 5.418a.779.779 0 01-.551-1.329.812.812 0 011.1 0 .8.8 0 01.228.551.791.791 0 01-.228.551.775.775 0 01-.549.227z" fill="#1d1d1b"/><path d="M8.829 2.874a.8.8 0 01-.551-.228.781.781 0 010-1.1.8.8 0 011.1 0 .8.8 0 01.227.55.777.777 0 01-.778.779z" fill="#1d1d1b"/><path d="M10.625 5.269a.779.779 0 01-.55-1.329.809.809 0 011.1 0 .779.779 0 01-.551 1.329z" fill="#1d1d1b"/><path d="M11.972 3.173a.8.8 0 01-.55-.227.78.78 0 010-1.1.809.809 0 011.1 0 .778.778 0 01-.551 1.329z" fill="#1d1d1b"/><path d="M17.361 3.772a.8.8 0 01-.551-.228.781.781 0 010-1.1.811.811 0 011.1 0 .779.779 0 01-.551 1.329z" fill="#1d1d1b"/><path d="M14.966 2.724a.805.805 0 01-.551-.227.782.782 0 010-1.1.806.806 0 011.1 0 .778.778 0 01-.551 1.329z" fill="#1d1d1b"/><path d="M10.176 1.527A.778.778 0 019.4.748.787.787 0 019.626.2a.81.81 0 011.1 0 .781.781 0 010 1.1.777.777 0 01-.55.227z" fill="#1d1d1b"/><path d="M16.612 1.527a.8.8 0 01-.55-.228.8.8 0 01-.228-.551.8.8 0 01.228-.548.81.81 0 011.1 0 .787.787 0 01.228.55.778.778 0 01-.779.779z" fill="#1d1d1b"/><path d="M19.007 2.125a.8.8 0 01-.551-.227.782.782 0 010-1.1.813.813 0 011.1 0 .778.778 0 01-.551 1.329z" fill="#1d1d1b"/><path d="M17.361 3.772a.8.8 0 01-.551-.228.781.781 0 010-1.1.811.811 0 011.1 0 .779.779 0 01-.551 1.329z" fill="#1d1d1b"/><path d="M16.912 5.418a.779.779 0 01-.551-1.329.807.807 0 011.1 0 .778.778 0 01-.551 1.329z" fill="#1d1d1b"/><path d="M15.714 7.214a.779.779 0 01-.55-1.329.812.812 0 011.1 0 .78.78 0 010 1.1.786.786 0 01-.55.229z" fill="#1d1d1b"/><path d="M13.32 6.167a.8.8 0 01-.551-.228.779.779 0 010-1.1.809.809 0 011.1 0 .779.779 0 01-.55 1.329z" fill="#1d1d1b"/><path d="M13.17 8.262a.8.8 0 01-.551-.227.782.782 0 010-1.1.811.811 0 011.1 0 .778.778 0 01-.551 1.329z" fill="#1d1d1b"/><path d="M10.176 7.663a.779.779 0 01-.55-1.329.812.812 0 011.1 0 .778.778 0 01-.551 1.329z" fill="#1d1d1b"/><path d="M12.122 9.609a.8.8 0 01-.551-.227.782.782 0 010-1.1.813.813 0 011.1 0 .778.778 0 01-.551 1.329z" fill="#1d1d1b"/><path d="M13.619 11.854a.8.8 0 01-.551-.227.782.782 0 010-1.1.813.813 0 011.1 0 .778.778 0 01-.551 1.329z" fill="#1d1d1b"/><path d="M15.265 12.3a.777.777 0 01-.778-.778.8.8 0 01.228-.551.812.812 0 011.1 0 .8.8 0 01.228.551.777.777 0 01-.779.778z" fill="#1d1d1b"/><path d="M17.061 11.256a.779.779 0 01-.55-1.329.81.81 0 011.1 0 .779.779 0 010 1.1.777.777 0 01-.55.229z" fill="#1d1d1b"/><path d="M16.762 9.31a.779.779 0 01-.551-1.329.811.811 0 011.1 0 .779.779 0 01-.551 1.329z" fill="#1d1d1b"/><path d="M17.96 7.963a.779.779 0 01-.551-1.329.809.809 0 011.1 0 .779.779 0 010 1.1.776.776 0 01-.549.229z" fill="#1d1d1b"/><path d="M20.5 7.963a.779.779 0 01-.551-1.329.811.811 0 011.1 0 .779.779 0 01-.549 1.329z" fill="#1d1d1b"/><path d="M19.456 10.807a.8.8 0 01-.55-.228.779.779 0 010-1.1.8.8 0 011.1 0 .779.779 0 01-.551 1.329z" fill="#1d1d1b"/><path d="M20.8 12.9a.779.779 0 01-.55-1.329.809.809 0 011.1 0 .8.8 0 01.228.551.777.777 0 01-.779.778z" fill="#1d1d1b"/><path d="M18.708 13.052a.779.779 0 01-.551-1.329.811.811 0 011.1 0 .781.781 0 010 1.1.778.778 0 01-.549.229z" fill="#1d1d1b"/><path d="M16.612 13.5a.8.8 0 01-.55-.228.787.787 0 01-.228-.55.8.8 0 01.228-.551.809.809 0 011.1 0 .779.779 0 01-.551 1.329z" fill="#1d1d1b"/><path d="M22.3 10.208a.779.779 0 01-.551-1.329.811.811 0 011.1 0 .781.781 0 010 1.1.787.787 0 01-.549.229z" fill="#1d1d1b"/><path d="M19.157 5.867a.779.779 0 01-.551-1.329.813.813 0 011.1 0 .782.782 0 010 1.1.778.778 0 01-.549.229z" fill="#1d1d1b"/><path d="M20.354 4.071a.779.779 0 01-.55-1.329.81.81 0 011.1 0 .78.78 0 010 1.1.776.776 0 01-.55.229z" fill="#1d1d1b"/><path d="M22 1.976a.777.777 0 01-.778-.779.786.786 0 01.227-.55.811.811 0 011.1 0 .781.781 0 010 1.1.791.791 0 01-.549.229z" fill="#1d1d1b"/><path d="M22.45 3.921a.779.779 0 01-.55-1.329.807.807 0 011.1 0 .782.782 0 010 1.1.79.79 0 01-.55.229z" fill="#1d1d1b"/><path d="M22.3 5.718a.8.8 0 01-.551-.228.781.781 0 010-1.1.811.811 0 011.1 0 .781.781 0 010 1.1.787.787 0 01-.549.228z" fill="#1d1d1b"/><path d="M22.45 7.963a.779.779 0 01-.55-1.329.811.811 0 011.1 0 .781.781 0 010 1.1.791.791 0 01-.55.229z" fill="#1d1d1b"/><path d="M24.545 3.023a.777.777 0 01-.778-.778.791.791 0 01.233-.551.812.812 0 011.1 0 .778.778 0 01-.551 1.329z" fill="#1d1d1b"/><path d="M24.994 5.269a.8.8 0 01-.55-.228.779.779 0 010-1.1.809.809 0 011.1 0 .779.779 0 01-.551 1.329z" fill="#1d1d1b"/><path d="M24.7 7.663a.8.8 0 01-.551-.227.782.782 0 010-1.1.807.807 0 011.1 0 .79.79 0 01.227.551.8.8 0 01-.227.551.788.788 0 01-.549.225z" fill="#1d1d1b"/><path d="M24.845 10.358a.8.8 0 01-.551-.228.779.779 0 010-1.1.81.81 0 011.1 0 .779.779 0 01-.55 1.329z" fill="#1d1d1b"/><path d="M25.743 12.453a.8.8 0 01-.551-.227.782.782 0 010-1.1.8.8 0 011.1 0 .778.778 0 01-.55 1.329z" fill="#1d1d1b"/><path d="M22.9 12.3a.8.8 0 01-.551-.227.782.782 0 010-1.1.813.813 0 011.1 0A.778.778 0 0122.9 12.3z" fill="#1d1d1b"/><path d="M23.647 15a.8.8 0 01-.551-.228.781.781 0 010-1.1.811.811 0 011.1 0A.779.779 0 0123.647 15z" fill="#1d1d1b"/><path d="M21.1 14.848a.8.8 0 01-.551-.228.781.781 0 010-1.1.809.809 0 011.1 0 .779.779 0 01-.55 1.329z" fill="#1d1d1b"/><path d="M28.138 13.351a.779.779 0 01-.551-1.329.809.809 0 011.1 0 .78.78 0 010 1.1.775.775 0 01-.549.229z" fill="#1d1d1b"/><path d="M27.539 11.256a.8.8 0 01-.551-.228.781.781 0 010-1.1.811.811 0 011.1 0 .779.779 0 01-.551 1.329z" fill="#1d1d1b"/><path d="M26.94 9.16a.779.779 0 01-.551-1.329.811.811 0 011.1 0 .782.782 0 010 1.1.776.776 0 01-.549.229z" fill="#1d1d1b"/><path d="M27.09 6.765a.779.779 0 01-.551-1.329.813.813 0 011.1 0 .778.778 0 01-.551 1.329z" fill="#1d1d1b"/><path d="M26.94 4.221a.8.8 0 01-.551-.228.781.781 0 010-1.1.811.811 0 011.1 0 .779.779 0 01-.551 1.329z" fill="#1d1d1b"/><path d="M26.79 2.275a.777.777 0 01-.778-.778.789.789 0 01.228-.551.809.809 0 011.1 0 .78.78 0 010 1.1.78.78 0 01-.55.229z" fill="#1d1d1b"/><path d="M29.784 1.676a.8.8 0 01-.551-.227.782.782 0 010-1.1.813.813 0 011.1 0 .782.782 0 010 1.1.788.788 0 01-.549.227z" fill="#1d1d1b"/><path d="M29.335 4.221a.779.779 0 01-.551-1.329.811.811 0 011.1 0 .779.779 0 01-.551 1.329z" fill="#1d1d1b"/><path d="M31.43 4.221a.8.8 0 01-.55-.228.787.787 0 01-.228-.55.8.8 0 01.228-.551.809.809 0 011.1 0 .779.779 0 01-.551 1.329z" fill="#1d1d1b"/><path d="M31.281 6.316a.8.8 0 01-.551-.227.79.79 0 01-.227-.551.8.8 0 01.227-.551.813.813 0 011.1 0 .782.782 0 010 1.1.79.79 0 01-.549.229z" fill="#1d1d1b"/><path d="M29.036 6.167a.8.8 0 01-.551-.228.779.779 0 010-1.1.81.81 0 011.1 0 .787.787 0 01.228.55.778.778 0 01-.228.551.787.787 0 01-.549.227z" fill="#1d1d1b"/><path d="M29.185 8.861a.8.8 0 01-.55-.228.779.779 0 010-1.1.81.81 0 011.1 0 .779.779 0 01-.551 1.329z" fill="#1d1d1b"/><path d="M31.281 8.861a.8.8 0 01-.551-.228.781.781 0 010-1.1.811.811 0 011.1 0 .767.767 0 01.227.551.777.777 0 01-.778.778z" fill="#1d1d1b"/><path d="M29.634 10.956a.779.779 0 01-.55-1.329.812.812 0 011.1 0 .778.778 0 01-.551 1.329z" fill="#1d1d1b"/><path d="M30.532 13.5a.8.8 0 01-.55-.228.787.787 0 01-.228-.55.8.8 0 01.228-.551.81.81 0 011.1 0 .779.779 0 01-.551 1.329z" fill="#1d1d1b"/><path d="M31.58 15.447a.8.8 0 01-.551-.228.781.781 0 010-1.1.811.811 0 011.1 0 .779.779 0 01-.551 1.329z" fill="#1d1d1b"/><path d="M33.077 13.8a.779.779 0 01-.551-1.329.811.811 0 011.1 0 .782.782 0 010 1.1.778.778 0 01-.549.229z" fill="#1d1d1b"/><path d="M32.179 11.705a.8.8 0 01-.551-.228.781.781 0 010-1.1.811.811 0 011.1 0 .779.779 0 01-.551 1.329z" fill="#1d1d1b"/><path d="M33.526 9.909a.8.8 0 01-.551-.228.781.781 0 010-1.1.811.811 0 011.1 0 .779.779 0 01-.551 1.329z" fill="#1d1d1b"/><path d="M33.676 7.364a.779.779 0 01-.551-1.329.81.81 0 011.1 0 .778.778 0 01-.55 1.329z" fill="#1d1d1b"/><path d="M33.825 4.37a.779.779 0 01-.55-1.329.812.812 0 011.1 0 .778.778 0 01-.551 1.329z" fill="#1d1d1b"/><path d="M35.771 4.969a.779.779 0 01-.551-1.329.813.813 0 011.1 0 .778.778 0 01-.551 1.329z" fill="#1d1d1b"/><path d="M34.723 2.275a.777.777 0 01-.778-.778.789.789 0 01.228-.551.809.809 0 011.1 0 .78.78 0 010 1.1.78.78 0 01-.55.229z" fill="#1d1d1b"/><path d="M36.969 2.874a.8.8 0 01-.551-.228.779.779 0 010-1.1.809.809 0 011.1 0 .779.779 0 01-.55 1.329z" fill="#1d1d1b"/><path d="M38.914 1.826a.8.8 0 01-.55-.228.779.779 0 010-1.1.81.81 0 011.1 0 .779.779 0 010 1.1.787.787 0 01-.55.228z" fill="#1d1d1b"/><path d="M40.112 3.023a.779.779 0 01-.551-1.329.805.805 0 011.1 0 .778.778 0 01-.55 1.329z" fill="#1d1d1b"/><path d="M38.016 4.819a.8.8 0 01-.551-.227.781.781 0 010-1.1.811.811 0 011.1 0 .778.778 0 01-.551 1.328z" fill="#1d1d1b"/><path d="M37.567 7.065a.8.8 0 01-.551-.228.792.792 0 01-.227-.551.8.8 0 01.227-.55.811.811 0 011.1 0 .779.779 0 01-.551 1.329z" fill="#1d1d1b"/><path d="M35.921 8.412a.8.8 0 01-.551-.228.781.781 0 010-1.1.811.811 0 011.1 0 .779.779 0 01-.551 1.329z" fill="#1d1d1b"/><path d="M37.418 10.058a.779.779 0 01-.551-1.329.812.812 0 011.1 0 .778.778 0 01-.55 1.329z" fill="#1d1d1b"/><path d="M39.663 10.657a.8.8 0 01-.551-.228.779.779 0 010-1.1.809.809 0 011.1 0 .779.779 0 01-.55 1.329z" fill="#1d1d1b"/><path d="M38.465 12a.8.8 0 01-.55-.227.78.78 0 010-1.1.809.809 0 011.1 0 .778.778 0 01-.55 1.327z" fill="#1d1d1b"/><path d="M36.37 12.3a.8.8 0 01-.551-.227.782.782 0 010-1.1.813.813 0 011.1 0 .778.778 0 01-.549 1.327z" fill="#1d1d1b"/><path d="M34.723 12a.8.8 0 01-.55-.227.78.78 0 010-1.1.809.809 0 011.1 0 .778.778 0 01-.55 1.327z" fill="#1d1d1b"/><path d="M35.771 14.549a.791.791 0 01-.551-.228.781.781 0 010-1.1.811.811 0 011.1 0 .781.781 0 010 1.1.777.777 0 01-.549.228z" fill="#1d1d1b"/><path d="M38.465 13.8a.779.779 0 01-.55-1.329.809.809 0 011.1 0 .778.778 0 01-.551 1.329z" fill="#1d1d1b"/><path d="M41.01 14.4a.777.777 0 01-.778-.778.778.778 0 111.556 0 .777.777 0 01-.778.778z" fill="#1d1d1b"/><path d="M41.01 12.3a.779.779 0 01-.551-1.329.807.807 0 011.1 0 .778.778 0 01-.549 1.329z" fill="#1d1d1b"/><path d="M39.214 8.262a.8.8 0 01-.551-.227.78.78 0 010-1.1.809.809 0 011.1 0 .778.778 0 01-.55 1.329z" fill="#1d1d1b"/><path d="M39.663 6.017a.8.8 0 01-.551-.228.779.779 0 010-1.1.8.8 0 011.1 0 .779.779 0 01-.55 1.329z" fill="#1d1d1b"/><path d="M41.758 4.819a.8.8 0 01-.551-.227.792.792 0 01-.227-.551.778.778 0 011.329-.55.778.778 0 01-.551 1.328z" fill="#1d1d1b"/><path d="M42.357 1.976a.8.8 0 01-.551-.228.8.8 0 01-.227-.551.786.786 0 01.227-.55.811.811 0 011.1 0 .781.781 0 010 1.1.791.791 0 01-.549.229z" fill="#1d1d1b"/><path d="M41.758 8.711a.779.779 0 01-.551-1.329.811.811 0 011.1 0 .778.778 0 01-.551 1.329z" fill="#1d1d1b"/><path d="M42.806 10.807a.8.8 0 01-.551-.228.781.781 0 010-1.1.811.811 0 011.1 0 .779.779 0 01-.551 1.329z" fill="#1d1d1b"/><path d="M33.825 4.37a.779.779 0 01-.55-1.329.812.812 0 011.1 0 .778.778 0 01-.551 1.329z" fill="#1d1d1b"/><path d="M34.723 2.275a.777.777 0 01-.778-.778.789.789 0 01.228-.551.809.809 0 011.1 0 .78.78 0 010 1.1.78.78 0 01-.55.229z" fill="#1d1d1b"/><path d="M32.329 2.724a.779.779 0 01-.551-1.324.809.809 0 011.1 0 .778.778 0 01-.55 1.329z" fill="#1d1d1b"/><path d="M14.367 14.4a.8.8 0 01-.55-.228.779.779 0 010-1.1.809.809 0 011.1 0 .779.779 0 01-.551 1.329z" fill="#1d1d1b"/><path d="M11.972 12.752a.779.779 0 01-.55-1.329.812.812 0 011.1 0 .8.8 0 01.228.551.789.789 0 01-.228.551.776.776 0 01-.55.227z" fill="#1d1d1b"/><path d="M9.578 13.351a.777.777 0 01-.779-.778.8.8 0 01.228-.551.809.809 0 011.1 0 .8.8 0 01.228.551.777.777 0 01-.778.778z" fill="#1d1d1b"/><path d="M10.176 10.956a.779.779 0 01-.55-1.329.812.812 0 011.1 0 .778.778 0 01-.551 1.329z" fill="#1d1d1b"/><path d="M8.829 9.16a.775.775 0 11.551-.227.786.786 0 01-.551.227z" fill="#1d1d1b"/><path d="M7.482 7.514a.8.8 0 01-.551-.228.788.788 0 01-.231-.551.8.8 0 01.227-.55.811.811 0 011.1 0 .779.779 0 01-.551 1.329z" fill="#1d1d1b"/><path d="M7.482 11.256a.779.779 0 01-.551-1.329.811.811 0 011.1 0 .781.781 0 010 1.1.777.777 0 01-.549.229z" fill="#1d1d1b"/><path d="M9.578 13.351a.777.777 0 01-.779-.778.8.8 0 01.228-.551.809.809 0 011.1 0 .8.8 0 01.228.551.777.777 0 01-.778.778z" fill="#1d1d1b"/><path d="M11.074 14.7a.779.779 0 01-.55-1.329.805.805 0 011.1 0 .791.791 0 01.228.551.8.8 0 01-.228.551.786.786 0 01-.55.227z" fill="#1d1d1b"/><path d="M8.38 15.6a.779.779 0 01-.551-1.329.807.807 0 011.1 0A.778.778 0 018.38 15.6z" fill="#1d1d1b"/><path d="M6.883 13.8a.779.779 0 01-.55-1.329.81.81 0 011.1 0 .8.8 0 01.228.551.777.777 0 01-.779.778z" fill="#1d1d1b"/><path d="M14.367 9.909a.779.779 0 01-.55-1.329.809.809 0 011.1 0 .781.781 0 010 1.1.777.777 0 01-.55.229z" fill="#1d1d1b"/><path d="M1.2 4.221a.778.778 0 01-.779-.778.8.8 0 01.228-.551.8.8 0 011.1 0 .8.8 0 01.228.551.778.778 0 01-.778.778z" fill="#1d1d1b"/><path d="M1.944 9.909a.779.779 0 01-.551-1.329.8.8 0 011.1 0 .779.779 0 01-.551 1.329z" fill="#1d1d1b"/><path d="M3.141 11.854a.779.779 0 01-.55-1.329.805.805 0 011.1 0 .776.776 0 01.228.551.764.764 0 01-.228.551.786.786 0 01-.55.227z" fill="#1d1d1b"/><path d="M2.243 7.813a.8.8 0 01-.55-.227.78.78 0 010-1.1.81.81 0 011.1 0 .778.778 0 01-.551 1.329z" fill="#1d1d1b"/><path d="M5.387 3.472a.8.8 0 01-.551-.227.78.78 0 010-1.1.812.812 0 011.1 0 .778.778 0 01-.55 1.329z" fill="#1d1d1b"/><path d="M3.441 3.772a.8.8 0 01-.551-.228.781.781 0 010-1.1.811.811 0 011.1 0 .792.792 0 01.227.551.8.8 0 01-.227.55.791.791 0 01-.549.227z" fill="#1d1d1b"/><path d="M3.59 5.718a.8.8 0 01-.55-.228.779.779 0 010-1.1.779.779 0 011.329.55.778.778 0 01-.779.779z" fill="#1d1d1b"/><path d="M6.434 5.269a.8.8 0 01-.55-.228.789.789 0 01-.228-.551.8.8 0 01.228-.55.809.809 0 011.1 0 .8.8 0 01.228.55.778.778 0 01-.779.779z" fill="#1d1d1b"/><path d="M2.243 2.125A.779.779 0 011.693.8a.812.812 0 011.1 0 .778.778 0 01-.551 1.329z" fill="#1d1d1b"/><path d="M4.189 8.561a.8.8 0 01-.551-.227.782.782 0 010-1.1.813.813 0 011.1 0 .782.782 0 010 1.1.786.786 0 01-.549.227z" fill="#1d1d1b"/><path d="M5.836 7.214a.777.777 0 01-.779-.778.791.791 0 01.228-.551.812.812 0 011.1 0 .778.778 0 01-.55 1.329z" fill="#1d1d1b"/><path d="M5.836 9.609a.777.777 0 01-.779-.778.791.791 0 01.228-.551.812.812 0 011.1 0 .791.791 0 01.228.551.8.8 0 01-.228.551.786.786 0 01-.549.227z" fill="#1d1d1b"/><path d="M7.482 11.256a.779.779 0 01-.551-1.329.811.811 0 011.1 0 .781.781 0 010 1.1.777.777 0 01-.549.229z" fill="#1d1d1b"/><path d="M4.938 12.3a.8.8 0 01-.551-.227.789.789 0 01-.228-.551.8.8 0 01.228-.551.812.812 0 011.1 0 .8.8 0 01.228.551.777.777 0 01-.778.778z" fill="#1d1d1b"/><path d="M3.441 15.6a.8.8 0 01-.551-.227.782.782 0 010-1.1.813.813 0 011.1 0 .794.794 0 01.227.551.805.805 0 01-.227.551.79.79 0 01-.549.225z" fill="#1d1d1b"/><path d="M2.992 13.8a.779.779 0 01-.551-1.329.779.779 0 011.1 1.1.79.79 0 01-.549.229z" fill="#1d1d1b"/><path d="M8.979 42.987a.8.8 0 01-.551-.227.782.782 0 010-1.1.813.813 0 011.1 0 .8.8 0 01.227.551.775.775 0 01-.778.778z" fill="#1d1d1b"/><path d="M8.979 42.987a.8.8 0 01-.551-.227.782.782 0 010-1.1.813.813 0 011.1 0 .8.8 0 01.227.551.775.775 0 01-.778.778z" fill="#1d1d1b"/><path d="M11.074 42.388a.779.779 0 01-.55-1.329.812.812 0 011.1 0 .778.778 0 01-.551 1.329z" fill="#1d1d1b"/><path d="M14.367 42.987a.779.779 0 01-.55-1.329.812.812 0 011.1 0 .782.782 0 010 1.1.776.776 0 01-.55.229z" fill="#1d1d1b"/><path d="M17.51 42.688a.779.779 0 01-.55-1.329.809.809 0 011.1 0 .779.779 0 010 1.1.777.777 0 01-.55.229z" fill="#1d1d1b"/><path d="M19.606 42.987a.8.8 0 01-.551-.227.782.782 0 010-1.1.813.813 0 011.1 0 .788.788 0 01.227.551.8.8 0 01-.227.551.79.79 0 01-.549.225z" fill="#1d1d1b"/><path d="M22.6 42.688a.8.8 0 01-.55-.228.779.779 0 010-1.1.809.809 0 011.1 0 .779.779 0 01-.551 1.329z" fill="#1d1d1b"/><path d="M26.94 41.041a.779.779 0 01-.551-1.329.813.813 0 011.1 0 .778.778 0 01-.551 1.329z" fill="#1d1d1b"/><path d="M29.784 42.089a.805.805 0 01-.551-.227.782.782 0 010-1.1.811.811 0 011.1 0 .778.778 0 01-.551 1.329z" fill="#1d1d1b"/><path d="M35.771 42.987a.779.779 0 11.551-1.329.778.778 0 01-.551 1.329z" fill="#1d1d1b"/><path d="M40.561 43.436a.779.779 0 01-.551-1.329.813.813 0 011.1 0 .782.782 0 010 1.1.778.778 0 01-.549.229z" fill="#1d1d1b"/><path d="M32.927 44.035a.779.779 0 01-.551-1.329.811.811 0 011.1 0 .779.779 0 01-.551 1.329z" fill="#1d1d1b"/><path d="M32.179 41.79a.779.779 0 01-.551-1.329.811.811 0 011.1 0 .779.779 0 01-.551 1.329z" fill="#1d1d1b"/><path d="M6.135 42.388a.8.8 0 01-.551-.227.782.782 0 010-1.1.813.813 0 011.1 0 .778.778 0 01-.551 1.329z" fill="#1d1d1b"/><path d="M3.441 42.538a.779.779 0 01-.551-1.329.778.778 0 011.329.551.775.775 0 01-.778.778z" fill="#1d1d1b"/><path d="M13.17 16.045a.8.8 0 01-.551-.227.782.782 0 010-1.1.813.813 0 011.1 0 .782.782 0 010 1.1.778.778 0 01-.549.227z" fill="#1d1d1b"/><path d="M15.864 16.644a.805.805 0 01-.551-.227.782.782 0 010-1.1.811.811 0 011.1 0 .8.8 0 01.227.551.775.775 0 01-.778.778z" fill="#1d1d1b"/><path d="M18.109 15.447a.8.8 0 01-.551-.228.781.781 0 010-1.1.811.811 0 011.1 0 .779.779 0 01-.551 1.329z" fill="#1d1d1b"/><path d="M17.361 17.841a.779.779 0 01-.551-1.329.813.813 0 011.1 0 .782.782 0 010 1.1.778.778 0 01-.549.229z" fill="#1d1d1b"/><path d="M15.714 19.039a.8.8 0 01-.55-.228.779.779 0 010-1.1.8.8 0 011.1 0 .779.779 0 01-.551 1.329z" fill="#1d1d1b"/><path d="M13.619 18.59a.779.779 0 01-.551-1.329.8.8 0 011.1 0 .781.781 0 010 1.1.778.778 0 01-.549.229z" fill="#1d1d1b"/><path d="M11.673 19.039a.8.8 0 01-.551-.228.781.781 0 010-1.1.8.8 0 011.1 0 .779.779 0 01-.551 1.329z" fill="#1d1d1b"/><path d="M10.775 16.794a.779.779 0 01-.551-1.329.811.811 0 011.1 0 .779.779 0 01-.551 1.329z" fill="#1d1d1b"/><path d="M9.578 18.29a.779.779 0 01-.551-1.329.812.812 0 011.1 0 .78.78 0 010 1.1.775.775 0 01-.549.229z" fill="#1d1d1b"/><path d="M7.632 17.542a.8.8 0 01-.551-.227.782.782 0 010-1.1.778.778 0 011.329.551.775.775 0 01-.778.778z" fill="#1d1d1b"/><path d="M5.686 18.44a.8.8 0 01-.551-.227.79.79 0 01-.227-.551.8.8 0 01.227-.551.811.811 0 011.1 0 .777.777 0 01.227.551.769.769 0 01-.227.551.788.788 0 01-.549.227z" fill="#1d1d1b"/><path d="M5.087 20.386a.8.8 0 01-.55-.228.779.779 0 010-1.1.81.81 0 011.1 0 .779.779 0 01-.551 1.329z" fill="#1d1d1b"/><path d="M5.985 22.93a.779.779 0 01-.55-1.329.812.812 0 011.1 0 .778.778 0 01-.551 1.329z" fill="#1d1d1b"/><path d="M7.482 21.434a.8.8 0 01-.551-.228.781.781 0 010-1.1.811.811 0 011.1 0 .779.779 0 01-.551 1.329z" fill="#1d1d1b"/><path d="M9.129 19.937a.779.779 0 01-.551-1.329.81.81 0 011.1 0 .779.779 0 01-.55 1.329z" fill="#1d1d1b"/><path d="M11.374 21.284a.8.8 0 01-.551-.227.782.782 0 010-1.1.81.81 0 011.1 0 .778.778 0 01-.55 1.329z" fill="#1d1d1b"/><path d="M9.578 22.781a.8.8 0 01-.551-.228.779.779 0 010-1.1.81.81 0 011.1 0 .779.779 0 01-.55 1.329z" fill="#1d1d1b"/><path d="M7.781 24.427a.779.779 0 01-.55-1.329.812.812 0 011.1 0 .778.778 0 01-.551 1.329z" fill="#1d1d1b"/><path d="M5.836 25.475a.778.778 0 01-.779-.778.789.789 0 01.228-.551.809.809 0 011.1 0 .789.789 0 01.228.551.8.8 0 01-.228.55.787.787 0 01-.549.228z" fill="#1d1d1b"/><path d="M5.985 22.93a.779.779 0 01-.55-1.329.812.812 0 011.1 0 .778.778 0 01-.551 1.329z" fill="#1d1d1b"/><path d="M4.04 23.828a.8.8 0 01-.551-.227.779.779 0 010-1.1.81.81 0 011.1 0 .778.778 0 01-.55 1.328z" fill="#1d1d1b"/><path d="M3.441 21.134a.779.779 0 01-.551-1.329.778.778 0 011.329.551.775.775 0 01-.778.778z" fill="#1d1d1b"/><path d="M3.291 17.991a.805.805 0 01-.551-.227.782.782 0 010-1.1.811.811 0 011.1 0 .778.778 0 01-.551 1.329z" fill="#1d1d1b"/><path d="M1.5 19.188a.8.8 0 01-.551-.227.781.781 0 010-1.1.811.811 0 011.1 0 .781.781 0 010 1.1.788.788 0 01-.549.227z" fill="#1d1d1b"/><path d="M1.046 21.583a.8.8 0 01-.546-.227.782.782 0 010-1.1.813.813 0 011.1 0 .778.778 0 01-.551 1.329z" fill="#1d1d1b"/><path d="M1.046 16.494a.8.8 0 01-.546-.227.782.782 0 010-1.1.813.813 0 011.1 0 .778.778 0 01-.551 1.329z" fill="#1d1d1b"/><path d="M1.794 23.679a.779.779 0 01-.55-1.329.8.8 0 011.1 0 .779.779 0 01-.551 1.329z" fill="#1d1d1b"/><path d="M2.094 25.924a.8.8 0 01-.551-.227.782.782 0 010-1.1.809.809 0 011.1 0 .778.778 0 01-.55 1.329z" fill="#1d1d1b"/><path d="M1.645 29.516a.8.8 0 01-.551-.227.791.791 0 01-.228-.551.8.8 0 01.228-.551.812.812 0 011.1 0 .778.778 0 01-.55 1.329z" fill="#1d1d1b"/><path d="M2.243 31.312a.779.779 0 01-.55-1.329.812.812 0 011.1 0 .8.8 0 01.228.551.777.777 0 01-.779.778z" fill="#1d1d1b"/><path d="M4.339 30.115a.8.8 0 01-.551-.228.781.781 0 010-1.1.811.811 0 011.1 0 .779.779 0 01-.551 1.329z" fill="#1d1d1b"/><path d="M3.291 27.72a.779.779 0 01-.551-1.329.811.811 0 011.1 0 .8.8 0 01.227.551.775.775 0 01-.778.778z" fill="#1d1d1b"/><path d="M5.686 28.019a.8.8 0 01-.551-.227.782.782 0 010-1.1.813.813 0 011.1 0 .779.779 0 01.227.551.775.775 0 01-.778.778z" fill="#1d1d1b"/><path d="M7.183 29.816a.8.8 0 01-.551-.228.788.788 0 01-.227-.551.8.8 0 01.227-.55.811.811 0 011.1 0 .8.8 0 01.227.55.777.777 0 01-.778.779z" fill="#1d1d1b"/><path d="M8.979 30.414a.779.779 0 01-.551-1.329.813.813 0 011.1 0 .778.778 0 01-.551 1.329z" fill="#1d1d1b"/><path d="M10.625 31.312a.779.779 0 01-.55-1.329.812.812 0 011.1 0 .778.778 0 01-.551 1.329z" fill="#1d1d1b"/><path d="M7.482 27.271a.805.805 0 01-.551-.227.782.782 0 010-1.1.811.811 0 011.1 0 .778.778 0 01-.551 1.329z" fill="#1d1d1b"/><path d="M9.578 28.019a.8.8 0 01-.551-.227.78.78 0 010-1.1.812.812 0 011.1 0 .778.778 0 01-.55 1.329z" fill="#1d1d1b"/><path d="M11.523 28.618a.777.777 0 01-.778-.778.8.8 0 01.228-.551.812.812 0 011.1 0 .8.8 0 01.228.551.791.791 0 01-.228.551.776.776 0 01-.55.227z" fill="#1d1d1b"/><path d="M9.727 25.325A.779.779 0 019.177 24a.812.812 0 011.1 0 .778.778 0 01-.551 1.329z" fill="#1d1d1b"/><path d="M12.122 25.924a.805.805 0 01-.551-.227.79.79 0 01-.227-.551.8.8 0 01.227-.551.811.811 0 011.1 0 .8.8 0 01.227.551.775.775 0 01-.778.778z" fill="#1d1d1b"/><path d="M12.571 23.379a.8.8 0 01-.551-.227.781.781 0 010-1.1.811.811 0 011.1 0 .778.778 0 01-.551 1.328z" fill="#1d1d1b"/><path d="M14.068 25.176a.779.779 0 01-.551-1.329.8.8 0 011.1 0 .779.779 0 01-.551 1.329z" fill="#1d1d1b"/><path d="M15.714 23.679a.778.778 0 01-.778-.778.8.8 0 01.228-.551.809.809 0 011.1 0 .8.8 0 01.228.551.778.778 0 01-.779.778z" fill="#1d1d1b"/><path d="M13.469 27.57a.8.8 0 01-.551-.227.782.782 0 010-1.1.813.813 0 011.1 0 .778.778 0 01-.551 1.329z" fill="#1d1d1b"/><path d="M15.565 28.768a.8.8 0 01-.551-.228.779.779 0 010-1.1.809.809 0 011.1 0 .779.779 0 01-.55 1.329z" fill="#1d1d1b"/><path d="M15.565 31.163a.779.779 0 01-.551-1.329.809.809 0 011.1 0 .779.779 0 01-.55 1.329z" fill="#1d1d1b"/><path d="M13.17 30.115a.779.779 0 01-.551-1.329.778.778 0 011.329.551.79.79 0 01-.227.55.778.778 0 01-.551.228z" fill="#1d1d1b"/><path d="M17.66 29.367a.8.8 0 01-.551-.228.781.781 0 010-1.1.811.811 0 011.1 0 .781.781 0 010 1.1.777.777 0 01-.549.228z" fill="#1d1d1b"/><path d="M18.858 27.421a.779.779 0 01-.551-1.329.81.81 0 011.1 0 .772.772 0 01.228.551.778.778 0 01-.778.778z" fill="#1d1d1b"/><path d="M18.109 25.026a.779.779 0 01-.551-1.329.811.811 0 011.1 0 .779.779 0 01-.551 1.329z" fill="#1d1d1b"/><path d="M18.109 22.631a.805.805 0 01-.551-.227.782.782 0 010-1.1.811.811 0 011.1 0 .778.778 0 01-.551 1.329z" fill="#1d1d1b"/><path d="M16.163 21.583a.779.779 0 01-.55-1.329.812.812 0 011.1 0 .778.778 0 01-.551 1.329z" fill="#1d1d1b"/><path d="M14.068 21.583a.779.779 0 01-.551-1.329.813.813 0 011.1 0 .782.782 0 010 1.1.778.778 0 01-.549.229z" fill="#1d1d1b"/><path d="M17.96 19.488a.8.8 0 01-.551-.228.779.779 0 010-1.1.809.809 0 011.1 0 .8.8 0 01.228.551.778.778 0 01-.778.778z" fill="#1d1d1b"/><path d="M19.756 21.134a.8.8 0 01-.551-.227.789.789 0 01-.228-.551.8.8 0 01.228-.551.812.812 0 011.1 0 .778.778 0 01-.55 1.329z" fill="#1d1d1b"/><path d="M21.552 21.434a.8.8 0 01-.552-.228.781.781 0 010-1.1.811.811 0 011.1 0 .779.779 0 01-.551 1.329z" fill="#1d1d1b"/><path d="M20.055 23.828a.8.8 0 01-.555-.228.788.788 0 01-.227-.551.8.8 0 01.227-.55.811.811 0 011.1 0 .778.778 0 01-.551 1.328z" fill="#1d1d1b"/><path d="M20.654 26.074a.779.779 0 01-.551-1.329.809.809 0 011.1 0 .779.779 0 010 1.1.774.774 0 01-.549.229z" fill="#1d1d1b"/><path d="M18.858 27.421a.779.779 0 01-.551-1.329.81.81 0 011.1 0 .772.772 0 01.228.551.778.778 0 01-.778.778z" fill="#1d1d1b"/><path d="M20.8 28.319a.8.8 0 01-.55-.228.779.779 0 010-1.1.8.8 0 011.1 0 .774.774 0 01.228.551.8.8 0 01-.228.55.787.787 0 01-.55.227z" fill="#1d1d1b"/><path d="M22.6 30.863a.779.779 0 01-.55-1.329.805.805 0 011.1 0 .778.778 0 01-.551 1.329z" fill="#1d1d1b"/><path d="M19.606 30.265a.8.8 0 01-.551-.228.781.781 0 010-1.1.811.811 0 011.1 0 .786.786 0 01.227.55.8.8 0 01-.227.551.791.791 0 01-.549.227z" fill="#1d1d1b"/><path d="M23.049 28.468a.8.8 0 01-.551-.227.779.779 0 010-1.1.81.81 0 011.1 0 .779.779 0 010 1.1.775.775 0 01-.549.227z" fill="#1d1d1b"/><path d="M22.9 25.774a.779.779 0 01-.551-1.329.813.813 0 011.1 0 .782.782 0 010 1.1.778.778 0 01-.549.229z" fill="#1d1d1b"/><path d="M22.45 23.679a.8.8 0 01-.551-.228.781.781 0 010-1.1.811.811 0 011.1 0 .781.781 0 010 1.1.791.791 0 01-.549.228z" fill="#1d1d1b"/><path d="M19.756 21.134a.8.8 0 01-.551-.227.789.789 0 01-.228-.551.8.8 0 01.228-.551.812.812 0 011.1 0 .778.778 0 01-.55 1.329z" fill="#1d1d1b"/><path d="M21.552 21.434a.8.8 0 01-.552-.228.781.781 0 010-1.1.811.811 0 011.1 0 .779.779 0 01-.551 1.329z" fill="#1d1d1b"/><path d="M20.2 19.188a.8.8 0 01-.551-.227.779.779 0 010-1.1.81.81 0 011.1 0 .778.778 0 01-.55 1.328z" fill="#1d1d1b"/><path d="M19.905 16.794a.779.779 0 01-.55-1.329.809.809 0 011.1 0 .779.779 0 010 1.1.777.777 0 01-.55.229z" fill="#1d1d1b"/><path d="M22.15 16.943a.779.779 0 01-.55-1.329.812.812 0 011.1 0 .778.778 0 01-.551 1.329z" fill="#1d1d1b"/><path d="M22.6 19.638a.8.8 0 01-.55-.228.779.779 0 010-1.1.8.8 0 011.1 0 .779.779 0 01-.551 1.329z" fill="#1d1d1b"/><path d="M23.947 21.583a.779.779 0 01-.551-1.329.812.812 0 011.1 0 .778.778 0 01-.55 1.329z" fill="#1d1d1b"/><path d="M25.743 23.08a.779.779 0 01-.551-1.329.81.81 0 011.1 0 .778.778 0 01-.55 1.329z" fill="#1d1d1b"/><path d="M25.443 25.325a.779.779 0 01-.55-1.325.805.805 0 011.1 0 .778.778 0 01-.551 1.329z" fill="#1d1d1b"/><path d="M24.994 27.57a.779.779 0 01-.55-1.329.805.805 0 011.1 0 .778.778 0 01-.551 1.329z" fill="#1d1d1b"/><path d="M26.192 29.666a.8.8 0 01-.551-.228.781.781 0 010-1.1.8.8 0 011.1 0 .779.779 0 01-.551 1.329z" fill="#1d1d1b"/><path d="M27.988 27.87a.779.779 0 01-.551-1.329.811.811 0 011.1 0 .779.779 0 01-.551 1.329z" fill="#1d1d1b"/><path d="M27.988 30.564a.8.8 0 01-.551-.227.782.782 0 010-1.1.811.811 0 011.1 0 .778.778 0 01-.551 1.329z" fill="#1d1d1b"/><path d="M27.838 25.026a.779.779 0 01-.551-1.329.811.811 0 011.1 0 .779.779 0 01-.551 1.329z" fill="#1d1d1b"/><path d="M28.587 23.23a.8.8 0 01-.551-.23.779.779 0 010-1.1.809.809 0 011.1 0 .779.779 0 010 1.1.776.776 0 01-.549.23z" fill="#1d1d1b"/><path d="M26.641 20.835a.779.779 0 01-.551-1.329.811.811 0 011.1 0 .779.779 0 01-.551 1.329z" fill="#1d1d1b"/><path d="M25.593 19.338a.8.8 0 01-.551-.227.79.79 0 01-.227-.551.778.778 0 111.556 0 .775.775 0 01-.778.778z" fill="#1d1d1b"/><path d="M24.4 17.991a.8.8 0 01-.551-.227.78.78 0 010-1.1.8.8 0 011.1 0 .78.78 0 010 1.1.778.778 0 01-.549.227z" fill="#1d1d1b"/><path d="M26.341 16.794a.779.779 0 01-.55-1.329.809.809 0 011.1 0 .779.779 0 01-.551 1.329z" fill="#1d1d1b"/><path d="M25.743 14.4a.8.8 0 01-.551-.228.781.781 0 010-1.1.81.81 0 011.1 0 .779.779 0 01-.55 1.329z" fill="#1d1d1b"/><path d="M28.587 16.045a.8.8 0 01-.551-.227.78.78 0 010-1.1.812.812 0 011.1 0 .778.778 0 01-.55 1.329z" fill="#1d1d1b"/><path d="M27.838 18.59a.8.8 0 01-.551-.228.781.781 0 010-1.1.811.811 0 011.1 0 .779.779 0 01-.551 1.329z" fill="#1d1d1b"/><path d="M29.036 20.536a.8.8 0 01-.551-.228.779.779 0 010-1.1.81.81 0 011.1 0 .779.779 0 01-.55 1.329z" fill="#1d1d1b"/><path d="M30.981 22.032a.779.779 0 01-.55-1.329.812.812 0 011.1 0 .778.778 0 01-.551 1.329z" fill="#1d1d1b"/><path d="M30.832 24.427a.779.779 0 01-.551-1.329.812.812 0 011.1 0 .778.778 0 01-.55 1.329z" fill="#1d1d1b"/><path d="M30.233 26.822a.805.805 0 01-.551-.227.79.79 0 01-.227-.551.778.778 0 111.556 0 .775.775 0 01-.778.778z" fill="#1d1d1b"/><path d="M32.478 26.373a.779.779 0 01-.551-1.329.811.811 0 011.1 0 .778.778 0 01-.551 1.329z" fill="#1d1d1b"/><path d="M32.329 29.067a.779.779 0 01-.551-1.329.812.812 0 011.1 0 .778.778 0 01-.55 1.329z" fill="#1d1d1b"/><path d="M33.975 30.863a.8.8 0 01-.551-.227.782.782 0 010-1.1.807.807 0 011.1 0 .782.782 0 010 1.1.776.776 0 01-.549.227z" fill="#1d1d1b"/><path d="M34.424 28.019a.8.8 0 01-.551-.227.782.782 0 010-1.1.813.813 0 011.1 0 .778.778 0 01-.551 1.329z" fill="#1d1d1b"/><path d="M34.424 25.774a.779.779 0 01-.551-1.329.813.813 0 011.1 0 .782.782 0 010 1.1.776.776 0 01-.549.229z" fill="#1d1d1b"/><path d="M33.825 23.379a.777.777 0 01-.778-.778.787.787 0 01.228-.55.81.81 0 011.1 0 .778.778 0 01-.551 1.328z" fill="#1d1d1b"/><path d="M16.313 26.373a.805.805 0 01-.551-.227.782.782 0 010-1.1.8.8 0 011.1 0 .778.778 0 01-.551 1.329z" fill="#1d1d1b"/><path d="M42.058 19.937a.779.779 0 01-.551-1.329.8.8 0 011.1 0 .779.779 0 01-.55 1.329z" fill="#1d1d1b"/><path d="M42.656 17.392a.8.8 0 01-.551-.227.782.782 0 010-1.1.813.813 0 011.1 0 .778.778 0 01-.551 1.329z" fill="#1d1d1b"/><path d="M40.71 16.345a.8.8 0 01-.55-.228.789.789 0 01-.228-.551.779.779 0 011.329-.55.779.779 0 01-.551 1.329z" fill="#1d1d1b"/><path d="M40.86 21.883a.779.779 0 01-.551-1.329.811.811 0 011.1 0 .781.781 0 010 1.1.777.777 0 01-.549.229z" fill="#1d1d1b"/><path d="M40.71 24.128a.8.8 0 01-.55-.228.779.779 0 010-1.1.8.8 0 011.1 0 .779.779 0 01-.551 1.329z" fill="#1d1d1b"/><path d="M42.806 23.379a.779.779 0 01-.551-1.328.811.811 0 011.1 0 .778.778 0 01-.551 1.328z" fill="#1d1d1b"/><path d="M42.357 25.774a.8.8 0 01-.551-.227.788.788 0 01-.227-.547.8.8 0 01.227-.551.813.813 0 011.1 0 .778.778 0 01-.551 1.329z" fill="#1d1d1b"/><path d="M41.908 30.265a.8.8 0 01-.551-.228.781.781 0 010-1.1.8.8 0 011.1 0 .779.779 0 01-.551 1.329z" fill="#1d1d1b"/><path d="M41.309 28.169a.775.775 0 01-.778-.778.792.792 0 01.227-.551.811.811 0 011.1 0 .778.778 0 01-.551 1.329z" fill="#1d1d1b"/><path d="M39.812 18.59a.779.779 0 01-.55-1.329.81.81 0 011.1 0 .779.779 0 01-.551 1.329z" fill="#1d1d1b"/><path d="M37.717 18.739a.8.8 0 01-.551-.227.781.781 0 010-1.1.811.811 0 011.1 0 .781.781 0 010 1.1.778.778 0 01-.549.227z" fill="#1d1d1b"/><path d="M38.316 15.9a.8.8 0 01-.551-.228.779.779 0 010-1.1.81.81 0 011.1 0 .779.779 0 01-.55 1.329z" fill="#1d1d1b"/><path d="M36.22 16.794a.8.8 0 01-.551-.228.781.781 0 010-1.1.811.811 0 011.1 0 .781.781 0 010 1.1.777.777 0 01-.549.228z" fill="#1d1d1b"/><path d="M33.975 16.2a.805.805 0 01-.551-.227.782.782 0 010-1.1.811.811 0 011.1 0 .788.788 0 01.227.551.779.779 0 01-.227.551.792.792 0 01-.549.225z" fill="#1d1d1b"/><path d="M31.879 17.243a.8.8 0 01-.55-.228.779.779 0 010-1.1.8.8 0 011.1 0 .779.779 0 010 1.1.777.777 0 01-.55.228z" fill="#1d1d1b"/><path d="M30.083 17.841a.779.779 0 01-.55-1.329.812.812 0 011.1 0 .778.778 0 01-.551 1.329z" fill="#1d1d1b"/><path d="M31.43 20.087a.8.8 0 01-.55-.228.779.779 0 010-1.1.81.81 0 011.1 0 .779.779 0 01-.551 1.329z" fill="#1d1d1b"/><path d="M33.975 18.59a.8.8 0 01-.551-.228.781.781 0 010-1.1.811.811 0 011.1 0 .788.788 0 01.227.551.775.775 0 01-.227.55.789.789 0 01-.549.227z" fill="#1d1d1b"/><path d="M35.771 20.386a.777.777 0 01-.778-.778.8.8 0 01.227-.551.811.811 0 011.1 0 .779.779 0 01-.551 1.329z" fill="#1d1d1b"/><path d="M33.526 21.284a.779.779 0 01-.551-1.329.8.8 0 011.1 0 .778.778 0 01-.551 1.329z" fill="#1d1d1b"/><path d="M35.921 22.93a.8.8 0 01-.551-.227.782.782 0 010-1.1.813.813 0 011.1 0 .778.778 0 01-.551 1.329z" fill="#1d1d1b"/><path d="M38.615 20.835a.777.777 0 01-.545-.228.767.767 0 01-.233-.55.788.788 0 01.227-.551.8.8 0 011.1 0 .779.779 0 01-.551 1.329z" fill="#1d1d1b"/><path d="M38.465 22.781a.8.8 0 01-.55-.228.779.779 0 010-1.1.809.809 0 011.1 0 .779.779 0 01-.551 1.329z" fill="#1d1d1b"/><path d="M36.819 25.325a.8.8 0 01-.551-.227.782.782 0 010-1.1.813.813 0 011.1 0 .782.782 0 010 1.1.778.778 0 01-.549.227z" fill="#1d1d1b"/><path d="M37.567 27.72a.775.775 0 01-.778-.778.792.792 0 01.227-.551.811.811 0 011.1 0 .782.782 0 010 1.1.776.776 0 01-.549.229z" fill="#1d1d1b"/><path d="M34.424 28.019a.8.8 0 01-.551-.227.782.782 0 010-1.1.813.813 0 011.1 0 .778.778 0 01-.551 1.329z" fill="#1d1d1b"/><path d="M36.07 29.367a.788.788 0 01-.55-.228.8.8 0 01-.228-.551.787.787 0 01.228-.55.81.81 0 011.1 0 .787.787 0 01.228.55.764.764 0 01-.228.551.787.787 0 01-.55.228z" fill="#1d1d1b"/><path d="M39.363 29.516a.779.779 0 01-.55-1.329.805.805 0 011.1 0 .78.78 0 010 1.1.776.776 0 01-.55.229z" fill="#1d1d1b"/><path d="M39.214 26.074a.8.8 0 01-.551-.228.779.779 0 010-1.1.809.809 0 011.1 0 .779.779 0 01-.55 1.329z" fill="#1d1d1b"/><path d="M29.934 29.367a.8.8 0 01-.551-.228.789.789 0 01-.228-.551.8.8 0 01.228-.55.809.809 0 011.1 0 .779.779 0 010 1.1.787.787 0 01-.549.229z" fill="#1d1d1b"/><path d="M36.969 31.612a.8.8 0 01-.551-.228.789.789 0 01-.228-.551.8.8 0 01.228-.55.809.809 0 011.1 0 .779.779 0 01-.55 1.329z" fill="#1d1d1b"/><path d="M4.04 35.2a.8.8 0 01-.551-.227.78.78 0 010-1.1.81.81 0 011.1 0 .8.8 0 01.228.551.777.777 0 01-.778.778z" fill="#1d1d1b"/><path d="M4.638 32.51a.8.8 0 01-.551-.228.781.781 0 010-1.1.811.811 0 011.1 0 .779.779 0 01-.551 1.329z" fill="#1d1d1b"/><path d="M6.584 31.761a.8.8 0 01-.551-.227.782.782 0 010-1.1.813.813 0 011.1 0 .778.778 0 01-.551 1.329z" fill="#1d1d1b"/><path d="M5.985 34.156a.779.779 0 01-.55-1.329.812.812 0 011.1 0 .778.778 0 01-.551 1.329z" fill="#1d1d1b"/><path d="M8.081 35.354a.8.8 0 01-.551-.228.781.781 0 010-1.1.811.811 0 011.1 0 .779.779 0 01-.551 1.329z" fill="#1d1d1b"/><path d="M8.081 37.748a.8.8 0 01-.551-.227.781.781 0 010-1.1.811.811 0 011.1 0 .778.778 0 01-.551 1.328z" fill="#1d1d1b"/><path d="M5.686 36.7a.8.8 0 01-.551-.228.781.781 0 010-1.1.811.811 0 011.1 0 .781.781 0 010 1.1.789.789 0 01-.549.228z" fill="#1d1d1b"/><path d="M10.176 35.952a.779.779 0 01-.55-1.329.812.812 0 011.1 0 .782.782 0 010 1.1.776.776 0 01-.55.229z" fill="#1d1d1b"/><path d="M10.326 37.748a.779.779 0 01-.551-1.328.811.811 0 011.1 0 .8.8 0 01.227.55.788.788 0 01-.227.551.776.776 0 01-.549.227z" fill="#1d1d1b"/><path d="M11.374 34.007a.8.8 0 01-.551-.228.781.781 0 010-1.1.8.8 0 011.1 0 .779.779 0 01-.55 1.329z" fill="#1d1d1b"/><path d="M13.17 32.659a.8.8 0 01-.551-.227.782.782 0 010-1.1.813.813 0 011.1 0 .778.778 0 01-.551 1.329z" fill="#1d1d1b"/><path d="M11.374 34.007a.8.8 0 01-.551-.228.781.781 0 010-1.1.8.8 0 011.1 0 .779.779 0 01-.55 1.329z" fill="#1d1d1b"/><path d="M13.32 34.905a.8.8 0 01-.551-.228.779.779 0 010-1.1.809.809 0 011.1 0 .779.779 0 01-.55 1.329z" fill="#1d1d1b"/><path d="M15.116 37.449a.8.8 0 01-.551-.227.78.78 0 010-1.1.81.81 0 011.1 0 .774.774 0 01.228.551.777.777 0 01-.778.778z" fill="#1d1d1b"/><path d="M12.122 36.85a.8.8 0 01-.551-.227.782.782 0 010-1.1.813.813 0 011.1 0 .782.782 0 010 1.1.776.776 0 01-.549.227z" fill="#1d1d1b"/><path d="M15.565 35.653a.779.779 0 01-.551-1.329.809.809 0 011.1 0 .78.78 0 010 1.1.778.778 0 01-.549.229z" fill="#1d1d1b"/><path d="M15.415 32.959a.8.8 0 01-.551-.228.781.781 0 010-1.1.811.811 0 011.1 0 .779.779 0 01-.551 1.329z" fill="#1d1d1b"/><path d="M17.96 31.911a.8.8 0 01-.551-.227.78.78 0 010-1.1.81.81 0 011.1 0 .78.78 0 010 1.1.779.779 0 01-.549.227z" fill="#1d1d1b"/><path d="M17.51 33.707a.779.779 0 01-.55-1.329.812.812 0 011.1 0 .78.78 0 010 1.1.776.776 0 01-.55.229z" fill="#1d1d1b"/><path d="M18.259 35.952a.775.775 0 01-.778-.778.778.778 0 111.556 0 .775.775 0 01-.778.778z" fill="#1d1d1b"/><path d="M20.5 34.456a.8.8 0 01-.551-.228.781.781 0 010-1.1.8.8 0 011.1 0 .779.779 0 01-.551 1.329z" fill="#1d1d1b"/><path d="M20.354 37.748a.778.778 0 01-.55-1.328.809.809 0 011.1 0 .778.778 0 01-.551 1.328z" fill="#1d1d1b"/><path d="M20.654 32.36a.8.8 0 01-.551-.227.78.78 0 010-1.1.809.809 0 011.1 0 .778.778 0 01-.55 1.329z" fill="#1d1d1b"/><path d="M22.749 33.408a.8.8 0 01-.551-.228.781.781 0 010-1.1.8.8 0 011.1 0 .779.779 0 01-.551 1.329z" fill="#1d1d1b"/><path d="M8.829 32.959a.777.777 0 01-.778-.778.778.778 0 111.556 0 .777.777 0 01-.778.778z" fill="#1d1d1b"/><path d="M22.15 35.8a.8.8 0 01-.55-.228.779.779 0 010-1.1.8.8 0 011.1 0 .763.763 0 01.228.55.778.778 0 01-.779.779z" fill="#1d1d1b"/><path d="M2.094 39.1a.779.779 0 01-.551-1.329.809.809 0 011.1 0 .779.779 0 01-.55 1.329z" fill="#1d1d1b"/><path d="M1.5 41.49a.779.779 0 01-.551-1.329.813.813 0 011.1 0 .79.79 0 01.227.551.767.767 0 01-.227.551.788.788 0 01-.549.227z" fill="#1d1d1b"/><path d="M6.883 41.341a.8.8 0 01-.55-.228.788.788 0 01-.228-.55.8.8 0 01.228-.551.81.81 0 011.1 0 .8.8 0 01.228.551.778.778 0 01-.779.778z" fill="#1d1d1b"/><path d="M6.135 38.946a.8.8 0 01-.551-.228.781.781 0 010-1.1.811.811 0 011.1 0 .779.779 0 01-.551 1.329z" fill="#1d1d1b"/><path d="M8.68 39.994a.779.779 0 01-.551-1.329.809.809 0 011.1 0 .8.8 0 01.228.55.789.789 0 01-.228.551.776.776 0 01-.549.228z" fill="#1d1d1b"/><path d="M6.883 41.341a.8.8 0 01-.55-.228.788.788 0 01-.228-.55.8.8 0 01.228-.551.81.81 0 011.1 0 .8.8 0 01.228.551.778.778 0 01-.779.778z" fill="#1d1d1b"/><path d="M10.925 39.694a.8.8 0 01-.551-.227.789.789 0 01-.228-.551.779.779 0 011.329-.551.778.778 0 01-.55 1.329z" fill="#1d1d1b"/><path d="M13.469 39.245a.779.779 0 11.778-.778.775.775 0 01-.778.778z" fill="#1d1d1b"/><path d="M13.02 41.041a.8.8 0 01-.551-.227.782.782 0 010-1.1.778.778 0 011.329.551.788.788 0 01-.227.551.776.776 0 01-.551.225z" fill="#1d1d1b"/><path d="M16.014 41.79a.8.8 0 01-.551-.228.781.781 0 010-1.1.809.809 0 011.1 0 .779.779 0 01-.55 1.329z" fill="#1d1d1b"/><path d="M16.163 39.694a.779.779 0 01-.55-1.329.805.805 0 011.1 0 .778.778 0 01-.551 1.329z" fill="#1d1d1b"/><path d="M18.558 41.191a.805.805 0 01-.551-.227.782.782 0 010-1.1.806.806 0 011.1 0 .778.778 0 01-.551 1.329z" fill="#1d1d1b"/><path d="M20.5 40.293a.805.805 0 01-.551-.227.782.782 0 010-1.1.8.8 0 011.1 0 .778.778 0 01-.551 1.329z" fill="#1d1d1b"/><path d="M4.339 40.293a.8.8 0 01-.551-.227.782.782 0 010-1.1.8.8 0 011.1 0 .778.778 0 01-.551 1.329z" fill="#1d1d1b"/><path d="M24.845 31.312a.8.8 0 01-.551-.227.78.78 0 010-1.1.812.812 0 011.1 0 .778.778 0 01-.55 1.329z" fill="#1d1d1b"/><path d="M26.341 35.054a.779.779 0 01-.55-1.329.812.812 0 011.1 0 .778.778 0 01-.551 1.329z" fill="#1d1d1b"/><path d="M26.641 32.659a.779.779 0 01-.551-1.329.813.813 0 011.1 0 .778.778 0 01-.551 1.329z" fill="#1d1d1b"/><path d="M29.485 32.061a.778.778 0 01-.779-.778.8.8 0 01.228-.551.809.809 0 011.1 0 .779.779 0 010 1.1.774.774 0 01-.549.229z" fill="#1d1d1b"/><path d="M29.934 34.905a.779.779 0 01-.551-1.329.809.809 0 011.1 0 .779.779 0 01-.55 1.329z" fill="#1d1d1b"/><path d="M28.138 36.551a.8.8 0 01-.551-.227.78.78 0 010-1.1.809.809 0 011.1 0 .778.778 0 01-.55 1.329z" fill="#1d1d1b"/><path d="M26.192 37.6a.8.8 0 01-.551-.228.781.781 0 010-1.1.8.8 0 011.1 0 .779.779 0 01-.551 1.329z" fill="#1d1d1b"/><path d="M26.341 35.054a.779.779 0 01-.55-1.329.812.812 0 011.1 0 .778.778 0 01-.551 1.329z" fill="#1d1d1b"/><path d="M24.994 39.545a.8.8 0 01-.55-.228.779.779 0 010-1.1.81.81 0 011.1 0 .779.779 0 01-.551 1.329z" fill="#1d1d1b"/><path d="M27.838 39.4a.8.8 0 01-.551-.228.781.781 0 010-1.1.811.811 0 011.1 0 .779.779 0 01-.551 1.329z" fill="#1d1d1b"/><path d="M29.934 40.143a.8.8 0 01-.551-.227.78.78 0 010-1.1.779.779 0 011.1 1.1.786.786 0 01-.549.227z" fill="#1d1d1b"/><path d="M30.083 37.449a.779.779 0 01-.55-1.329.809.809 0 011.1 0 .778.778 0 01-.551 1.329z" fill="#1d1d1b"/><path d="M1.944 36.551a.779.779 0 01-.551-1.329.806.806 0 011.1 0 .8.8 0 01.227.551.775.775 0 01-.778.778z" fill="#1d1d1b"/><path d="M2.243 33.707a.779.779 0 01-.55-1.329.812.812 0 011.1 0 .778.778 0 01-.551 1.329z" fill="#1d1d1b"/><path d="M41.908 41.341a.8.8 0 01-.551-.228.781.781 0 010-1.1.811.811 0 011.1 0 .779.779 0 01-.551 1.329z" fill="#1d1d1b"/><path d="M39.962 40.443a.779.779 0 01-.551-1.329.8.8 0 011.1 0 .781.781 0 010 1.1.777.777 0 01-.549.229z" fill="#1d1d1b"/><path d="M43.554 39.844a.8.8 0 01-.55-.227.78.78 0 010-1.1.81.81 0 011.1 0 .778.778 0 01-.551 1.329z" fill="#1d1d1b"/><path d="M41.608 32.21a.779.779 0 01-.55-1.329.812.812 0 011.1 0 .778.778 0 01-.551 1.329z" fill="#1d1d1b"/><path d="M41.459 35.354a.779.779 0 01-.551-1.329.811.811 0 011.1 0 .779.779 0 01-.551 1.329z" fill="#1d1d1b"/><path d="M41.608 32.21a.779.779 0 01-.55-1.329.812.812 0 011.1 0 .778.778 0 01-.551 1.329z" fill="#1d1d1b"/><path d="M42.507 37.6a.779.779 0 01-.551-1.329.809.809 0 011.1 0 .779.779 0 01-.55 1.329z" fill="#1d1d1b"/><path d="M23.5 37.9a.779.779 0 01-.551-1.329.805.805 0 011.1 0 .78.78 0 010 1.1.775.775 0 01-.549.229z" fill="#1d1d1b"/><path d="M22.6 39.694a.779.779 0 01-.55-1.329.805.805 0 011.1 0 .78.78 0 010 1.1.776.776 0 01-.55.229z" fill="#1d1d1b"/><path d="M31.73 36.252a.8.8 0 01-.551-.228.788.788 0 01-.227-.551.8.8 0 01.227-.55.811.811 0 011.1 0 .8.8 0 01.227.55.792.792 0 01-.227.551.778.778 0 01-.549.228z" fill="#1d1d1b"/><path d="M33.526 36.551a.779.779 0 01-.551-1.329.811.811 0 011.1 0 .778.778 0 01-.551 1.329z" fill="#1d1d1b"/><path d="M32.029 38.946a.8.8 0 01-.551-.228.781.781 0 010-1.1.811.811 0 011.1 0 .779.779 0 01-.551 1.329z" fill="#1d1d1b"/><path d="M34.424 38.8a.8.8 0 01-.551-.227.782.782 0 010-1.1.813.813 0 011.1 0 .778.778 0 01-.551 1.329z" fill="#1d1d1b"/><path d="M31.73 36.252a.8.8 0 01-.551-.228.788.788 0 01-.227-.551.8.8 0 01.227-.55.811.811 0 011.1 0 .8.8 0 01.227.55.792.792 0 01-.227.551.778.778 0 01-.549.228z" fill="#1d1d1b"/><path d="M33.526 36.551a.779.779 0 01-.551-1.329.811.811 0 011.1 0 .778.778 0 01-.551 1.329z" fill="#1d1d1b"/><path d="M32.179 33.857a.779.779 0 01-.551-1.329.811.811 0 011.1 0 .781.781 0 010 1.1.778.778 0 01-.549.229z" fill="#1d1d1b"/><path d="M34.574 34.755a.8.8 0 01-.551-.228.779.779 0 010-1.1.81.81 0 011.1 0 .779.779 0 01-.55 1.329z" fill="#1d1d1b"/><path d="M35.921 36.7a.8.8 0 01-.551-.228.781.781 0 010-1.1.811.811 0 011.1 0 .779.779 0 01-.551 1.329z" fill="#1d1d1b"/><path d="M37.118 38.048a.777.777 0 01-.778-.778.778.778 0 011.329-.551.781.781 0 010 1.1.777.777 0 01-.551.229z" fill="#1d1d1b"/><path d="M37.418 40.443a.8.8 0 01-.551-.228.779.779 0 010-1.1.81.81 0 011.1 0 .779.779 0 01-.55 1.329z" fill="#1d1d1b"/><path d="M38.615 35.952a.779.779 0 01-.551-1.329.807.807 0 011.1 0 .782.782 0 010 1.1.778.778 0 01-.549.229z" fill="#1d1d1b"/><path d="M37.567 34.456a.777.777 0 01-.778-.779.79.79 0 01.227-.55.811.811 0 011.1 0 .779.779 0 01-.551 1.329z" fill="#1d1d1b"/><path d="M35.023 32.659a.8.8 0 01-.551-.227.782.782 0 010-1.1.812.812 0 011.1 0 .778.778 0 01-.55 1.329z" fill="#1d1d1b"/><path d="M39.812 33.707a.779.779 0 01-.55-1.329.812.812 0 011.1 0 .778.778 0 01-.551 1.329z" fill="#1d1d1b"/><path d="M39.962 38.048a.779.779 0 01-.551-1.329.8.8 0 011.1 0 .781.781 0 010 1.1.777.777 0 01-.549.229z" fill="#1d1d1b"/><path d="M32.029 31.761a.8.8 0 01-.551-.227.782.782 0 010-1.1.813.813 0 011.1 0 .778.778 0 01-.551 1.329z" fill="#1d1d1b"/><path d="M34.873 40.892a.779.779 0 01-.551-1.329.811.811 0 011.1 0 .781.781 0 010 1.1.777.777 0 01-.549.229z" fill="#1d1d1b"/><path d="M38.465 42.089a.8.8 0 01-.55-.227.78.78 0 010-1.1.81.81 0 011.1 0 .778.778 0 01-.551 1.329z" fill="#1d1d1b"/><path d="M39.064 31.612a.779.779 0 01-.551-1.329.811.811 0 011.1 0 .779.779 0 01-.551 1.329z" fill="#1d1d1b"/><path d="M5.686 15.746a.8.8 0 01-.551-.228.781.781 0 010-1.1.811.811 0 011.1 0 .767.767 0 01.227.551.775.775 0 01-.227.55.789.789 0 01-.549.227z" fill="#1d1d1b"/><path d="M3.441 37.6a.8.8 0 01-.551-.228.781.781 0 010-1.1.778.778 0 011.329.551.8.8 0 01-.227.55.791.791 0 01-.551.227z" fill="#1d1d1b"/><path d="M18.109 38.2a.8.8 0 01-.551-.227.781.781 0 010-1.1.811.811 0 011.1 0 .778.778 0 01-.551 1.328z" fill="#1d1d1b"/><path d="M24.246 34.905a.8.8 0 01-.551-.228.781.781 0 010-1.1.811.811 0 011.1 0 .779.779 0 01-.551 1.329z" fill="#1d1d1b"/><path d="M28.287 34.007a.779.779 0 01-.551-1.329.8.8 0 011.1 0 .779.779 0 01-.551 1.329z" fill="#1d1d1b"/><path d="M24.545 43.586a.8.8 0 01-.55-.228.779.779 0 010-1.1.81.81 0 011.1 0 .779.779 0 01-.551 1.329z" fill="#1d1d1b"/><path d="M6.883 44.334a.779.779 0 01-.55-1.329.812.812 0 011.1 0 .778.778 0 01-.551 1.329z" fill="#1d1d1b"/><path d="M12.721 44.185a.8.8 0 01-.551-.228.788.788 0 01-.227-.551.8.8 0 01.227-.55.811.811 0 011.1 0 .779.779 0 01-.551 1.329z" fill="#1d1d1b"/><path d="M10.176 44.634a.779.779 0 01-.55-1.329.809.809 0 011.1 0 .781.781 0 010 1.1.777.777 0 01-.55.229z" fill="#1d1d1b"/><path d="M16.612 44.634a.779.779 0 01-.55-1.329.809.809 0 011.1 0 .779.779 0 010 1.1.777.777 0 01-.55.229z" fill="#1d1d1b"/><path d="M32.927 44.035a.779.779 0 01-.551-1.329.811.811 0 011.1 0 .779.779 0 01-.551 1.329z" fill="#1d1d1b"/><path d="M4.638 44.334a.8.8 0 01-.551-.227.782.782 0 010-1.1.813.813 0 011.1 0 .79.79 0 01.227.551.8.8 0 01-.227.551.786.786 0 01-.549.225z" fill="#1d1d1b"/><path d="M32.927 44.035a.779.779 0 01-.551-1.329.811.811 0 011.1 0 .779.779 0 01-.551 1.329z" fill="#1d1d1b"/><path d="M43.405 6.167a.778.778 0 01-.779-.779.779.779 0 011.329-.55.787.787 0 01.228.55.778.778 0 01-.228.551.787.787 0 01-.55.228z" fill="#1d1d1b"/><path d="M43.554 8.112A.779.779 0 0143 6.783a.805.805 0 011.1 0 .778.778 0 01-.551 1.329z" fill="#1d1d1b"/><path d="M43.7 12.453a.779.779 0 01-.551-1.329.811.811 0 011.1 0 .778.778 0 01-.551 1.329z" fill="#1d1d1b"/><path d="M43.255 14.4a.779.779 0 01-.555-1.33.811.811 0 011.1 0 .779.779 0 01-.551 1.329z" fill="#1d1d1b"/><path d="M43.554 43.137a.8.8 0 01-.55-.228.779.779 0 010-1.1.8.8 0 011.1 0 .779.779 0 01-.551 1.329z" fill="#1d1d1b"/><path d="M43.854 27.87a.8.8 0 01-.551-.228.779.779 0 010-1.1.8.8 0 011.1 0 .779.779 0 01-.55 1.329z" fill="#1d1d1b"/><path d="M43.255 34.306a.779.779 0 01-.551-1.329.811.811 0 011.1 0 .779.779 0 01-.551 1.329z" fill="#1d1d1b"/><path d="M43.854 31.911a.779.779 0 01-.551-1.329.809.809 0 011.1 0 .778.778 0 01-.55 1.329z" fill="#1d1d1b"/><path d="M27.689 42.987a.779.779 0 01-.551-1.329.812.812 0 011.1 0 .8.8 0 01.228.551.777.777 0 01-.778.778z" fill="#1d1d1b"/><path d="M24.246 41.49a.8.8 0 01-.551-.227.782.782 0 010-1.1.813.813 0 011.1 0 .778.778 0 01-.551 1.329z" fill="#1d1d1b"/><path d="M-.75 1.976a.8.8 0 01-.55-.228.8.8 0 01-.228-.548A.786.786 0 01-1.3.647a.811.811 0 011.1 0 .79.79 0 01.227.55.792.792 0 01-.227.551.791.791 0 01-.55.228z" fill="#1d1d1b"/><path d="M-.3 10.807a.8.8 0 01-.551-.228.788.788 0 01-.227-.551.786.786 0 01.227-.55.811.811 0 011.1 0 .79.79 0 01.227.55.792.792 0 01-.227.551.791.791 0 01-.549.228z" fill="#1d1d1b"/><path d="M-.451 17.392A.8.8 0 01-1 17.165a.792.792 0 01-.227-.551.794.794 0 01.227-.551.813.813 0 011.1 0 .79.79 0 01.227.551.788.788 0 01-.227.551.786.786 0 01-.551.227z" fill="#1d1d1b"/><path d="M-.3 23.379a.788.788 0 01-.551-.227.788.788 0 01-.227-.551.786.786 0 01.227-.55.811.811 0 011.1 0 .79.79 0 01.227.55.792.792 0 01-.227.551.79.79 0 01-.549.227z" fill="#1d1d1b"/><path d="M-.75 25.774a.8.8 0 01-.551-.227.788.788 0 01-.227-.547.8.8 0 01.227-.551.813.813 0 011.1 0A.794.794 0 01.028 25a.792.792 0 01-.227.551.79.79 0 01-.551.223z" fill="#1d1d1b"/><path d="M.447 39.844a.8.8 0 01-.55-.227.78.78 0 010-1.1.81.81 0 011.1 0 .782.782 0 010 1.1.791.791 0 01-.55.227z" fill="#1d1d1b"/><path d="M-.6 37.6a.789.789 0 01-.551-.228.787.787 0 01-.228-.55.789.789 0 01.228-.551.809.809 0 011.1 0 .789.789 0 01.228.551.787.787 0 01-.228.55.787.787 0 01-.549.228z" fill="#1d1d1b"/><path d="M.3 6.167a.789.789 0 01-.551-.228.789.789 0 01-.228-.551.8.8 0 01.228-.55.8.8 0 011.1 0 .787.787 0 01.228.55.778.778 0 01-.228.551.787.787 0 01-.549.228z" fill="#1d1d1b"/><path d="M.447 8.112a.777.777 0 01-.778-.778.791.791 0 01.231-.551.805.805 0 011.1 0 .782.782 0 010 1.1.786.786 0 01-.553.229z" fill="#1d1d1b"/><path d="M.6 12.453a.792.792 0 01-.551-.227.782.782 0 010-1.1.811.811 0 011.1 0A.778.778 0 01.6 12.453z" fill="#1d1d1b"/><path d="M.148 14.4a.789.789 0 01-.548-.229.786.786 0 01-.227-.55.788.788 0 01.227-.551.811.811 0 011.1 0 .788.788 0 01.227.551.786.786 0 01-.227.55.791.791 0 01-.552.229z" fill="#1d1d1b"/><path d="M.447 43.137a.8.8 0 01-.55-.228.779.779 0 010-1.1.8.8 0 011.1 0 .781.781 0 010 1.1.787.787 0 01-.55.228z" fill="#1d1d1b"/><path d="M.747 27.87a.8.8 0 01-.547-.228.779.779 0 010-1.1.8.8 0 011.1 0 .779.779 0 01-.55 1.329z" fill="#1d1d1b"/><path d="M.148 34.306a.789.789 0 01-.548-.228.786.786 0 01-.227-.55.788.788 0 01.227-.551.811.811 0 011.1 0 .788.788 0 01.227.551.786.786 0 01-.227.55.791.791 0 01-.552.228z" fill="#1d1d1b"/><path d="M.747 31.911a.792.792 0 01-.547-.227.78.78 0 010-1.1.809.809 0 011.1 0 .778.778 0 01-.55 1.329z" fill="#1d1d1b"/><path d="M40.561.329A.788.788 0 0140.01.1a.79.79 0 01-.227-.551A.79.79 0 0140.01-1a.813.813 0 011.1 0 .794.794 0 01.227.551.794.794 0 01-.225.549.778.778 0 01-.551.229z" fill="#1d1d1b"/><path d="M32.927.928A.791.791 0 0132.376.7a.79.79 0 01-.227-.55.792.792 0 01.227-.55.811.811 0 011.1 0 .788.788 0 01.227.551.786.786 0 01-.227.55.787.787 0 01-.549.227z" fill="#1d1d1b"/><path d="M24.545.479A.8.8 0 0124 .251a.787.787 0 01-.228-.55A.789.789 0 0124-.85a.81.81 0 011.1 0 .789.789 0 01.228.551.787.787 0 01-.228.55.787.787 0 01-.555.228z" fill="#1d1d1b"/><path d="M6.883 1.227A.8.8 0 016.333 1a.791.791 0 01-.228-.551.791.791 0 01.228-.549.812.812 0 011.1 0 .791.791 0 01.228.551.777.777 0 01-.779.778z" fill="#1d1d1b"/><path d="M12.721 1.078A.8.8 0 0112.17.85a.788.788 0 01-.227-.55.8.8 0 01.227-.55.811.811 0 011.1 0 .79.79 0 01.23.55.792.792 0 01-.227.551.791.791 0 01-.552.227z" fill="#1d1d1b"/><path d="M10.176 1.527A.778.778 0 019.4.748.787.787 0 019.626.2a.809.809 0 011.1 0 .781.781 0 010 1.1.777.777 0 01-.55.227z" fill="#1d1d1b"/><path d="M16.612 1.527a.778.778 0 01-.778-.779.787.787 0 01.228-.548.809.809 0 011.1 0 .787.787 0 01.228.55.789.789 0 01-.228.551.777.777 0 01-.55.226z" fill="#1d1d1b"/><path d="M32.927.928A.791.791 0 0132.376.7a.79.79 0 01-.227-.55.792.792 0 01.227-.55.811.811 0 011.1 0 .788.788 0 01.227.551.786.786 0 01-.227.55.787.787 0 01-.549.227z" fill="#1d1d1b"/><path d="M4.638 1.227A.8.8 0 014.087 1 .794.794 0 013.86.449.794.794 0 014.087-.1a.813.813 0 011.1 0 .79.79 0 01.227.551.8.8 0 01-.225.549.786.786 0 01-.551.227z" fill="#1d1d1b"/><path d="M32.927.928A.791.791 0 0132.376.7a.79.79 0 01-.227-.55.792.792 0 01.227-.55.811.811 0 011.1 0 .788.788 0 01.227.551.786.786 0 01-.227.55.787.787 0 01-.549.227z" fill="#1d1d1b"/><path d="M43.554.03A.8.8 0 0143-.2a.787.787 0 01-.228-.55A.789.789 0 0143-1.3a.8.8 0 011.1 0 .789.789 0 01.228.551.787.787 0 01-.228.55.787.787 0 01-.546.229z" fill="#1d1d1b"/><path d="M.447.03A.8.8 0 01-.1-.2a.787.787 0 01-.228-.55A.789.789 0 01-.1-1.3a.8.8 0 011.1 0 .788.788 0 01.227.551A.786.786 0 011-.2a.787.787 0 01-.553.23z" fill="#1d1d1b"/></pattern></defs><g data-name="Layer 1"><path style="mix-blend-mode:hard-light" fill="#eb002d" d="M31.593 31.193l61.726 52.594 263.659 224.651-216.027-.005-88.605-224.63-20.753-52.61z"/><path d="M107.708 98.916c-11.092-17.685-32.092-8.568-52.677-8.381-16.065.147-25.363-1.122-29.549 11.8-.02.062-.043.123-.063.185L15.7 129.259c-.566 1.534.988 3.5 2.792 3.54l3.851.077a3.564 3.564 0 013.214 2.635l.34 1.42c.244 1.017 2.545 18.109 2.7 18.757a4.3 4.3 0 003.954 3.19h22.435a5.163 5.163 0 012.483.663c3.475 1.922 7.33 25.286 7.33 25.286l38.02.737s-6.715-25.539-8.542-35.622a21.377 21.377 0 004.436-.43 7.924 7.924 0 005.679-4.151c.038-.077.072-.149.1-.214 1.993-4.45 4.817-14.332 6.767-23.86 1.729-8.439-.106-16.879-3.551-22.371z" fill="#ffac00"/><path d="M85.755 90.31S80.5 106.6 50.638 106.6 9.382 84.541 9.382 84.541H89.8a7.785 7.785 0 017.152 5.769h-11.2z"/><path d="M176.9 233.9c1.244 5.385 2.713 10.88 4.152 17.1.709 3.124 1.416 6.421 1.938 10.234l.187 1.444.15 1.537c.11.985.151 2.157.2 3.255.032.531.017 1.178.014 1.776-.01.616-.009 1.2-.044 1.841a38.253 38.253 0 01-.439 4.108 30.938 30.938 0 01-3.043 9.412 37.743 37.743 0 01-1.375 2.409q-.79 1.166-1.653 2.286a22.748 22.748 0 01-1.837 2.079 21.417 21.417 0 01-1.964 1.857q-1 .834-2.042 1.617c-.677.482-1.339.886-2.023 1.312a32.64 32.64 0 01-3.964 2.058c-1.287.568-2.456.954-3.7 1.4a96.056 96.056 0 01-3.418.935 64.186 64.186 0 01-11.782 1.464c-3.634.172-6.954.05-10.279-.08a16.861 16.861 0 01.571-33.709h.561c2.5-.007 5.016-.017 7.2-.225a30.352 30.352 0 005.525-.869 8.176 8.176 0 01.785-.267c.107-.092.331-.151.367-.192-.035-.038.1-.048-.108.007a1 1 0 00-.188.125 1.345 1.345 0 00-.349.237c-.073.095-.259.206-.394.341-.152.13-.225.3-.395.44a2.361 2.361 0 00-.375.514 2.9 2.9 0 00-.323.493c-.375.626-.449 1.175-.494 1.095a.619.619 0 01-.016-.24l-.026-.344a3.51 3.51 0 00-.027-.409c-.05-.355-.048-.643-.13-1.1l-.089-.635-.13-.719c-.349-1.952-.933-4.347-1.62-6.881-1.385-5.093-3.144-10.8-4.762-16.721l-.017-.06a18.235 18.235 0 0135.177-9.625c.06.2.13.486.179.7z" fill="url(#a)"/><path d="M45.864 222.248v-.035a.558.558 0 00.3-.036 2.055 2.055 0 00.642-.1 5.042 5.042 0 00.926-.264 9.109 9.109 0 001.054-.479 3.346 3.346 0 00.507-.331c.16-.11.321-.2.467-.319s.284-.267.4-.37a2.314 2.314 0 00.33-.314c.2-.278.325-.369.428-.545.37-.6.108-.408-.132.259a17.253 17.253 0 00-.751 3.1 58.492 58.492 0 00-.5 9.417c.055 3.458.285 7.089.665 10.791.725 7.4 1.94 15.028 3.335 22.67s3.061 15.348 4.836 23.048l.007.032a14.66 14.66 0 01-28.4 7.235c-2.216-7.937-4.322-15.938-6.21-24.085s-3.595-16.411-4.847-25.033c-.638-4.3-1.137-8.714-1.427-13.317a90.552 90.552 0 01.169-14.753 50.729 50.729 0 011.67-8.739 33.559 33.559 0 015.08-10.58 24.511 24.511 0 012.4-2.836q.686-.7 1.4-1.371c.487-.445 1.055-.877 1.6-1.3s1.1-.831 1.691-1.206 1.213-.72 1.834-1.056a24.907 24.907 0 013.83-1.668 29.218 29.218 0 013.852-1.014c1.243-.222 2.426-.335 3.649-.438a51.166 51.166 0 013.324 0c1 .075 2.009.173 3.01.293a.29.29 0 01.254.323v.011z" fill="#add1cb"/><path d="M80.965 134.057c-.2-.5-.308-.787-.308-.787a3.364 3.364 0 00.308.787z" fill="#3c1522"/><circle cx="40.066" cy="120.779" r="2.304" fill="#fff"/><path d="M99.952 180.582l-36.077 1.3S48.7 173.8 36.191 180.2c-23.42 7.413-22.391 48.449-22.391 48.449l23.472.89L51.6 307.856l83.473.577-7.173-93.025 5.882 21.5 38.24-1.482s-22.5-57.446-49.928-57.446c-13.717-.004-22.142 2.602-22.142 2.602z"/><path d="M133.776 215.408l-23.716-13.067 22.436 24.927 8.455 81.165-7.175-93.025z"/><path d="M54.986 158.878h21.467l-13.461 17.227-3.292-12.412s-1.176-4.319-4.714-4.815z"/><path d="M39.209 136.388a9.9 9.9 0 01-9.906 9.906" fill="none" stroke="#eb002d" stroke-miterlimit="10" stroke-width=".77"/><path d="M101.17 180.887l-1.729-8.451s-5.4 3.25-17.015 3.684c-16.83.628-18.853 0-20.38-2.167l1.829 7.931z" fill="#eb002d"/><path d="M116 232.719c1.634 7.985-8.966 11.274-8.966 11.274s-12.422-4.463-13.816-11.274l-3.364-16.441h22.782z"/><path fill="#ffac00" d="M107.979 223.735l-4.278-.597-2.634-3.761-1.08 3.768-4.029.611 3.61 2.925.144 4.139 3.312-1.96 8.132 5.279-5.577-7.468 2.4-2.936z"/><path d="M333.041 229.938c1.272 5.478 2.823 11.115 4.378 17.4.769 3.149 1.54 6.451 2.177 10.149a60.576 60.576 0 01.962 12.926c-.043.665-.1 1.35-.166 2.023s-.128 1.341-.267 2.1q-.184 1.1-.4 2.2c-.176.765-.4 1.568-.626 2.344l-.354 1.167-.47 1.227c-.334.818-.646 1.614-1.051 2.424a29.662 29.662 0 01-2.93 4.718 30.3 30.3 0 01-3.727 4.092 40.287 40.287 0 01-2.03 1.649l-1.042.78c-.344.239-.676.438-1.019.654q-1.022.633-2.066 1.226c-.685.377-1.318.651-1.988.967-.65.29-1.352.628-1.97.851l-1.867.656a53.3 53.3 0 01-13.077 2.4l-2.9.154-2.766.026c-1.862.029-3.571-.083-5.362-.127a16.846 16.846 0 01-.043-33.681l1.176-.029c1.227-.03 2.538.017 3.693-.059l1.763-.081 1.622-.157a19.1 19.1 0 004.665-.98 1.9 1.9 0 01.267-.105c.094-.029.054-.064.092-.079.007-.018.078-.025.047-.025a.221.221 0 00-.136.043c-.024.014-.025.031-.061.051a.989.989 0 00-.157.076 1.431 1.431 0 00-.268.227 4.45 4.45 0 00-.726.712 5.3 5.3 0 00-.559.87 2.934 2.934 0 00-.184.334.977.977 0 00-.052.175.521.521 0 00-.056.075c-.076.346-.1.069-.076-.264a31.2 31.2 0 00-.731-5.073c-.475-2.239-1.159-4.8-1.929-7.491-1.547-5.39-3.425-11.336-5.127-17.564l-.013-.047a18.235 18.235 0 1135.18-9.611c.058.198.126.474.174.677z"/><path d="M95.265 88.252H80.838s-8.06 12.12 4.379 30.3l3.666 15.294h5.194l-3.32-13.851.964-1.269c3.041-4 9.527-4 14.487 0a13.6 13.6 0 014.737 7.244l.387 1.613a8.529 8.529 0 01-1.264 7.243l-6.713 8.831 1.937 8.079s18.85-12.362 10.685-36.069c-8.547-24.818-20.712-27.415-20.712-27.415z"/><path d="M151.206 148.287c43.627-9.6 33.191 13.729 48.238 23.408 37.077 23.85 46.281-12.366 46.281-12.366-32.727-3.654-18.266-33.415-20.36-44.388-2.636-13.817-21.423-26.721-47.044-10.158-7.554 4.883-14.2 2.16-19.248-2.357l-47.512 5.843z" fill="url(#b)"/><path d="M107.293 222.07a.127.127 0 00.134-.024 2.109 2.109 0 00.655-.04 8.8 8.8 0 003-.892 10.75 10.75 0 001.78-1.152c.272-.261.51-.425.738-.653a6.151 6.151 0 00.606-.7 3.75 3.75 0 00.429-.549c.126-.194.236-.433.3-.507a2.012 2.012 0 00.185-.368l.062-.183a.4.4 0 00.036-.064c.081-.28.02-.178-.056.027a3.825 3.825 0 01-.131.47q-.049.364-.117.729a29.467 29.467 0 00-.262 4.03 92.536 92.536 0 00.622 10.372c.4 3.68.92 7.462 1.55 11.3 1.233 7.663 2.775 15.474 4.409 23.3s3.411 15.69 5.233 23.558v.013a14.66 14.66 0 01-28.4 7.255c-2.213-7.913-4.383-15.858-6.451-23.891s-4.05-16.137-5.787-24.49a245.108 245.108 0 01-2.351-12.82 124.249 124.249 0 01-1.446-13.959 62.787 62.787 0 01.167-8.169l.255-2.3q.207-1.266.448-2.53a33.235 33.235 0 011.752-5.8l.314-.775c.12-.272.275-.576.415-.86q.434-.865.905-1.714a17.076 17.076 0 011.136-1.783q.637-.911 1.328-1.783c.509-.6 1.1-1.212 1.677-1.789a17.573 17.573 0 011.875-1.665 22.844 22.844 0 014.377-2.738 21.542 21.542 0 012.32-1.001c.75-.254 1.512-.485 2.278-.69.376-.1.786-.211 1.135-.277l1.041-.176c.7-.109 1.4-.2 2.1-.272 1.3-.1 2.47-.094 3.707-.075 1.057.072 2.117.172 3.171.3a16.865 16.865 0 11-5.137 33.336z" fill="url(#c)"/><path d="M158.71 149.922a17.508 17.508 0 01-7.5-1.635c-6.694-3.159-10.6-11.611-11.683-14.23a3.366 3.366 0 01-.309-.787s.1.289.309.787c1.61 3.058 7.6 3.63 7.6 3.63h6.735c5.916 0 9.561-4.8 8.143-10.71-1.418-5.915-7.363-10.71-13.279-10.71h-41.65c-7.549 0-15.136-6.119-16.946-13.668l-.2-.261c-.02.062-.043.123-.063.185l-9.727 26.736c-.567 1.534.987 3.5 2.792 3.541l3.85.076A3.564 3.564 0 0190 135.511l.341 1.42c.244 1.017 2.545 18.109 2.7 18.757a4.3 4.3 0 003.955 3.19h22.43a5.163 5.163 0 012.484.663c3.475 1.922 7.33 25.287 7.33 25.287l38.019.736s-6.727-25.572-8.549-35.642z" fill="#3c1522"/><path d="M139.523 134.057c-.2-.5-.309-.787-.309-.787a3.366 3.366 0 00.309.787z" fill="#3c1522"/><circle cx="146.641" cy="131.972" r="2.397" fill="#eb002d"/><circle cx="104.503" cy="120.779" r="2.304" fill="#fff"/><path d="M164.389 180.582l-36.077 1.3s-15.178-8.087-27.684-1.684c-23.42 7.413-22.393 48.449-22.393 48.449l11.141.89L83.5 259.6s7.438 11.166 15.012 14.6l17.52 33.654 83.474.577-7.176-93.025 5.881 21.5 38.241-1.482s-22.5-57.446-49.929-57.446c-13.709-.002-22.134 2.604-22.134 2.604z"/><g clip-path="url(#d)" fill="none" stroke="#fff" stroke-miterlimit="10" stroke-width="5.39"><path d="M26.02 171.101h249.033"/><path d="M28.44 182.926h249.033"/><path d="M30.86 194.751h249.032"/><path d="M33.28 206.576h249.032"/><path d="M35.699 218.401h249.033"/><path d="M38.119 230.226h249.033"/><path d="M40.539 242.052h249.032"/><path d="M42.959 253.877h249.032"/><path d="M45.378 265.702h249.033"/><path d="M47.798 277.527h249.033"/><path d="M50.218 289.352H299.25"/><path d="M52.638 301.177H301.67"/></g><path d="M192.333 215.408l-23.715-13.067 22.436 24.927 8.455 81.165-7.176-93.025z"/><path d="M89.376 229.539l6.861-23.541-11.426 23.242 4.565.299z"/><path d="M119.422 158.878h21.468l-13.462 17.227-3.293-12.412s-1.175-4.319-4.713-4.815z"/><path d="M103.645 136.388a9.9 9.9 0 01-9.905 9.906" fill="none" stroke="#eb002d" stroke-miterlimit="10" stroke-width=".77"/><path d="M107.068 116.266h41.65s7.259-.583 11.9 8.188c0 0-4.5-5.309-11.429-5.309h-41.546s-6.639.231-12.444-7.617c.001 0 4.055 4.398 11.869 4.738z"/><path d="M107.068 116.266h41.65c5.916 0 11.86 4.8 13.279 10.71 1.418 5.916-2.227 10.711-8.143 10.711h-6.735s-5.986-.572-7.6-3.63c1.078 2.619 4.988 11.075 11.683 14.23a19.014 19.014 0 0011.944 1.225 7.92 7.92 0 005.678-4.151c.039-.077.073-.149.1-.214 1.994-4.45 4.818-14.332 6.768-23.86 1.727-8.439-.109-16.879-3.553-22.371-11.093-17.685-29.64-19.076-50.224-18.888-16.066.146-27.816 9.385-32 22.309l.2.261c1.817 7.549 9.404 13.668 16.953 13.668z" fill="#ffac00"/><path d="M111.106 86.217a8.568 8.568 0 00-.983 4.487 3.211 3.211 0 002.133 2.582 13.424 13.424 0 004.042.955 39.655 39.655 0 004.551.213l9.635-.164c3.267-.037 6.553-.055 9.858.025s6.629.258 9.967.609a58.943 58.943 0 0110.022 1.865 28.752 28.752 0 014.916 1.883 15.1 15.1 0 014.427 3.206 8.553 8.553 0 012.331 4.993 9.923 9.923 0 01-.914 5.039 11.3 11.3 0 00-.6-4.688 7.24 7.24 0 00-2.68-3.267c-2.36-1.6-5.414-2.246-8.456-2.71a152.986 152.986 0 00-19.091-.815c-3.242-.008-6.5-.013-9.783-.057a97.954 97.954 0 01-10-.515 29.665 29.665 0 01-5.174-1.075 14.362 14.362 0 01-5.057-2.569 6.656 6.656 0 01-1.924-2.541 5.216 5.216 0 01-.256-3.139 7.852 7.852 0 013.036-4.317z" fill="url(#e)"/><path d="M165.607 180.887l-1.73-8.451s-5.4 3.25-17.015 3.684c-16.83.628-18.852 0-20.379-2.167l1.829 7.931z" fill="#eb002d"/><path d="M174.561 232.719c1.634 7.985-8.967 11.274-8.967 11.274s-12.422-4.463-13.816-11.274l-3.364-16.441H171.2z"/><path fill="#ffac00" d="M166.537 223.735l-4.278-.597-2.634-3.761-1.081 3.768-4.029.611 3.61 2.925.145 4.139 3.311-1.96 8.132 5.279-5.577-7.468 2.401-2.936z"/><path d="M272.719 98.916c-11.092-17.685-32.092-8.568-52.676-8.381-16.066.147-25.363-1.122-29.55 11.8-.02.062-.043.123-.063.185l-9.716 26.737c-.566 1.534.988 3.5 2.793 3.54l3.85.077a3.564 3.564 0 013.214 2.635l.34 1.42c.244 1.017 2.545 18.109 2.7 18.757a4.3 4.3 0 003.954 3.19H220a5.169 5.169 0 012.484.663c3.474 1.922 7.329 25.286 7.329 25.286l38.02.737s-6.715-25.539-8.542-35.622a21.394 21.394 0 004.437-.43 7.924 7.924 0 005.678-4.151c.038-.077.073-.149.1-.214 1.993-4.45 4.817-14.332 6.767-23.86 1.727-8.437-.109-16.877-3.554-22.369z"/><path d="M254.869 105.033s-17.478 1.567-47.339 1.567-41.256-22.056-41.256-22.056h88.539a7.785 7.785 0 017.151 5.769z" fill="#eb002d"/><path d="M210.875 222.248v-.035a.558.558 0 00.3-.036 2.061 2.061 0 00.643-.1 5.055 5.055 0 00.925-.264 9.109 9.109 0 001.054-.479 3.346 3.346 0 00.507-.331c.161-.11.321-.2.467-.319s.284-.267.4-.37a2.314 2.314 0 00.329-.314c.2-.278.325-.369.429-.545.369-.6.107-.408-.133.259a17.253 17.253 0 00-.751 3.1 58.608 58.608 0 00-.5 9.417c.055 3.458.284 7.089.665 10.791.725 7.4 1.94 15.028 3.335 22.67s3.061 15.348 4.836 23.048l.008.032a14.66 14.66 0 01-28.406 7.235c-2.216-7.937-4.322-15.938-6.21-24.085s-3.595-16.411-4.846-25.033a157.26 157.26 0 01-1.428-13.317 90.552 90.552 0 01.169-14.753 50.817 50.817 0 011.669-8.739 33.569 33.569 0 015.089-10.584 24.5 24.5 0 012.4-2.836q.685-.7 1.4-1.371c.487-.445 1.055-.877 1.6-1.3s1.1-.831 1.691-1.206 1.213-.72 1.835-1.056a24.781 24.781 0 013.83-1.668 29.137 29.137 0 013.852-1.014c1.241-.222 2.425-.335 3.648-.438a51.166 51.166 0 013.324 0q1.506.112 3.01.293a.29.29 0 01.254.323v.011z"/><circle cx="205.077" cy="120.779" r="2.304" fill="#fff"/><path d="M267.264 179.231l-38.378 2.653S213.708 173.8 201.2 180.2c-23.42 7.413-22.393 48.449-22.393 48.449l23.472.89 14.329 78.317 83.473.577-8.68-76.268 2.261 6.331 43.365-3.074s-22.5-57.446-49.928-57.446c-13.711 0-19.835 1.255-19.835 1.255z" fill="#fff"/><path d="M220 158.878h21.467L228 176.105l-3.293-12.412s-1.172-4.319-4.707-4.815z"/><path d="M204.22 136.388a9.9 9.9 0 01-9.906 9.906" fill="none" stroke="#eb002d" stroke-miterlimit="10" stroke-width=".77"/><path d="M267.264 179.231l-2.812-6.795s-5.4 3.25-17.015 3.684c-16.83.628-18.853 0-20.38-2.167l1.829 7.931z" fill="#fff"/><path d="M262.54 89.322h-11.581s-6.469 9.728 3.515 24.32l2.943 12.276h4.169L258.92 114.8l.775-1.018c2.441-3.211 7.647-3.211 11.628 0a10.909 10.909 0 013.8 5.814l.311 1.3a6.847 6.847 0 01-1.014 5.814l-5.389 7.088 1.555 6.485s15.131-9.922 8.577-28.952C272.3 91.407 262.54 89.322 262.54 89.322z" fill="#ffac00"/><path d="M272.719 98.916c0 2.381-9.025 6.652-22.13 6.384-7.677-.157-11.71-20.593-25.407-20.593-17.98 0-21.4 0-29.954.267 0 0 11.764-21.321 35.035-21.663 36.373-.535 42.456 25.61 42.456 35.605z" fill="#eb002d"/><path fill="#ffac00" d="M275.102 221.613l-4.278-.597-2.634-3.761-1.08 3.768-4.029.61 3.61 2.926.144 4.139 3.312-1.96 8.132 5.279-5.577-7.469 2.4-2.935z"/><path d="M267.264 179.231s26.852 1.378 34.088 12.684 19.9 44.772 19.9 44.772l15.778-1.265s-14.878-39.214-35.225-52.1c-13.568-8.593-34.541-4.091-34.541-4.091z" fill="url(#f)"/><path d="M197.787 181.513s-23.517 18.542-23.969 38.441 4.07 47.486 6.332 57.888 4.974 30.753 4.974 30.753l14.385-.162-4.435-10.692-13.115-67.841-3.15-1.255.436-18.192z" opacity=".26" fill="url(#f)"/><path fill="#ffac00" d="M51.687 21.233L35.27 18.876 27.904 4.017 20.59 18.902 4.181 21.315l11.897 11.556-2.776 16.351 14.667-7.743 27.856 20.856L39.83 32.83l11.857-11.597z"/><path style="mix-blend-mode:overlay" fill="#add1cb" d="M45.557 308.433L38.701 51.109l102.25 257.324H45.557z"/><path style="mix-blend-mode:overlay" fill="#eb002d" d="M228.073 40.085l-4.661 247.045 114.58-143.402L228.073 40.085z"/><path style="mix-blend-mode:overlay" fill="#ffac00" d="M45.557 308.433L195.228 84.974l4.281 223.459H45.557z"/></g></svg>