<svg class="yellow-ribbon" xmlns="http://www.w3.org/2000/svg" viewBox="0 0 1440.1 428.87"><path d="M1263.9 428.87a33.83 33.83 0 01-19.1-5.9c-6.7-4.6-17.6-15.7-14.3-37.8.9-6.3 3-13.8 6.5-23.4 5.6-15.3 14.3-34.8 24.5-57.3 17.3-38.4 38.7-86.2 51.9-130.2 17-56.7 13.1-83.3 6.9-95.6-3-5.9-8.6-13.2-25.1-16.7-30.5-6.5-88.3 1.5-171.9 23.8-80.6 21.5-178.8 54.2-282.8 88.8-164.9 54.9-351.9 117.1-520.6 151.9-93 19.2-171.3 28.3-239.4 28a556.74 556.74 0 01-80.5-5.8v-60.8c24.7 4.2 51.1 6.4 80.8 6.6 63.9.3 138.1-8.4 227-26.7 165.3-34.1 350.4-95.7 513.8-150 223.1-74.2 399.3-132.9 486.2-114.3 38.6 8.2 57.2 30.8 66.1 48.3 16.5 32.6 15.6 78.4-2.9 140-12.5 41.8-31.2 85.2-47.8 122.2 16-15.3 34.7-33.8 56.6-55.8 20.1-20.2 40.4-38.7 60.3-55.4v80c-6 5.8-11.7 11.7-17.7 17.8-47.4 47.7-80.2 79-103.2 98.6-12.5 10.6-22 17.7-30 22.4-9.9 5.2-18.3 7.3-25.3 7.3z" fill="#f5b111"/></svg>