<svg id="Calque_1" data-name="Calque 1" xmlns="http://www.w3.org/2000/svg" viewBox="0 0 534 110"><path d="M169.8,78.3q-9,0-14.08-6.15t-5-18.13q0-12,5-18.39T169.8,29.2a16.61,16.61,0,0,1,16.32,10.34l-4.63,2.79a13.11,13.11,0,0,0-4.35-5.88,11.79,11.79,0,0,0-7.34-2.21,12.42,12.42,0,0,0-5.48,1.16,11.17,11.17,0,0,0-4.08,3.31,15.51,15.51,0,0,0-2.55,5.11,23.3,23.3,0,0,0-.88,6.66v7.09q0,7.38,3.4,11.54t9.59,4.16a12.11,12.11,0,0,0,7.61-2.35,13.52,13.52,0,0,0,4.49-6.22l4.56,2.86A18.26,18.26,0,0,1,180,75.44,17.71,17.71,0,0,1,169.8,78.3Z" style="fill:#363f45"/><path d="M194.75,27.16h5.44V48h.28a11.49,11.49,0,0,1,3.63-4.71,10.27,10.27,0,0,1,6.29-1.75,11,11,0,0,1,8.61,3.5q3.15,3.51,3.16,9.9v22.5h-5.44V55.88q0-9.47-8-9.47a12.28,12.28,0,0,0-3.16.41A9.15,9.15,0,0,0,202.85,48a6,6,0,0,0-1.94,2.08,5.89,5.89,0,0,0-.72,3V77.48h-5.44Z" style="fill:#363f45"/><path d="M258.88,77.48c-2,0-3.51-.54-4.39-1.63a8.08,8.08,0,0,1-1.66-4.08h-.34a9.16,9.16,0,0,1-3.81,4.9,11.83,11.83,0,0,1-6.33,1.63c-3.72,0-6.6-1-8.67-2.86a10,10,0,0,1-3.09-7.75,8.82,8.82,0,0,1,3.64-7.61q3.63-2.65,11.32-2.66h6.94V54a7.6,7.6,0,0,0-2.05-5.72q-2-2-6.25-2a9.45,9.45,0,0,0-5.34,1.43,11.68,11.68,0,0,0-3.57,3.81L232,48.45a12.31,12.31,0,0,1,4.55-4.86,14.35,14.35,0,0,1,7.89-2q6.39,0,9.93,3.12t3.53,8.69V72.66h4v4.82Zm-15.64-3.8A13.77,13.77,0,0,0,247,73.2a9.26,9.26,0,0,0,2.92-1.36,6.65,6.65,0,0,0,1.9-2,4.82,4.82,0,0,0,.69-2.52V61.5h-7.21c-3.13,0-5.41.46-6.84,1.36a4.4,4.4,0,0,0-2.14,4v1.43a4.74,4.74,0,0,0,1.87,4A8.18,8.18,0,0,0,243.24,73.68Z" style="fill:#363f45"/><path d="M283,78.3A15.82,15.82,0,0,1,276.49,77a13.89,13.89,0,0,1-5-3.71,17.44,17.44,0,0,1-3.23-5.78,25.25,25.25,0,0,1,0-15.13,17.49,17.49,0,0,1,3.23-5.81,13.89,13.89,0,0,1,5-3.71A15.82,15.82,0,0,1,283,41.58a15.53,15.53,0,0,1,6.42,1.29,14.25,14.25,0,0,1,5,3.71,17.05,17.05,0,0,1,3.27,5.81,23.41,23.41,0,0,1,1.15,7.55,23.25,23.25,0,0,1-1.15,7.58,17,17,0,0,1-3.27,5.78,14.25,14.25,0,0,1-5,3.71A15.53,15.53,0,0,1,283,78.3Zm0-4.83a9.86,9.86,0,0,0,7.21-2.72c1.85-1.81,2.78-4.58,2.78-8.29v-5c0-3.71-.93-6.48-2.78-8.29a10.92,10.92,0,0,0-14.42,0c-1.86,1.81-2.79,4.58-2.79,8.29v5c0,3.71.93,6.48,2.79,8.29A9.86,9.86,0,0,0,283,73.47Z" style="fill:#363f45"/><path d="M318.31,78.3a16.39,16.39,0,0,1-8.2-1.87,18.62,18.62,0,0,1-5.67-5l3.87-3.13a15.15,15.15,0,0,0,4.56,4,11.86,11.86,0,0,0,5.85,1.4,8.63,8.63,0,0,0,5.4-1.5,5.43,5.43,0,0,0,.61-7.72q-1.32-1.45-4.79-2l-2.79-.41A23.27,23.27,0,0,1,312.66,61a12.4,12.4,0,0,1-3.57-1.9,8.19,8.19,0,0,1-2.38-3,9.73,9.73,0,0,1-.85-4.21,10.11,10.11,0,0,1,1-4.53,9.14,9.14,0,0,1,2.61-3.23,11.45,11.45,0,0,1,4-1.93,18.43,18.43,0,0,1,5-.65,15.47,15.47,0,0,1,7.17,1.5,16,16,0,0,1,5.07,4.14L327,50.49a10.69,10.69,0,0,0-3.4-3A11,11,0,0,0,318,46.2a7.78,7.78,0,0,0-5.14,1.47,4.93,4.93,0,0,0-1.73,4,4.17,4.17,0,0,0,1.73,3.74,13,13,0,0,0,5,1.7l2.72.41q5.85.88,8.3,3.37a8.85,8.85,0,0,1,2.45,6.49,10,10,0,0,1-3.47,8Q324.37,78.31,318.31,78.3Z" style="fill:#363f45"/><path d="M353,35.05V77.48h-5.71V35.05h-15.1V30h35.9v5Z" style="fill:#feb41c"/><path d="M384.2,78.3A15.82,15.82,0,0,1,377.74,77a14,14,0,0,1-5-3.71,17.44,17.44,0,0,1-3.23-5.78,23.25,23.25,0,0,1-1.15-7.58,23.41,23.41,0,0,1,1.15-7.55,17.49,17.49,0,0,1,3.23-5.81,14,14,0,0,1,5-3.71,15.82,15.82,0,0,1,6.46-1.29,15.61,15.61,0,0,1,6.43,1.29,14.43,14.43,0,0,1,5,3.71,17.2,17.2,0,0,1,3.26,5.81,25.25,25.25,0,0,1,0,15.13,17.15,17.15,0,0,1-3.26,5.78,14.43,14.43,0,0,1-5,3.71A15.61,15.61,0,0,1,384.2,78.3Zm0-4.83a9.86,9.86,0,0,0,7.21-2.72c1.86-1.81,2.79-4.58,2.79-8.29v-5c0-3.71-.93-6.48-2.79-8.29a10.92,10.92,0,0,0-14.42,0c-1.86,1.81-2.78,4.58-2.78,8.29v5c0,3.71.92,6.48,2.78,8.29A9.86,9.86,0,0,0,384.2,73.47Z" style="fill:#feb41c"/><path d="M422.28,78.3A15.82,15.82,0,0,1,415.82,77a14,14,0,0,1-5-3.71,17.44,17.44,0,0,1-3.23-5.78,23.25,23.25,0,0,1-1.15-7.58,23.41,23.41,0,0,1,1.15-7.55,17.49,17.49,0,0,1,3.23-5.81,14,14,0,0,1,5-3.71,15.82,15.82,0,0,1,6.46-1.29,15.61,15.61,0,0,1,6.43,1.29,14.43,14.43,0,0,1,5,3.71A17.2,17.2,0,0,1,437,52.39a23.41,23.41,0,0,1,1.15,7.55A23.25,23.25,0,0,1,437,67.52a17.15,17.15,0,0,1-3.26,5.78,14.43,14.43,0,0,1-5,3.71A15.61,15.61,0,0,1,422.28,78.3Zm0-4.83a9.86,9.86,0,0,0,7.21-2.72c1.86-1.81,2.79-4.58,2.79-8.29v-5c0-3.71-.93-6.48-2.79-8.29a10.92,10.92,0,0,0-14.42,0c-1.86,1.81-2.78,4.58-2.78,8.29v5c0,3.71.92,6.48,2.78,8.29A9.86,9.86,0,0,0,422.28,73.47Z" style="fill:#feb41c"/><path d="M452.88,77.48a5.6,5.6,0,0,1-4.32-1.59,5.8,5.8,0,0,1-1.46-4V27.16h5.44v45.5h5.17v4.82Z" style="fill:#feb41c"/><path d="M465.6,27.16H471v31.9h.27l5.37-6,9.93-10.67h6.59l-13,13.87L494.5,77.48h-6.6L476.27,59.6,471,65V77.48H465.6Z" style="fill:#feb41c"/><path d="M504.15,34.17a3.31,3.31,0,0,1-2.55-.85,3.14,3.14,0,0,1-.78-2.21v-.89A3.16,3.16,0,0,1,501.6,28a4.25,4.25,0,0,1,5.1,0,3.16,3.16,0,0,1,.78,2.21v.89a3.14,3.14,0,0,1-.78,2.21A3.31,3.31,0,0,1,504.15,34.17Zm-2.72,8.23h5.44V77.48h-5.44Z" style="fill:#feb41c"/><path d="M526.18,77.48a5.56,5.56,0,0,1-4.31-1.59,5.9,5.9,0,0,1-1.47-4.17V47.22h-5.78V42.4h3.27a3.17,3.17,0,0,0,2.41-.72A3.69,3.69,0,0,0,521,39.2V32.67h4.89V42.4h7.69v4.82h-7.69V72.66H533v4.82Z" style="fill:#feb41c"/><path d="M110.92,14.13a77.77,77.77,0,0,1,18.52,75.55L54.75,68Z" style="fill:#feb41c"/><path d="M73.65,3A67.5,67.5,0,0,1,103.6,21.15L54.75,68,38.64,2.25A67.45,67.45,0,0,1,73.65,3Z" style="fill:#5e7c88"/><path d="M41.06,12.11,54.75,68-.45,51.89A57.47,57.47,0,0,1,41.06,12.11Z" style="fill:#4b5f6d"/><path d="M9.29,54.73,54.75,68,20.57,100.71A47.33,47.33,0,0,1,9.29,54.73Z" style="fill:#363f45"/><path d="M54.75,68l8.86,36.14A37.27,37.27,0,0,1,27.89,93.7Z" style="fill:#24221f"/></svg>