<svg data-name="Calque 1" xmlns="http://www.w3.org/2000/svg" viewBox="0 0 300 300"><path d="M249.52,64.37a172.47,172.47,0,0,1,41.07,167.57l-165.65-48.2Z" style="fill:#feb41c"/><path d="M166.85,39.7a149.48,149.48,0,0,1,66.43,40.23L124.94,183.74,89.2,38A149.36,149.36,0,0,1,166.85,39.7Z" style="fill:#5e7c88"/><path d="M94.57,59.89l30.37,123.85L2.5,148.12A127.43,127.43,0,0,1,94.57,59.89Z" style="fill:#4b5f6d"/><path d="M24.11,154.41l100.83,29.33L49.11,256.39A104.91,104.91,0,0,1,24.11,154.41Z" style="fill:#363f45"/><path d="M124.94,183.74l19.64,80.15c-27,7.32-60.35-2.38-79.22-23Z" style="fill:#24221f"/></svg>