<svg xmlns="http://www.w3.org/2000/svg" viewBox="0 0 33 32"><path d="M16.593 0C7.467 0 0 7.348 0 16.356 0 23.704 4.741 29.749 11.378 32c.83.119 1.185-.356 1.185-.83v-2.844c-4.622.948-5.57-2.252-5.57-2.252-.711-1.896-1.896-2.37-1.896-2.37-1.541-1.067.119-.948.119-.948 1.659.119 2.489 1.659 2.489 1.659 1.422 2.489 3.911 1.778 4.859 1.422.119-1.067.593-1.778 1.067-2.252-3.674-.356-7.585-1.778-7.585-8.059 0-1.778.593-3.2 1.659-4.385-.119-.356-.711-2.133.119-4.385 0 0 1.422-.474 4.622 1.659 1.304-.356 2.726-.593 4.148-.593s2.844.237 4.148.593c3.2-2.133 4.504-1.659 4.504-1.659.948 2.252.356 3.911.119 4.385 1.067 1.185 1.659 2.607 1.659 4.385 0 6.281-3.911 7.704-7.585 8.059.593.474 1.185 1.541 1.185 3.081v4.504c0 .474.356.948 1.185.83 6.637-2.252 11.378-8.296 11.378-15.644C33.187 7.349 25.72 0 16.594 0z"/></svg>