<svg version="1.1" xmlns="http://www.w3.org/2000/svg" viewBox="0 0 33 32"><path fill="#093e36" d="M16.593 0c-9.126 0-16.593 7.348-16.593 16.356 0 7.348 4.741 13.393 11.378 15.644 0.83 0.119 1.185-0.356 1.185-0.83 0-0.356 0-1.422 0-2.844-4.622 0.948-5.57-2.252-5.57-2.252-0.711-1.896-1.896-2.37-1.896-2.37-1.541-1.067 0.119-0.948 0.119-0.948 1.659 0.119 2.489 1.659 2.489 1.659 1.422 2.489 3.911 1.778 4.859 1.422 0.119-1.067 0.593-1.778 1.067-2.252-3.674-0.356-7.585-1.778-7.585-8.059 0-1.778 0.593-3.2 1.659-4.385-0.119-0.356-0.711-2.133 0.119-4.385 0 0 1.422-0.474 4.622 1.659 1.304-0.356 2.726-0.593 4.148-0.593s2.844 0.237 4.148 0.593c3.2-2.133 4.504-1.659 4.504-1.659 0.948 2.252 0.356 3.911 0.119 4.385 1.067 1.185 1.659 2.607 1.659 4.385 0 6.281-3.911 7.704-7.585 8.059 0.593 0.474 1.185 1.541 1.185 3.081 0 2.133 0 3.911 0 4.504 0 0.474 0.356 0.948 1.185 0.83 6.637-2.252 11.378-8.296 11.378-15.644 0-9.007-7.467-16.356-16.593-16.356z"></path></svg>