<svg class="gitlab" xmlns="http://www.w3.org/2000/svg" viewBox="0 0 34.6 32"><path d="M17.6 31.94zm-.16 0zM2 12.25zM17.31 32zm.44-.14zm-.68.11zm.15 0zm-.22-.04zm15.66-19.68zM17.13 32zm.41 0z" fill="#093e36"/><path d="M16.91 31.9h-.07zm15.75-19.65zm-15 19.67zM2 12.25zM17 32zm.39 0zm-.61-.15l-.07-.07zm.88.06h-.08z" fill="#093e36"/><path d="M17.13 32zm.74-.21l-.08.07zm-.39.21z" fill="#093e36"/><path d="M34.5 17.93L29 1a1.44 1.44 0 00-2.74 0l-3.48 10.68h-11L8.35 1A1.43 1.43 0 007 0a1.45 1.45 0 00-1.4 1L2 12.25.1 17.93a2.07 2.07 0 00.75 2.31l16.08 11.67H17.63l16-11.61a2.06 2.06 0 00.75-2.32zM27.63 2l3.13 9.65H24.5zm2.58 11.28L19.51 27 24 13.32zM15.1 27L4.4 13.32h6.24L15.1 27zM7 2l3.13 9.64H3.85zM1.81 18.92a.44.44 0 01-.16-.49L3 14.21l10.1 12.92zm15 12.9l.08.07zm.51-3.27l-4.96-15.23h9.89L17.3 28.55zm.54 3.25l.08-.07zm15-12.88l-11.28 8.2 10-12.91L33 18.43a.43.43 0 01-.21.49z" fill="#093e36"/></svg>