<svg xmlns="http://www.w3.org/2000/svg" viewBox="0 0 32 32"><path d="M23.791 5.704c-.417 0-.835.139-1.113.417-.417.417-.557.835-.557 1.252s.139.835.417 1.113c.278.278.696.417 1.113.417s.835-.139 1.113-.417c.278-.278.417-.696.417-1.113s-.139-.835-.417-1.113c-.139-.417-.557-.557-.974-.557z"/><path d="M22.539 0H8.626C3.896 0 0 3.896 0 8.626v13.913c0 4.73 3.896 8.626 8.626 8.626h13.913c4.73 0 8.626-3.896 8.626-8.626V8.626c0-4.73-3.896-8.626-8.626-8.626zm5.844 22.539c0 3.2-2.643 5.843-5.843 5.843H8.627c-3.2 0-5.843-2.643-5.843-5.843V8.626c0-3.2 2.643-5.843 5.843-5.843H22.54c3.2 0 5.843 2.643 5.843 5.843v13.913z"/><path d="M16.278 8.348c-4.313 0-7.93 3.617-7.93 7.93 0 4.452 3.617 7.93 7.93 7.93s7.93-3.617 7.93-7.93c.139-4.313-3.478-7.93-7.93-7.93zm0 13.217a5.284 5.284 0 01-5.287-5.287c.139-2.783 2.504-5.148 5.287-5.148s5.287 2.365 5.287 5.287c0 2.783-2.365 5.148-5.287 5.148z"/></svg>