<svg xmlns="http://www.w3.org/2000/svg" viewBox="0 0 512 512"><path d="M459.2 404.6c-1.2-9.8-16.7-20.3-24.8-28-4.5-4.4-25.5-20.3-26.7-26.3-1.2-5.8 8.5-18.9 11.7-25.4 4.5-9.4 7.7-20.8 9.9-28.7 16.5-58.1 18.2-137.9-5.5-185.7-9-18.1-33.9-43.1-49.6-54.9-36.9-27.9-105.1-31-149.5-14.6-12.4 4.6-24.4 8.6-35.3 15-29.1 17.1-60 28.6-68.7 62.9-21.3 9.5-27.7 36.7-26.6 68.4.2 6.2 3.6 13.9 2.4 19.7-.6 2.9-4.6 6.7-5.4 8.6-10.2 24.4-2 56.3 9.8 73.6 7.1 10.5 18.9 19.7 34.5 22.2.6 9.3 2.9 17.3 7.2 26.7 2.7 6 12.9 16.7 9.1 24.4-1.9 3.9-18.5 12.1-24 15.5-18.5 11-32 17.8-49.1 30.2-11.1 7.9-28.4 9-25.7 27.3 1.8 12.4 8.9 27.8 12.9 40.3.6 1.8 1.2 3.6 1.8 5.3h371c4.3-13.5 8.5-27.2 12.8-41.5 3.1-10.1 9.1-24.5 7.8-35zM212 60.6c1.6-.4 3 .6 4.3 2.1-.2 4.6-4.7 4.5-7.8 6-4.7 5.9-11.8 8.6-17.6 15.1-6 6.6-12.7 24.4-20.6 26.4-4 1-8.5-.7-12-.4-9.1.6-15.6 5.3-24.9 6.6 12-26.4 49.4-47.5 78.6-55.8zm-92.2 82.3c11.9-13.1 28.2-21.2 48.2-22.8 10.3 26.1-7.4 57.1-.8 85.8 2 8.7 9 22.3-2.1 22.6.3-24.9-30.6-40.7-53.9-26-1.6-18.9-4.3-45.5 8.6-59.6zm32.3 176c-.9-3.6-2.4-11.3-2-13.3 1.4-7.6 15-11 9.7-21.7-9.9-.1-12.1 9-21.2 9.9-23.5 2.3-40.1-31.1-39-51.3.9-17.1 15.5-33.6 35.3-31.5 14.1 1.6 18.8 16.9 21.5 30.5 8.1.4 19.8-.4 23.6-6.7-.5-15.4-7.7-27.8-7.2-41.9.9-26.6 15.4-50.6 4.2-76.8 12-27.2 47-48.6 73.1-61.5 32.2-16.1 83.4-3.3 113.7 13.9 17.3 9.8 30.2 28.7 42.5 44.6-17.1-5.1-31.7 3.7-29.1 17.8 14.3-13.1 38.9-.2 46.2 14.4 6.9 13.9 6.9 34.6 7.9 55.2 2.5 50.1-9.1 101.9-34.4 138.1-6.8 9.7-12.4 20.2-21.9 26.9-22.9 16-57.5 30.5-87.2 20.6-39.3-13.2-57.1-39.4-78.7-69.3.6 16.4 12.1 30 23.6 42.6 9.9 11 22 23.4 34.9 28.5-10.8-2.5-27.3-3.3-31.8 6.3-25.1-1.7-48.4-4.2-60.4-21.3-9.5-13.6-19-36.4-23.3-54zM347.3 428c3.6-2.6 9.8-2.5 15.3-3.2-4.7-2.4-11.4-3.3-17-1.9-.1-3.7-1.8-6-2.8-9 9.3-3.3 31.2-25.1 43.6-17.8 5.9 3.4 8.4 23 8.9 32.5.4 7.9-.7 15.8-4 20-16.5-.5-31.5-2.5-44.6-6.2.8-5.3-.8-10.5.6-14.4zm-15.2-17.6c-14.8.7-22.9-1.1-33.7-9.5.2-.7 1.2-.4 1.3-1.2 15.8 7 35.9-2.9 51.9-4.3-6.9 4.5-12.8 10.2-19.5 15zm-10.6 29.2c-1.4-8.3-3.1-10.5-2.5-17.8 22-14.6 26.2 25.2 2.5 17.8zm-91.9-23c-10.2-.6-42.3-12.3-33.8-20.8 8.3 5.7 24.2 4.3 36.3 6.4.7 3.8-2.5 8.9-2.5 14.4zM81.7 468c-3.8-11.2-8.1-22.1-13-32.4 27.1-20.9 57.4-43 89.8-55.8 2.5-1 20.4 22.3 23 24.3 14.5 10.3 32.5 18.5 49.4 26.5 1.1 7.7 3.4 17.8 7.6 31.2.6 2 1.2 4.1 1.9 6.3L81.7 468zm211.5 5h-.7c.3-.2.4-.4.7-.4v.4zm6.6-5c1.8-1.2 3.8-2.5 5.6-3.8 1 1.2 1.9 2.5 2.8 3.8h-8.4zm13.3-21.7c-9.5 6.4-18.1 16.1-29.3 22.2-5.3 2.9-23.7 10.3-29.4 9-3.2-.7-3.4-4.7-4.7-8.4-2.7-7.9-8.9-20.6-9.5-32.5-.7-15.1-2.2-40.4 14.1-37.3 13.1 2.5 28.4 8.5 38.6 14.2 6.2 3.4 9.8 7.6 19.3 8.4-.1 1.2-.1 2.5-.2 3.8-5.2 3.4-13.5 3.3-19.2 6.2 8.4.4 14.9 2.4 20.7 5.2-.2 2.8-.4 6-.4 9.2zM360 468h-12.3c-.1-2.8-2.5-5.1-5.4-5.1-2.9 0-5.2 2.3-5.4 5.1h-15.3c-2.5-3.9-5-7.6-7.8-11 1.8-1.9 3.5-4.1 5.3-6.1 7.9 3.3 13-4.3 19.1-3.7 6.9.7 12.5 10.3 22.3 9.7L360 468zm7.7 0c.2-3.5.4-6.9.5-10.1 13.7-6.4 25.5 1.1 31.4 10.1h-31.9zm73.3-32.5c-2 9.8-5.1 21.1-8.7 32.6-.2-.1-.4-.1-.5-.1h-24.5c.5-1 1.1-1.9 1.7-2.9-2.3-5.4-7.9-7.6-9.6-13.6 10.6-20 5.7-82.1-21.3-69 3.8-5.5 13.7-10.1 18.3-17 11.4 9.1 18.3 17.8 29.2 27.6 6 5.3 17.6 11.7 18.8 20.3.6 4.8-2.4 16.6-3.4 22.1zM226.3 145.7c4.7-13.1 23.9-30.5 39.6-28.1 6.8 1.1 15.8 7.2 10.7 15.6-26.5-6.2-39.7 11.1-47.8 29.1-7.2-1.8-4.4-11.6-2.5-16.6zm161.8 55.5c7.2-3.2 19.7-.6 26-4.7-3.7-10.1-9.1-18.8-8.2-33.1.4 0 .9 0 1.2.1 6 12.5 11.2 25.7 18.8 36.7-4.9 11.8-38.2 22.2-37.8 1zm-85.1 2.3c-6-9.6-16.7-28.6-12.7-39.8 5.7 10.5 7.6 21.5 15.6 29.3 3.6 3.5 10.7 7.9 7.2 17.8-.8 2.4-6.9 7.6-10.3 8.5-12.7 3.8-42.1.8-32.2-15 10.5.6 24.6 6.8 32.4-.8zm24 61.6c3.3 5.8 1.2 16.4 10.6 18.1 17.8 3 38.3-10.8 51.1-15.6 7.9-13.4-.7-18.2-7.8-26.8-14.6-17.6-34.1-39.4-33.4-65.7 5.9-4.3 6.4 6.5 7.2 8.5 7.6 17.8 26.7 40.6 40.7 55.8 3.4 3.8 9.1 7.4 9.7 9.8 1.8 7.2-4.7 15.8-4 20.7-19.1 12.2-40.3 25.6-71.6 22.5-6.4-5.9-9-18.8-2.5-27.3zM150.1 257c-6-3.4-7.4-18.5-14.4-18.8-10-.6-8.2 19.5-8.2 31.2-6.9-6.2-8.1-25.6-3.1-35.4-5.8-2.8-8.4 3.2-11.5 5.2 4.1-30 43.8-13.9 37.2 17.8zm263.4 25.3c-8.9 16.9-21.5 35.5-47.5 36-.5-5.5-1-13.7 0-17.1 19.9-1.8 32.2-11.9 47.5-18.9zm-124.8 10.9c16.6 8.7 47.1 9.7 69.7 9 1.2 4.9 1.1 11.1 1.2 17.1-29 1.5-63.2-5.7-70.9-26.1zm81.1 41.1c-1.5 3.8-4.7 8.2-8.6 9.8-10.6 4.3-40.1 7.6-54.9-.3-9.4-5-15.4-16.3-20.6-22.9-2.5-3.2-14.9-11.3-.2-11.3 11.6 28.7 51 25.5 84.3 24.7z" fill="#093e36"/></svg>