<svg xmlns="http://www.w3.org/2000/svg" viewBox="0 0 446 197"><path d="M389.2.9c-26.5 0-44.7 10.5-57.1 25.1-2.1-4.4-3.7-6.3-5.9-8.8C316 5.8 299.8.5 277.9.5c-21.4 0-39.2 6.7-51.5 17.2C220 7.3 204.7.3 186.2.3c-24.1 0-50.4 3.4-66 28.5-.4-9-1.2-13.8-6.3-19.2-6.1-6.5-16.1-8.3-25.9-8.3-17.7 0-31 7.8-40.7 23.6-13.9 22.3-47.7 95.5-47 131 .5 22.9 15.9 39.4 43.4 40.1 21.5.5 38.4-5.2 49.1-16.1 9.6 10.5 24.3 16.6 41.9 16.6 19.6 0 39.3-5.9 50.9-18.7 9.8 12 25.2 19 45 18.9 25.9-.1 48.7-12.4 63.6-31.3 8.2 22.2 28.8 31 51.4 31 49.5 0 71.3-34.1 89.4-87.9 4.1-12.1 9.5-32.4 10.4-49.4C447 30.9 435 .9 389.2.9zM59.7 136.3c25.6-4.5 32.1 4.8 31.3 13.4-2.4 25.7-26 31.4-46.4 30.9-14.8-.4-28.2-7.2-28.5-24.4-.7-30.1 30.1-99.9 44.6-123 6.7-11 14.8-16.4 27.8-16.4 12.3 0 15.4 6.3 15.2 13.9-.7 20.3-33.3 81.7-44 105.6zm83.4-23.7c-1.7 4.6-4.9 14.2-7.5 24.4 8.4-2.1 14.7-3.6 25.5-3.3 12.3.3 20.2 5.4 20.2 15.6 0 24.7-27.3 31.9-46.2 31.9-20.8 0-39-11.8-39-34.5 0-26.6 14.4-67 28-93.9 16.6-33 33.6-37.4 62.9-37.4 12.9 0 27.7 5.5 27.7 17.7 0 16.8-14.3 23.3-28.4 24.1-6 .3-15.3.7-20.9.3 0 0-4.7 7.2-9.7 20 26.2-3.7 37.3 2.3 32.9 17.4-6 20.3-23.7 21.6-45.5 17.7zM272 49c-7.1 0-11.7 4.5-15.2 9.3-7.6 10.7-24 53.4-26.6 70.9-1.8 12 3.4 14.5 9.1 14.5 9.1 0 19.3-9.6 22.8-25.5 0 0-17.3-.4-12.6-15.8 4.6-14.9 13.4-18.1 28-18.7 28.8-1.2 25.9 20.1 23.6 31.4-7.5 36.8-33.6 66.3-70.7 66.3-25.3 0-41.1-14-41.1-39.9 0-18.4 9.1-47.3 16.4-64.2 15.4-36 31.6-61.2 72.8-61.2 24.7 0 44.2 8.9 41.3 32-2.1 17-10.6 27-26 28.2-4.3.3-22-.1-16.1-16.8 2.1-6 3-10.5-5.7-10.5zm155.5 30.3c-4.4 21.7-14.1 47.3-24.8 66.4-17.3 31.2-38.4 35.6-56.8 35.3-18.4-.2-39.1-7-39.3-35.4-.1-20.4 8.7-49.1 16.1-68 13-34.2 26.3-62 68.3-61.5 49.1.7 40.3 44.3 36.5 63.2zM386 49.7c-4.2-.1-7.9.8-11.2 5.9-7.4 9.6-29.1 68.8-28.7 80.6.1 4.2 2.5 8 7.7 8 6 0 9.3-4.1 12.3-9.1 6.8-11.5 26-63.9 26.5-76.9.2-4-.5-8.5-6.6-8.5z" fill="#02271f" /></svg>