<svg xmlns="http://www.w3.org/2000/svg" viewBox="0 0 36 32"><path d="M1.891 10.036h7.127V32H1.891V10.036z"/><path d="M27.2 10.036c-3.927 0-5.673 2.036-6.691 3.491v-3.055h-7.418c.145 2.036 0 21.527 0 21.527h7.418V19.926c0-.582 0-1.309.291-1.745.582-1.309 1.745-2.618 3.782-2.618 2.618 0 3.782 2.036 3.782 4.8v11.636h7.418V19.635c-.145-6.545-3.782-9.6-8.582-9.6z"/><path d="M4.945 0C2.472 0 .727 1.455.727 3.491c0 1.891 1.6 3.491 4.073 3.491 2.473 0 4.073-1.6 4.073-3.491C9.018 1.455 7.418 0 4.946 0z"/></svg>