<svg xmlns="http://www.w3.org/2000/svg" viewBox="0 0 37 32"><path d="M36.419 4.56c-1.371.61-2.743.914-4.267 1.219 1.524-.914 2.743-2.438 3.2-4.114-1.371.914-3.048 1.524-4.724 1.829-1.371-1.371-3.2-2.286-5.333-2.286-4.114 0-7.314 3.352-7.314 7.467 0 .61 0 1.219.152 1.676C12.19 9.894 6.704 6.999 3.2 2.58c-.61 1.067-1.067 2.286-1.067 3.657 0 2.59 1.371 4.876 3.2 6.095-1.067 0-2.286-.305-3.2-.914v.152c0 3.657 2.59 6.552 5.943 7.314-.61.152-1.219.305-1.981.305-.457 0-.914 0-1.371-.152.914 2.895 3.657 5.029 6.857 5.181-2.438 1.981-5.638 3.2-9.143 3.2-.61 0-1.219 0-1.676-.152 3.2 2.133 7.162 3.352 11.276 3.352 13.562 0 20.876-11.276 20.876-21.029v-.914c1.371-1.219 2.59-2.59 3.505-4.114z"/></svg>